<?xml version="1.0" encoding="UTF-8" standalone="no"?>
<!DOCTYPE svg  PUBLIC '-//W3C//DTD SVG 1.1//EN'  'http://www.w3.org/Graphics/SVG/1.1/DTD/svg11.dtd'>
<svg xmlns="http://www.w3.org/2000/svg">
<defs>
<font id="BlockBerthold-ExtraCondensed" horiz-adv-x="396">
<font-face underline-position="-50" font-weight="400" descent="-200" panose-1="2 11 5 0 0 0 0 0 0 0" units-per-em="1000" unicode-range="U+0020-2122" font-stretch="expanded" bbox="-55 -208 910 921.03" x-height="554" underline-thickness="50" font-family="BlockBerthold" ascent="800" cap-height="706"/>
<missing-glyph horiz-adv-x="1000"/>
<glyph glyph-name=".notdef" horiz-adv-x="1000"/>
<glyph glyph-name=".null" horiz-adv-x="0"/>
<glyph glyph-name="nonmarkingreturn" horiz-adv-x="333"/>
<glyph glyph-name="space" horiz-adv-x="208" unicode=" "/>
<glyph glyph-name="exclam" horiz-adv-x="208" unicode="!" d="M24 148q0 11 7 18t14 7q2 0 5 -1h3q3 -2 19 -2h28l26 1h29q17 -1 21 -9t4 -20v-17q-1 -15 -1 -21v-22q0 -4 1 -27q1 -24 1 -29q0 -14 -8 -21t-19 -7h-6q-6 1 -7 1q-13 2 -40 2h-24q-18 -1 -26 -1q-19 0 -23 6t-4 17q0 2 1 7v7v13q1 22 1 40q0 23 -1 35v10q-1 11 -1 13z M38 398q-3 33 -6 93l-1 9q1 4 -1 32t-2 37q0 7 -1 29t-1 27q0 2 1 14v13t-1 15t-1 15q0 17 10 21t30 4q3 0 21 -1t21 -1q4 0 26 1q24 2 29 2q18 0 26 -7t8 -18q0 -4 -5 -60q-3 -30 -4 -37q-2 -23 -4 -74q-1 -34 -3 -55q0 -7 -1 -19t-6 -62q-5 -47 -7 -77t-2 -43 q-1 -7 -1 -20q-1 -12 -6 -20t-19 -9l-27 1h-29q-15 0 -24 2t-12 11q0 11 1 35v13q-1 22 -3 57t-6 72z"/>
<glyph glyph-name="quotedbl" horiz-adv-x="354" unicode='&quot;' d="M146 669l-53 -261h-31l-55 250q-1 7 -1 13t-1 10q-1 34 23 51t52 17q24 0 46 -15t22 -49q0 -9 -2 -16zM354 669l-53 -261h-31l-55 250q-1 7 -1 13t-1 10q-1 34 23 51t52 17q24 0 46 -15t22 -49q0 -9 -2 -16z"/>
<glyph glyph-name="dollar" horiz-adv-x="375" unicode="$" d="M162 776q0 43 22 43q6 0 16 -1l10 -1q12 0 18 -5t6 -17v-17q-1 -21 -1 -25v-7q1 -9 1 -11v-6l-1 -6q1 -5 3 -5h11q11 0 31 -2t28 -4q14 -5 18 -15t5 -22v-55l1 -14v-17q0 -11 -6 -21q-4 -7 -14 -11t-19 -4q-3 1 -5 1t-10 4q-5 3 -19 7t-28 4q-28 0 -37 -13t-9 -26 q0 -17 13 -35q6 -5 16 -16t12 -14q42 -46 68 -78t41 -60q15 -29 21 -59t7 -70q0 -44 -10 -72t-26 -51q-18 -24 -45 -42t-38 -21q-1 0 -2 -1q-4 -1 -5 -2q-2 -3 -2 -9v-41q0 -19 -1 -36t-5 -23q-4 -5 -10 -6t-35 -1q-13 1 -17 7t-4 13l1 24v26v9l-1 10q0 1 1 6t1 6q0 4 -7 5 h-1q-21 1 -37 3t-39 9q-29 7 -39 13t-10 24v19q1 28 1 34v17l-1 16q0 12 1 18q1 4 1 15t14 19t19 8q3 0 5 -1t9 -5l3 -2q9 -6 30 -14t36 -8q17 0 28 6t16 15q4 9 6 17t2 12q0 16 -6 26t-27 31q-42 44 -67 74t-40 57t-22 57t-7 68q-1 17 1 33t8 38t18 44t32 38q14 12 34 20 t29 9q6 1 7 2t2 7v58z"/>
<glyph glyph-name="percent" horiz-adv-x="708" unicode="%" d="M245 14q0 5 1 8l3 15q1 8 6 25q4 12 5 19q2 8 4 24q1 5 4 13q4 13 5 21q1 5 1 10q1 8 1 10l3 15q6 26 10 45t4 22q6 19 8 32q1 7 3 17t3 17q2 18 8 46t10 41q2 9 3 12q4 16 6 26t4 22q4 16 5 24q2 10 2 17q1 3 6 28q10 48 14 64q0 5 2 13t6 28q4 19 5 26t3 14l6 24v1 q1 6 4 10t10 4q6 -1 18 -2t14 -1q4 0 7 1h6q6 0 10 -5t4 -11t-4 -21t-12 -41q-3 -11 -4 -14q-4 -14 -8 -44l-2 -15q-5 -28 -9 -52t-14 -70l-2 -8q0 -1 -2 -11q-10 -52 -12 -58q-2 -8 -8 -26q-7 -18 -9 -27t-22 -124q-5 -28 -6 -32q-1 -11 -5 -33q-2 -9 -7 -33t-7 -33l-1 -5 q-5 -24 -9 -32t-13 -7l-7 1h-8q-2 0 -13 -1h-11q-9 0 -14 2t-5 9zM558 348q-8 0 -16 -8t-7 -21v-31q-1 -19 -1 -32q0 -4 1 -35q1 -33 1 -39q0 -5 -1 -24q-1 -24 -1 -26q0 -20 5 -32t21 -11q10 -1 18 7t9 24q-1 22 -1 42v139q0 24 -4 32q-8 15 -24 15zM434 265q0 57 6 85 t24 50t42 34t59 12q27 0 46 -7t30 -17t17 -20t10 -20v-1q5 -11 8 -21q4 -10 6 -28q2 -16 4 -44t1 -70v-26l-1 -27v-27q0 -33 -8 -61t-25 -50q-17 -21 -45 -31t-54 -9q-23 -1 -40 5t-29 14q-13 10 -23 23t-13 21q-5 10 -10 39t-5 73v103zM141 612q-7 0 -15 -6t-8 -26l1 -34 v-36l1 -36v-39v-20q-1 -16 -1 -23q1 -16 5 -28t21 -12q9 0 18 9t9 22q0 2 -1 11q-1 14 -1 15l1 25v27v50q-1 39 -1 56q0 21 -5 33t-24 12zM18 530q0 62 6 88t24 48q24 28 48 36t57 8q2 0 13 -2q8 -1 10 -1l5 -1q11 -2 13 -2t9 -4q20 -9 31 -22t22 -40q6 -14 8 -26t5 -36 q3 -23 3 -61v-114q0 -63 -28 -103q-16 -24 -44 -36t-62 -11q-37 0 -64 15t-40 46q-9 22 -13 57t-4 62l1 25v28v46z"/>
<glyph glyph-name="ampersand" horiz-adv-x="500" unicode="&amp;" d="M160 210q0 -26 18 -48t36 -22q13 0 20 4t11 11l-60 114q-13 -16 -19 -29t-6 -30zM212 550q0 -14 6 -30t18 -33q16 15 28 31t12 35q0 14 -8 24t-26 10q-16 1 -23 -11t-7 -26zM351 430q-9 -12 -27 -32t-29 -31q10 -13 24 -38t26 -52q7 10 11 21t4 27v10l-1 9q1 9 7 17 t14 10q6 1 28 1t45 1q17 1 29 -5t11 -25q0 -2 -3 -24t-4 -27q-7 -49 -21 -84q-5 -16 -15 -36t-17 -26l-1 -1q-6 -6 -7 -8t-1 -5q0 -5 6 -13q9 -13 28 -49q12 -21 17 -30q7 -10 7 -19q0 -15 -11 -19t-27 -4q-3 0 -24 1t-25 1h-25q-2 -2 -9 -2h-11q-6 0 -14 6t-12 12l-2 3 q-1 3 -3 3q-1 0 -8 -6q-4 -2 -5 -3q-20 -11 -40 -17t-52 -6q-30 0 -52 4t-39 12q-13 4 -25 12t-28 25q-32 35 -45 76t-13 97q0 51 16 87q9 23 30 49t40 42q25 20 25 26q1 3 -1 6l-8 12q-2 2 -4 5q-12 21 -22 43t-9 50q-1 18 5 46t19 49q21 33 57 53t73 21q17 0 45 -4t51 -17 q9 -6 20 -14t23 -23t20 -37t7 -50q0 -42 -12 -70t-36 -60z"/>
<glyph glyph-name="quotesingle" horiz-adv-x="167" unicode="&apos;" d="M154 669l-53 -261h-31l-55 250q-1 7 -1 13t-1 10q-1 34 23 51t52 17q24 0 46 -15t22 -49q0 -9 -2 -16z"/>
<glyph glyph-name="parenleft" horiz-adv-x="271" unicode="(" d="M99 625q1 2 3 4q13 19 28 35t39 29q15 7 35 13t37 6q13 0 16 -5t3 -16l1 -55v-60q0 -15 -2 -19t-13 -13q-22 -16 -34 -48q-8 -20 -13 -52t-6 -58q0 -26 -1 -40q0 -5 -1 -24q-1 -25 -1 -27q0 -57 4 -93t10 -58t16 -33q10 -12 24 -22q10 -9 13 -15t3 -22v-15q-1 -12 -1 -18 l1 -21v-20v-12l-1 -11l1 -8v-8q0 -18 -17 -18h-25q-11 -1 -30 7t-41 24t-42 40q-20 26 -33 61l-9 27q-6 17 -6 18q-5 15 -7 22t-4 18q-8 32 -12 75t-4 115q0 106 21 180t48 117z"/>
<glyph glyph-name="parenright" horiz-adv-x="271" unicode=")" d="M9 693q0 18 16 18l13 1h13q15 0 37 -10t38 -23q28 -23 46 -49t29 -62q3 -10 11 -34q1 0 2 -4q3 -8 7 -26q11 -52 15 -96t3 -105q1 -42 -3 -85t-18 -93q-6 -24 -16 -53t-20 -43q-16 -27 -26 -41t-28 -29q-30 -25 -55 -31t-49 -7q-10 -1 -12 5t-3 24l-1 32q-1 71 -1 76 q0 11 2 15t10 12q17 15 25 25t13 27q12 33 15 61t4 72q1 8 2 34t1 34q1 54 -3 90t-10 58t-16 34q-10 13 -23 22q-9 7 -13 13t-4 20v38q-1 28 -1 40l1 12v11v9z"/>
<glyph glyph-name="asterisk" horiz-adv-x="292" unicode="*" d="M55 565v1l-5 2q-5 2 -13 7l-10 5q-19 10 -23 12t-4 5t2 5t7 10q6 8 17 28t14 28q1 7 5 7q5 0 9 -3t7 -6q13 -10 25 -18t14 -9q3 0 3 6q1 4 -1 18t-3 24l-1 9q0 7 2 9t5 2h4q9 -2 20 -2h57q6 0 6 -7q0 -3 -2 -13v-15l-1 -15q0 -12 4 -12q3 1 7 5l4 3l6 4q3 1 4 2t8 6 l14 10t8 5l2 -2q2 -2 8 -11q0 -1 1 -3q16 -30 31 -53l2 -3q3 -4 3 -7q0 -5 -5 -8t-14 -6q-10 -4 -21 -11q-1 -1 -6 -3q-12 -6 -12 -7q0 -2 8 -6t22 -9q8 -3 10 -4l4 -2l6 -3q9 -3 9 -7t-5 -10l-1 -1q0 -1 -7 -11q-7 -11 -9 -15t-3 -5q-3 -4 -8 -15q-4 -7 -5 -9 q-4 -11 -6 -13t-4 -3q-3 1 -12 7t-13 10l-10 7l-11 6q-4 4 -6 4t-2 -3t-1 -8q0 -1 1 -14q2 -15 2 -18q0 -1 1 -7t1 -7q0 -8 -7 -8l-5 1h-6l-16 1h-18q-2 0 -21 -1q-14 -1 -18 -1q-7 0 -7 6q0 2 2 18q1 16 2 24t1 11q0 8 -2 8q-1 -1 -13 -9t-23 -17l-2 -2q-8 -5 -10 -7t-4 -2 q-3 0 -5 2t-5 14q-3 8 -9 18t-9 13q-2 3 -9 14t-8 12q-4 4 -4 6q0 9 18 13h1q38 21 38 23z"/>
<glyph glyph-name="comma" horiz-adv-x="187" unicode="," d="M84 172q4 0 26 2q21 2 25 2q19 0 29 -10t9 -26v-94q1 -24 -5 -48t-25 -54q-13 -23 -34 -23h-13l-14 1h-12l-15 -1h-15q-6 0 -12 2t-5 9q0 13 11 19l1 1q9 4 13 10t4 17q0 9 -4 13t-7 6q-2 1 -7 3q-7 2 -11 5q-5 4 -7 10t-2 12q0 4 1 31q1 28 1 33t-1 22q-1 23 -1 25 q0 23 10 29t22 6q3 0 19 -1t19 -1z"/>
<glyph glyph-name="hyphen" horiz-adv-x="229" unicode="-" d="M222 285v-35q0 -17 -2 -25t-10 -13q-4 -4 -10 -4h-32h-48q-1 0 -11 1t-12 1h-10q-10 -1 -13 -1q-5 0 -11 1h-9t-13 -1q-9 -1 -11 -1q-14 0 -18 10t-5 30v60q1 22 5 32t18 11h16l15 -1h28q20 0 30 -1h14q12 -1 14 -1q4 0 42 3h8q11 0 19 -7t8 -19q0 -3 -1 -17 q-1 -20 -1 -23z"/>
<glyph glyph-name="period" horiz-adv-x="187" unicode="." d="M143 170q9 0 15 -2q3 -2 8 -8t5 -14v-3q-1 -2 -1 -3v-19q-1 -20 -1 -31l1 -24v-28q0 -20 -5 -30t-21 -10q-15 1 -66 1q-3 0 -19 -1q-17 -1 -20 -1q-9 -1 -17 5t-8 21q0 3 1 21q1 17 1 20q0 49 -1 64v8q-1 5 -1 6q0 27 23 27h8q6 -1 49 -1q17 0 25 1q2 0 12 1h12z"/>
<glyph glyph-name="slash" horiz-adv-x="333" unicode="/" d="M0 14q0 13 13 47v1q3 8 15 38t33 86q18 48 26 70l47 121l46 120q28 71 38 98q10 26 38 97q8 22 14 30t14 7q1 0 34 -11h1q7 -4 11 -9t5 -16q0 -5 -3 -13q-4 -8 -14 -36t-133 -351q-7 -17 -36 -93t-47 -122t-22 -60q-6 -14 -7 -18v-1q-5 -9 -9 -15t-14 -5q-2 0 -6 1l-2 1 q-5 1 -15 6l-5 2q-14 5 -18 9t-4 16z"/>
<glyph glyph-name="zero" horiz-adv-x="437" unicode="0" d="M248 222v95q0 7 -1 51q-1 45 -1 53q0 4 1 31q2 28 2 33q1 32 -5 51t-28 19q-16 0 -23 -13t-7 -32l1 -18v-19v-17l-1 -18v-207q0 -39 6 -58t26 -19q25 0 30 31v37zM28 426v48q0 66 16 112t43 76q19 20 49 38t77 18q19 0 41 -4t44 -12t42 -24t34 -42q10 -20 18 -50t12 -62 t4 -62q1 -30 1 -61q0 -42 -2 -128q-1 -56 -5 -93t-14 -66q-10 -24 -30 -48t-41 -38q-21 -12 -49 -22t-58 -10q-61 0 -105 32q-21 14 -41 52t-28 87q-2 13 -4 39t-3 57q-2 49 -2 79l1 41v43z"/>
<glyph glyph-name="one" horiz-adv-x="417" unicode="1" d="M32 515q0 13 12 23q7 8 13 15q6 6 13 14q3 3 11 13t15 20q12 14 20 24t10 13q8 8 23 24t19 20q11 13 19 19t19 6h11q33 -2 38 -2h41q15 0 24 -6t9 -28v-9q-1 -9 -1 -19q-2 -26 -2 -52v-42l1 -26v-28q0 -4 -1 -31q-1 -29 -1 -35q0 -4 1 -27q1 -24 1 -29q0 -4 -1 -28 q-1 -26 -1 -31q0 -6 1 -48q1 -43 1 -51q0 -4 -1 -33q-2 -30 -2 -36q0 -5 1 -38q2 -35 2 -43q0 -34 -1 -42t-6 -15q-4 -5 -9 -7t-21 -2q-4 0 -20 1q-20 1 -22 1h-56q-13 0 -21 6t-8 27q0 4 2 25q1 20 1 24q1 17 1 51v40q0 29 1 86q1 56 1 84v23q1 15 1 22v22v22l1 26v28 q0 2 1 12v5q0 4 -3 4q-5 0 -12 -9v-1q-3 -4 -9 -10q-10 -12 -20 -27q-11 -18 -21 -18q-9 0 -24 15l-2 2q-3 4 -7 7t-13 11q-1 1 -11 9q-18 15 -18 29z"/>
<glyph glyph-name="two" d="M16 479q0 19 2 40t3 35q0 2 1 7q8 45 8 46q4 14 12 29t20 27q24 25 62 37t72 12q37 0 64 -12q5 -2 18 -8t25 -12q11 -6 23 -20t24 -36t20 -53q8 -32 7 -73q0 -14 -1 -36t-3 -30q0 -2 -3 -7q-1 -3 -1 -4q-1 -6 -1 -16q-3 -11 -11 -33t-18 -39q-8 -14 -12 -22l-9 -18l-4 -8 q-10 -17 -22 -37t-26 -38t-26 -30q-11 -12 -15 -16l-2 -1q-5 -3 -5 -5q0 -4 28 -4q4 0 22 -1t22 -1t25 2t24 2q19 0 27 -8t8 -28q0 -5 -1 -23q-2 -19 -2 -24l1 -15v-16q0 -20 -5 -32t-24 -11q-4 0 -13 2h-3q-20 2 -70 2q-7 0 -33 -1q-34 -1 -38 -1q-15 0 -44 1q-28 1 -42 1 q-4 0 -32 -1q-29 -1 -35 -1q-15 -1 -20 9t-5 31v27v20q-1 16 -1 23q0 13 3 19t16 17l2 2q39 35 62 68q4 4 10 12l7 8q9 11 11 15t7 10q3 5 12 21l5 10q7 11 8 12q12 19 18 29t19 34l6 12l1 1q12 24 18 49t5 81q0 22 -7 36t-24 14q-21 0 -29 -23t-8 -56q0 -9 1 -14q0 -3 1 -9 t1 -9q0 -8 -6 -18t-27 -11h-65q-26 0 -32 9t-6 49z" unicode="2"/>
<glyph glyph-name="three" horiz-adv-x="417" unicode="3" d="M308 398q2 -2 13 -11t13 -11q8 -7 20 -21t17 -26q8 -20 14 -45t6 -52q0 -43 -2 -59t-13 -45q-10 -29 -18 -41t-27 -34l-1 -1q-17 -18 -28 -26t-32 -17q-22 -8 -42 -11t-47 -3q-45 0 -72 11q-6 2 -26 12t-34 18q-32 20 -39 28t-7 22q1 6 3 11t12 20q2 3 4 5q14 20 19 28 t14 24l1 2q8 14 12 16t19 3q10 0 14 -3t12 -14q20 -23 49 -23q10 0 24 4t23 15q9 12 11 30t3 31q0 27 -13 49t-44 22q-3 0 -17 -2q-17 -2 -20 -2q-9 0 -19 7t-9 23l1 16v16q0 5 -1 27q-2 22 -2 27q0 15 8 25t22 10q3 0 13 -1q9 -2 12 -2q34 0 55 26q5 6 9 14t3 24 q0 20 -15 36t-38 16q-21 0 -38 -13q-6 -5 -8 -7t-7 -12q-6 -10 -16 -10q-12 0 -24 18l-2 2q-1 2 -7 10l-12 16t-12 12l-5 6q-9 10 -11 15t-3 14q0 10 2 15t9 12l18 18t19 14l3 2q34 23 66 30t46 7q4 0 16 -1h12h3q14 -3 19 -3h2q18 -3 41 -11t45 -31q18 -18 31 -43t13 -29 q4 -8 6 -29t2 -40q0 -24 -4 -39t-11 -30q-11 -25 -23 -37t-30 -24z"/>
<glyph glyph-name="four" horiz-adv-x="417" unicode="4" d="M202 466q0 7 -4 7q-3 0 -5 -9q-3 -4 -5 -12t-4 -13q-11 -29 -19 -49t-17 -39q-1 -1 -2 -4q-7 -15 -12 -27t-5 -16q0 -10 33 -10q23 0 31 2t8 13v7q-1 16 -1 20q0 3 1 24q2 22 2 27q0 42 -1 58v6q-1 5 -1 6v3q1 4 1 6zM15 265q0 13 2 19q2 7 11 21q2 3 5 8q4 6 11 22l2 5 q6 13 20 48t20 48q5 13 18 40q7 16 9 20l4 11q7 16 11 24q3 7 8 16t8 16l15 36q13 25 26 49q5 9 13 23t10 18v1q6 8 10 12t17 4h7q6 -1 7 -1q12 -2 44 -2h5q9 1 14 1q8 1 19 1q13 -1 17 -9t4 -20v-31q-2 -27 -2 -45v-47v-34q-1 -27 -1 -38q0 -4 1 -34q1 -32 1 -38 q0 -5 -1 -38q-1 -34 -1 -41v-23q1 -5 3 -8t10 -3q4 0 19 1h6q12 1 15 -5t3 -15q0 -5 -1 -27q-1 -28 -1 -32l1 -21v-22q0 -9 -4 -17t-18 -8q-1 0 -10 1t-11 1q-9 0 -11 -6t-2 -33q0 -30 2 -45q2 -13 2 -17v-15q0 -16 -5 -26t-21 -10q-6 0 -15 2h-2q-9 1 -27 1q-5 0 -33 -1 q-29 -1 -35 -1q-12 -1 -17 9t-5 19q0 6 2 17q0 3 1 9v32l1 14v17q0 24 -4 30t-15 6q-1 0 -4 -1h-6h-67q-6 0 -30 -1q-24 -2 -30 -2q-10 0 -18 6t-8 24l1 16v15v54z"/>
<glyph glyph-name="five" d="M47 507v74q0 30 -1 44v17t-2 25q0 6 1 13t5 12q2 4 10 12t15 7q5 -1 11 -1t8 -1h18q11 -1 13 -1q5 0 33 1q27 1 32 1q10 0 47 -1q47 -1 52 -1q22 0 30 1h2q8 2 12 2q10 -1 17 -7t8 -14v-14l1 -19v-22l1 -16v-18q0 -32 -31 -32q-2 0 -13 1q-12 1 -14 1h-14q-11 -1 -16 -1 q-17 0 -25 1q-4 0 -19 2q-15 1 -19 1q-19 0 -25 -10t-6 -30v-10t2 -14t4 -12t10 -2q2 0 13 1q10 1 12 1q43 0 67 -12t41 -30t23 -30t12 -27v-1q10 -30 16 -64t7 -90q0 -48 -10 -87t-36 -75q-10 -14 -23 -28q-12 -14 -32 -27t-47 -21t-60 -9q-31 1 -66 9t-66 30 q-29 22 -37 32t-9 22q1 8 3 14t14 23l1 2q3 3 15 23t15 26q5 12 11 20t17 7q11 0 22 -11q2 -2 5 -7t5 -8q8 -9 23 -17t31 -7q14 0 22 4t14 10q15 13 20 29t5 39q0 43 -2 59t-12 32q-19 31 -60 31q-17 0 -32 -6q-5 -3 -14 -10q-1 0 -7 -5q-8 -5 -14 -5q-4 0 -8 2t-20 13 q-8 4 -8 12q0 16 1 20q0 6 1 28q1 31 1 34v33q-1 27 -1 32z" unicode="5"/>
<glyph glyph-name="six" horiz-adv-x="417" unicode="6" d="M212 323q-19 0 -26 -20q-3 -8 -4 -30t-1 -47q-1 -49 5 -71t28 -22q18 0 24 12t8 28q1 11 1 71q0 14 -1 26t-4 25q-2 12 -10 20t-20 8zM183 440q23 18 45 24t36 5q22 0 46 -12t43 -33q27 -31 35 -68q4 -18 6 -42t1 -66q0 -74 -6 -104t-19 -57v-1q-7 -14 -16 -28t-27 -30 q-17 -16 -45 -26t-64 -10q-40 0 -66 8t-46 21q-35 21 -54 59t-26 84q0 10 -2 31t-2 33t-2 40q-1 28 -1 36q0 18 1 45t3 45q1 8 3 22l5 35l5 35t4 19q4 17 11 37t21 44t34 48q21 24 49 40q28 17 54 26t68 9q21 1 43 -1t31 -6q13 -6 17 -18t4 -28q-1 -26 -1 -78v-10t-2 -8 q-1 -2 -9 -6t-12 -5q-3 0 -10 2q-4 2 -6 2q0 1 -14 4t-23 3q-37 0 -56 -12t-30 -27q-15 -21 -21 -37t-6 -30q0 -3 1 -8v-6z"/>
<glyph glyph-name="seven" horiz-adv-x="375" unicode="7" d="M50 558h-14q-10 0 -19 4t-9 22q0 6 2 18q3 15 3 40q0 3 -1 15q-1 16 -1 18q0 15 8 23t17 9q5 0 8 -1q5 -2 17 -2h23l22 1h24h26q21 -1 25 -1l17 1h20h16q12 -1 18 -1h16q38 1 44 1q2 0 11 1h10q11 0 19 -4t8 -21v-38q0 -13 -2 -21t-10 -25l-1 -2q-5 -10 -11 -29t-8 -31 q-3 -10 -8 -31q-2 -12 -4 -19q-1 -3 -5 -17q-8 -30 -12 -44q-2 -10 -7 -29q-6 -27 -9 -41t-5 -20l-6 -24q-6 -20 -7 -24q-5 -18 -10 -53q-2 -14 -3 -20q-4 -18 -5 -25q-7 -32 -10 -50q-7 -31 -7 -65l1 -17v-19q-1 -15 -7 -26t-26 -11q-11 0 -17 1h-10q-15 1 -28 1 q-4 0 -27 -1q-24 -1 -29 -1q-23 0 -31 12t-7 25q-1 7 1 17t5 27q1 8 1 11t2 9v3q4 29 13 66q9 36 21 74t20 66q9 28 11 34q6 18 10 27q4 11 11 35l2 8q5 15 14 39q9 23 14 38q1 2 2 5q10 28 12 36t3 15t-3 9t-8 3h-5q-4 -1 -5 -1q-8 -1 -24 -1q-6 0 -12 1h-11h-13 q-10 -1 -15 -1l-21 1h-24z"/>
<glyph glyph-name="eight" horiz-adv-x="437" unicode="8" d="M215 306q-15 -20 -27 -42t-12 -50q0 -26 10 -44t33 -18q10 0 23 9q9 8 13 20t4 37q0 36 -14 57t-30 31zM224 471q16 16 26 32t10 39q0 17 -10 33t-32 16q-14 1 -26 -13t-12 -35q0 -15 8 -34t36 -38zM338 383q18 -17 30 -30t23 -33t18 -50t7 -68q0 -46 -16 -91 q-8 -21 -18 -35t-28 -30q-26 -22 -56 -36t-80 -14q-46 0 -80 14t-51 28q-24 20 -46 62t-22 94q-1 12 1 34t7 39q2 8 9 25t13 31q7 13 20 31t35 40q-67 48 -67 139q1 33 11 65t32 58t58 44q36 16 86 16q38 0 72 -10t56 -36q31 -32 41 -62t10 -64q0 -57 -15 -89t-50 -72z"/>
<glyph glyph-name="nine" horiz-adv-x="417" unicode="9" d="M201 571q-18 0 -25 -17q-2 -6 -4 -18t-3 -25q-1 -17 -1 -35q0 -46 8 -70t27 -24q10 0 17 6q9 8 12 22t3 46q0 49 -1 67v1q-2 19 -8 33t-25 14zM233 265q-21 -17 -43 -23t-39 -6q-26 0 -53 16t-45 41q-21 29 -27 60t-6 106q0 73 6 103t20 57v1q8 16 18 30t28 29t43 25 q26 10 61 9q35 0 67 -8t61 -32q31 -26 46 -62t20 -72q0 -7 2 -27t3 -41q1 -22 1 -40t1 -23q0 -13 -1 -46t-2 -46q-2 -26 -6 -50t-7 -40t-4 -23q-16 -59 -44 -101t-62 -64t-69 -32t-68 -10q-15 0 -37 2t-31 5q-14 6 -18 18t-4 24l1 29v32v11q-1 11 -1 13q0 9 4 15q2 3 8 7 t12 4t16 -4q17 -7 38 -7q38 0 60 15q22 14 37 42t15 54q0 6 -1 9z"/>
<glyph glyph-name="colon" horiz-adv-x="208" unicode=":" d="M25 144q0 9 4 17t18 8h17l17 -1h25q5 0 24 1q24 1 26 1q9 0 13 -2q3 0 7 -6t5 -11v-30v-27q-1 -20 -1 -29l1 -15v-16q0 -36 -25 -36h-11q-11 1 -14 1h-50l-14 -1h-17q-10 0 -18 4t-7 21l1 15v17l1 24v27q0 4 -1 18q-1 18 -1 20zM25 467q-1 19 7 25t24 6h52l20 1h23 q19 0 25 -7t6 -16q0 -5 -1 -7v-21q-1 -25 -1 -37q0 -4 1 -26q1 -23 1 -28q0 -17 -8 -23t-21 -6h-98q-20 0 -25 8t-5 27q0 4 1 20q1 20 1 22q0 4 -1 30q-1 27 -1 32z"/>
<glyph glyph-name="semicolon" horiz-adv-x="208" unicode=";" d="M26 140q0 34 32 34q4 0 17 -1q18 -1 20 -1q8 0 24 2q17 2 26 2q15 0 27 -7t12 -32v-11l-1 -11q0 -2 1 -16t1 -16v-12q-1 -8 -1 -14v-3q-1 -35 -3 -48t-11 -33q-16 -35 -26 -43t-24 -8h-50l-10 -1h-10q-6 1 -10 3t-5 9q1 8 3 11t11 10q7 4 11 10t4 14q0 13 -11 19 q-2 1 -7 3q-7 3 -10 5q-7 5 -9 10t-2 11q0 7 2 33q1 25 1 32q0 5 -1 23q-1 24 -1 26zM26 471q0 17 9 22t19 5h18l18 -1q6 0 31 2q24 1 30 1q17 0 25 -8t9 -21q0 -4 -1 -24t-1 -24t1 -30q1 -27 1 -33q-1 -14 -7 -24t-24 -9q-2 0 -17 1t-18 1q-4 0 -30 -1q-27 -2 -32 -2 q-11 0 -21 6t-10 24q0 6 2 20q1 8 1 23q0 45 -2 57v8q-1 6 -1 7z"/>
<glyph glyph-name="question" horiz-adv-x="292" unicode="?" d="M64 140q0 12 4 22t20 9h4q4 -1 6 -1q8 -1 25 -1h29q25 -1 28 -1h18q16 0 21 -8t5 -20v-5q-1 -4 -1 -5q-1 -8 -1 -42t-1 -52v-1q-1 -21 -7 -29t-33 -8h-90q-18 0 -23 8t-5 19q0 8 1 12l1 34v37v16zM77 294q0 53 20 129q2 7 2 8q11 41 13 53t3 21q0 22 -11 32t-24 10 q-6 0 -10 -2q-4 -1 -8 -3q-8 -4 -13 -4t-10 3q-10 7 -10 23l1 6v6v89q0 12 6 21t19 13q11 5 35 7t43 2q67 0 101 -30t37 -71q1 -3 1 -27t1 -35v-8q-1 -15 -5 -33t-12 -34q-6 -18 -11 -30t-9 -20l-7 -14q-14 -28 -18 -42q-12 -33 -12 -90l1 -17v-21q0 -19 -8 -25t-27 -6h-43 q-31 0 -36 14q-2 3 -6 27t-3 48z"/>
<glyph glyph-name="A" horiz-adv-x="417" unicode="A" d="M210 449q-1 -1 -3 -9t-4 -22q-2 -8 -2 -9q-1 -6 -9 -57q-4 -29 -6 -44t-3 -18q-1 -8 7 -12t20 -4t20 4t7 15q-1 3 -3 21t-8 64t-8 54q0 17 -8 17zM-2 22q0 14 4 34l9 45q12 52 22 117q2 15 3 20q5 45 10 68q2 18 10 47q2 11 6 34q10 51 15 73q10 48 16 72q4 19 6 28 q10 47 15 73l3 21q1 5 2 11l2 10v1q3 14 7 22t16 8q5 0 34 -1t34 -1t32 1t32 1q12 0 18 -2t11 -13q3 -5 5 -19t6 -40q4 -35 6 -41q1 -5 3 -13t2 -13q4 -22 6 -32q3 -18 11 -54q6 -27 14 -69t13 -80q6 -38 10 -68t5 -37q10 -78 18 -117q2 -10 5 -23q2 -13 4 -23q2 -6 4 -18 t2 -20q0 -24 -27 -24q-3 0 -23 1t-23 1q-4 0 -28 -2t-29 -2q-23 0 -29 8t-6 27q0 3 -1 18t-1 17v1q-1 23 -8 37t-30 15q-3 0 -9 -1t-7 -1q-10 -3 -14 -5t-7 -9q-5 -9 -7 -19t-2 -49v-2q-2 -17 -8 -26t-28 -9q-3 0 -19 2q-8 1 -31 1q-20 0 -30 -1q-13 -2 -17 -2h-14 q-15 0 -19 6t-4 16z"/>
<glyph glyph-name="B" horiz-adv-x="417" unicode="B" d="M206 302q-27 0 -27 -34v-68q1 -26 5 -38t22 -13q14 -1 24 7t13 19q3 9 4 25t1 44q0 23 -7 36q-13 22 -35 22zM202 567q-14 -1 -18 -9t-4 -32v-61q0 -7 4 -11t17 -5q9 0 19 5q12 6 18 18t6 36q0 25 -12 42t-30 17zM345 389l1 -1q19 -17 32 -34t23 -47q5 -20 7 -50t3 -59 q1 -27 -5 -56t-19 -57q-13 -29 -35 -49t-55 -29q-17 -3 -55 -5t-83 -2q-3 0 -23 1t-23 1q-4 0 -21 -1q-22 -1 -24 -1q-30 0 -36 10t-7 39q0 4 1 29q1 27 1 32q0 6 -1 46q-2 43 -2 52l1 19v22v39q0 7 1 50q1 44 1 52q0 36 -1 54q-3 39 -3 54q0 3 2 39q1 33 1 42v34 q-1 25 -1 36q-1 31 7 43t40 13q17 0 29 -1q8 0 22 -1h7q4 0 50 2q41 1 52 1q92 0 130 -46t38 -139q0 -29 -7 -53t-13 -35q-8 -15 -16 -25t-18 -18z"/>
<glyph glyph-name="C" horiz-adv-x="333" unicode="C" d="M21 353q0 32 4 112q3 45 10 81t27 70q22 39 50 60q29 22 54 30t60 8q14 0 39 -2t35 -5q6 -2 16 -10t10 -23v-13l-1 -13q0 -5 1 -34t1 -34q0 -13 -5 -24t-23 -11q-9 0 -18 3q-13 3 -26 3q-23 1 -39 -11t-22 -25q-4 -9 -7 -31t-5 -47t-2 -47v-35q0 -80 8 -114t27 -53 q11 -10 27 -14t42 -5q28 0 36 -9t9 -28v-20q-1 -17 -1 -24v-21q1 -22 1 -27q0 -9 -1 -14t-7 -12q-7 -8 -15 -12t-23 -5q-9 0 -14 1q-57 4 -83 8t-54 17l-1 1q-15 7 -27 17t-32 36q-30 38 -40 101t-11 175z"/>
<glyph glyph-name="D" horiz-adv-x="437" unicode="D" d="M205 553q-8 0 -13 -4q-7 -3 -9 -9t-2 -15v-79v-20q-1 -21 -1 -26q0 -2 1 -18t1 -19v-10q-1 -9 -1 -11l1 -13v-15q0 -7 -1 -33q-1 -34 -1 -38v-21q1 -22 1 -27q-1 -15 3 -25t18 -10q6 0 13 3t10 5q8 4 14 18t8 22q2 6 3 22t2 29q1 24 1 38v15q-1 12 -1 18q0 4 1 19 q1 19 1 21t-2 22t-3 54q-2 33 -2 40q-5 32 -15 50t-27 17zM25 651q-1 33 9 43t42 10q4 0 28 -1q23 -1 27 -1h51l30 1h30q40 1 74 -19t52 -53q22 -43 28 -63t12 -55q1 -5 6 -72l2 -33q1 -14 1 -43q0 -51 -3 -76l-3 -33q-1 -12 -2 -32q0 -6 -1 -17q-3 -37 -15 -73 q-19 -50 -33 -70t-38 -35q-27 -15 -48 -21t-53 -8h-58q-42 0 -56 -1l-17 -1h-18q-13 0 -21 4t-17 14q-8 11 -8 25q0 7 2 33q1 26 1 33v16q-1 13 -1 15q-1 34 -2 72t-1 46q0 6 1 40q1 35 1 42q0 16 -1 47t-1 46q0 24 2 74q1 49 1 73q0 4 -1 34q-2 32 -2 39z"/>
<glyph glyph-name="E" horiz-adv-x="375" unicode="E" d="M368 102v-57q0 -17 -6 -30t-25 -16h-93l-20 -1h-20q-3 0 -25 1q-23 2 -28 2t-41 -1q-38 -2 -46 -2q-16 0 -26 10t-10 27q0 2 1 27q1 80 1 96q0 13 -2 74q-2 31 -2 52v28l1 30v32v43q-1 35 -1 42l1 36v38q0 4 -1 29q-1 27 -1 32v37v19l-1 19q0 17 8 27t27 9q12 0 21 -1 q6 0 16 -1h6q8 0 46 2q18 1 32 1t19 1q5 0 36 -1q33 -1 39 -1q2 0 17 1h18q27 0 35 -11t8 -36v-15q-1 -12 -1 -15l1 -14v-18q0 -25 -9 -35t-32 -9q-2 0 -12 1h-13h-17q-2 0 -12 1h-12h-19l-20 -1q-6 0 -12 -2t-9 -9q-4 -6 -4 -17q0 -2 1 -7v-14v-15l-1 -15q-1 -17 7 -23 t30 -7q43 0 66 1q8 1 24 1q12 -1 21 -3t15 -10q4 -6 5 -14t1 -51l1 -15v-16q-1 -27 -11 -38t-35 -11q-3 0 -27 1q-26 2 -31 2q-35 0 -46 -5t-14 -17q0 -10 1 -27v-10v-14q-1 -11 -1 -16q0 -25 7 -33t27 -8h21q16 -1 23 -1l14 1h16q29 0 42 -2t20 -6q7 -6 9 -18t2 -34z"/>
<glyph glyph-name="F" horiz-adv-x="333" unicode="F" d="M256 556h-49q-17 0 -22 -10t-5 -43q0 -41 6 -49t35 -8q22 0 47 2q11 1 24 2l12 1q9 -1 16 -7t7 -17q0 -2 -1 -13q-1 -12 -1 -14q0 -3 1 -19q1 -17 1 -20v-10l-1 -11l1 -10v-10q-1 -13 -7 -22t-19 -9l-30 1h-34h-13q-10 -1 -15 -1q-9 1 -15 -5t-9 -11q-2 -3 -2 -10 q0 -1 1 -5v-12v-17l-1 -17q0 -11 2 -28q1 -18 1 -29q0 -4 -1 -24t-1 -24q0 -5 2 -29q2 -27 2 -31v-21q0 -14 -7 -19t-19 -5q-3 0 -13 1q-14 1 -16 1t-16 -1t-17 -1l-13 1h-13q-3 0 -12 -1q-13 -1 -15 -1q-16 0 -20 8t-4 19q0 9 1 13q1 15 2 39t1 32q0 5 -1 24q-1 24 -1 26 v42l-1 42q0 9 2 52q2 23 2 38v20v18t-2 46q-1 16 -2 39t-1 31q0 7 1 50q1 46 1 55v36q-1 27 -1 39q0 18 8 28t29 10h19q14 -1 21 -1l33 1h35h40h42t34 2q1 0 7 1h6q16 0 25 -11t9 -38v-19q-1 -15 -1 -22v-25q0 -28 -13 -34t-62 -6z"/>
<glyph glyph-name="G" horiz-adv-x="437" unicode="G" d="M419 269v-87v-41q-1 -30 -1 -43q0 -5 1 -23q1 -24 1 -26q0 -13 -4 -23t-15 -17q-12 -7 -37 -11t-66 -4q-86 0 -135 18t-82 62q-35 46 -51 112t-16 145q0 17 4 67q1 16 1 21q3 34 5 46t10 40l1 3q8 28 13 42t16 34q4 4 14 18t23 29q9 11 10 13q20 22 48 36t51 20 q10 2 38 6t43 5q12 1 32 -1t29 -4l3 -1q23 -5 31 -7t13 -9t6 -21t1 -73v-27t-4 -14q-3 -4 -12 -10t-16 -6q-4 0 -10 2t-14 5q-10 3 -24 5t-21 1q-17 1 -36 -3t-31 -12t-29 -30t-23 -44q-6 -19 -7 -60v-15q-1 -7 -3 -31t-1 -33q0 -40 8 -84t24 -65q18 -21 39 -21q9 0 17 8 q8 9 8 30q0 10 -2 30v33q0 3 -1 8q-1 20 -4 26q-2 5 -5 6t-17 1q-19 0 -19 19q-1 70 -1 76q0 15 1 35q1 15 7 21t16 7h9q10 -1 12 -1q8 0 57 -1h14q19 0 28 1q1 0 8 1h9q23 1 29 -13t7 -42q0 -5 -1 -29t-1 -29q0 -4 1 -34q1 -31 1 -37z"/>
<glyph glyph-name="H" horiz-adv-x="437" unicode="H" d="M26 28v29l1 42v44q0 28 -1 42v12q-1 10 -1 12l1 21v23v32l1 22v22q0 15 -1 46q-1 30 -1 45q0 8 1 30t2 41q2 23 2 43v45q0 33 -1 49q0 3 -1 19t-1 19q1 26 11 32t25 6h14l13 -1q6 0 27 1q29 1 32 1q25 0 31 -9t6 -22v-64t-2 -51q0 -3 -1 -17q-1 -17 -1 -19q0 -3 1 -16 q1 -17 1 -19v-8l-1 -8q0 -21 23 -21q2 0 16 1t16 2q8 2 10 8t2 15v5q1 7 1 11v64v110q0 19 6 29t29 11h5q9 -1 15 -1q16 -2 20 -2q3 0 23 2t23 2q24 0 32 -11t8 -30v-10q-1 -8 -1 -9q-1 -29 -2 -48t-1 -33q0 -6 1 -36v-36q1 -26 1 -112v-49t-2 -44l1 -51v-57v-34 q-1 -26 -1 -37q0 -23 1 -35q3 -27 3 -33q0 -28 -10 -36t-31 -8q-7 0 -23 1q-17 1 -25 1q-2 0 -19 -1q-18 -2 -22 -2q-21 0 -27 12t-6 44q0 6 2 34q2 34 2 39v17q-1 14 -1 20v18q0 3 2 37q1 31 1 39q0 1 -3 17l-2 9q-3 8 -11 10t-16 2q-29 0 -35 -6t-6 -29q0 -2 -1 -16 t-1 -17q0 -2 1 -10v-12v-2q3 -22 3 -28t1 -16q0 -8 -1 -39q-2 -31 -2 -39q0 -5 2 -27q1 -22 1 -27q0 -14 -6 -22t-22 -8q-4 0 -17 1q-19 1 -21 1q-4 0 -27 -1q-24 -1 -29 -1q-21 0 -29 8t-8 22z"/>
<glyph glyph-name="I" horiz-adv-x="208" unicode="I" d="M25 667q0 23 7 31t25 8q5 0 23 -1q23 -1 25 -1q4 0 28 1q25 1 30 1q15 0 19 -10t5 -19q0 -7 -2 -19q-2 -24 -2 -37q0 -67 -1 -101q0 -3 1 -31v-31q0 -4 -1 -19q-1 -20 -1 -22l1 -34v-37q0 -5 -1 -37q-1 -33 -1 -39l1 -30v-30q0 -7 -1 -54q-2 -50 -2 -60q0 -3 1 -21v-22 q1 -3 1 -12t1 -14q1 -8 -5 -16t-19 -10h-34h-38q-29 -1 -41 -1q-16 0 -20 11t-4 26v2q0 7 1 48q1 42 1 50v109q0 11 2 60q2 24 2 42v24q0 5 -1 34q-1 30 -1 36t1 26t2 26v43q-1 32 -1 46l1 17v20q0 5 -1 22q-1 23 -1 25z"/>
<glyph glyph-name="J" horiz-adv-x="250" unicode="J" d="M229 372v-16l1 -24v-27v-50q0 -4 -1 -46q-2 -38 -2 -49l1 -24v-26q0 -15 -2 -30t-11 -29q-9 -19 -31 -33t-46 -18h-16q-77 -1 -93 -1q-24 0 -24 22l1 10v10v24l1 18v20v12q-1 13 -1 15q0 15 6 23t12 9q2 1 18 1q11 -1 19 3t10 17q1 1 1 31t1 38q0 15 -1 45t-1 45v190 q-1 15 -1 33t-1 41q-1 22 -2 38t-2 20v8q-1 7 -1 8q0 13 6 19t16 6h6l5 -1h42q3 0 21 1h23q27 0 35 -5t8 -28v-74q0 -7 1 -35q1 -36 1 -40v-21q-1 -17 -1 -24l1 -24v-28v-10q-1 -9 -1 -12t1 -14q1 -16 1 -18z"/>
<glyph glyph-name="K" horiz-adv-x="417" unicode="K" d="M26 31v3v42t2 40v32q-1 24 -1 35q0 10 1 59v58v68q-1 51 -1 73l1 37v40v29q-1 25 -1 29v54v22q-1 18 -1 25q0 18 8 23t17 5h9q15 -1 24 -1q28 -2 34 -2q14 0 21 1q10 2 16 2q11 0 19 -7t7 -22q-1 -8 -2 -21l-1 -13q-1 -12 -1 -37l1 -23v-23q0 -2 -1 -12t-1 -12 q0 -13 6 -13q2 0 5 6t7 18l1 3q6 16 17 47q20 56 28 81v1q6 13 12 20t23 7q12 0 22 -1q6 0 16 -1h5q5 0 26 2q24 2 28 2q10 1 18 -3t8 -17q0 -7 -7 -23l-1 -4q-8 -18 -22 -56l-1 -2q-8 -24 -15 -42t-21 -45q-3 -7 -8 -17t-8 -17q-2 -6 -6 -19q-5 -13 -7 -19v-1 q-7 -17 -9 -23t-2 -12q0 -10 3 -19t13 -30q12 -26 22 -62q3 -10 10 -33q3 -13 7 -26q3 -9 7 -19t7 -19q11 -31 18 -56q3 -10 8 -27q9 -34 16 -52q6 -12 9 -22t3 -15q0 -8 -4 -16q-4 -7 -9 -9t-12 -2q-4 0 -20 1q-20 1 -22 1h-32t-22 -2q-12 -2 -17 -2q-12 0 -18 8t-9 17v1 q-1 2 -7 25t-8 31q-10 32 -15 49q-4 15 -11 46t-12 56q-5 21 -5 22q-1 7 -3 9t-4 3q-6 0 -6 -13v-31q0 -2 1 -21q0 -10 1 -38t1 -42v-33q1 -14 3 -33t2 -25q0 -9 -2 -15t-10 -12q-8 -4 -12 -4h-9l-10 1q-4 0 -22 1t-22 1q-2 0 -26 -1q-18 -1 -23 -1q-16 -1 -20 9t-4 23z"/>
<glyph glyph-name="L" horiz-adv-x="313" unicode="L" d="M28 680q0 18 7 23t17 5q6 0 18 -2q24 -2 37 -2q12 0 34 2q2 0 9 1h9q17 1 23 -7t6 -17v-10q-1 -10 -1 -13q-1 -16 -2 -36t-1 -33q0 -8 1 -61q2 -56 2 -67q0 -4 -1 -34q-1 -32 -1 -38l1 -27v-28v-60q-1 -46 -1 -66q1 -30 7 -44t29 -14h15t19 2q2 0 15 2q10 1 11 1 q19 0 25 -12t7 -32q0 -4 -1 -19q-1 -20 -1 -22q0 -3 1 -16q1 -17 1 -19q0 -37 -39 -37q-4 0 -20 1q-21 1 -23 1q-8 0 -26 -1t-26 -1q-5 0 -22 1q-22 1 -25 1t-30 -1q-29 -2 -36 -2q-18 0 -26 9t-10 17q-2 5 -2 15v22v7q1 9 1 11v62q0 5 -1 33q-1 29 -1 35l1 31v37v35 q-1 79 -1 95q0 2 1 13q1 10 1 12v7l-1 6l1 13v12v17q-1 14 -1 20q0 8 1 57q2 51 2 62q0 15 -1 23q0 2 -1 15t-1 15z"/>
<glyph glyph-name="M" horiz-adv-x="562" unicode="M" d="M184 221v-46q0 -4 1 -30q1 -27 1 -33v-24l-1 -24q0 -4 1 -22t1 -22q0 -9 -5 -16t-23 -7q-1 0 -15 1q-8 1 -9 1q-22 2 -40 2q-6 0 -21 -1q-16 -1 -22 -1q-25 0 -25 30l1 72v81v84q-1 65 -1 93l1 45v50v33q-1 25 -1 36l1 27v26q0 5 -1 33q-1 29 -1 35v30t5 15q3 5 9 11 t14 6q4 0 27 -1q25 -1 30 -1q4 0 29 1q26 1 31 1q9 0 15 -2t11 -10q3 -2 5 -12t4 -16v-1l3 -8q5 -11 7 -18t2 -10q2 -6 7 -17q7 -16 9 -24q2 -5 8 -25t7 -24q0 -1 2 -6q1 -6 1 -7l6 -18q2 -3 4 -14t4 -16q3 -10 8 -10q4 0 8 10t8 22q2 12 4 18t5 13l1 2q2 5 8 19t10 31 q6 15 10 29t7 20q3 12 9 38q6 18 12 27t22 9h32q33 -1 41 -1l23 1h28q14 0 24 -4t9 -23v-3q-1 -3 -1 -4q0 -7 -2 -48q-1 -30 -1 -35q0 -8 1 -36q1 -38 1 -42l1 -41v-47v-39q-1 -21 -1 -82q0 -10 1 -45q1 -46 1 -51q0 -3 -1 -40q-2 -34 -2 -43v-25q0 -6 2 -28t2 -28 q0 -22 -6 -32t-26 -10l-26 1h-27h-20l-20 -1q-24 0 -31 11t-7 24q0 4 1 16q1 16 1 18q1 10 1 32v54q0 9 1 39q1 41 1 45t-1 18q-1 18 -1 20v7q1 39 1 63v14q0 4 -4 4q-5 0 -7 -2t-2 -10q-1 -1 -1 -2q0 -3 -2 -9q-1 -3 -3 -11l-1 -2q1 -3 -3 -13t-10 -29l-3 -8 q-10 -29 -21 -53q-8 -16 -14 -31q-1 -1 -2 -4q-7 -15 -11 -20t-11 -5q-21 0 -33 29q-1 4 -5 17t-6 17q-3 11 -14 33q-2 6 -6 14q-2 6 -8 25q-5 18 -6 19q-10 32 -12 38t-6 7q-7 0 -7 -10q0 -1 1 -7q1 -9 1 -10v-7q-1 -8 -1 -10q0 -6 1 -12v-11q1 -12 2 -38t1 -39z"/>
<glyph glyph-name="N" horiz-adv-x="479" unicode="N" d="M27 95v71v40q-1 30 -1 43q0 94 1 121q0 3 1 20q1 24 1 25q0 13 -1 40q-1 26 -1 39q0 6 1 44q1 39 1 46q0 3 -1 44q-2 36 -2 46q0 24 19 27q2 1 24 1h26q7 0 41 1q20 1 23 1q16 0 25 -7t19 -33q2 -4 5 -14q2 -10 6 -22t7 -23t4 -15q7 -20 21 -58q2 -5 9 -30q7 -26 8 -31 q2 -7 9 -34q8 -28 12 -41t4 -19q2 -8 4 -11t4 -4q2 0 2 8t1 16q0 6 -2 39q-2 38 -2 43q-2 38 -2 57l1 27v29q0 20 -5 70v12q-1 9 -1 16q0 23 19 23h13l13 -1h35q28 0 42 2q10 2 16 2q12 0 18 -6t7 -19v-49q-1 -26 -1 -74t-1 -83l1 -34v-39q0 -7 -1 -52q-2 -48 -2 -58 q0 -19 2 -51q1 -32 1 -51v-35q-1 -28 -1 -33q0 -8 1 -37q1 -39 1 -43q0 -25 -7 -33t-21 -8q-9 0 -14 1q-12 1 -34 1q-30 0 -42 -2q-4 0 -12 -1q-4 -1 -5 -1q-14 0 -21 12t-22 58l-14 49l-15 48q-7 19 -11 34q-1 3 -4 16q-4 13 -5 15q-1 4 -6 21q-6 17 -7 20q0 1 -1 5l-15 50 q-6 21 -8 27l-2 6q-1 0 -3 -9t-1 -19q0 -10 1 -15q2 -72 2 -99v-37q-1 -29 -1 -41q1 -20 1 -32t4 -52q0 -1 1 -14v-14q-1 -19 -9 -24t-21 -5h-30q-24 1 -34 1l-20 -1h-22q-18 0 -23 10t-5 23q0 4 1 31q1 28 1 33z"/>
<glyph glyph-name="O" horiz-adv-x="437" unicode="O" d="M218 573q-8 0 -18 -5t-15 -22q-3 -12 -4 -40t-1 -57q0 -6 1 -70v-72v-61q1 -20 1 -36t2 -21q2 -15 10 -28t24 -13q20 0 30 15t10 40q0 5 -1 35t-1 37t1 55q1 51 1 61q0 25 -1 65t-2 63v1q-1 21 -8 37t-29 16zM22 445q0 15 1 41t3 50t6 46t7 35q11 30 32 48t44 30 q19 9 41 15t65 6q23 0 49 -4t44 -10q15 -6 32 -18t28 -26q24 -34 31 -70t9 -92v-1q0 -56 1 -84l1 -50q2 -67 2 -100q0 -87 -14 -141t-54 -87q-28 -23 -62 -33t-79 -9q-48 -1 -82 15t-54 38t-27 40t-12 43l-1 2q-6 28 -7 40t-1 51q0 5 -1 64q-2 52 -2 66l1 20v23v25 q-1 19 -1 27z"/>
<glyph glyph-name="P" horiz-adv-x="437" unicode="P" d="M183 523v-26q0 -10 1 -45q1 -47 1 -51q0 -17 5 -33t24 -16q14 0 24 8t16 21t8 26t2 25q0 1 -1 27q-1 18 -1 21q0 6 -4 20t-5 18q-7 14 -17 24t-25 11q-8 1 -18 -5t-10 -25zM29 372v51q0 4 -1 20q-1 20 -1 22q0 13 2 37q0 6 1 47q1 40 1 44t-1 32q-2 30 -2 37q0 21 6 30 t31 9h16q13 -1 19 -1q8 0 49 2q21 2 35 2h19q59 0 85 -8t51 -26l1 -1q19 -13 30 -26t17 -25l3 -8q4 -8 8 -18q4 -12 8 -20q3 -8 4 -11q2 -6 4 -21t4 -36t4 -40t2 -32q0 -5 -1 -23t-2 -25q0 -8 -1 -14t-5 -22q-1 -4 -4 -18q-3 -19 -7 -29q-8 -17 -25 -40t-32 -38 q-9 -11 -23 -17t-28 -10t-24 -4q-10 -2 -13 -2q-2 0 -12 1q-11 1 -13 1q-28 0 -38 -14t-10 -34q0 -6 2 -42q1 -36 1 -42q1 -5 2 -17t1 -15q0 -10 -6 -20t-29 -10q-3 0 -14 1q-4 1 -6 1q-5 0 -14 1h-6h-4q-4 -1 -5 -1q-5 0 -25 -1q-26 -1 -28 -1q-11 0 -20 4t-9 22q0 5 2 15 q2 7 2 10v31q0 4 -1 25t-1 24l1 23v26v110v17l-1 16l1 24v27z"/>
<glyph glyph-name="Q" horiz-adv-x="458" unicode="Q" d="M267 182q-1 36 -1 108l1 74v80q-1 31 -1 60t-2 38q-8 29 -39 29q-15 0 -25 -5t-14 -19q-2 -6 -3 -32t-1 -39l1 -21v-21v-84q-1 -64 -1 -92q0 -24 2 -52t4 -39q4 -7 10 -13t14 -7q4 0 4 2q0 6 -7 13q-8 11 -10 16t-2 9q-1 12 11 19t22 7q12 0 24 -15q1 -1 6 -8q6 -8 7 -8z M455 120v-13q-1 -9 -1 -30t-1 -34l1 -11v-12q0 -12 -6 -18t-19 -6q-9 0 -28 6t-46 28q-23 -18 -53 -29t-85 -11q-35 0 -67 8t-57 28q-25 18 -39 42t-21 61t-9 99t-2 174q0 108 6 161t26 82q8 11 24 25t34 23q24 12 60 17t67 5q41 -1 69 -9t46 -21t27 -26t18 -30 q18 -33 23 -74t5 -121q0 -13 1 -60q1 -61 1 -68q0 -59 -2 -90t-6 -74q10 5 16 5q6 1 12 -5t6 -22z"/>
<glyph glyph-name="R" horiz-adv-x="458" unicode="R" d="M185 538q0 -3 1 -19q1 -17 1 -20q0 -10 -1 -31t-1 -32q-1 -29 5 -44t29 -15q19 1 37 13t17 41q0 10 -1 16q0 11 -1 37t-2 34q-3 30 -17 38t-32 8q-22 0 -28 -6t-7 -20zM32 415l2 192v53t4 30q5 12 16 15t27 3h27l26 -1h2q8 0 30 1t30 2h3q47 2 73 2q32 0 62 -11t60 -52 q13 -17 20 -33q6 -16 10 -31q4 -17 5 -37t2 -56q0 -5 1 -33q2 -29 2 -35q0 -34 -14 -76t-46 -72l-2 -2l-10 -10t-3 -7q0 -7 8 -19l1 -1q6 -12 8 -18q9 -21 14 -34t16 -43q7 -19 21 -52q11 -24 13 -30q7 -16 7 -28q-1 -10 -9 -20t-28 -10q-5 0 -24 1q-25 1 -27 1q-3 0 -24 -1 q-23 -2 -28 -2q-17 0 -23 7t-9 26v1q-1 9 -5 20t-11 31l-2 6q-12 30 -18 44q-7 18 -12 36q0 2 -1 2q-6 22 -10 31t-14 9q-6 0 -10 -4t-4 -6q-2 -4 -2 -26t-1 -41q0 -9 1 -23v-10q0 -5 2 -31q2 -31 2 -35q0 -14 -6 -26t-24 -13q-3 0 -25 1q-23 2 -28 2q-7 0 -21 -2h-2 q-3 0 -13 -2q-11 -1 -14 -1q-27 0 -27 38v11q1 21 1 64q0 5 1 37q1 34 1 40q0 17 -1 55v173z"/>
<glyph glyph-name="S" horiz-adv-x="354" unicode="S" d="M14 41v50v16l-1 15q0 2 1 10q1 12 1 13q0 4 1 8q0 10 2 14q3 5 14 11t17 6q3 0 5 -1t9 -5l3 -2q5 -3 15 -7q28 -14 51 -14q18 1 28 7t15 14t7 16t1 12q0 16 -10 30t-34 36q-5 6 -13 13l-7 7q-9 9 -23 29q-3 3 -9 10q-12 13 -17 19q-10 14 -16 22t-12 23q-16 31 -23 55 t-7 64q0 46 6 70t15 42q7 12 21 29t20 23q13 11 50 23t85 12q23 0 49 -2t35 -7q13 -7 15 -19t3 -53v-49q0 -5 -1 -11t-4 -10q-4 -7 -14 -12t-17 -5q-3 0 -5 1t-12 4l-1 1q-22 10 -46 10q-45 0 -45 -40q0 -13 4 -21t17 -20l11 -11q9 -10 10 -11t12 -13q6 -5 14 -15t12 -13 q20 -17 27 -25t22 -29q10 -15 15 -23t14 -32l2 -4q12 -27 16 -50t4 -68q0 -12 -2 -28t-6 -34q-6 -20 -18 -40t-31 -39q-19 -16 -37 -28t-37 -17q-20 -5 -36 -7t-33 -2q-22 0 -36 2t-49 10q-27 5 -37 13t-10 27z"/>
<glyph glyph-name="T" horiz-adv-x="333" unicode="T" d="M60 543h-14h-2q-8 -2 -12 -2q-6 -1 -14 3t-11 9q-1 3 -2 23t-1 24t1 17q1 17 1 19v17q-1 13 -1 19q1 8 3 16t8 12q6 2 18 4t24 2h17q13 -1 19 -1q7 1 23 1t20 1h51h14q8 -1 15 -1q13 0 16 1h70q15 -1 19 -13t5 -35l1 -37v-40q0 -40 -30 -40q-1 0 -11 1t-11 1 q-21 0 -27 -4t-6 -19q0 -28 1 -38q0 -4 1 -32q2 -30 2 -36q0 -5 -1 -35t-1 -36t1 -50q2 -46 2 -56q0 -7 -1 -51q-1 -45 -1 -53q0 -5 1 -33v-33l1 -17v-18q0 -13 -6 -24t-24 -11q-4 0 -13 2h-3q-10 1 -29 1h-12q-6 -1 -18 -1t-15 -1q-3 0 -9 -1t-9 -1q-10 0 -18 7t-7 16 q0 5 1 7q2 11 3 34v12v87q-1 78 -1 86v43q-1 31 -1 45q0 6 1 35v34v73q0 2 1 21v20q1 17 -7 21t-22 5z"/>
<glyph glyph-name="U" horiz-adv-x="437" unicode="U" d="M21 668q-1 24 9 32t18 8q4 0 32 -1q29 -1 34 -1q3 0 18 1t17 1q13 0 23 -6t11 -23q0 -15 -1 -55t-1 -55l1 -37v-39q0 -7 -1 -53q-2 -49 -2 -59q0 -5 1 -33q2 -29 2 -35v-29q-1 -18 -1 -30v-28q-1 -22 -1 -33q0 -21 8 -31t28 -11q22 -1 32 9t10 33v52v13q-1 13 -1 19 q-1 6 -1 70q0 4 1 27t1 27q0 7 -1 49q-1 45 -1 54l1 42v48q0 4 -1 27q-1 22 -1 26v17v9q-1 10 -1 12q0 13 9 19t23 5h25q19 -1 27 -1l20 1h20q13 -1 25 -7t12 -30q0 -3 -1 -15q-1 -16 -1 -18q0 -3 2 -36q1 -30 1 -38v-24q-1 -19 -1 -27q0 -4 1 -29q1 -26 1 -32q0 -4 -1 -34 q-2 -31 -2 -37q0 -4 1 -34q1 -32 1 -38q0 -3 -1 -43q-2 -36 -2 -46q0 -3 1 -28q1 -27 1 -32q0 -36 -17 -71t-54 -62q-26 -20 -54 -28t-67 -9q-63 -1 -95 11t-55 34q-31 30 -39 59t-10 73q0 50 -1 75q0 6 -1 45q-2 43 -2 51q0 13 1 38t1 37q0 5 1 33q1 29 1 35v12 q-1 10 -1 15q0 6 1 18t1 19t-1 25q-1 15 -1 47q0 5 -1 24q-1 24 -1 26z"/>
<glyph glyph-name="V" horiz-adv-x="437" unicode="V" d="M62 308q-4 26 -14 76l-7 33q-14 68 -19 99q-2 15 -5 45q-5 40 -8 59q-7 38 -9 48t-1 17q-1 13 7 17t18 3q3 0 21 -1q17 -1 20 -1q4 0 30 1q27 2 32 2q19 0 25 -8t11 -25q1 -5 3 -23t6 -39q3 -21 5 -40l2 -19q2 -15 7 -46l1 -7q4 -38 5 -63q2 -22 7 -64q6 -52 8 -70t2 -24 q0 -4 2 -22q1 -8 1 -10q0 -6 2 -12t5 -7q3 1 5 5t3 22q-1 1 1 19q2 17 4 33t2 22q1 17 8 78l7 61q4 28 4 33t1 24t2 26q1 10 5 30q3 13 4 39q0 15 1 23q2 42 10 53t36 11q4 0 30 -1q27 -2 32 -2q11 0 19 1h19q23 0 23 -28q0 -6 -1 -11t-5 -20q-2 -9 -5 -27t-5 -36 q-3 -18 -5 -36t-2 -22q0 -2 -1 -15q-2 -13 -2 -16l-8 -42l-12 -71q-5 -29 -6 -32q-1 -8 -5 -32t-7 -48q-10 -62 -13 -80l-5 -30q-8 -34 -11 -52q-1 -4 -3 -16t-4 -25q-3 -20 -4 -27v-1q-3 -19 -10 -29t-24 -10h-13t-9 2q-22 1 -55 1h-51h-12l-13 -1q-13 0 -18 8t-8 20v1 q0 2 -3 16q-4 16 -7 31t-5 22q-4 24 -13 65q-9 40 -14 64q-10 54 -14 81z"/>
<glyph glyph-name="W" horiz-adv-x="646" unicode="W" d="M76 205q-4 23 -8 49t-12 68q-11 65 -14 82q-4 24 -14 72t-14 71q-2 7 -4 27t-4 32t-4 38q-3 25 -3 29q0 9 4 19t18 10q6 0 10 -1q11 -1 32 -1q17 0 32 1h5q14 2 22 2q24 0 32 -8t9 -31q1 -9 2 -14q1 -20 3 -32t6 -37q16 -92 26 -153q8 -50 10 -76q2 -18 4 -28q1 -7 1 -13 t4 -6q5 0 7 3t1 9q0 1 8 34q11 47 17 77t6 33l-4 23q-6 33 -8 50q-1 9 -4 28q-2 20 -4 31q-2 12 -5 35q-5 22 -7 38t-2 17q0 9 6 14t16 5q8 0 12 -1q18 -2 27 -2q6 0 38 2q10 0 28 1h11q18 0 25 -8t9 -26q10 -84 15 -127q16 -141 16 -148q1 -5 2 -23q2 -26 4 -36q1 -6 1 -17 q0 -14 6 -14q2 0 3 6q1 1 1 2q1 5 4 33t5 52q2 26 3 32q1 15 6 42q3 21 4 29q0 3 1 15q1 22 3 41t3 26q1 19 3 39t3 41q0 17 5 27t22 10h11q15 -2 31 -2h39h14q15 1 19 1q16 0 20 -7t5 -17q0 -3 -5 -39l-1 -7q-6 -34 -9 -50l-1 -5q-3 -21 -4 -32q-3 -16 -3 -24t-2 -19 q-2 -12 -4 -25t-9 -50l-6 -36q-5 -31 -6 -37q-7 -43 -14 -68q-1 -4 -2 -9t-2 -9q-4 -17 -10 -58q-9 -53 -14 -73q-1 -6 -4 -18q-3 -10 -4 -14q-3 -14 -7 -35q-6 -44 -12 -56t-24 -12q-4 0 -26 2q-8 0 -20 1h-7h-9q-14 -1 -22 -1h-6q-21 -2 -24 -2q-14 0 -20 6t-9 16v3 q-1 6 -3 14t-5 32q-6 39 -15 74q-5 19 -9 37t-4 23v2q-1 9 -3 9q-4 0 -5 -3t-1 -8l-2 -9q-2 -9 -5 -33q-4 -24 -7 -43q-3 -18 -4 -21q-1 -6 -1 -14q-1 -8 -2 -14q-4 -22 -6 -34q-1 -16 -7 -26t-22 -10h-6q-13 2 -19 2h-21h-32t-29 -2q-2 0 -6 -1h-5q-14 -1 -20 7t-9 18 q-1 8 -5 29q-3 21 -3 23q-1 9 -17 81z"/>
<glyph glyph-name="X" horiz-adv-x="437" unicode="X" d="M344 467q-2 -5 -12 -29q-11 -25 -13 -30q-12 -28 -14 -33t-2 -10q1 -6 3 -13t15 -35q1 -2 2 -5q11 -23 23 -53q12 -31 26 -65t20 -52l6 -18l15 -42q1 -3 8 -17q6 -15 7 -18q2 -6 4 -13t1 -10q-1 -16 -9 -20t-20 -4h-48q-5 0 -33 -1q-26 -1 -30 -1q-17 0 -23 8t-12 23 q0 1 -2 5q-4 12 -11 31t-9 24l-2 6q-5 19 -8 28t-4 13t-2 13q-1 1 -1 3q0 1 -2 5q-3 13 -5 13l-4 -14q-4 -14 -4 -16q-1 -4 -1 -9q0 -6 -1 -10q-1 -6 -5 -18l-7 -25q-13 -49 -13 -50q-3 -14 -9 -22t-20 -8q-1 0 -10 1q-18 1 -22 1q-2 0 -18 1t-18 1h-12q-10 -1 -11 -1 q-5 0 -28 -2h-7q-8 0 -15 4t-7 14q0 7 2 15t8 21v1q5 12 18 44q5 12 9 22q3 7 9 22q9 26 15 39q10 24 16 36q2 5 5 14q6 13 8 20l8 18q16 39 24 59q6 16 10 24l1 2q4 10 5 13t1 7t-2 10l-9 27q-3 8 -10 24t-10 24q-2 3 -6 13t-8 22t-7 20l-3 8q-6 17 -13 34q-12 30 -18 46 t-17 39q0 1 -1 2q-7 15 -11 27t-4 16q0 12 8 16t18 4q12 0 22 -1q6 0 16 -1h6q3 0 28 1q27 2 33 2q20 0 27 -6t12 -22q2 -11 6 -23t10 -23q6 -15 12 -33t6 -25q0 -3 2 -9t5 -6q2 0 2 7q1 5 2 11t2 11q1 6 8 32q4 13 6 19t4 13q4 12 5 17l1 2q5 16 11 24t24 8q5 0 24 -1 q25 -1 27 -1l24 1h29q16 -1 24 -3t8 -13q0 -3 -4 -15t-10 -28q-6 -18 -14 -35q-7 -17 -9 -23l-1 -1q-8 -17 -22 -51q-5 -12 -12 -30q-11 -26 -16 -37z"/>
<glyph glyph-name="Y" horiz-adv-x="417" unicode="Y" d="M-3 679q0 13 7 19t16 5h7q11 -1 18 -1q20 -2 25 -2q3 0 28 2h6q9 0 24 1h9q15 1 21 -7t11 -26v-2q1 -3 3 -18t2 -18q4 -16 5 -24q9 -32 16 -79q1 -7 5 -25t6 -19q1 0 2 5l1 2q2 5 6 26t8 41q0 3 1 8l4 17q8 35 10 52q0 3 1 16q0 9 1 16q2 16 8 26t27 10q6 0 29 -1 q23 -2 29 -2h7q12 1 19 1q11 1 26 1q13 1 22 -3t9 -18q0 -7 -3 -19l-6 -17l-7 -17q-2 -5 -4 -16t-3 -16q-7 -28 -16 -51q-16 -46 -23 -69q-5 -16 -13 -48q-9 -38 -16 -58q-10 -28 -15 -41q-12 -30 -16 -44t-6 -24t-4 -18v-25v-3q-2 -47 -2 -73v-27t4 -61q0 -2 1 -14 q1 -13 1 -15q0 -9 -6 -18t-26 -9q-5 0 -24 1q-25 1 -27 1q-5 0 -17 -1t-18 -1q-20 -2 -21 -2q-9 0 -17 7t-9 24q0 3 2 18q1 15 1 18q0 5 -1 33q-1 30 -1 36v16t2 35q2 23 2 35v19q0 17 -3 30q-1 7 -9 30t-14 39q-2 3 -8 23t-9 26l-1 4q-6 23 -8 28t-7 18q-1 6 -9 28t-16 48 q-8 25 -16 49t-11 40q-8 30 -13 45q-4 14 -6 20t-1 13z"/>
<glyph glyph-name="Z" d="M26 671q0 20 10 27t24 7q4 0 19 -1q19 -1 21 -1l20 1h22q9 0 44 -1q46 -1 50 -1q56 0 66 1q6 0 13 1h12h27q18 0 23 -12t6 -44q0 -3 1 -20v-15q0 -11 -2 -17t-8 -17q-1 -1 -1 -2q-5 -9 -13 -29t-9 -22q0 -1 -3 -7q-7 -19 -22 -53t-24 -53l-8 -16l-15 -30q-1 -3 -9 -23 t-12 -28q-4 -9 -13 -34q-10 -25 -11 -27q-8 -15 -16 -37q-1 -2 -5 -13q-6 -17 -9 -24t-4 -8q-4 -5 -4 -7v-4q0 -4 4 -4h1h2h25q4 0 19 1q20 1 22 1h33q3 0 25 1q23 2 27 2q16 -1 24 -9t8 -20v-7q-1 -7 -1 -8q-1 -5 -1 -43l1 -16v-19q0 -15 -6 -27t-27 -13q-1 0 -6 1h-8 q-10 1 -39 1h-29q-22 -1 -32 -1q-3 0 -27 1q-25 1 -30 1q-9 0 -41 -1q-42 -1 -46 -1h-25h-11q-12 -1 -15 -1q-21 -1 -27 9t-6 22v36q-1 24 -1 39q0 19 2 27t13 29q4 9 10 26l5 13q13 32 19 46t11 26t17 37q0 1 1 3q9 17 14 28t16 40l6 14q17 45 42 88l6 11q5 12 9 18t6 13 q2 8 4 12l2 5q3 5 3 7q1 4 -1 6t-5 1h-4l-4 -1q-4 0 -29 1q-26 1 -32 1q-4 0 -22 -1t-24 -2h-19q-13 0 -21 4t-8 19l1 24v24v23z" unicode="Z"/>
<glyph glyph-name="bracketleft" horiz-adv-x="250" unicode="[" d="M33 658q0 48 39 48q7 0 22 -2l11 -1q26 -2 48 -2q26 0 39 3q5 1 8 1q9 2 15 2q12 1 22 -5t10 -27v-16q-1 -12 -1 -18l1 -14v-15q0 -20 -8 -26t-26 -7h-1q-16 -1 -22 -17t-6 -56v-149q0 -13 1 -93q1 -85 1 -102v-42q0 -5 -1 -22q-1 -22 -1 -25q0 -21 17 -27q1 0 7 -1 q4 0 7 -1q9 -2 19 -8t12 -14q2 -5 2 -13v-7q-1 -10 -1 -16l1 -17v-19q0 -22 -15 -28t-30 -7h-9q-5 1 -10 1q-30 2 -47 2q-13 0 -37 -2q-1 0 -8 -1h-8q-8 1 -18 3t-20 11q-6 7 -10 17t-4 39q0 6 2 39t3 64v19q1 12 1 18v18v19q2 57 2 92v119q0 9 1 63q1 58 1 69q0 23 -2 61 t-3 48q-4 28 -4 44z"/>
<glyph glyph-name="bracketright" horiz-adv-x="250" unicode="]" d="M0 615v52q0 16 8 28t36 12h12q10 -1 12 -1q24 -2 35 -2q28 0 44 2h17q17 0 29 -7q15 -9 19 -22t4 -45q0 -6 -2 -34t-3 -61q0 -10 -1 -75q-1 -61 -2 -73v-95q-1 -72 -1 -104q0 -12 -1 -45t-1 -46q1 -5 1 -13t1 -28q1 -22 1 -30t1 -11q1 -11 3 -29t2 -23q0 -15 -5 -26 q-9 -23 -37 -23q-7 0 -21 2q-34 3 -56 3q-26 0 -38 -2q-12 -3 -25 -3q-16 0 -24 8t-8 21v18q1 18 1 23v11q-1 11 -1 14q0 21 10 27t24 5q19 0 24 15t5 37v87l1 46v48q0 26 -1 78q-1 53 -1 80v56t2 48q0 1 1 6v5q0 7 -4 16t-18 12h-1q-22 4 -32 11t-10 27z"/>
<glyph glyph-name="underscore" horiz-adv-x="500" unicode="_" d="M510 -75v-50h-520v50h520z"/>
<glyph glyph-name="grave" horiz-adv-x="208" unicode="`" d="M10 696q0 8 5 10t9 2h9l8 -1h21q17 -1 24 -1q5 0 24 1q26 1 29 1q14 0 19 -4t9 -17l5 -15t9 -24q4 -10 7 -18t4 -10t2 -3q3 -7 3 -10q0 -8 -10 -12h-4q-4 -1 -7 -1h-7q-16 1 -22 1h-40q-4 0 -7 2t-12 11q-4 3 -16 16q-12 14 -30 32t-18 19l-1 1q-13 11 -13 20z"/>
<glyph glyph-name="a" horiz-adv-x="375" unicode="a" d="M179 268q-5 0 -13 -4t-13 -15q-5 -10 -6 -19t-1 -32v-19q0 -60 33 -60q15 0 23 13t8 20q1 4 1 76q0 18 -10 29t-22 11zM356 214v-73l1 -26v-28q0 -5 -1 -24q-1 -24 -1 -26v-15q1 -13 -7 -18t-19 -5h-24q-18 1 -26 1t-20 -1h-8q-1 0 -7 -1h-8q-10 0 -12 4t-2 12 q0 11 -6 11q-2 0 -13 -9q-3 -4 -5 -5q-21 -17 -57 -17q-25 0 -41 5t-29 14q-20 13 -33 35q-14 22 -20 46q-6 26 -8 50t-3 45q0 106 36 153q21 28 49 38t49 11q15 -1 25 -3t30 -12q4 -2 8 -2q6 0 10 4t4 12t-2 17t-6 14q-5 9 -17 13t-40 4q-38 0 -64 -14q-7 -5 -10 -6t-7 -1 q-6 0 -16 6t-11 12q-1 3 -1 9t-1 10v11q1 11 1 13v16q-1 13 -1 15q0 13 6 21t26 14q27 9 43 11t35 2l21 1h20q26 0 64 -8t61 -23q21 -15 29 -39t9 -76v-23q-1 -18 -1 -26l1 -31v-31v-43q-1 -37 -1 -44z"/>
<glyph glyph-name="b" d="M196 419q-6 0 -10 -4l-9 -9q-7 -10 -9 -20t-1 -29q0 -4 -1 -28t-1 -29q0 -24 2 -63q-1 -23 1 -39t3 -19q8 -23 26 -23q13 0 19 8t8 19q0 3 2 19t2 31q0 14 2 30q1 16 1 24q0 37 -2 67t-7 43q-3 9 -11 15t-15 7zM19 539v111q-1 4 -1 18t-1 17q1 11 5 17t20 6q3 0 24 -1 q22 -2 26 -2q9 0 23 2q8 1 17 1q6 1 8 1q28 0 28 -28q0 -5 -1 -23q-2 -19 -2 -24q0 -4 1 -30t1 -31v-14q-1 -3 -1 -18q0 -3 2 -5t5 -3q4 0 11 4l2 2q14 12 32 17t37 5q31 0 54 -12t39 -42q16 -31 26 -83q8 -52 8 -133q0 -6 -2 -41q-1 -10 -2 -24t-1 -19v-4q-1 -54 -5 -82 t-17 -54q-15 -29 -41 -51t-67 -23q-19 -1 -35 5t-27 13q-1 1 -5 4q-8 6 -9 6q-3 0 -5 -6q-1 -2 -2 -5q-1 -4 -2 -6q-2 -4 -6 -5t-7 -1t-22 1t-23 1q-23 0 -41 -2q-4 0 -8 -1h-6q-32 0 -32 32q1 5 1 17t1 16v106q0 5 -1 35t-1 37q0 5 1 35q1 32 1 38q0 8 -1 55q-1 49 -1 58 q0 7 1 54q1 49 1 59z" unicode="b"/>
<glyph glyph-name="c" horiz-adv-x="271" unicode="c" d="M17 279q-1 59 3 89t13 66q7 28 17 50t26 42q18 18 46 28t68 11h41q26 0 30 -20v-17l1 -37v-40q0 -21 -8 -29t-23 -9q-1 0 -8 1h-9q-17 0 -28 -14q-10 -14 -14 -43t-4 -83q0 -9 1 -34t2 -36q3 -21 13 -34t34 -13q2 0 10 1q10 1 12 1q23 0 23 -30q0 -3 -1 -29 q-2 -29 -2 -35l1 -16v-16q1 -25 -13 -31t-31 -6q-5 0 -16 1q-12 1 -18 1l-7 -1h-7q-43 0 -67 16t-45 42q-11 15 -15 25t-9 26q-5 20 -9 38t-5 36t-1 38t-1 61z"/>
<glyph glyph-name="d" d="M196 406q-11 0 -18 -8t-10 -18q-4 -10 -4 -18v-17v-74v-27q-1 -22 -1 -26q0 -32 7 -56t26 -24q21 0 27 22t6 83v24q-1 19 -1 27q0 4 1 21v21q1 34 -7 52t-26 18zM229 565v55q0 4 -1 27q-1 25 -1 30q0 31 28 31q7 0 21 -2q18 -2 29 -2q3 0 24 1q22 2 27 2q12 1 20 -5 t8 -22q0 -8 -1 -12v-7q-2 -35 -4 -89t-2 -106v-54q-1 -42 -1 -60q0 -6 1 -44q1 -39 1 -47v-67q-1 -50 -1 -72q0 -6 1 -48q1 -44 1 -52q0 -16 -9 -20t-22 -4q-5 0 -23 1q-26 1 -29 1q-4 0 -17 -1q-18 -1 -20 -1q-12 0 -15 4t-3 12q0 12 -8 12q-4 0 -10 -6q-13 -12 -31 -20 t-46 -8q-32 0 -52 14t-34 29q-14 17 -22 39t-12 44t-6 41q-2 20 -2 34q0 5 -1 33q-1 49 -1 59v23t2 34q1 24 2 38q1 12 1 16q5 50 19 82t34 50t40 25t37 7q14 0 27 -3t20 -6q10 -5 13 -6t5 -1q8 0 10 5t3 16z" unicode="d"/>
<glyph glyph-name="e" d="M161 365q-1 -11 1 -19t9 -11q4 -1 15 -1t22 -1q14 -1 20 5t6 23q0 41 -3 52q-5 17 -15 22t-19 5q-13 0 -21 -8t-10 -18q-3 -10 -4 -22t-1 -27zM360 85v-41q0 -15 -10 -23q-12 -9 -44 -17t-78 -8q-54 0 -94 14t-71 56q-29 39 -37 85t-8 128q0 3 2 35t2 41t1 17 q7 95 51 144t125 49q43 0 76 -13t60 -52q24 -34 31 -68t7 -73q0 -11 -1 -59t-2 -52l-1 -1q-5 -11 -13 -20t-21 -9q-2 0 -13 1q-12 1 -14 1q-3 0 -24 -1q-22 -2 -26 -2q-7 0 -33 1q-35 1 -39 1q-10 0 -17 -4t-7 -21q0 -19 11 -33q13 -18 29 -23t37 -5q27 0 39 3t38 16l2 1 q10 3 15 3q9 0 19 -8t10 -17l-1 -12q-1 -28 -1 -34z" unicode="e"/>
<glyph glyph-name="f" horiz-adv-x="250" unicode="f" d="M17 519h9q8 0 10 4t2 11q0 6 -1 27q-1 30 -1 33q0 21 2 38t11 34q9 16 29 28t54 13h21q21 -1 26 -1l13 1h16q24 0 30 -10t5 -37l1 -20v-20v-23q-2 -15 -8 -19t-12 -5q-2 0 -13 2t-13 2q-21 0 -21 -27q1 -20 3 -24t13 -4h11q11 1 13 1q18 -1 23 -9t5 -19v-16 q-1 -12 -1 -18v-21q1 -21 1 -26q0 -10 -2 -15t-9 -6h-19q-17 0 -22 -6t-5 -14v-43q0 -12 2 -64q2 -40 2 -48v-16q2 -16 2 -25v-18q-1 -15 -1 -22v-31q-1 -24 -1 -34q2 -37 3 -49q0 -10 -5 -15t-10 -8q-5 -1 -32 -1h-17q-13 1 -19 1q-4 0 -20 -1q-20 -1 -22 -1q-18 0 -26 4 t-8 16q0 4 2 34q3 31 3 37q0 4 -1 46q-2 38 -2 48q0 9 1 42q1 43 1 47q0 5 -1 33q-1 29 -1 35v24q0 2 1 8t1 10q0 12 -12 12q-2 0 -6 -1h-4q-10 -1 -12 5t-2 20l1 20v20v19q-1 15 -1 22q0 8 2 14t11 6z"/>
<glyph glyph-name="g" horiz-adv-x="375" unicode="g" d="M153 368v-53q0 -97 28 -97q6 0 10 4q7 4 11 10t4 22q1 17 1 96q-1 10 -1 20t-2 22t-9 20q-6 8 -15 9q-8 0 -15 -9q-5 -7 -8 -20t-4 -24zM357 101v-9q0 -10 -1 -15q-1 -29 -2 -41t-3 -19q-11 -40 -61 -68t-132 -28q-18 0 -44 2t-39 4q-13 1 -23 7t-12 18v15q-1 46 -1 50 q1 17 7 27t21 11q1 -1 9 -3t26 -8q7 -4 21 -6t23 -2q20 0 40 7t25 19q1 2 3 14t1 17q0 12 -7 12q-1 0 -4 -2l-3 -3q-2 -2 -7 -4q-20 -11 -29 -14t-24 -3q-12 1 -23 3t-19 5q-19 9 -29 17t-21 26q-19 26 -25 48t-10 67q-3 30 -3 60l1 30v36q0 5 1 17t3 30q2 20 7 40t13 37 q12 23 28 38t32 22t27 9t16 3q16 0 34 -7t26 -18q1 -2 2 -2q5 -8 8 -8t5 6l1 1q0 1 1 5q1 6 2 10q3 8 14 8q6 0 18 -2h2q6 -1 31 -1h6q10 1 16 1q10 1 23 1q12 0 20 -5t9 -23v-44q-1 -34 -1 -48q0 -9 1 -52v-53q0 -33 -1 -60q-2 -38 -2 -57v-24t2 -21q0 -1 1 -36v-37z"/>
<glyph glyph-name="h" d="M20 403q0 6 -1 30q-1 31 -1 35q0 7 1 54q2 52 2 63v37q0 4 -1 28q-1 25 -1 30q1 11 5 21t19 10q4 0 17 -1q17 -1 19 -1q6 0 32 2q30 2 34 2q13 1 19 -7t6 -19q0 -4 -1 -18q-1 -19 -1 -21l1 -23v-24v-22q-1 -17 -1 -25q0 -18 8 -18q2 0 4 1t8 7t28 14t44 9q21 0 49 -8 t46 -28q13 -16 19 -36t6 -52q0 -4 -1 -32q-1 -29 -1 -35v-89q-1 -54 -1 -90q0 -5 1 -34q1 -30 1 -36v-26q-1 -20 -1 -29l1 -20v-23q0 -19 -9 -24t-20 -5q-3 0 -26 1q-24 1 -29 1q-4 0 -20 -1q-21 -1 -23 -1q-17 0 -22 5t-5 23q0 2 1 11v17v24l-1 23l1 20v23q0 6 -1 48 q-1 43 -1 51v55t2 44q0 1 1 19t1 19q0 26 -7 32t-18 6q-20 0 -26 -12t-7 -30v-1q-1 -29 -1 -56l1 -31v-34q1 -28 1 -97q0 -5 -1 -34q-1 -30 -1 -36q0 -15 2 -39q0 -3 2 -16q1 -12 1 -14q0 -7 -4 -14t-18 -7q-5 0 -24 1q-24 1 -26 1q-3 0 -24 -1q-22 -2 -27 -2q-17 0 -25 6 t-8 25l1 36v38v47q-1 36 -1 52q0 6 1 62v61l1 38v40z" unicode="h"/>
<glyph glyph-name="i" horiz-adv-x="187" unicode="i" d="M17 535q0 5 2 11t10 10t17 4q4 0 18 -1q18 -1 20 -1q4 0 30 1q28 1 33 1q13 0 19 -8t6 -21q0 -6 -1 -23v-3q-2 -32 -2 -47q0 -9 1 -44q1 -46 1 -50q0 -5 -1 -40q-1 -36 -1 -43q0 -14 1 -42t1 -41q0 -3 -1 -37q-2 -32 -2 -41q0 -7 2 -41q2 -19 2 -29v-14q0 -10 -4 -22 t-22 -12q-2 0 -16 1t-16 1q-6 0 -35 -2q-27 -1 -32 -1q-17 -1 -25 7t-8 28q0 8 1 26q1 17 1 84l1 30v33v34q-1 25 -1 36q0 8 2 36q1 29 1 36v23q-1 18 -1 26l1 34v39q0 24 -1 35v12q-1 10 -1 15zM19 684q0 28 28 28q10 0 16 -1q8 -1 25 -1q31 0 50 1l7 1h7q8 0 12 -7t5 -16 v-1v-13q-1 -10 -1 -15q0 -3 1 -14q1 -15 1 -17q0 -20 -23 -20l-20 1h-22q-5 0 -23 -1q-24 -1 -26 -1h-7q-7 -1 -9 -1q-12 -1 -16 11t-4 30v17q-1 13 -1 19z"/>
<glyph glyph-name="j" horiz-adv-x="208" unicode="j" d="M46 466q0 6 -2 33q-2 31 -2 35q0 10 6 17t20 7q10 0 17 -1q5 0 13 -1h4h12q21 1 33 1q3 1 11 2t10 1q16 0 20 -10t5 -23v-34q-1 -27 -1 -39l1 -24v-30v-40q-1 -29 -1 -42q0 -5 1 -35t1 -37q0 -5 -1 -37q-1 -34 -1 -41l1 -60v-62q-1 -21 -3 -36t-7 -30q-18 -50 -61 -60 q-6 0 -30 -2t-38 -2q-22 0 -38 8t-16 27q0 4 1 33q1 30 1 36q0 17 -1 26q-1 4 -1 13q0 13 6 16t22 3q9 0 14 4t5 17q0 38 -1 53q-1 5 -1 12t-1 12v64q0 5 1 35q1 29 1 34q0 6 -1 43q-1 38 -1 45q0 5 1 33q1 30 1 36zM43 678q1 16 5 24t18 7h17l16 -1h23q15 0 23 1h3 q10 2 16 2q12 0 20 -5t7 -18v-13l-1 -13q0 -3 1 -14q1 -15 1 -17q0 -15 -9 -19t-21 -4l-23 1h-25q-5 0 -23 -1q-22 -1 -25 -1q-14 0 -18 7t-4 20v21q-1 16 -1 23z"/>
<glyph glyph-name="k" horiz-adv-x="375" unicode="k" d="M16 449v78q0 11 -1 53q-1 56 -1 62v18q-1 16 -1 18q-1 16 7 21t17 5h74q12 0 19 1q1 0 6 1h7q19 0 22 -17v-35q0 -7 -1 -50q-1 -44 -1 -53v-152q0 -7 1 -7q4 0 16 19t19 43q5 21 6 34t1 40q0 16 7 22t19 7q4 0 13 -2h3q14 -2 49 -2h21q21 1 26 1q12 0 16 -8t3 -14 q1 -5 -3 -25t-7 -34q-3 -11 -10 -33t-16 -45t-19 -43t-16 -29t-7 -11t-1 -8q0 -5 2 -13q1 -5 6 -17t11 -28q10 -26 12 -31q4 -9 10 -27l9 -27q3 -7 9 -22t8 -23q2 -6 11 -34q8 -28 10 -34q4 -11 5 -16t1 -10q0 -15 -9 -19t-21 -4q-4 0 -24 1t-24 1q-5 0 -32 -2 q-19 -1 -22 -1q-14 0 -22 10q-2 4 -8 28t-14 60q-7 30 -8 35l-2 6q-4 15 -6 23q-14 48 -19 48q-4 0 -4 -12l1 -6v-7q0 -7 1 -31v-24q0 -5 -1 -24q-1 -25 -1 -27q0 -4 2 -23q2 -23 2 -26q-1 -12 -5 -21t-21 -9q-4 0 -17 1q-18 1 -20 1q-4 0 -30 -1q-27 -2 -32 -2 q-18 -1 -23 9t-5 19q0 5 2 21t2 20v14q-1 20 -1 24q0 24 1 68v24v88q-1 78 -1 87q0 22 -1 34v7q-1 5 -1 9l1 13v15z"/>
<glyph glyph-name="l" horiz-adv-x="187" unicode="l" d="M18 675q0 34 33 34q3 0 20 -1q19 -2 23 -2h6q10 1 17 1q10 1 23 1q20 0 26 -10t6 -26q0 -3 -1 -28q-2 -27 -2 -32v-78q0 -7 -1 -50q-1 -45 -1 -55q0 -5 1 -28v-29t-1 -41q-1 -37 -1 -44q0 -8 1 -36q1 -38 1 -42q0 -14 -1 -44t-1 -45q0 -3 2 -39q1 -33 1 -42q1 -23 -5 -31 t-27 -9q-3 0 -17 1q-17 1 -19 1q-26 0 -41 -1q-4 -1 -13 -1q-30 0 -30 28q0 1 2 48l1 15q0 5 -1 32q-1 29 -1 35l1 47v52v54q-1 43 -1 63q0 6 1 42q1 37 1 44v28l-1 27l1 56v59q0 5 -1 22q-1 22 -1 24z"/>
<glyph glyph-name="m" horiz-adv-x="583" unicode="m" d="M170 242v-41q0 -29 1 -44v-18q-1 -14 -1 -21q0 -5 2 -26q1 -21 1 -26q0 -40 -4 -54t-23 -14q-4 0 -22 1t-22 1t-27 -1t-27 -1q-12 0 -21 6t-9 26q0 2 1 7v7q3 29 3 56q0 4 -1 47q-2 40 -2 50q0 43 2 127v24q-1 18 -1 26q0 5 1 31t1 31q0 17 -2 51q0 4 -1 17q-1 18 -1 20 q0 19 10 24t23 5h15q12 -1 17 -1h25t24 2q1 0 6 1h7q13 0 15 -5t2 -16q0 -13 8 -13q2 1 5 3t11 8q14 10 32 18t43 8q26 0 45 -8t32 -17q2 -3 8 -7t7 -4t7 5q2 2 6 5l2 1q1 1 2 1q29 14 45 20t40 6q35 0 55 -10t31 -24q16 -18 21 -44t5 -52q0 -8 -1 -36q-1 -38 -1 -42l1 -50 v-55v-44q-1 -34 -1 -48l1 -29v-30q0 -3 1 -27q1 -25 1 -30q0 -21 -6 -31t-23 -9q-3 0 -22 1q-20 2 -25 2q-3 0 -23 -1q-23 -2 -29 -2q-18 0 -22 10t-5 32q0 4 1 30q1 28 1 33v27q-1 16 -1 29q0 12 1 36q1 23 1 35v21q-1 16 -1 24v106q0 5 -1 14t-2 11q-1 5 -5 9t-13 4 q-16 0 -22 -16t-6 -37q0 -14 1 -21l1 -46v-50q0 -3 -1 -27q-1 -25 -1 -30v-66q0 -3 1 -26q1 -24 1 -29q0 -2 1 -20v-20q0 -19 -7 -26t-32 -7h-26l-27 1l-16 -1h-16q-18 0 -24 9t-6 29q0 6 1 43q2 41 2 49v40q-1 31 -1 45q0 28 2 86q1 58 1 86q0 35 -22 35q-17 0 -23 -19 q-5 -12 -5 -28v-10q1 -11 1 -16v-50q-1 -39 -1 -56z"/>
<glyph glyph-name="n" horiz-adv-x="375" unicode="n" d="M18 527q0 17 8 22t21 5h18q15 -1 22 -1h8q3 0 20 1t20 1q6 1 12 -1t9 -7l1 -3v-4l1 -3v-4q2 -6 7 -6l11 7q6 3 12 7t8 4q10 5 24 9t26 4q30 0 54 -13t35 -32q10 -17 15 -35t5 -54v-29q-1 -24 -1 -29l1 -25v-25v-22l-1 -23q0 -3 2 -37q1 -31 1 -40q0 -6 -1 -45 q-1 -40 -1 -48q0 -4 1 -32q1 -29 1 -35q0 -23 -10 -29t-34 -6h-16q-13 1 -19 1q-3 0 -19 -1h-21q-13 -1 -22 5t-9 25q0 6 1 43q1 38 1 45t-1 46q-1 40 -1 48q0 9 1 64q1 59 1 70q0 43 -3 57t-17 15q-23 0 -23 -52l1 -53v-56q0 -5 -1 -33q-1 -29 -1 -35q0 -7 2 -41 q1 -19 1 -29t1 -14q0 -3 -1 -17q-1 -17 -1 -19q0 -3 1 -12q1 -13 1 -15q0 -25 -8 -33t-25 -8q-5 0 -23 1q-22 1 -25 1t-20 -1q-18 -2 -22 -2q-27 0 -27 31v46q0 7 1 55q1 51 1 61q0 6 -1 39q-1 34 -1 41q0 5 1 38q1 34 1 41q0 9 -1 66q-1 60 -1 72v18q-1 14 -1 20z"/>
<glyph glyph-name="o" d="M195 424q-18 0 -24 -14t-6 -44q0 -7 1 -15v-18v-135q0 -29 4 -45t24 -16q23 -1 29 17t6 43q0 8 -1 59q-2 54 -2 65l1 22v25q-1 24 -7 40t-25 16zM16 312q0 71 5 105t19 64q11 21 25 36t23 21q19 12 50 21t68 9q33 0 60 -9t46 -23q18 -14 30 -30t17 -30q11 -24 15 -72 t4 -135q0 -55 -2 -90t-7 -56q-4 -21 -9 -33t-13 -23q-20 -33 -55 -53t-95 -21q-36 -1 -67 9t-54 32q-17 16 -24 28t-14 31q-1 1 -1 2l-2 7q-9 23 -11 34t-4 34q-1 15 -2 39t-1 47q-1 29 -1 56z" unicode="o"/>
<glyph glyph-name="p" d="M199 423q-10 0 -16 -6q-9 -7 -12 -17t-3 -21v-127v-19q-1 -14 -1 -21q0 -27 7 -45t27 -18q15 0 23 14t8 36v125q0 17 -2 51q-1 20 -7 34t-24 14zM166 532q3 0 5 4l8 8q10 9 26 16t36 7q28 0 50 -9q23 -10 37 -24t24 -30t14 -29q3 -9 7 -33t5 -32q2 -10 2 -28t1 -52 q1 -49 1 -68v-36q0 -18 -3 -42q-1 -24 -5 -47t-10 -40q-4 -11 -12 -29t-12 -23q-16 -23 -42 -35t-51 -11q-35 0 -57 12q-9 5 -14 5q-6 0 -8 -5t-1 -10q0 -3 3 -22q2 -17 3 -25t1 -11q0 -20 -22 -20q-8 0 -12 1q-22 2 -46 2l-25 -1h-26q-11 1 -17 7t-6 15q0 3 2 10v3 q2 28 2 50q0 8 -1 54q-1 47 -1 56v37v24q-1 19 -1 27l1 18v21v21q-1 17 -1 24q0 9 1 41q1 43 1 47v47q-1 35 -1 50q0 2 -1 18t-1 18q0 27 4 37t23 10q4 0 27 -1q25 -1 30 -1q4 0 16 1q17 1 19 1q14 0 18 -10q1 -2 2 -5q1 -4 2 -6q0 -7 5 -7z" unicode="p"/>
<glyph glyph-name="q" d="M198 423q-6 0 -14 -5t-12 -15q-2 -7 -4 -17t-1 -29q-1 -27 -1 -144q0 -29 3 -40q5 -13 13 -19t15 -6q11 0 19 8t11 18q3 9 3 21t1 59v30l-1 30l1 23v26q0 30 -6 40q-3 10 -11 15t-16 5zM16 282q0 48 5 108q5 45 11 69t13 37q15 26 41 48t66 22q10 0 28 -3t32 -14l12 -12 t8 -6q3 0 5 7l2 8q0 1 1 4q5 9 19 9q2 0 20 -1q13 -1 17 -1t27 1q22 1 26 1q19 0 24 -10t5 -27v-22q-2 -21 -2 -59v-69v-15q0 -4 1 -27q1 -24 1 -29q0 -13 -1 -36v-13l1 -18v-19v-22l-1 -23v-61q0 -10 -1 -47q-1 -47 -1 -52q0 -10 1 -26t2 -26q0 -1 1 -6v-6q0 -22 -26 -22 q-4 0 -25 1q-22 1 -27 1h-9q-3 0 -22 -2t-23 -2q-13 0 -18 6t-5 16q0 4 4 30q3 24 3 28q0 6 -2 10t-7 4q-4 0 -14 -6q-24 -12 -55 -12q-19 0 -37 6t-32 14q-14 9 -27 29q-22 34 -31 78q-6 27 -8 65t-2 92z" unicode="q"/>
<glyph glyph-name="r" horiz-adv-x="250" unicode="r" d="M16 527q0 13 6 21t24 8h39l21 1h24q14 0 20 -3t7 -14v-15q0 -4 1 -20q1 -21 1 -23q12 34 27 56t37 23q9 0 12 -3q9 -5 9 -22q0 -8 -1 -12q-1 -13 -1 -41q0 -40 1 -60q0 -3 1 -19q1 -17 1 -20q0 -8 -3 -14t-14 -7q-1 0 -7 2q-6 1 -8 1q-4 0 -11 -4t-14 -12q-6 -9 -12 -26 t-6 -44v-51v-29q-1 -24 -1 -35q0 -8 1 -28v-24q-1 -19 -1 -27q0 -1 1 -8v-8q0 -4 2 -17t2 -17q0 -20 -8 -28t-20 -8q-3 0 -19 1q-17 1 -20 1t-27 -1q-26 -2 -31 -2q-19 1 -25 7t-6 20v61q0 4 -1 34q-1 31 -1 37t1 39q1 34 1 41v167q0 9 -1 60q-1 52 -1 62z"/>
<glyph glyph-name="s" horiz-adv-x="313" unicode="s" d="M303 165q0 -50 -13 -79q-12 -24 -19 -34t-18 -20q-23 -22 -49 -31t-69 -9q-38 0 -53 2t-35 6q-19 6 -28 12t-9 24l1 24v27q0 18 -1 27v6q-1 5 -1 6q0 12 8 20t18 8q4 0 6 -1q6 -1 16 -6l5 -2q4 -1 21 -3t21 -2q14 0 26 8t13 22q-1 14 -7 23t-17 19q-4 4 -15 14 q-4 3 -10 8q-12 12 -26 28t-23 33q-17 33 -23 55t-5 45q1 25 5 47t10 32q0 2 8 14t11 18q21 30 55 43t72 13h9q7 0 25 -2q17 -1 27 -2h2q21 -2 31 -6t12 -19v-4q1 -5 1 -9q0 -9 -1 -23v-11q0 -2 1 -23q1 -16 1 -20q0 -15 -10 -23t-20 -7q-4 0 -18 5l-6 3q-13 5 -25 5 q-15 0 -25 -6t-9 -20q1 -12 11 -24t33 -37q27 -27 41 -43t24 -39q11 -22 16 -41t5 -51z"/>
<glyph glyph-name="t" horiz-adv-x="229" unicode="t" d="M181 262v-49l1 -20v-23v-10q0 -4 4 -8t7 -6h4q6 1 8 1q6 1 12 -5t6 -23v-21q-1 -17 -1 -25l1 -23v-23q0 -13 -6 -19t-14 -6h-6q-6 1 -28 1q-3 0 -27 -1q-26 -2 -31 -2q-42 0 -61 24t-19 74q0 5 1 33q1 30 1 36v108l1 40v42l1 13v12q0 10 -20 10q-10 0 -13 6t-3 15l1 22 v24v55q0 4 2 8t7 4h14q11 0 11 14v39q0 20 -1 30v3q-2 13 -2 19q0 17 7 28t20 11q5 0 24 -1q24 -1 26 -1q4 0 20 1q20 1 22 1q13 0 21 -6t9 -20v-27l1 -14v-17q0 -4 -1 -20q-1 -23 -1 -26q-1 -10 1 -12t8 -2h19q9 0 13 -4t4 -12v-16q-1 -12 -1 -18t1 -31q1 -32 1 -36 q-1 -12 -5 -15t-10 -3q-2 0 -13 1h-5q-11 0 -11 -14v-17l1 -19v-21v-27q-1 -21 -1 -32z"/>
<glyph glyph-name="u" d="M14 513q0 15 5 29t24 15q5 0 15 -2h17q14 -1 20 -1q4 0 22 2q7 0 18 1h5q9 0 17 -5t8 -22v-21q-1 -17 -1 -24q0 -5 1 -44q2 -41 2 -50q0 -3 -1 -39q-2 -33 -2 -42q0 -27 1 -75v-26v-20q-1 -15 -1 -22q0 -11 7 -19t24 -8t25 14t8 48q0 4 -1 30q-1 27 -1 32v60q0 77 -1 115 q0 8 -1 38q-1 39 -1 43q0 16 5 26t23 10l12 -1l12 -1q7 -1 21 -1q23 0 27 1q2 0 12 2q9 1 11 1q17 1 24 -7t7 -19v-10l-1 -11v-11q-1 -33 -1 -41l1 -24v-28q1 -14 1 -96q0 -7 -1 -57q-2 -53 -2 -65q0 -4 1 -30q1 -27 1 -32v-17q-1 -13 -1 -19q0 -3 1 -25q2 -23 2 -28 q0 -36 -28 -36q-4 0 -20 1q-21 1 -23 1q-15 0 -34 -2h-6q-10 -2 -16 -2q-10 0 -15 3t-6 7v2v3q0 1 -1 3v3v1q-2 6 -4 6t-7 -5l-1 -1q-2 -2 -6 -5l-2 -1q-23 -13 -37 -17t-44 -3q-39 0 -62 13q-18 9 -28 23q-10 13 -14 27t-6 26q-1 12 -1 22l1 27v30q0 5 -1 33q-1 29 -1 35 l1 61v66q0 70 -1 104q0 8 -1 26t-1 25z" unicode="u"/>
<glyph glyph-name="v" horiz-adv-x="375" unicode="v" d="M9 494q-1 7 -2 11q-3 17 -4 21t-1 8q0 12 8 16t16 5q2 0 13 -1t13 -1h32q3 0 19 1q18 2 22 2q22 0 27 -8t6 -34v-1v-3q1 -21 2 -34t6 -55q2 -20 4 -56l1 -13q1 -34 4 -53q3 -23 5 -33t6 -10q2 0 5 15t5 31t5 51q0 3 5 55l3 32q1 3 3 15q3 12 3 14q3 10 3 22t1 37 q1 12 5 20t18 8q4 0 22 -1q23 -2 27 -2h7q13 1 21 1q12 1 29 1q15 -1 19 -7t4 -14q0 -12 -3 -26q-8 -29 -10 -46q-1 -15 -5 -40q-3 -13 -9 -45q-6 -31 -12 -59t-19 -88q-2 -10 -8 -30q-1 -7 -5 -30q-5 -29 -9 -45q-1 -7 -4 -21q-5 -19 -6 -28q-2 -14 -3 -20q-6 -39 -12 -47 t-33 -8l-27 1h-33h-27q-20 -1 -29 -1q-9 -1 -13 3l-7 7q-1 3 -3 8t-4 22q-1 7 -4 20t-4 19q-3 15 -6 44l-1 5q-8 38 -12 58q-3 11 -7 31l-8 40t-8 42q-4 21 -4 27l-2 18q-2 16 -3 20q-2 13 -7 40q-3 16 -5 24q-2 11 -5 33t-5 32z"/>
<glyph glyph-name="w" horiz-adv-x="562" unicode="w" d="M222 341v2q0 12 -3 24q-1 13 -6 36l-3 16l-1 10q-4 29 -8 57t-6 36q-1 4 -1 6q-2 8 -2 11q0 11 5 14t13 3q9 0 14 -1h40h17q18 1 22 1q23 0 29 -8t7 -23q1 -18 1 -55q0 -2 1 -17v-17l3 -27t2 -27q2 -42 3 -64q2 -30 7 -74t8 -66q2 9 4 27q1 7 2 22t2 22q2 20 4 29 q3 28 5 49q3 29 9 85t7 76q2 20 2 25q1 29 8 35t31 6q4 0 29 -1t31 -1l14 1h17q11 -1 19 -5t8 -19q0 -5 -2 -14l-1 -7q-4 -19 -12 -55q-3 -20 -9 -61q-6 -42 -10 -64q-2 -18 -9 -54q-5 -24 -7 -36q-2 -13 -4 -28q-3 -15 -5 -28q0 -1 -4 -19q-6 -26 -8 -38q0 -1 -4 -25 q-5 -33 -8 -48q0 -2 -3 -14q-2 -12 -3 -15q-3 -15 -8 -19t-19 -5q-4 0 -37 1q-35 2 -43 2q-2 0 -18 -1t-18 -1q-16 0 -21 6t-9 28q-4 18 -8 42t-5 38q-2 18 -3 24t-4 14q-7 -24 -11 -42q-3 -13 -9 -37q-1 -3 -4 -18q-4 -16 -5 -19l-1 -2q-4 -18 -10 -26t-23 -8q-8 0 -12 1 q-8 0 -28 1h-14q-5 0 -27 -1q-22 -2 -27 -2q-17 0 -23 10t-11 43v2q-1 10 -5 32q-3 24 -5 38l-12 69l-4 31q-7 59 -12 87q-1 9 -5 30q-3 13 -5 25q-3 19 -7 56q-2 25 -4 37q0 3 -6 39t-5 38q0 12 7 16t23 5h39l22 1h22q21 0 27 -8t7 -21q1 -11 3 -35q1 -24 5 -56l8 -64 t6 -45l12 -93q2 -15 7 -46l1 -7l9 40q1 4 5 27q4 22 5 26q2 9 6 22q8 28 9 43z"/>
<glyph glyph-name="x" d="M32 505q-6 11 -8 18t-2 12q0 12 8 15t20 3h48l13 1h15h26q12 0 18 -6t9 -16q1 -3 4 -15t5 -19q6 -23 7 -28q2 -6 4 -11l4 -12q3 -12 8 -12q3 0 5 12l1 5q3 10 4 14t4 13q8 19 10 32l1 2q6 25 11 33t21 7h15q3 0 15 1h15h12l15 1h14q12 0 22 -4t9 -18q0 -5 -4 -15 q-4 -11 -9 -25t-9 -25q-3 -9 -4 -11q-4 -14 -8 -22q-3 -7 -10 -20l-5 -10t-12 -28l-6 -14q-4 -9 -13 -29q-1 -3 -4 -9l-1 -2q-8 -17 -10 -21t-1 -8q0 -6 4 -16q1 -1 8 -18t15 -38l7 -16q2 -5 11 -30q8 -26 10 -31l4 -10q9 -19 13 -31q15 -37 25 -60q3 -9 5 -16t2 -11 q0 -11 -7 -15t-16 -3h-24q-19 1 -27 1l-25 -1h-28q-12 -1 -20 7t-8 11q-1 2 -5 17q-3 12 -4 15q-2 8 -8 22q-1 4 -5 16l-3 12q0 1 -3 8q-4 13 -7 21t-5 9q-2 0 -4 -8t-6 -23q-2 -7 -3 -9q-2 -5 -4 -11q-3 -6 -5 -11q-5 -14 -8 -25q-7 -29 -12 -38t-18 -12h-97h-7 q-9 -1 -11 -1q-8 -1 -14 3t-6 15t10 29q7 14 17 38l5 11q2 4 11 27t11 27q4 11 17 36l4 8q2 5 5 12t5 12q6 15 14 31t17 31q6 12 6 15q0 7 -5 14l-5 12q-15 36 -17 40q-3 7 -8 15t-8 15q-2 6 -10 24t-16 40q-4 9 -8 17q-10 21 -16 34z" unicode="x"/>
<glyph glyph-name="y" d="M288 71q-3 -8 -8 -26q-8 -27 -11 -38t-6 -17q-18 -45 -49 -59t-84 -14q-18 -1 -38 1t-35 6q-9 4 -17 8t-11 14q-2 3 -2 11v45v21l-1 20q0 21 6 27t18 6q7 0 15 -4q2 -1 3 -2q5 -4 7 -5q5 -4 14 -4q11 1 15 7t5 14q0 1 -2 11t-4 19q-2 7 -2 9q-4 19 -14 51l-3 11 q-1 4 -5 24q-5 19 -6 23q-7 25 -17 58l-3 10q-7 27 -11 43q-1 4 -4 18l-6 24t-2 12t-2 12l-3 15q-1 2 -2 11q-2 9 -3 11q0 1 -3 13q-7 28 -13 51t-5 29q0 13 10 17t23 3h18q15 -1 21 -1q2 0 51 2q14 1 17 1q18 0 23 -8t6 -25v-2q2 -30 2 -40t3 -26v-1q1 -5 2 -11q1 -7 2 -12 q2 -11 3 -32q2 -17 2 -21q0 -12 4 -37t5 -29q3 -13 3 -19t1 -11q0 -13 5 -13q2 0 5 10q1 2 1 3q8 36 10 47t2 32v2q2 17 2 22t3 24q5 32 5 57q0 6 1 12v11q3 42 6 54t15 12h8q8 -1 10 -1h13q9 -1 16 -1h26t11 2q2 0 14 2q8 1 10 1q16 0 24 -4t8 -16q-2 -5 -2 -11t-1 -15v-3 q-2 -17 -10 -53q-4 -20 -10 -58l-5 -28q-2 -12 -5 -23t-7 -25q-2 -7 -4 -20q-3 -13 -5 -20q-1 -8 -6 -26l-2 -6q-3 -13 -8 -37l-2 -7q-2 -7 -7 -27t-12 -47z" unicode="y"/>
<glyph glyph-name="z" horiz-adv-x="333" unicode="z" d="M219 152h12h11l10 -1q6 1 14 1t13 1q1 0 8 1l7 1q6 0 12 -3t10 -11q1 -3 2 -15t1 -18q1 -13 1 -17v-17l-1 -17l1 -13v-15q0 -18 -9 -23t-25 -5q-4 0 -35 1q-33 2 -40 2h-20q-17 -1 -21 -1q-61 0 -91 -1q-12 -1 -34 -1q-25 0 -29 7t-4 37l1 22v25q-1 10 1 16t9 19v1 q1 2 5 12t8 22q9 22 10 25q3 6 4 9q9 20 13 29q10 28 15 41q4 10 10 22l11 22q15 27 27 55t12 37q0 12 -14 12h-10l-11 -1q-2 0 -14 1q-13 1 -15 1q-1 0 -13 -2q-13 -3 -14 -3q-10 0 -17 6t-7 21q0 1 1 7v6q2 13 2 45q0 3 -1 14q-1 15 -1 17q0 20 11 24t32 4q4 0 20 -1 q21 -1 23 -1l21 1h24h33l20 1h20h16l15 -1l14 1h17q17 0 21 -10t4 -48q-1 -32 -3 -43t-14 -35q-9 -18 -23 -56q-7 -19 -10 -28q-5 -11 -12 -25t-12 -25q-4 -10 -12 -33q-9 -24 -13 -34q-6 -13 -11 -29t-5 -21q0 -7 6 -11t13 -4z"/>
<glyph glyph-name="braceleft" horiz-adv-x="354" unicode="{" d="M353 668l1 -29q0 -5 -2 -14q-1 -2 -1 -3q-4 -17 -11 -21t-26 -6q-7 0 -15 -3q-9 -2 -13 -4t-12 -11q-1 -1 -4 -3q-6 -3 -8 -6q-3 -3 -5 -8q-6 -10 -7 -18t-1 -34q0 -8 -1 -24t-1 -25v-13q-1 -31 -6 -46v-1q-7 -15 -19 -35t-29 -28q-5 -3 -15 -7q-7 -2 -10 -4 q-12 -5 -17 -7t-13 -4l-3 -1v-1q8 -1 24 -5l8 -3l8 -4q1 0 6 -2q8 -2 11 -4q4 -2 20 -19t21 -31q1 -4 4 -12q2 -9 3 -13l6 -24t2 -23v-14l-1 -15q0 -10 2 -30q0 -4 1 -13q0 -22 3 -33q11 -38 48 -41h20q16 0 24 -7t8 -16v-4q-1 -5 -1 -7q0 -1 1 -6v-6v-11q1 -15 1 -19 q0 -20 -9 -28t-41 -8q-11 0 -34 1t-29 2l-21 6q-4 1 -11 2l-12 3q-13 4 -29 14t-35 32q-10 11 -13 17t-10 23v1l-1 2q-5 14 -6 21t-1 26l1 16v16q0 4 -1 20q-1 21 -1 23v26q-1 33 -15 57t-41 30q-2 1 -7 2q-12 2 -18 5q-12 6 -16 16t-4 22v38q0 7 2 15t6 14q4 5 10 7t21 4 q20 5 33 17t21 30q5 12 6 20t1 27q0 2 1 10q1 10 1 12v50q0 17 2 37t5 31q6 17 12 25t13 16l2 2l3 3q22 21 44 35t52 16h41l18 1h21q25 0 31 -10t7 -29z"/>
<glyph glyph-name="braceright" horiz-adv-x="354" unicode="}" d="M216 308v1q-16 2 -23 5q-1 0 -14 6t-22 8q-4 2 -19 19t-20 29q-1 5 -3 11t-3 11l-1 2l-7 28t-2 22q0 3 1 13q1 14 1 16q0 3 -1 21t-1 21q0 25 -7 41t-17 23t-22 9q-10 2 -23 1q-18 -1 -25 5t-9 12l1 9v8v6q-1 5 -1 6q-1 8 -1 31q0 22 11 28t43 7q18 1 38 -1t21 -3 q5 -1 16 -4l4 -1q2 -1 11 -2q9 -2 11 -3q8 -2 22 -10t19 -12q10 -9 24 -25t18 -27q1 -1 3 -7q2 -7 2 -8q5 -14 6 -20t1 -20v-21l-1 -21q0 -2 1 -17q2 -15 2 -19v-14q-1 -11 -1 -16q0 -20 3 -29t11 -23q7 -14 15 -22t27 -13q4 -1 8 -1q10 -2 15 -5q6 -1 14 -11t9 -28v-11 q-1 -9 -1 -11v-17q0 -7 -2 -15t-6 -13t-10 -7t-21 -4q-29 -5 -45 -30t-16 -44v-23q0 -2 -1 -15t-1 -16l1 -20v-23q1 -47 -11 -72t-35 -45q-29 -25 -51 -35t-60 -10q-1 0 -13 1q-8 1 -10 1t-16 -1t-17 -1q-15 0 -23 5t-12 11q-3 4 -3 9v24v10l-1 10q0 6 2 15t4 12q4 11 11 13 t24 4q4 0 13 2t14 5q3 2 8 7q4 3 5 4q2 2 5 4q5 4 6 6q9 8 11 20t2 40q0 10 2 28v3q0 1 1 8v7v11l-1 10q0 25 6 40l2 3q8 18 20 36t27 26q4 2 12 5q7 3 11 5l2 1q14 6 18 8t14 3z"/>
<glyph glyph-name="exclamdown" horiz-adv-x="208" unicode="" d="M13 26q0 5 5 52l2 19q1 9 3 41t3 69q2 44 4 69t2 36l9 78q4 42 4 63q1 29 5 39t23 10q6 0 27 -1q30 -1 33 -1q13 0 21 -4t9 -15q0 -6 -1 -32v-11t1 -32t2 -40q1 -20 6 -65q2 -23 4 -41q1 -17 2 -52t2 -53q0 -7 1 -20q2 -25 2 -39v-17l-1 -17q0 -2 1 -17q2 -16 2 -20 q0 -15 -10 -19t-31 -4q-4 0 -21 1q-22 1 -24 1q-5 0 -24 -1q-19 -2 -24 -2q-14 1 -26 5t-11 20zM29 599v43q0 4 -1 18q-1 20 -1 22q-1 19 9 24t21 5q8 0 22 -2q10 -1 29 -1l21 1h23q22 0 27 -6t5 -24q0 -4 -1 -20q-1 -21 -1 -23q0 -5 1 -36q1 -32 1 -39q0 -10 -6 -17t-18 -7 q-4 0 -21 1q-24 1 -27 1q-4 0 -29 -1t-30 -1q-17 -1 -21 9t-4 20l1 17v16z"/>
<glyph glyph-name="cent" horiz-adv-x="271" unicode="" d="M163 654h16l7 1h6q4 0 8 -3t5 -11v-75h25t8 -2q15 -6 15 -21v-83q0 -31 -12 -41q-5 -5 -9 -5h-18q-26 0 -35 -34t-9 -89q0 -63 4 -85t10 -32q10 -16 27 -16q5 0 10 1h9q15 0 19 -10t4 -20q0 -5 -1 -24t-2 -25l1 -23v-24q-1 -23 -15 -29t-32 -7v-27q-1 -21 -1 -30l1 -8v-8 q0 -10 -5 -14t-11 -4q-1 0 -9 1q-15 1 -19 1l-5 -1h-5q-12 0 -12 18v37q-1 29 -1 41q-21 5 -37 15t-38 40q-12 17 -18 32t-11 44q-3 16 -5 28t-3 24q-1 14 -1 36t-1 60q0 56 5 96t17 78q13 44 35 68t58 35q1 25 1 74q1 9 3 15t9 7h6z"/>
<glyph glyph-name="sterling" horiz-adv-x="437" unicode="" d="M240 695q14 0 30 -2q16 -3 37 -9q19 -6 39 -18t34 -33t22 -48t8 -40q0 -7 -5 -13t-16 -5h-55h-14q-12 -1 -18 -1t-10 2t-8 6q-2 2 -4 8l-2 4q-10 18 -37 18q-21 0 -35 -16t-15 -45q-1 -11 3 -41t6 -36l1 -2q1 -6 1 -9q1 -8 4 -10t16 -2h32h47h10q11 1 13 1q6 0 10 -4 t4 -12q0 -3 -1 -13q-1 -13 -1 -15t1 -18q2 -17 2 -21q0 -7 -5 -10t-11 -3q-5 0 -24 1q-25 1 -27 1h-20l-20 -1q-6 0 -6 -3q0 -2 1 -6t2 -6q3 -10 5 -28t2 -29q0 -23 -6 -47t-12 -32q-4 -5 -5 -7t-1 -4q0 -5 2 -5t9 -2q6 -1 14 -6l2 -1q21 -11 37 -11q15 0 23 5t12 12l6 12 q2 6 4 10q6 10 12 10h3l3 -1h9q13 -1 20 -1q5 0 25 1q25 1 27 1q6 1 10 -3t4 -12q0 -34 -10 -60t-19 -40q-12 -20 -28 -32q-15 -12 -31 -19q-16 -6 -28 -8t-20 -2q-27 0 -52 8q-11 3 -31 10q-12 5 -16 6q-16 6 -27 6q-10 1 -16 -3t-8 -10q0 -1 -1 -4q0 -3 -1 -4 q-4 -6 -11 -6h-7l-7 1h-8h-17l-18 1q-7 0 -40 -2h-7q-6 0 -11 4t-5 10t2 24t6 32q7 27 23 45t31 25q3 2 8 4q4 2 7 4l2 1q5 4 7 6q3 4 5 19t2 27q0 17 -4 41t-8 41q-1 3 -1 8q-1 5 -2 8q0 2 -1 3q-2 10 -6 10h-6l-7 -1h-18h-8l-9 -1q-8 0 -11 6t-3 13v4v3v26q-1 20 -1 29 q0 10 5 12t21 2h5q6 -1 8 -1q5 0 5 4q0 1 -1 8q-2 6 -2 7q-2 7 -5 33t-3 44q0 85 47 141t137 56z"/>
<glyph glyph-name="yen" horiz-adv-x="417" unicode="" d="M385 239v-20q1 -11 -5 -17t-22 -7q-2 0 -16 1t-16 1h-21q-14 0 -19 -3t-5 -12q0 -1 1 -5v-7v-35q0 -23 4 -71q0 -5 1 -18q1 -14 1 -19q0 -18 -10 -23t-21 -5q-4 0 -27 1t-27 1q-20 0 -29 -1q-8 -1 -13 -1q-8 -1 -10 -1q-27 0 -27 28l1 17v20v27q-1 21 -1 30l1 24v27 q0 2 1 14q0 11 -13 11h-26l-26 -1q-18 1 -24 5t-7 11q-1 4 -1 36q1 19 9 23t32 4q3 0 20 -1t20 -1q12 0 12 7q0 4 -3 8l-6 18q-5 14 -6 17q-2 10 -6 13q-3 1 -11 1t-16 1q-2 0 -12 -1q-11 -1 -13 -1q-22 0 -22 18v6q1 7 1 9v14q-1 12 -1 17q0 9 5 12t12 3q2 0 6 -1h4l6 1h6 q4 0 6 2t2 5q0 1 -2 7t-6 19q-2 3 -2 4q-4 8 -10 26t-12 39q-6 20 -14 46t-12 40q-4 23 -12 45q-1 2 -1 3q-3 12 -5 17t-2 12q0 13 8 19t19 5h8q7 -1 8 -1h3q20 -2 29 -2q6 0 35 2q28 1 32 1q16 0 22 -8t8 -27q2 -8 4 -24l2 -12q2 -13 8 -36q4 -17 5 -22q2 -8 5 -24t3 -21 q3 -19 6 -31t5 -12q1 0 3 6q1 2 4 16t5 30q5 23 7 33q9 41 11 55t4 37q1 21 7 31t28 10q4 0 28 -1q26 -2 31 -2h7q13 1 21 1q12 1 29 1q13 0 19 -6t6 -15q0 -10 -7 -29l-2 -4q-4 -13 -6 -19t-4 -17q-4 -18 -11 -43l-13 -38q-5 -14 -13 -36t-10 -30q-1 -3 -5 -23t-4 -22 q1 -5 5 -7t8 -1q2 0 9 2q7 1 9 1q10 0 12 -6t3 -23v-9q0 -2 1 -13t1 -13q-1 -10 -5 -13t-11 -3l-12 1h-13q-5 0 -16 -1t-14 -2q-2 0 -6 -10t-8 -22q-3 -8 -4 -10l-2 -4q-2 -4 -2 -6q0 -9 28 -9q4 0 19 1q20 1 22 1q12 1 17 -7t5 -12v-3l-1 -4q-1 -4 -1 -10z"/>
<glyph glyph-name="dieresis" horiz-adv-x="208" unicode="" d="M121 688q-1 12 5 16t14 4h32q23 -1 34 -1h7q10 1 13 1q11 0 14 -6t3 -17v-14l-1 -15q0 -2 1 -12v-13q-1 -13 -7 -19t-24 -6q-2 0 -33 -1q-24 -1 -30 -1q-18 0 -22 5t-4 19q0 3 -1 28v21v5q-1 4 -1 6zM-34 685q0 15 8 19t18 5q4 0 17 -1q18 -1 20 -1l17 1h20q16 0 20 -8 t3 -29v-11q1 -11 1 -14v-15t-2 -11q-4 -6 -8 -10t-12 -5l-7 1h-8h-21l-21 -1h-17q-18 0 -22 8t-4 25q0 4 -1 24t-1 23z"/>
<glyph glyph-name="copyright" horiz-adv-x="833" unicode="" d="M534 270l87 -80q-45 -48 -93 -66t-103 -18q-60 0 -107 20t-79 54t-48 78t-16 95t17 97q18 46 50 80t78 54t105 20q39 0 71 -8t55 -22q24 -12 40 -26t30 -29l-87 -84q-24 25 -50 37t-60 12q-62 0 -94 -38t-31 -92q1 -58 35 -94t92 -35q40 0 64 13t44 32zM417 29 q67 0 127 25t104 70t68 104t25 125q-1 66 -25 125t-68 104t-103 70t-126 25t-127 -25t-104 -70t-70 -104q-25 -59 -25 -125q0 -67 25 -127t70 -103q45 -44 104 -69t125 -25zM773 354q0 -72 -27 -138t-76 -115t-114 -77t-140 -27q-69 0 -133 26q-65 26 -115 74 q-50 47 -78 113t-29 143q0 75 28 141q27 66 77 114t115 74t136 27q75 1 141 -27t114 -78t74 -114t27 -136z"/>
<glyph glyph-name="ordfeminine" horiz-adv-x="292" unicode="" d="M141 526q-5 0 -10 -4t-8 -15q-1 -5 -1 -35q0 -16 4 -26t15 -10t15 10t3 24v32q0 24 -18 24zM54 680q0 8 4 14t17 9q17 5 27 7t18 1l16 1h15q4 0 14 -1t24 -3q15 -2 29 -10q14 -6 22 -16q6 -8 10 -20t4 -43v-11q-1 -11 -1 -14v-17q1 -17 1 -22v-54q-1 -49 -1 -54l1 -15 v-18q0 -5 -1 -14v-9v-18q0 -5 -3 -11t-15 -5l-16 1h-16q-2 0 -13 -1q-12 -1 -14 -1q-7 0 -9 5l-1 4q0 8 -2 8q-1 0 -4 -3q-13 -16 -43 -16q-13 0 -26 3t-26 13q-18 16 -26 46t-8 62q-1 30 5 56t18 41q14 19 32 25t31 7q10 0 17 -2t18 -7q2 -2 4 -2q4 0 6 3t1 6q0 16 -9 22 t-29 6q-16 0 -29 -4q-2 0 -10 -4q-10 -5 -12 -5q-6 0 -10 2t-7 6t-3 8v22v22z"/>
<glyph glyph-name="guillemotleft" horiz-adv-x="313" unicode="" d="M239 284q5 -9 19 -23t25 -23h1q8 -8 11 -12t3 -14q0 -5 -1 -24q-1 -26 -1 -29q0 -21 1 -31q0 -2 1 -10t1 -14q0 -4 -3 -6t-6 -2q-4 0 -8 4l-11 11q-3 3 -34 35t-51 51l-1 1q-15 14 -15 25l1 10v9v34q-1 26 -1 37q-2 3 -2 13v15q0 7 8 14q22 23 28 29t13 11q5 4 8 8 q2 2 4 5l25 25l24 24l1 1q5 7 10 7q3 0 5 -3t2 -7v-4q-1 -3 -1 -4q-1 -5 -1 -21t-1 -24q0 -12 1 -18q0 -3 1 -16q1 -16 1 -18q0 -8 -2 -12t-12 -12l-18 -18q-3 -4 -12 -12t-13 -12zM84 287q3 -5 5 -7l9 -9l13 -13q8 -9 12 -13q11 -11 14 -15t3 -13v-6q-1 -5 -1 -6 q-1 -14 -1 -46q0 -21 1 -31q0 -2 1 -11q1 -10 1 -12q0 -9 -6 -9q-3 0 -9 6t-13 12l-3 3q-4 4 -15 16q-28 28 -40 39q-3 4 -17 18t-16 17q-7 7 -9 11t-2 14l1 23v23q0 5 -1 35t-1 35q0 6 2 10t11 11l2 2q5 4 44 42t44 44q7 7 12 11t8 4q6 0 6 -10q0 -5 -1 -7v-17 q-1 -21 -1 -24l1 -24v-25q1 -4 1 -13q0 -11 -11 -22l-2 -2q-6 -5 -15 -14z"/>
<glyph glyph-name="registered" horiz-adv-x="833" unicode="" d="M416 29q68 0 128 25t104 70q44 44 68 104t25 126q-1 66 -25 124t-68 104q-44 45 -104 70t-126 25t-126 -25t-105 -70t-69 -104t-25 -125q0 -67 25 -127q26 -60 70 -103q44 -44 103 -69t125 -25zM773 354q0 -72 -27 -138t-76 -115q-48 -49 -114 -77t-141 -27 q-69 0 -133 26q-64 25 -114 73t-78 114t-29 143q0 75 28 141q27 66 77 114t114 74t136 27q75 1 141 -27q67 -28 115 -78t74 -114q26 -65 27 -136zM360 502v-95h48q28 0 42 2t22 7q10 6 15 17t5 23t-6 24t-18 17q-10 5 -22 5h-53h-33zM250 586h163q74 0 108 -11 q41 -13 61 -45t20 -68q0 -24 -8 -42t-20 -30t-24 -18q-13 -8 -28 -15q24 -14 34 -30t17 -56q9 -57 16 -85t23 -58h-126q-10 19 -15 41t-10 58q-6 40 -10 56q-4 17 -13 25q-10 8 -26 10t-52 2v-192h-110v458z"/>
<glyph glyph-name="macron" horiz-adv-x="208" unicode="" d="M224 674v-23q0 -17 -4 -29t-21 -13l-9 1h-10q-4 0 -20 -1q-20 -1 -22 -1l-17 1h-20t-34 -2q-31 -2 -36 -2q-13 -1 -23 1t-16 6q-4 3 -6 7t-2 13v29q0 19 7 25t17 5h15l14 -1q4 0 26 1q24 1 29 1q3 0 14 -1q15 -1 17 -1q6 0 33 2q31 2 35 2q33 0 33 -20z"/>
<glyph glyph-name="twosuperior" horiz-adv-x="292" unicode="" d="M89 534h-39q-18 0 -22 6t-4 31q0 7 1 19t3 24q2 14 4 26t1 12q11 35 45 52q12 6 30 10t30 4q34 -2 49 -7q1 -1 13 -6t16 -7q19 -12 34 -40t15 -76q0 -8 -1 -22t-2 -18q0 -2 -1 -6l-1 -2q0 -6 -1 -10q-1 -6 -7 -20t-11 -25q-3 -7 -6 -12q-7 -13 -10 -19q-11 -20 -27 -42 t-29 -34q-4 -2 -4 -4t18 -2h14l13 -1q3 0 16 1t15 1q22 0 22 -23q0 -2 -1 -14q-1 -13 -1 -15l1 -9v-10q0 -14 -4 -22t-15 -7q-1 0 -5 1h-6q-9 2 -23 2h-23h-23q-17 -1 -25 -1q-5 0 -29 1h-30h-20q-16 -1 -23 -1q-10 -1 -14 5t-3 22v21l-1 20q0 9 2 13t13 12q1 1 7 6l6 6 l14 14t14 15q4 7 14 17t12 14q1 2 6 10t6 9q12 18 18 26q12 20 17 30q9 15 13 31t4 49q0 13 -4 23t-21 11q-17 0 -24 -14t-7 -36q0 -2 1 -10t1 -10q0 -5 -4 -11t-17 -8z"/>
<glyph glyph-name="threesuperior" horiz-adv-x="292" unicode="" d="M215 515l3 -3q10 -8 14 -12l10 -10l3 -3q12 -16 17 -38t5 -40q1 -26 -1 -36t-9 -29q-7 -18 -13 -26t-16 -20l-1 -1q-17 -17 -37 -27t-62 -10q-28 0 -47 6t-55 29q-10 7 -14 11t-3 12q-1 4 1 6t8 10q1 2 2 3q10 13 13 17t8 13q3 4 4 6q5 10 9 12t14 2q6 1 8 -1l8 -8l2 -2 q12 -15 34 -15q23 -1 32 13t9 38q0 16 -8 30t-34 14q-2 0 -13 -1t-13 -1q-7 0 -14 4t-7 15l1 10v10q0 4 -1 17q-2 14 -2 17q0 15 8 19t14 4q1 0 8 -1l11 -1q21 0 35 12t14 28q0 14 -10 24t-26 9q-14 0 -27 -8q-5 -3 -6 -5t-4 -7v-1q-5 -6 -12 -6q-6 0 -9 3q-2 3 -6 7t-8 10 l-12 12q-6 7 -8 9q-6 6 -8 9t-1 10q-1 6 1 9t12 13q20 19 48 29t47 10q16 0 19 -1h8t7 -2q15 -2 35 -10t35 -29q13 -17 18 -34t5 -42q0 -23 -9 -44t-34 -38z"/>
<glyph glyph-name="acute" horiz-adv-x="208" unicode="" d="M11 608q0 4 3 11q1 0 2 4q6 15 12 33t10 24q0 1 1 4q3 5 3 7q4 9 8 13t19 4q5 0 23 -1q23 -1 25 -1h16q5 0 23 1q24 1 26 1q15 0 15 -12q0 -7 -4 -12t-17 -18l-6 -6q-7 -8 -11 -11q-4 -5 -15 -16q-13 -13 -14 -15l-4 -4q-8 -10 -13 -14t-7 -5h-44h-14q-11 -1 -16 -1 q-8 0 -14 2t-7 12z"/>
<glyph glyph-name="mu" d="M226 263v60q0 77 -1 115q0 8 -1 38q-1 39 -1 43q0 17 5 27t23 9l12 -1l12 -1q7 -1 21 -1q23 0 27 1q2 0 12 2q9 1 11 1q17 0 24 -8t7 -18v-9q-1 -10 -1 -12v-11q-1 -33 -1 -41l1 -24v-28q1 -14 1 -96q0 -7 -1 -57q-2 -53 -2 -65q0 -4 1 -30q1 -27 1 -32v-17l-1 -18 q0 -5 2 -27q1 -22 1 -27q0 -36 -28 -36q-4 0 -20 1q-21 1 -23 1q-14 0 -32 -1q-6 -1 -8 -1q-5 -1 -16 -1q-10 0 -15 3t-6 6v3v3l-1 2v3v1q-2 6 -4 6t-6 -6q-8 -11 -14 -16t-16 -5q-9 0 -12 3q-2 2 -4 7q-3 5 -5 7t-6 2q0 -8 1 -17q1 -14 1 -15v-26q0 -1 1 -8l1 -12 q0 -6 -6 -14t-20 -8h-7q-5 1 -7 1q-18 2 -27 2q-3 0 -27 -1q-26 -2 -31 -2q-23 0 -23 24q0 4 2 30t2 31v17q-1 13 -1 16q-1 8 -1 40t-1 49q-3 46 -3 70v35l1 63v69q0 67 -1 100q0 7 -1 26q-1 18 -1 25q0 15 5 29t24 14q5 0 15 -2h17q14 -1 20 -1q3 0 21 1q20 2 24 2 q9 0 17 -5t8 -22v-21q-1 -17 -1 -24q0 -5 1 -44q2 -41 2 -50q0 -3 -1 -39q-2 -33 -2 -42q0 -27 1 -75v-26v-20q-1 -15 -1 -22q0 -12 6 -20t25 -7q17 -1 25 13t8 50q0 6 -1 28q-1 30 -1 33z" unicode=""/>
<glyph glyph-name="cedilla" horiz-adv-x="208" unicode="" d="M59 -169v1q0 2 5 8t12 12q7 9 7 16q0 10 -13 19q-8 5 -17 16t-9 28q0 21 18 36t40 15t42 -16t19 -50q0 -20 -8 -42t-24 -41q-6 -8 -20 -21q-2 -3 -7 -7l-1 -2q-12 -11 -19 -11t-16 16t-9 23z"/>
<glyph glyph-name="onesuperior" horiz-adv-x="292" unicode="" d="M29 594q0 6 8 14q1 2 3 4t11 10l4 4l12 15q2 3 12 15t13 15l14 14l14 13q15 17 26 17q2 0 16 -1t16 -1h28q10 0 16 -4t6 -19v-16q-2 -14 -2 -30v-30l1 -16v-17v-20q-1 -16 -1 -23l1 -17v-18v-17q-1 -14 -1 -20l1 -30v-33q0 -4 -1 -20q-1 -21 -1 -23q0 -5 1 -24 q1 -26 1 -29q1 -27 -3 -34t-23 -7l-20 1h-23h-27q-19 0 -19 24q0 10 2 28v65q0 12 1 91q2 85 2 103v3q1 3 1 5t-3 2q-2 0 -9 -8t-11 -14l-1 -1q-12 -18 -18 -18q-5 0 -14 9l-2 2q-1 1 -11 9l-9 8q-11 8 -11 19z"/>
<glyph glyph-name="ordmasculine" horiz-adv-x="292" unicode="" d="M144 618q-10 0 -13 -11t-3 -44v-85q0 -19 2 -28t14 -9q12 1 16 11t4 25q0 5 -1 37q-1 34 -1 40v30q0 16 -4 25t-14 9zM30 550q0 51 6 79t25 50q15 17 39 25t51 8q37 0 67 -20t37 -62q6 -34 6 -108q0 -62 -5 -86t-15 -41v-1q-11 -19 -33 -33t-62 -14t-66 17q-10 6 -19 16 t-14 21q-9 25 -13 51t-4 98z"/>
<glyph glyph-name="guillemotright" horiz-adv-x="313" unicode="" d="M196 250q3 2 11 10l21 21q-16 17 -20 21l-13 13q-18 19 -21 23t-3 13q0 2 1 6v5q1 16 1 47q0 21 -1 31q0 1 -1 14q-1 7 -1 8q0 10 7 10q2 0 4 -2t9 -8q7 -7 68 -70l28 -28l1 -1q9 -9 11 -13t3 -14q0 -4 -1 -17q-1 -18 -1 -20q0 -9 2 -55v-15q0 -16 -6 -24l-17 -17 t-26 -24q-21 -20 -26 -25q-10 -12 -16 -18q-6 -4 -9 -7q-1 -1 -3 -4q-8 -10 -14 -13q-4 -2 -6 -2q-2 -1 -4 3t-2 8q0 5 1 7q1 10 1 43q0 25 -1 43v6q-1 3 -1 11t2 12t9 9q3 2 9 9zM31 244q15 16 25 26t16 14q-17 18 -29 30t-18 17q-9 7 -11 11t-2 13q0 7 1 11q1 14 1 33 q0 32 -1 41q0 2 -1 10q-1 12 -1 13q0 5 3 7t5 2q6 0 12 -8q3 -2 21 -20t32 -33q10 -11 16 -17q28 -27 34 -34t6 -15v-13l-1 -13v-39q1 -6 2 -26t1 -26t-2 -10t-10 -10l-16 -16q-6 -6 -19 -18t-17 -16q-3 -4 -19 -19l-21 -21t-4 -6l-2 -3q-8 -7 -12 -7q-2 0 -4 4t-2 6 q0 3 2 9q0 3 1 31v8q0 20 -1 30q0 1 -2 21l-1 7q-1 6 3 11t15 15z"/>
<glyph glyph-name="questiondown" horiz-adv-x="292" unicode="" d="M96 462q0 17 4 27t19 10h10q9 -1 12 -1h44q9 0 15 -2t11 -14q1 -4 4 -28t3 -37q0 -39 -4 -69t-19 -81l-2 -6q-13 -49 -13 -63q0 -19 10 -30t24 -11q3 0 9 2h2q4 1 9 3q7 4 10 4h2q12 0 16 -9t4 -19v-16q-1 -13 -1 -19l1 -30v-31q0 -14 -6 -24t-25 -15q-9 -3 -35 -5 t-41 -2q-19 0 -39 4t-39 14q-20 9 -33 26q-16 18 -20 36t-4 50v17l-1 16v9q1 16 6 34t12 37t11 28t13 28v1l4 8q11 23 15 32q13 34 13 89v19q-1 15 -1 18zM74 678q0 15 10 21t16 6h25h57q34 0 42 -4t8 -23q0 -4 -1 -27q-1 -24 -1 -29l1 -29v-32q0 -28 -25 -28q-2 0 -16 1 t-16 1h-24l-16 1h-18h-8q-9 -1 -11 -1q-25 0 -25 29q0 6 1 43q2 41 2 49v11z"/>
<glyph glyph-name="Agrave" horiz-adv-x="417" unicode="" d="M84 865q0 7 5 10t10 3h4q3 -1 4 -1q7 -1 45 -1h6q8 0 29 1q20 1 28 1q15 0 19 -5t10 -23q4 -10 12 -32t11 -28q4 -8 4 -13q0 -7 -6 -10t-15 -3q-8 0 -24 1h-9h-18l-18 -1q-6 0 -13 8l-2 2q-4 6 -10 10l-9 9t-20 22l-21 21t-11 12q-11 9 -11 17zM210 449q-1 -1 -3 -9 t-4 -22q-2 -8 -2 -9q-1 -6 -9 -57q-4 -29 -6 -44t-3 -18q-1 -8 7 -12t20 -4t20 4t7 15q-1 3 -3 21t-8 64t-8 54q0 17 -8 17zM-2 22q0 14 4 34l9 45q12 52 22 117q2 15 3 20q5 45 10 68q2 18 10 47q2 11 6 34q10 51 15 73q10 48 16 72q4 19 6 28q10 47 15 73l3 21q1 5 2 11 l2 10v1q3 14 7 22t16 8q5 0 34 -1t34 -1t32 1t32 1q12 0 18 -2t11 -13q3 -5 5 -19t6 -40q4 -35 6 -41q1 -5 3 -13t2 -13q4 -22 6 -32q3 -18 11 -54q6 -27 14 -69t13 -80q6 -38 10 -68t5 -37q10 -78 18 -117q2 -10 5 -23q2 -13 4 -23q2 -6 4 -18t2 -20q0 -24 -27 -24 q-3 0 -23 1t-23 1q-4 0 -28 -2t-29 -2q-23 0 -29 8t-6 27q0 3 -1 18t-1 17v1q-1 23 -8 37t-30 15q-3 0 -9 -1t-7 -1q-10 -3 -14 -5t-7 -9q-5 -9 -7 -19t-2 -49v-2q-2 -17 -8 -26t-28 -9q-3 0 -19 2q-8 1 -31 1q-20 0 -30 -1q-13 -2 -17 -2h-14q-15 0 -19 6t-4 16z"/>
<glyph glyph-name="Aacute" horiz-adv-x="417" unicode="" d="M156 778q0 2 6 16t13 37q11 26 12 30q3 10 7 13t18 3h34l34 -1q27 0 40 1q2 1 7 1q15 0 15 -12q0 -6 -3 -10t-16 -17q-5 -6 -31 -32q-10 -11 -20 -21t-12 -13l-1 -1q-6 -8 -11 -8l-22 1h-24h-11q-12 -1 -15 -1q-8 0 -14 2t-6 12zM210 449q-1 -1 -3 -9t-4 -22q-2 -8 -2 -9 q-1 -6 -9 -57q-4 -29 -6 -44t-3 -18q-1 -8 7 -12t20 -4t20 4t7 15q-1 3 -3 21t-8 64t-8 54q0 17 -8 17zM-2 22q0 14 4 34l9 45q12 52 22 117q2 15 3 20q5 45 10 68q2 18 10 47q2 11 6 34q10 51 15 73q10 48 16 72q4 19 6 28q10 47 15 73l3 21q1 5 2 11l2 10v1q3 14 7 22 t16 8q5 0 34 -1t34 -1t32 1t32 1q12 0 18 -2t11 -13q3 -5 5 -19t6 -40q4 -35 6 -41q1 -5 3 -13t2 -13q4 -22 6 -32q3 -18 11 -54q6 -27 14 -69t13 -80q6 -38 10 -68t5 -37q10 -78 18 -117q2 -10 5 -23q2 -13 4 -23q2 -6 4 -18t2 -20q0 -24 -27 -24q-3 0 -23 1t-23 1 q-4 0 -28 -2t-29 -2q-23 0 -29 8t-6 27q0 3 -1 18t-1 17v1q-1 23 -8 37t-30 15q-3 0 -9 -1t-7 -1q-10 -3 -14 -5t-7 -9q-5 -9 -7 -19t-2 -49v-2q-2 -17 -8 -26t-28 -9q-3 0 -19 2q-8 1 -31 1q-20 0 -30 -1q-13 -2 -17 -2h-14q-15 0 -19 6t-4 16z"/>
<glyph glyph-name="Acircumflex" horiz-adv-x="417" unicode="" d="M83 778q-1 4 1 7t9 10q9 11 12 17q2 4 9 14t17 22q5 8 6 9q5 7 11 13t14 6h8q10 -1 12 -1h15q12 -1 18 -1q3 0 20 1q19 2 23 2q15 0 22 -6t13 -17q14 -21 40 -55q1 -2 2 -3q10 -14 10 -22q0 -11 -16 -11l-13 1h-14h-19t-21 -2h-6q-6 -1 -7 -1q-9 1 -14 7t-10 15l-1 3 q-1 4 -4 8t-8 4q-6 0 -11 -9q-1 -3 -2 -9q-1 -5 -3 -8q-2 -4 -5 -7t-9 -3q-1 0 -15 1q-19 1 -25 1h-18l-18 -1q-11 1 -17 3t-6 12zM210 449q-1 -1 -3 -9t-4 -22q-2 -8 -2 -9q-1 -6 -9 -57q-4 -29 -6 -44t-3 -18q-1 -8 7 -12t20 -4t20 4t7 15q-1 3 -3 21t-8 64t-8 54 q0 17 -8 17zM-2 22q0 14 4 34l9 45q12 52 22 117q2 15 3 20q5 45 10 68q2 18 10 47q2 11 6 34q10 51 15 73q10 48 16 72q4 19 6 28q10 47 15 73l3 21q1 5 2 11l2 10v1q3 14 7 22t16 8q5 0 34 -1t34 -1t32 1t32 1q12 0 18 -2t11 -13q3 -5 5 -19t6 -40q4 -35 6 -41q1 -5 3 -13 t2 -13q4 -22 6 -32q3 -18 11 -54q6 -27 14 -69t13 -80q6 -38 10 -68t5 -37q10 -78 18 -117q2 -10 5 -23q2 -13 4 -23q2 -6 4 -18t2 -20q0 -24 -27 -24q-3 0 -23 1t-23 1q-4 0 -28 -2t-29 -2q-23 0 -29 8t-6 27q0 3 -1 18t-1 17v1q-1 23 -8 37t-30 15q-3 0 -9 -1t-7 -1 q-10 -3 -14 -5t-7 -9q-5 -9 -7 -19t-2 -49v-2q-2 -17 -8 -26t-28 -9q-3 0 -19 2q-8 1 -31 1q-20 0 -30 -1q-13 -2 -17 -2h-14q-15 0 -19 6t-4 16z"/>
<glyph glyph-name="Atilde" horiz-adv-x="417" unicode="" d="M259 852q4 0 9 2t9 5q1 1 2 3q4 6 7 7h2q4 0 6 -1q12 -3 39 -6h2q21 -3 27 -5t6 -8q-2 -7 -7 -21t-14 -25q-18 -23 -40 -30t-43 -7q-22 0 -50 7l-11 2q-29 6 -38 6q-8 0 -14 -3q-3 -2 -6 -6q-7 -7 -11 -8h-2q-1 0 -13 2t-17 3q-2 0 -16 3q-14 2 -16 2q-10 1 -16 3t-6 7 q0 1 2 6t3 11q11 33 35 49t59 16q10 0 27 -2h2q11 -2 18 -3q20 -5 32 -6q3 0 17 -1q13 -2 16 -2zM210 449q-1 -1 -3 -9t-4 -22q-2 -8 -2 -9q-1 -6 -9 -57q-4 -29 -6 -44t-3 -18q-1 -8 7 -12t20 -4t20 4t7 15q-1 3 -3 21t-8 64t-8 54q0 17 -8 17zM-2 22q0 14 4 34l9 45 q12 52 22 117q2 15 3 20q5 45 10 68q2 18 10 47q2 11 6 34q10 51 15 73q10 48 16 72q4 19 6 28q10 47 15 73l3 21q1 5 2 11l2 10v1q3 14 7 22t16 8q5 0 34 -1t34 -1t32 1t32 1q12 0 18 -2t11 -13q3 -5 5 -19t6 -40q4 -35 6 -41q1 -5 3 -13t2 -13q4 -22 6 -32q3 -18 11 -54 q6 -27 14 -69t13 -80q6 -38 10 -68t5 -37q10 -78 18 -117q2 -10 5 -23q2 -13 4 -23q2 -6 4 -18t2 -20q0 -24 -27 -24q-3 0 -23 1t-23 1q-4 0 -28 -2t-29 -2q-23 0 -29 8t-6 27q0 3 -1 18t-1 17v1q-1 23 -8 37t-30 15q-3 0 -9 -1t-7 -1q-10 -3 -14 -5t-7 -9q-5 -9 -7 -19 t-2 -49v-2q-2 -17 -8 -26t-28 -9q-3 0 -19 2q-8 1 -31 1q-20 0 -30 -1q-13 -2 -17 -2h-14q-15 0 -19 6t-4 16z"/>
<glyph glyph-name="Adieresis" horiz-adv-x="417" unicode="" d="M235 801v5q0 4 -1 18q-1 18 -1 20q0 14 6 18t19 4h28q22 -1 33 -1h8q8 1 10 1q9 0 13 -4t4 -10v-34l1 -12v-13q1 -16 -5 -22t-24 -7q-2 -2 -30 -2h-41q-16 0 -19 12q-1 3 -1 27zM78 843q0 15 8 19t19 4q2 0 16 -1t16 -1l20 1h23q4 0 8 -1t8 -4q4 -4 4 -10t1 -26v-10 q1 -9 1 -12q0 -10 -2 -20t-5 -14q-4 -4 -8 -4t-18 -1h-32l-33 -1q-12 0 -18 7t-6 13v16q0 26 -1 34v6q-1 4 -1 5zM210 449q-1 -1 -3 -9t-4 -22q-2 -8 -2 -9q-1 -6 -9 -57q-4 -29 -6 -44t-3 -18q-1 -8 7 -12t20 -4t20 4t7 15q-1 3 -3 21t-8 64t-8 54q0 17 -8 17zM-2 22 q0 14 4 34l9 45q12 52 22 117q2 15 3 20q5 45 10 68q2 18 10 47q2 11 6 34q10 51 15 73q10 48 16 72q4 19 6 28q10 47 15 73l3 21q1 5 2 11l2 10v1q3 14 7 22t16 8q5 0 34 -1t34 -1t32 1t32 1q12 0 18 -2t11 -13q3 -5 5 -19t6 -40q4 -35 6 -41q1 -5 3 -13t2 -13q4 -22 6 -32 q3 -18 11 -54q6 -27 14 -69t13 -80q6 -38 10 -68t5 -37q10 -78 18 -117q2 -10 5 -23q2 -13 4 -23q2 -6 4 -18t2 -20q0 -24 -27 -24q-3 0 -23 1t-23 1q-4 0 -28 -2t-29 -2q-23 0 -29 8t-6 27q0 3 -1 18t-1 17v1q-1 23 -8 37t-30 15q-3 0 -9 -1t-7 -1q-10 -3 -14 -5t-7 -9 q-5 -9 -7 -19t-2 -49v-2q-2 -17 -8 -26t-28 -9q-3 0 -19 2q-8 1 -31 1q-20 0 -30 -1q-13 -2 -17 -2h-14q-15 0 -19 6t-4 16z"/>
<glyph glyph-name="Aring" horiz-adv-x="417" unicode="" d="M208 862q-19 0 -36 -12t-17 -33q-1 -17 15 -29t38 -11q32 0 44 15t12 30q0 14 -14 27t-42 13zM95 820q0 26 11 46q10 20 28 31q18 12 38 18t38 6q54 1 86 -31t32 -67q0 -47 -37 -75t-82 -28q-51 0 -83 30t-31 70zM210 449q-1 -1 -3 -9t-4 -22q-2 -8 -2 -9q-1 -6 -9 -57 q-4 -29 -6 -44t-3 -18q-1 -8 7 -12t20 -4t20 4t7 15q-1 3 -3 21t-8 64t-8 54q0 17 -8 17zM-2 22q0 14 4 34l9 45q12 52 22 117q2 15 3 20q5 45 10 68q2 18 10 47q2 11 6 34q10 51 15 73q10 48 16 72q4 19 6 28q10 47 15 73l3 21q1 5 2 11l2 10v1q3 14 7 22t16 8q5 0 34 -1 t34 -1t32 1t32 1q12 0 18 -2t11 -13q3 -5 5 -19t6 -40q4 -35 6 -41q1 -5 3 -13t2 -13q4 -22 6 -32q3 -18 11 -54q6 -27 14 -69t13 -80q6 -38 10 -68t5 -37q10 -78 18 -117q2 -10 5 -23q2 -13 4 -23q2 -6 4 -18t2 -20q0 -24 -27 -24q-3 0 -23 1t-23 1q-4 0 -28 -2t-29 -2 q-23 0 -29 8t-6 27q0 3 -1 18t-1 17v1q-1 23 -8 37t-30 15q-3 0 -9 -1t-7 -1q-10 -3 -14 -5t-7 -9q-5 -9 -7 -19t-2 -49v-2q-2 -17 -8 -26t-28 -9q-3 0 -19 2q-8 1 -31 1q-20 0 -30 -1q-13 -2 -17 -2h-14q-15 0 -19 6t-4 16z"/>
<glyph glyph-name="AE" horiz-adv-x="542" unicode="" d="M218 471q-6 0 -10 -22t-5 -30q-1 -6 -4 -19l-1 -4q-1 -4 -6 -35q-4 -21 -5 -26q-3 -13 -4 -22t-1 -20q0 -14 8 -18t21 -4t21 4t8 19q0 8 -1 12q-1 6 -3 27t-5 53q-4 47 -5 55q-3 18 -3 22q0 8 -5 8zM405 295h-8q-6 0 -10 -3t-4 -11q0 -6 2 -16v-3q3 -32 5 -42t5 -29 q4 -21 10 -26t19 -5h70q19 0 30 -6t11 -26q0 -5 -1 -18t-1 -18q0 -55 -1 -65q-2 -19 -18 -23t-86 -5q-5 0 -37 1q-33 1 -39 1q-21 0 -31 -1q-4 0 -13 -1t-14 -1q-22 0 -29 7t-8 20v3q-2 28 -2 40v1q-1 21 -9 35t-32 14q-6 0 -14 -1t-13 -5q-10 -7 -15 -19t-5 -48 q0 -21 -6 -33t-29 -12q-3 0 -24 1q-23 2 -29 2q-3 0 -24 -1q-23 -2 -28 -2q-14 0 -21 4t-7 20q-1 10 1 20t3 16q5 25 17 75q8 38 12 75q1 5 3 20l2 18q1 10 6 36t17 84q7 35 9 47q2 13 3 17q4 18 6 28t6 27q12 52 20 90t17 95q4 22 10 28t26 6q4 0 21 -1q22 -1 24 -1 q4 0 28 1q25 1 30 1h18q14 -1 20 -1l30 1h32q5 0 36 -1q33 -1 39 -1q17 1 50 1q38 0 38 -38q0 -4 -1 -20q-1 -21 -1 -23l1 -16v-18q0 -26 -12 -32t-49 -5q-5 0 -31 1h-32q-4 0 -19 1h-13q-4 1 -8 -1t-5 -7q1 -1 1 -7t2 -21t2 -25l3 -15q0 -4 2 -12q0 -8 1 -13l1 -2 q2 -6 4 -8q2 -1 20 -1q5 0 16 1q10 1 15 1q11 1 31 1h28l8 1h8q24 0 24 -33v-23q-1 -17 -1 -25q0 -47 -7 -61t-39 -14q-3 0 -24 1q-22 2 -26 2q-11 0 -17 1z"/>
<glyph glyph-name="Ccedilla" horiz-adv-x="333" unicode="" d="M148 -68q0 22 18 38t39 15q25 -1 43 -19t19 -47q0 -17 -7 -39t-24 -44q-2 -4 -8 -10l-14 -14t-15 -12q-7 -6 -11 -6q-8 0 -17 16t-9 23q0 6 8 12q11 9 14 13t3 11q0 10 -16 22q-7 6 -15 18t-8 23zM137 688q17 12 37 18t56 6q13 0 38 -2t35 -5q7 -2 17 -10t10 -22v-13 l-1 -13l1 -34v-37t-5 -22t-23 -11q-5 0 -13 2q-3 0 -7 1q-12 3 -24 3q-21 0 -38 -10t-25 -31q-3 -10 -5 -30t-4 -44t-2 -44t-1 -38q-1 -43 1 -72t9 -53q7 -22 23 -38t42 -20q6 -1 37 -1q23 -1 29 -11t7 -25v-24q-1 -19 -1 -27q0 -4 1 -20q1 -20 1 -22q0 -17 -12 -30t-37 -13 h-16q-7 1 -11 1q-45 4 -70 8t-49 15q-15 8 -29 18t-34 38q-32 40 -42 106t-9 166q1 26 1 42t2 40q0 15 1 29q4 59 11 89t27 66q17 30 31 44t39 29z"/>
<glyph glyph-name="Egrave" horiz-adv-x="375" unicode="" d="M58 865q0 7 5 10t10 3h4q3 -1 4 -1q7 -1 45 -1h6q8 0 29 1q20 1 28 1q15 0 19 -5t10 -23q4 -10 12 -32t11 -28q4 -8 4 -13q0 -7 -6 -10t-15 -3q-8 0 -24 1h-9h-18l-18 -1q-6 0 -13 8l-2 2q-4 6 -10 10l-9 9t-20 22l-21 21t-11 12q-11 9 -11 17zM368 102v-57q0 -17 -6 -30 t-25 -16h-93l-20 -1h-20q-3 0 -25 1q-23 2 -28 2t-41 -1q-38 -2 -46 -2q-16 0 -26 10t-10 27q0 2 1 27q1 80 1 96q0 13 -2 74q-2 31 -2 52v28l1 30v32v43q-1 35 -1 42l1 36v38q0 4 -1 29q-1 27 -1 32v37v19l-1 19q0 17 8 27t27 9q12 0 21 -1q6 0 16 -1h6q8 0 46 2q18 1 32 1 t19 1q5 0 36 -1q33 -1 39 -1q2 0 17 1h18q27 0 35 -11t8 -36v-15q-1 -12 -1 -15l1 -14v-18q0 -25 -9 -35t-32 -9q-2 0 -12 1h-13h-17q-2 0 -12 1h-12h-19l-20 -1q-6 0 -12 -2t-9 -9q-4 -6 -4 -17q0 -2 1 -7v-14v-15l-1 -15q-1 -17 7 -23t30 -7q43 0 66 1q8 1 24 1 q12 -1 21 -3t15 -10q4 -6 5 -14t1 -51l1 -15v-16q-1 -27 -11 -38t-35 -11q-3 0 -27 1q-26 2 -31 2q-35 0 -46 -5t-14 -17q0 -10 1 -27v-10v-14q-1 -11 -1 -16q0 -25 7 -33t27 -8h21q16 -1 23 -1l14 1h16q29 0 42 -2t20 -6q7 -6 9 -18t2 -34z"/>
<glyph glyph-name="Eacute" horiz-adv-x="375" unicode="" d="M130 778q0 2 6 16t13 37q11 26 12 30q3 10 7 13t18 3h34l34 -1q27 0 40 1q2 1 7 1q15 0 15 -12q0 -6 -3 -10t-16 -17q-5 -6 -31 -32q-10 -11 -20 -21t-12 -13l-1 -1q-6 -8 -11 -8l-22 1h-24h-11q-12 -1 -15 -1q-8 0 -14 2t-6 12zM368 102v-57q0 -17 -6 -30t-25 -16h-93 l-20 -1h-20q-3 0 -25 1q-23 2 -28 2t-41 -1q-38 -2 -46 -2q-16 0 -26 10t-10 27q0 2 1 27q1 80 1 96q0 13 -2 74q-2 31 -2 52v28l1 30v32v43q-1 35 -1 42l1 36v38q0 4 -1 29q-1 27 -1 32v37v19l-1 19q0 17 8 27t27 9q12 0 21 -1q6 0 16 -1h6q8 0 46 2q18 1 32 1t19 1 q5 0 36 -1q33 -1 39 -1q2 0 17 1h18q27 0 35 -11t8 -36v-15q-1 -12 -1 -15l1 -14v-18q0 -25 -9 -35t-32 -9q-2 0 -12 1h-13h-17q-2 0 -12 1h-12h-19l-20 -1q-6 0 -12 -2t-9 -9q-4 -6 -4 -17q0 -2 1 -7v-14v-15l-1 -15q-1 -17 7 -23t30 -7q43 0 66 1q8 1 24 1q12 -1 21 -3 t15 -10q4 -6 5 -14t1 -51l1 -15v-16q-1 -27 -11 -38t-35 -11q-3 0 -27 1q-26 2 -31 2q-35 0 -46 -5t-14 -17q0 -10 1 -27v-10v-14q-1 -11 -1 -16q0 -25 7 -33t27 -8h21q16 -1 23 -1l14 1h16q29 0 42 -2t20 -6q7 -6 9 -18t2 -34z"/>
<glyph glyph-name="Ecircumflex" horiz-adv-x="375" unicode="" d="M57 778q-1 4 1 7t9 10q9 11 12 17q2 4 9 14t17 22q5 8 6 9q5 7 11 13t14 6h8q10 -1 12 -1h15q12 -1 18 -1q3 0 20 1q19 2 23 2q15 0 22 -6t13 -17q14 -21 40 -55q1 -2 2 -3q10 -14 10 -22q0 -11 -16 -11l-13 1h-14h-19t-21 -2h-6q-6 -1 -7 -1q-9 1 -14 7t-10 15l-1 3 q-1 4 -4 8t-8 4q-6 0 -11 -9q-1 -3 -2 -9q-1 -5 -3 -8q-2 -4 -5 -7t-9 -3q-1 0 -15 1q-19 1 -25 1h-18l-18 -1q-11 1 -17 3t-6 12zM368 102v-57q0 -17 -6 -30t-25 -16h-93l-20 -1h-20q-3 0 -25 1q-23 2 -28 2t-41 -1q-38 -2 -46 -2q-16 0 -26 10t-10 27q0 2 1 27q1 80 1 96 q0 13 -2 74q-2 31 -2 52v28l1 30v32v43q-1 35 -1 42l1 36v38q0 4 -1 29q-1 27 -1 32v37v19l-1 19q0 17 8 27t27 9q12 0 21 -1q6 0 16 -1h6q8 0 46 2q18 1 32 1t19 1q5 0 36 -1q33 -1 39 -1q2 0 17 1h18q27 0 35 -11t8 -36v-15q-1 -12 -1 -15l1 -14v-18q0 -25 -9 -35t-32 -9 q-2 0 -12 1h-13h-17q-2 0 -12 1h-12h-19l-20 -1q-6 0 -12 -2t-9 -9q-4 -6 -4 -17q0 -2 1 -7v-14v-15l-1 -15q-1 -17 7 -23t30 -7q43 0 66 1q8 1 24 1q12 -1 21 -3t15 -10q4 -6 5 -14t1 -51l1 -15v-16q-1 -27 -11 -38t-35 -11q-3 0 -27 1q-26 2 -31 2q-35 0 -46 -5t-14 -17 q0 -10 1 -27v-10v-14q-1 -11 -1 -16q0 -25 7 -33t27 -8h21q16 -1 23 -1l14 1h16q29 0 42 -2t20 -6q7 -6 9 -18t2 -34z"/>
<glyph glyph-name="Edieresis" horiz-adv-x="375" unicode="" d="M207 801v5q0 4 -1 18q-1 18 -1 20q0 14 6 18t19 4h28q22 -1 33 -1h8q8 1 10 1q9 0 13 -4t4 -10v-34l1 -12v-13q1 -16 -5 -22t-24 -7q-2 -2 -30 -2h-41q-16 0 -19 12q-1 3 -1 27zM50 843q0 15 8 19t19 4q2 0 16 -1t16 -1l20 1h23q4 0 8 -1t8 -4q4 -4 4 -10t1 -26v-10 q1 -9 1 -12q0 -10 -2 -20t-5 -14q-4 -4 -8 -4t-18 -1h-32l-33 -1q-12 0 -18 7t-6 13v16q0 26 -1 34v6q-1 4 -1 5zM368 102v-57q0 -17 -6 -30t-25 -16h-93l-20 -1h-20q-3 0 -25 1q-23 2 -28 2t-41 -1q-38 -2 -46 -2q-16 0 -26 10t-10 27q0 2 1 27q1 80 1 96q0 13 -2 74 q-2 31 -2 52v28l1 30v32v43q-1 35 -1 42l1 36v38q0 4 -1 29q-1 27 -1 32v37v19l-1 19q0 17 8 27t27 9q12 0 21 -1q6 0 16 -1h6q8 0 46 2q18 1 32 1t19 1q5 0 36 -1q33 -1 39 -1q2 0 17 1h18q27 0 35 -11t8 -36v-15q-1 -12 -1 -15l1 -14v-18q0 -25 -9 -35t-32 -9q-2 0 -12 1 h-13h-17q-2 0 -12 1h-12h-19l-20 -1q-6 0 -12 -2t-9 -9q-4 -6 -4 -17q0 -2 1 -7v-14v-15l-1 -15q-1 -17 7 -23t30 -7q43 0 66 1q8 1 24 1q12 -1 21 -3t15 -10q4 -6 5 -14t1 -51l1 -15v-16q-1 -27 -11 -38t-35 -11q-3 0 -27 1q-26 2 -31 2q-35 0 -46 -5t-14 -17q0 -10 1 -27 v-10v-14q-1 -11 -1 -16q0 -25 7 -33t27 -8h21q16 -1 23 -1l14 1h16q29 0 42 -2t20 -6q7 -6 9 -18t2 -34z"/>
<glyph glyph-name="Igrave" horiz-adv-x="208" unicode="" d="M-25 865q0 7 5 10t10 3h4q3 -1 4 -1q7 -1 45 -1h6q8 0 29 1q20 1 28 1q14 0 18 -5t11 -23q3 -10 11 -32t12 -28q4 -8 4 -13q0 -7 -6 -10t-15 -3q-8 0 -24 1h-9h-18l-18 -1q-6 0 -13 8l-2 2q-4 6 -10 10l-9 9t-20 22l-21 21t-11 12q-11 9 -11 17zM25 667q0 23 7 31t25 8 q5 0 23 -1q23 -1 25 -1q4 0 28 1q25 1 30 1q15 0 19 -10t5 -19q0 -7 -2 -19q-2 -24 -2 -37q0 -67 -1 -101q0 -3 1 -31v-31q0 -4 -1 -19q-1 -20 -1 -22l1 -34v-37q0 -5 -1 -37q-1 -33 -1 -39l1 -30v-30q0 -7 -1 -54q-2 -50 -2 -60q0 -3 1 -21v-22q1 -3 1 -12t1 -14 q1 -8 -5 -16t-19 -10h-34h-38q-29 -1 -41 -1q-16 0 -20 11t-4 26v2q0 7 1 48q1 42 1 50v109q0 11 2 60q2 24 2 42v24q0 5 -1 34q-1 30 -1 36t1 26t2 26v43q-1 32 -1 46l1 17v20q0 5 -1 22q-1 23 -1 25z"/>
<glyph glyph-name="Iacute" horiz-adv-x="208" unicode="" d="M47 778q-1 2 5 16t14 37q11 26 12 30q4 10 8 13t17 3h34l34 -1q27 0 40 1q2 1 7 1q15 0 15 -12q0 -6 -3 -10t-16 -17q-5 -6 -31 -32q-9 -11 -19 -21l-13 -13l-1 -1q-6 -8 -11 -8l-22 1h-24h-11q-12 -1 -15 -1q-7 0 -13 2t-7 12zM25 667q0 23 7 31t25 8q5 0 23 -1 q23 -1 25 -1q4 0 28 1q25 1 30 1q15 0 19 -10t5 -19q0 -7 -2 -19q-2 -24 -2 -37q0 -67 -1 -101q0 -3 1 -31v-31q0 -4 -1 -19q-1 -20 -1 -22l1 -34v-37q0 -5 -1 -37q-1 -33 -1 -39l1 -30v-30q0 -7 -1 -54q-2 -50 -2 -60q0 -3 1 -21v-22q1 -3 1 -12t1 -14q1 -8 -5 -16t-19 -10 h-34h-38q-29 -1 -41 -1q-16 0 -20 11t-4 26v2q0 7 1 48q1 42 1 50v109q0 11 2 60q2 24 2 42v24q0 5 -1 34q-1 30 -1 36t1 26t2 26v43q-1 32 -1 46l1 17v20q0 5 -1 22q-1 23 -1 25z"/>
<glyph glyph-name="Icircumflex" horiz-adv-x="208" unicode="" d="M-26 778q0 4 2 7t8 10q9 11 12 17q2 4 9 14t17 22q5 8 6 9q5 7 11 13t14 6h8q10 -1 12 -1h15q12 -1 18 -1q3 0 20 1q19 2 23 2q15 0 22 -6t13 -17q14 -21 40 -55q1 -2 2 -3q10 -14 10 -22q0 -11 -16 -11l-13 1h-14h-19t-21 -2h-6q-6 -1 -7 -1q-9 1 -14 7t-10 15l-1 3 q-1 4 -4 8t-8 4q-6 0 -11 -9q-1 -3 -2 -9q-1 -5 -3 -8q-2 -4 -5 -7t-9 -3q-1 0 -15 1q-19 1 -25 1h-18l-18 -1q-11 1 -17 3t-6 12zM25 667q0 23 7 31t25 8q5 0 23 -1q23 -1 25 -1q4 0 28 1q25 1 30 1q15 0 19 -10t5 -19q0 -7 -2 -19q-2 -24 -2 -37q0 -67 -1 -101q0 -3 1 -31 v-31q0 -4 -1 -19q-1 -20 -1 -22l1 -34v-37q0 -5 -1 -37q-1 -33 -1 -39l1 -30v-30q0 -7 -1 -54q-2 -50 -2 -60q0 -3 1 -21v-22q1 -3 1 -12t1 -14q1 -8 -5 -16t-19 -10h-34h-38q-29 -1 -41 -1q-16 0 -20 11t-4 26v2q0 7 1 48q1 42 1 50v109q0 11 2 60q2 24 2 42v24q0 5 -1 34 q-1 30 -1 36t1 26t2 26v43q-1 32 -1 46l1 17v20q0 5 -1 22q-1 23 -1 25z"/>
<glyph glyph-name="Idieresis" horiz-adv-x="208" unicode="" d="M124 801v5q0 4 -1 18q-1 18 -1 20q0 14 6 18t19 4h28q22 -1 33 -1h8q8 1 10 1q8 0 12 -4t5 -10v-34l1 -12v-13q0 -16 -6 -22t-23 -7q-3 -2 -31 -2h-40q-16 0 -19 12q-1 3 -1 27zM-33 843q1 15 9 19t18 4q2 0 16 -1t16 -1l20 1h23q5 0 9 -1t7 -4q5 -4 5 -10v-26v-10 q1 -9 1 -12q1 -10 -1 -20t-6 -14t-8 -4t-18 -1h-32l-33 -1q-13 0 -19 7t-5 13v16q0 26 -1 34v6q-1 4 -1 5zM25 667q0 23 7 31t25 8q5 0 23 -1q23 -1 25 -1q4 0 28 1q25 1 30 1q15 0 19 -10t5 -19q0 -7 -2 -19q-2 -24 -2 -37q0 -67 -1 -101q0 -3 1 -31v-31q0 -4 -1 -19 q-1 -20 -1 -22l1 -34v-37q0 -5 -1 -37q-1 -33 -1 -39l1 -30v-30q0 -7 -1 -54q-2 -50 -2 -60q0 -3 1 -21v-22q1 -3 1 -12t1 -14q1 -8 -5 -16t-19 -10h-34h-38q-29 -1 -41 -1q-16 0 -20 11t-4 26v2q0 7 1 48q1 42 1 50v109q0 11 2 60q2 24 2 42v24q0 5 -1 34q-1 30 -1 36t1 26 t2 26v43q-1 32 -1 46l1 17v20q0 5 -1 22q-1 23 -1 25z"/>
<glyph glyph-name="Eth" horiz-adv-x="437" unicode="" d="M183 301v-75q-1 -40 3 -52t19 -13q16 0 27 13q14 15 18 50t3 102q0 4 1 24t1 24q0 2 -6 94q-1 18 -3 31t-8 29q-11 26 -30 26q-14 0 -18 -7t-6 -17v-45v-46q0 -9 2 -12t12 -3q1 0 11 1t11 1q14 0 14 -14q0 -3 -1 -15t-1 -15v-24q0 -10 -5 -14t-14 -3q-1 0 -9 1t-10 1 q-8 0 -10 -6v-12v-10q-1 -11 -1 -14zM1 379v15q0 8 -1 13v5q-1 3 -1 4q-1 6 3 8t7 2h5q3 -1 4 -1q2 0 6 2t4 10v8l-1 8q0 1 1 8v8q1 16 1 49q1 18 1 55q0 5 -1 40q-2 38 -2 46q0 26 10 36t37 10h16q13 -1 15 -1h3q36 -2 56 -2q5 0 39 1q35 1 41 1q42 0 70 -17t41 -33 q5 -6 9 -12t11 -21l3 -7q7 -13 13 -26q4 -9 9 -27t8 -36q0 -3 2 -21t4 -46t3 -50q1 -23 1 -35v-29q-1 -23 -1 -27v-3q-1 -15 -1 -22t-4 -25q-1 -12 -2 -34q0 -7 -1 -18q-3 -32 -7 -49t-15 -46q-1 -3 -3 -10q-6 -15 -9 -22q-15 -31 -46 -53q-31 -21 -55 -27t-52 -7h-1h-79 q-4 0 -30 -1q-28 -1 -34 -1q-16 1 -22 3t-13 8q-7 7 -11 15t-4 24q0 2 1 12v11q2 24 2 37q0 11 -2 60q-1 25 -1 43t-1 23q0 4 1 29q1 27 1 32v9l-1 9l1 9v8q1 4 -1 8t-5 4h-4l-4 -1q-15 0 -15 13l1 12v12z"/>
<glyph glyph-name="Ntilde" horiz-adv-x="479" unicode="" d="M285 852q4 0 9 2t9 5q1 1 2 3q4 6 7 7h2q4 0 6 -1q12 -3 39 -6h2q21 -3 27 -5t6 -8q-2 -7 -7 -21t-14 -25q-18 -23 -40 -30t-43 -7q-22 0 -50 7l-11 2q-29 6 -38 6q-8 0 -14 -3q-3 -2 -6 -6q-7 -7 -11 -8h-2q-1 0 -13 2t-17 3q-2 0 -16 3q-14 2 -16 2q-10 1 -16 3t-6 7 q0 1 2 6t3 11q11 33 35 49t59 16q10 0 27 -2h2q11 -2 18 -3q20 -5 32 -6q3 0 17 -1q13 -2 16 -2zM27 95v71v40q-1 30 -1 43q0 94 1 121q0 3 1 20q1 24 1 25q0 13 -1 40q-1 26 -1 39q0 6 1 44q1 39 1 46q0 3 -1 44q-2 36 -2 46q0 24 19 27q2 1 24 1h26q7 0 41 1q20 1 23 1 q16 0 25 -7t19 -33q2 -4 5 -14q2 -10 6 -22t7 -23t4 -15q7 -20 21 -58q2 -5 9 -30q7 -26 8 -31q2 -7 9 -34q8 -28 12 -41t4 -19q2 -8 4 -11t4 -4q2 0 2 8t1 16q0 6 -2 39q-2 38 -2 43q-2 38 -2 57l1 27v29q0 20 -5 70v12q-1 9 -1 16q0 23 19 23h13l13 -1h35q28 0 42 2 q10 2 16 2q12 0 18 -6t7 -19v-49q-1 -26 -1 -74t-1 -83l1 -34v-39q0 -7 -1 -52q-2 -48 -2 -58q0 -19 2 -51q1 -32 1 -51v-35q-1 -28 -1 -33q0 -8 1 -37q1 -39 1 -43q0 -25 -7 -33t-21 -8q-9 0 -14 1q-12 1 -34 1q-30 0 -42 -2q-4 0 -12 -1q-4 -1 -5 -1q-14 0 -21 12t-22 58 l-14 49l-15 48q-7 19 -11 34q-1 3 -4 16q-4 13 -5 15q-1 4 -6 21q-6 17 -7 20q0 1 -1 5l-15 50q-6 21 -8 27l-2 6q-1 0 -3 -9t-1 -19q0 -10 1 -15q2 -72 2 -99v-37q-1 -29 -1 -41q1 -20 1 -32t4 -52q0 -1 1 -14v-14q-1 -19 -9 -24t-21 -5h-30q-24 1 -34 1l-20 -1h-22 q-18 0 -23 10t-5 23q0 4 1 31q1 28 1 33z"/>
<glyph glyph-name="Ograve" horiz-adv-x="437" unicode="" d="M90 865q0 7 5 10t10 3h4q3 -1 4 -1q7 -1 45 -1h6q8 0 29 1q20 1 28 1q15 0 19 -5t10 -23q4 -10 12 -32t11 -28q4 -8 4 -13q0 -7 -6 -10t-15 -3q-8 0 -24 1h-9h-18l-18 -1q-6 0 -13 8l-2 2q-4 6 -10 10l-9 9t-20 22l-21 21t-11 12q-11 9 -11 17zM218 573q-8 0 -18 -5 t-15 -22q-3 -12 -4 -40t-1 -57q0 -6 1 -70v-72v-61q1 -20 1 -36t2 -21q2 -15 10 -28t24 -13q20 0 30 15t10 40q0 5 -1 35t-1 37t1 55q1 51 1 61q0 25 -1 65t-2 63v1q-1 21 -8 37t-29 16zM22 445q0 15 1 41t3 50t6 46t7 35q11 30 32 48t44 30q19 9 41 15t65 6q23 0 49 -4 t44 -10q15 -6 32 -18t28 -26q24 -34 31 -70t9 -92v-1q0 -56 1 -84l1 -50q2 -67 2 -100q0 -87 -14 -141t-54 -87q-28 -23 -62 -33t-79 -9q-48 -1 -82 15t-54 38t-27 40t-12 43l-1 2q-6 28 -7 40t-1 51q0 5 -1 64q-2 52 -2 66l1 20v23v25q-1 19 -1 27z"/>
<glyph glyph-name="Oacute" horiz-adv-x="437" unicode="" d="M162 778q0 2 6 16t13 37q11 26 12 30q3 10 7 13t18 3h34l34 -1q27 0 40 1q2 1 7 1q15 0 15 -12q0 -6 -3 -10t-16 -17q-5 -6 -31 -32q-10 -11 -20 -21t-12 -13l-1 -1q-6 -8 -11 -8l-22 1h-24h-11q-12 -1 -15 -1q-8 0 -14 2t-6 12zM218 573q-8 0 -18 -5t-15 -22 q-3 -12 -4 -40t-1 -57q0 -6 1 -70v-72v-61q1 -20 1 -36t2 -21q2 -15 10 -28t24 -13q20 0 30 15t10 40q0 5 -1 35t-1 37t1 55q1 51 1 61q0 25 -1 65t-2 63v1q-1 21 -8 37t-29 16zM22 445q0 15 1 41t3 50t6 46t7 35q11 30 32 48t44 30q19 9 41 15t65 6q23 0 49 -4t44 -10 q15 -6 32 -18t28 -26q24 -34 31 -70t9 -92v-1q0 -56 1 -84l1 -50q2 -67 2 -100q0 -87 -14 -141t-54 -87q-28 -23 -62 -33t-79 -9q-48 -1 -82 15t-54 38t-27 40t-12 43l-1 2q-6 28 -7 40t-1 51q0 5 -1 64q-2 52 -2 66l1 20v23v25q-1 19 -1 27z"/>
<glyph glyph-name="Ocircumflex" horiz-adv-x="437" unicode="" d="M89 778q-1 4 1 7t9 10q9 11 12 17q2 4 9 14t17 22q5 8 6 9q5 7 11 13t14 6h8q10 -1 12 -1h15q12 -1 18 -1q3 0 20 1q19 2 23 2q15 0 22 -6t13 -17q14 -21 40 -55q1 -2 2 -3q10 -14 10 -22q0 -11 -16 -11l-13 1h-14h-19t-21 -2h-6q-6 -1 -7 -1q-9 1 -14 7t-10 15l-1 3 q-1 4 -4 8t-8 4q-6 0 -11 -9q-1 -3 -2 -9q-1 -5 -3 -8q-2 -4 -5 -7t-9 -3q-1 0 -15 1q-19 1 -25 1h-18l-18 -1q-11 1 -17 3t-6 12zM218 573q-8 0 -18 -5t-15 -22q-3 -12 -4 -40t-1 -57q0 -6 1 -70v-72v-61q1 -20 1 -36t2 -21q2 -15 10 -28t24 -13q20 0 30 15t10 40 q0 5 -1 35t-1 37t1 55q1 51 1 61q0 25 -1 65t-2 63v1q-1 21 -8 37t-29 16zM22 445q0 15 1 41t3 50t6 46t7 35q11 30 32 48t44 30q19 9 41 15t65 6q23 0 49 -4t44 -10q15 -6 32 -18t28 -26q24 -34 31 -70t9 -92v-1q0 -56 1 -84l1 -50q2 -67 2 -100q0 -87 -14 -141t-54 -87 q-28 -23 -62 -33t-79 -9q-48 -1 -82 15t-54 38t-27 40t-12 43l-1 2q-6 28 -7 40t-1 51q0 5 -1 64q-2 52 -2 66l1 20v23v25q-1 19 -1 27z"/>
<glyph glyph-name="Otilde" horiz-adv-x="437" unicode="" d="M265 852q4 0 9 2t9 5q1 1 2 3q4 6 7 7h2q4 0 6 -1q12 -3 39 -6h2q21 -3 27 -5t6 -8q-2 -7 -7 -21t-14 -25q-18 -23 -40 -30t-43 -7q-22 0 -50 7l-11 2q-29 6 -38 6q-8 0 -14 -3q-3 -2 -6 -6q-7 -7 -11 -8h-2q-1 0 -13 2t-17 3q-2 0 -16 3q-14 2 -16 2q-10 1 -16 3t-6 7 q0 1 2 6t3 11q11 33 35 49t59 16q10 0 27 -2h2q11 -2 18 -3q20 -5 32 -6q3 0 17 -1q13 -2 16 -2zM218 573q-8 0 -18 -5t-15 -22q-3 -12 -4 -40t-1 -57q0 -6 1 -70v-72v-61q1 -20 1 -36t2 -21q2 -15 10 -28t24 -13q20 0 30 15t10 40q0 5 -1 35t-1 37t1 55q1 51 1 61 q0 25 -1 65t-2 63v1q-1 21 -8 37t-29 16zM22 445q0 15 1 41t3 50t6 46t7 35q11 30 32 48t44 30q19 9 41 15t65 6q23 0 49 -4t44 -10q15 -6 32 -18t28 -26q24 -34 31 -70t9 -92v-1q0 -56 1 -84l1 -50q2 -67 2 -100q0 -87 -14 -141t-54 -87q-28 -23 -62 -33t-79 -9 q-48 -1 -82 15t-54 38t-27 40t-12 43l-1 2q-6 28 -7 40t-1 51q0 5 -1 64q-2 52 -2 66l1 20v23v25q-1 19 -1 27z"/>
<glyph glyph-name="Odieresis" horiz-adv-x="437" unicode="" d="M238 801v5q0 4 -1 18q-1 18 -1 20q0 14 6 18t19 4h28q22 -1 33 -1h8q8 1 10 1q8 0 12 -4t5 -10v-34l1 -12v-13q0 -16 -6 -22t-23 -7q-3 -2 -31 -2h-40q-16 0 -19 12q-1 3 -1 27zM81 843q1 15 9 19t18 4q2 0 16 -1t16 -1l20 1h23q5 0 9 -1t7 -4q5 -4 5 -10v-26v-10 q1 -9 1 -12q1 -10 -1 -20t-6 -14t-8 -4t-18 -1h-32l-33 -1q-13 0 -19 7t-5 13v16q0 26 -1 34v6q-1 4 -1 5zM218 573q-8 0 -18 -5t-15 -22q-3 -12 -4 -40t-1 -57q0 -6 1 -70v-72v-61q1 -20 1 -36t2 -21q2 -15 10 -28t24 -13q20 0 30 15t10 40q0 5 -1 35t-1 37t1 55q1 51 1 61 q0 25 -1 65t-2 63v1q-1 21 -8 37t-29 16zM22 445q0 15 1 41t3 50t6 46t7 35q11 30 32 48t44 30q19 9 41 15t65 6q23 0 49 -4t44 -10q15 -6 32 -18t28 -26q24 -34 31 -70t9 -92v-1q0 -56 1 -84l1 -50q2 -67 2 -100q0 -87 -14 -141t-54 -87q-28 -23 -62 -33t-79 -9 q-48 -1 -82 15t-54 38t-27 40t-12 43l-1 2q-6 28 -7 40t-1 51q0 5 -1 64q-2 52 -2 66l1 20v23v25q-1 19 -1 27z"/>
<glyph glyph-name="Oslash" horiz-adv-x="458" unicode="" d="M270 378l-87 -134q1 -36 3 -50t5 -23q4 -9 13 -16t21 -7q10 0 20 5q13 5 19 19t6 41q0 4 -1 26q-1 23 -1 28q0 12 1 40t1 44q0 3 1 10v5t-1 6v6zM184 347l85 134q-1 33 -1 43t-2 19q-3 15 -13 24t-25 9q-16 0 -24 -6t-12 -15t-6 -45t-2 -92v-21q-1 -22 -1 -27q0 -3 1 -13 v-10zM381 55q-31 -36 -71 -49t-87 -13q-37 1 -64 7t-45 16t-28 20t-21 22q-6 -9 -12 -19q-7 -10 -13 -19q-5 -9 -11 -9q-3 0 -5 1t-10 6l-3 2q-2 2 -7 5t-7 5q-1 3 -3 6t-1 4q0 2 5 12q10 18 19 32t19 32q-6 38 -8 52t-2 43q0 9 -1 67q-1 60 -1 72q0 5 1 49v49q0 16 1 40 t3 48q1 24 5 46t8 35q8 23 22 39t32 28q26 18 52 26t74 8q39 0 66 -4q26 -4 44 -12t28 -16t24 -24q13 19 22 35q6 11 13 11q2 0 3 -1q3 -1 4 -1q2 -1 6 -5q4 -3 6 -5t7 -4q6 -3 8 -6q2 -4 2 -8q0 -5 -4 -11q-5 -9 -13 -21t-19 -34q-3 -6 -4 -7q5 -17 7 -29t3 -25 q2 -23 2 -88q0 -2 1 -24q1 -69 1 -74q1 -24 1 -87q0 -78 -10 -132t-39 -91z"/>
<glyph glyph-name="Ugrave" horiz-adv-x="437" unicode="" d="M90 865q0 7 5 10t10 3h4q3 -1 4 -1q7 -1 45 -1h6q8 0 29 1q20 1 28 1q15 0 19 -5t10 -23q4 -10 12 -32t11 -28q4 -8 4 -13q0 -7 -6 -10t-15 -3q-8 0 -24 1h-9h-18l-18 -1q-6 0 -13 8l-2 2q-4 6 -10 10l-9 9t-20 22l-21 21t-11 12q-11 9 -11 17zM21 668q-1 24 9 32t18 8 q4 0 32 -1q29 -1 34 -1q3 0 18 1t17 1q13 0 23 -6t11 -23q0 -15 -1 -55t-1 -55l1 -37v-39q0 -7 -1 -53q-2 -49 -2 -59q0 -5 1 -33q2 -29 2 -35v-29q-1 -18 -1 -30v-28q-1 -22 -1 -33q0 -21 8 -31t28 -11q22 -1 32 9t10 33v52v13q-1 13 -1 19q-1 6 -1 70q0 4 1 27t1 27 q0 7 -1 49q-1 45 -1 54l1 42v48q0 4 -1 27q-1 22 -1 26v17v9q-1 10 -1 12q0 13 9 19t23 5h25q19 -1 27 -1l20 1h20q13 -1 25 -7t12 -30q0 -3 -1 -15q-1 -16 -1 -18q0 -3 2 -36q1 -30 1 -38v-24q-1 -19 -1 -27q0 -4 1 -29q1 -26 1 -32q0 -4 -1 -34q-2 -31 -2 -37q0 -4 1 -34 q1 -32 1 -38q0 -3 -1 -43q-2 -36 -2 -46q0 -3 1 -28q1 -27 1 -32q0 -36 -17 -71t-54 -62q-26 -20 -54 -28t-67 -9q-63 -1 -95 11t-55 34q-31 30 -39 59t-10 73q0 50 -1 75q0 6 -1 45q-2 43 -2 51q0 13 1 38t1 37q0 5 1 33q1 29 1 35v12q-1 10 -1 15q0 6 1 18t1 19t-1 25 q-1 15 -1 47q0 5 -1 24q-1 24 -1 26z"/>
<glyph glyph-name="Uacute" horiz-adv-x="437" unicode="" d="M162 778q0 2 6 16t13 37q11 26 12 30q3 10 7 13t18 3h34l34 -1q27 0 40 1q2 1 7 1q15 0 15 -12q0 -6 -3 -10t-16 -17q-5 -6 -31 -32q-10 -11 -20 -21t-12 -13l-1 -1q-6 -8 -11 -8l-22 1h-24h-11q-12 -1 -15 -1q-8 0 -14 2t-6 12zM21 668q-1 24 9 32t18 8q4 0 32 -1 q29 -1 34 -1q3 0 18 1t17 1q13 0 23 -6t11 -23q0 -15 -1 -55t-1 -55l1 -37v-39q0 -7 -1 -53q-2 -49 -2 -59q0 -5 1 -33q2 -29 2 -35v-29q-1 -18 -1 -30v-28q-1 -22 -1 -33q0 -21 8 -31t28 -11q22 -1 32 9t10 33v52v13q-1 13 -1 19q-1 6 -1 70q0 4 1 27t1 27q0 7 -1 49 q-1 45 -1 54l1 42v48q0 4 -1 27q-1 22 -1 26v17v9q-1 10 -1 12q0 13 9 19t23 5h25q19 -1 27 -1l20 1h20q13 -1 25 -7t12 -30q0 -3 -1 -15q-1 -16 -1 -18q0 -3 2 -36q1 -30 1 -38v-24q-1 -19 -1 -27q0 -4 1 -29q1 -26 1 -32q0 -4 -1 -34q-2 -31 -2 -37q0 -4 1 -34 q1 -32 1 -38q0 -3 -1 -43q-2 -36 -2 -46q0 -3 1 -28q1 -27 1 -32q0 -36 -17 -71t-54 -62q-26 -20 -54 -28t-67 -9q-63 -1 -95 11t-55 34q-31 30 -39 59t-10 73q0 50 -1 75q0 6 -1 45q-2 43 -2 51q0 13 1 38t1 37q0 5 1 33q1 29 1 35v12q-1 10 -1 15q0 6 1 18t1 19t-1 25 q-1 15 -1 47q0 5 -1 24q-1 24 -1 26z"/>
<glyph glyph-name="Ucircumflex" horiz-adv-x="437" unicode="" d="M89 778q-1 4 1 7t9 10q9 11 12 17q2 4 9 14t17 22q5 8 6 9q5 7 11 13t14 6h8q10 -1 12 -1h15q12 -1 18 -1q3 0 20 1q19 2 23 2q15 0 22 -6t13 -17q14 -21 40 -55q1 -2 2 -3q10 -14 10 -22q0 -11 -16 -11l-13 1h-14h-19t-21 -2h-6q-6 -1 -7 -1q-9 1 -14 7t-10 15l-1 3 q-1 4 -4 8t-8 4q-6 0 -11 -9q-1 -3 -2 -9q-1 -5 -3 -8q-2 -4 -5 -7t-9 -3q-1 0 -15 1q-19 1 -25 1h-18l-18 -1q-11 1 -17 3t-6 12zM21 668q-1 24 9 32t18 8q4 0 32 -1q29 -1 34 -1q3 0 18 1t17 1q13 0 23 -6t11 -23q0 -15 -1 -55t-1 -55l1 -37v-39q0 -7 -1 -53 q-2 -49 -2 -59q0 -5 1 -33q2 -29 2 -35v-29q-1 -18 -1 -30v-28q-1 -22 -1 -33q0 -21 8 -31t28 -11q22 -1 32 9t10 33v52v13q-1 13 -1 19q-1 6 -1 70q0 4 1 27t1 27q0 7 -1 49q-1 45 -1 54l1 42v48q0 4 -1 27q-1 22 -1 26v17v9q-1 10 -1 12q0 13 9 19t23 5h25q19 -1 27 -1 l20 1h20q13 -1 25 -7t12 -30q0 -3 -1 -15q-1 -16 -1 -18q0 -3 2 -36q1 -30 1 -38v-24q-1 -19 -1 -27q0 -4 1 -29q1 -26 1 -32q0 -4 -1 -34q-2 -31 -2 -37q0 -4 1 -34q1 -32 1 -38q0 -3 -1 -43q-2 -36 -2 -46q0 -3 1 -28q1 -27 1 -32q0 -36 -17 -71t-54 -62q-26 -20 -54 -28 t-67 -9q-63 -1 -95 11t-55 34q-31 30 -39 59t-10 73q0 50 -1 75q0 6 -1 45q-2 43 -2 51q0 13 1 38t1 37q0 5 1 33q1 29 1 35v12q-1 10 -1 15q0 6 1 18t1 19t-1 25q-1 15 -1 47q0 5 -1 24q-1 24 -1 26z"/>
<glyph glyph-name="Udieresis" horiz-adv-x="437" unicode="" d="M234 801v5q0 4 -1 18q-1 18 -1 20q0 14 6 18t19 4h28q22 -1 33 -1h8q8 1 10 1q8 0 12 -4t5 -10v-34l1 -12v-13q0 -16 -6 -22t-23 -7q-3 -2 -31 -2h-40q-16 0 -19 12q-1 3 -1 27zM77 843q1 15 9 19t18 4q2 0 16 -1t16 -1l20 1h23q5 0 9 -1t7 -4q5 -4 5 -10v-26v-10 q1 -9 1 -12q1 -10 -1 -20t-6 -14t-8 -4t-18 -1h-32l-33 -1q-13 0 -19 7t-5 13v16q0 26 -1 34v6q-1 4 -1 5zM21 668q-1 24 9 32t18 8q4 0 32 -1q29 -1 34 -1q3 0 18 1t17 1q13 0 23 -6t11 -23q0 -15 -1 -55t-1 -55l1 -37v-39q0 -7 -1 -53q-2 -49 -2 -59q0 -5 1 -33 q2 -29 2 -35v-29q-1 -18 -1 -30v-28q-1 -22 -1 -33q0 -21 8 -31t28 -11q22 -1 32 9t10 33v52v13q-1 13 -1 19q-1 6 -1 70q0 4 1 27t1 27q0 7 -1 49q-1 45 -1 54l1 42v48q0 4 -1 27q-1 22 -1 26v17v9q-1 10 -1 12q0 13 9 19t23 5h25q19 -1 27 -1l20 1h20q13 -1 25 -7t12 -30 q0 -3 -1 -15q-1 -16 -1 -18q0 -3 2 -36q1 -30 1 -38v-24q-1 -19 -1 -27q0 -4 1 -29q1 -26 1 -32q0 -4 -1 -34q-2 -31 -2 -37q0 -4 1 -34q1 -32 1 -38q0 -3 -1 -43q-2 -36 -2 -46q0 -3 1 -28q1 -27 1 -32q0 -36 -17 -71t-54 -62q-26 -20 -54 -28t-67 -9q-63 -1 -95 11t-55 34 q-31 30 -39 59t-10 73q0 50 -1 75q0 6 -1 45q-2 43 -2 51q0 13 1 38t1 37q0 5 1 33q1 29 1 35v12q-1 10 -1 15q0 6 1 18t1 19t-1 25q-1 15 -1 47q0 5 -1 24q-1 24 -1 26z"/>
<glyph glyph-name="Yacute" horiz-adv-x="417" unicode="" d="M151 778q-1 2 5 16t14 37q11 26 12 30q4 10 8 13t17 3h34l34 -1q27 0 40 1q2 1 7 1q15 0 15 -12q0 -6 -3 -10t-16 -17q-5 -6 -31 -32q-9 -11 -19 -21l-13 -13l-1 -1q-6 -8 -11 -8l-22 1h-24h-11q-12 -1 -15 -1q-7 0 -13 2t-7 12zM-3 679q0 13 7 19t16 5h7q11 -1 18 -1 q20 -2 25 -2q3 0 28 2h6q9 0 24 1h9q15 1 21 -7t11 -26v-2q1 -3 3 -18t2 -18q4 -16 5 -24q9 -32 16 -79q1 -7 5 -25t6 -19q1 0 2 5l1 2q2 5 6 26t8 41q0 3 1 8l4 17q8 35 10 52q0 3 1 16q0 9 1 16q2 16 8 26t27 10q6 0 29 -1q23 -2 29 -2h7q12 1 19 1q11 1 26 1q13 1 22 -3 t9 -18q0 -7 -3 -19l-6 -17l-7 -17q-2 -5 -4 -16t-3 -16q-7 -28 -16 -51q-16 -46 -23 -69q-5 -16 -13 -48q-9 -38 -16 -58q-10 -28 -15 -41q-12 -30 -16 -44t-6 -24t-4 -18v-25v-3q-2 -47 -2 -73v-27t4 -61q0 -2 1 -14q1 -13 1 -15q0 -9 -6 -18t-26 -9q-5 0 -24 1 q-25 1 -27 1q-5 0 -17 -1t-18 -1q-20 -2 -21 -2q-9 0 -17 7t-9 24q0 3 2 18q1 15 1 18q0 5 -1 33q-1 30 -1 36v16t2 35q2 23 2 35v19q0 17 -3 30q-1 7 -9 30t-14 39q-2 3 -8 23t-9 26l-1 4q-6 23 -8 28t-7 18q-1 6 -9 28t-16 48q-8 25 -16 49t-11 40q-8 30 -13 45 q-4 14 -6 20t-1 13z"/>
<glyph glyph-name="Thorn" horiz-adv-x="437" unicode="" d="M179 459v-27q1 -8 1 -24t1 -33t1 -28t1 -16v-2q1 -21 7 -31t24 -10q15 0 25 9t15 22q4 13 6 25t2 21v22l-1 22q-3 13 -7 30t-9 25q-12 25 -39 25q-9 1 -18 -5t-9 -25zM25 598v20l-3 40q0 24 6 34t30 10h15q12 -1 18 -1q5 0 25 1q26 1 28 1q13 0 19 -2q11 -5 13 -11t2 -20 q2 -14 4 -19t8 -8q4 -1 22 -3t31 -2l17 -1q31 -3 55 -16q37 -20 59 -50t33 -72q5 -17 10 -58t5 -75q0 -44 -8 -84t-28 -74q-8 -12 -14 -20t-15 -17q-19 -19 -43 -31t-65 -13l-7 1h-8q-4 0 -12 -1t-9 -1q-9 -1 -19 -12t-9 -33q0 -4 2 -29q1 -18 1 -22q0 -13 -7 -21t-31 -8h-5 q-12 1 -14 1q-16 1 -48 1q-13 0 -20 -1h-8q-7 -1 -8 -1q-9 1 -16 5t-7 16v7v3q3 36 3 45q0 4 -1 30q-2 27 -2 32t1 36q1 33 1 39q0 7 -1 51q-1 46 -1 56l1 38v41q0 5 -1 36q-1 32 -1 38q0 3 1 29q1 83 1 95z"/>
<glyph glyph-name="germandbls" d="M216 541q0 13 -8 21t-16 8q-18 0 -25 -19q-3 -11 -3 -41l1 -14v-18q0 -4 -1 -28q-1 -26 -1 -31q0 -4 2 -53q1 -44 1 -56q0 -5 -1 -40q-2 -37 -2 -45q1 -6 1 -16t1 -35q1 -23 1 -35t1 -19q0 -4 -1 -27q-1 -24 -1 -29l1 -17v-18q0 -14 -5 -22t-19 -8q-3 0 -18 1t-18 1h-9 q-25 -3 -36 -3h-15q-18 0 -24 8t-6 22l1 24v26q0 4 -1 31q-2 29 -2 36q0 1 1 12q1 20 1 24q1 9 2 55t1 57q0 17 -1 50q-1 32 -1 48q0 5 1 37q1 33 1 39q0 4 -1 31q-1 28 -1 34q1 32 7 58t17 45q14 25 34 39q21 16 61 26t60 10q16 0 42 -5t36 -8q12 -4 26 -13t29 -25 q37 -40 37 -100q0 -13 -6 -33t-10 -28q-2 -5 -9 -21q-9 -17 -14 -29t-5 -16q0 -8 5 -18q1 -3 7 -16q5 -14 6 -17q6 -20 10 -30q6 -16 9 -23q4 -11 9 -25t9 -25q18 -56 18 -89v-11q-1 -12 -1 -15v-8v-8l-1 -7v-8q-2 -20 -7 -35q-11 -39 -24 -55t-30 -28q-20 -14 -32 -17 t-49 -3q-13 0 -25 2t-22 8q-18 12 -18 33q0 3 1 19q2 17 2 21q0 23 -3 45q-2 14 -2 15q0 9 5 13t9 4q2 0 9 -2q5 -1 6 -1q9 -1 17 7t9 28q0 38 -17 80q-1 4 -9 21q-8 18 -10 21q-11 27 -17 58t-6 45q0 28 15 60q1 3 4 9q3 5 4 8q5 11 9 27t4 26z" unicode=""/>
<glyph glyph-name="agrave" horiz-adv-x="375" unicode="" d="M179 268q-5 0 -13 -4t-13 -15q-5 -10 -6 -19t-1 -32v-19q0 -60 33 -60q15 0 23 13t8 20q1 4 1 76q0 18 -10 29t-22 11zM356 214v-73l1 -26v-28q0 -5 -1 -24q-1 -24 -1 -26v-15q1 -13 -7 -18t-19 -5h-24q-18 1 -26 1t-20 -1h-8q-1 0 -7 -1h-8q-10 0 -12 4t-2 12 q0 11 -6 11q-2 0 -13 -9q-3 -4 -5 -5q-21 -17 -57 -17q-25 0 -41 5t-29 14q-20 13 -33 35q-14 22 -20 46q-6 26 -8 50t-3 45q0 106 36 153q21 28 49 38t49 11q15 -1 25 -3t30 -12q4 -2 8 -2q6 0 10 4t4 12t-2 17t-6 14q-5 9 -17 13t-40 4q-38 0 -64 -14q-7 -5 -10 -6t-7 -1 q-6 0 -16 6t-11 12q-1 3 -1 9t-1 10v11q1 11 1 13v16q-1 13 -1 15q0 13 6 21t26 14q27 9 43 11t35 2l21 1h20q26 0 64 -8t61 -23q21 -15 29 -39t9 -76v-23q-1 -18 -1 -26l1 -31v-31v-43q-1 -37 -1 -44zM70 696q0 8 5 10t9 2h9l8 -1h21q17 -1 24 -1q5 0 24 1q26 1 29 1 q14 0 19 -4t9 -17l5 -15t9 -24q4 -10 7 -18t4 -10t2 -3q3 -7 3 -10q0 -8 -10 -12h-4q-4 -1 -7 -1h-7q-16 1 -22 1h-40q-4 0 -7 2t-12 11q-4 3 -16 16q-12 14 -30 32t-18 19l-1 1q-13 11 -13 20z"/>
<glyph glyph-name="aacute" horiz-adv-x="375" unicode="" d="M179 268q-5 0 -13 -4t-13 -15q-5 -10 -6 -19t-1 -32v-19q0 -60 33 -60q15 0 23 13t8 20q1 4 1 76q0 18 -10 29t-22 11zM356 214v-73l1 -26v-28q0 -5 -1 -24q-1 -24 -1 -26v-15q1 -13 -7 -18t-19 -5h-24q-18 1 -26 1t-20 -1h-8q-1 0 -7 -1h-8q-10 0 -12 4t-2 12 q0 11 -6 11q-2 0 -13 -9q-3 -4 -5 -5q-21 -17 -57 -17q-25 0 -41 5t-29 14q-20 13 -33 35q-14 22 -20 46q-6 26 -8 50t-3 45q0 106 36 153q21 28 49 38t49 11q15 -1 25 -3t30 -12q4 -2 8 -2q6 0 10 4t4 12t-2 17t-6 14q-5 9 -17 13t-40 4q-38 0 -64 -14q-7 -5 -10 -6t-7 -1 q-6 0 -16 6t-11 12q-1 3 -1 9t-1 10v11q1 11 1 13v16q-1 13 -1 15q0 13 6 21t26 14q27 9 43 11t35 2l21 1h20q26 0 64 -8t61 -23q21 -15 29 -39t9 -76v-23q-1 -18 -1 -26l1 -31v-31v-43q-1 -37 -1 -44zM142 608q0 4 3 11q1 0 2 4q7 15 13 33t9 24q0 1 1 4q3 5 3 7q5 9 9 13 t18 4q5 0 23 -1q23 -1 25 -1h16q5 0 23 1q24 1 26 1q15 0 15 -12q0 -7 -4 -12t-17 -18l-6 -6q-7 -8 -11 -11q-4 -5 -15 -16q-13 -13 -14 -15l-4 -4q-8 -10 -13 -14t-7 -5h-44h-14q-11 -1 -16 -1q-9 0 -15 2t-6 12z"/>
<glyph glyph-name="acircumflex" horiz-adv-x="375" unicode="" d="M179 268q-5 0 -13 -4t-13 -15q-5 -10 -6 -19t-1 -32v-19q0 -60 33 -60q15 0 23 13t8 20q1 4 1 76q0 18 -10 29t-22 11zM356 214v-73l1 -26v-28q0 -5 -1 -24q-1 -24 -1 -26v-15q1 -13 -7 -18t-19 -5h-24q-18 1 -26 1t-20 -1h-8q-1 0 -7 -1h-8q-10 0 -12 4t-2 12 q0 11 -6 11q-2 0 -13 -9q-3 -4 -5 -5q-21 -17 -57 -17q-25 0 -41 5t-29 14q-20 13 -33 35q-14 22 -20 46q-6 26 -8 50t-3 45q0 106 36 153q21 28 49 38t49 11q15 -1 25 -3t30 -12q4 -2 8 -2q6 0 10 4t4 12t-2 17t-6 14q-5 9 -17 13t-40 4q-38 0 -64 -14q-7 -5 -10 -6t-7 -1 q-6 0 -16 6t-11 12q-1 3 -1 9t-1 10v11q1 11 1 13v16q-1 13 -1 15q0 13 6 21t26 14q27 9 43 11t35 2l21 1h20q26 0 64 -8t61 -23q21 -15 29 -39t9 -76v-23q-1 -18 -1 -26l1 -31v-31v-43q-1 -37 -1 -44zM68 606q0 6 7 15q2 3 3 4q3 3 7 10q4 6 7 9q5 7 10 15q17 23 22 31 q6 10 12 14t15 4q2 0 14 -1q11 -1 13 -1h30q2 0 16 1t16 1q14 0 19 -2q6 -2 11 -8t20 -30q6 -10 16 -24t13 -16q5 -6 9 -12t3 -11q-1 -6 -5 -9t-10 -3l-23 1h-23q-13 0 -20 -1q-10 -2 -14 -2q-10 1 -16 7t-10 17v1q0 4 -4 8t-9 5q-6 0 -11 -9q0 -1 -2 -7q-1 -6 -3 -10 q-3 -11 -13 -11q-4 0 -18 1q-19 1 -21 1h-17l-18 -1q-14 0 -20 4t-6 9z"/>
<glyph glyph-name="atilde" horiz-adv-x="375" unicode="" d="M179 268q-5 0 -13 -4t-13 -15q-5 -10 -6 -19t-1 -32v-19q0 -60 33 -60q15 0 23 13t8 20q1 4 1 76q0 18 -10 29t-22 11zM356 214v-73l1 -26v-28q0 -5 -1 -24q-1 -24 -1 -26v-15q1 -13 -7 -18t-19 -5h-24q-18 1 -26 1t-20 -1h-8q-1 0 -7 -1h-8q-10 0 -12 4t-2 12 q0 11 -6 11q-2 0 -13 -9q-3 -4 -5 -5q-21 -17 -57 -17q-25 0 -41 5t-29 14q-20 13 -33 35q-14 22 -20 46q-6 26 -8 50t-3 45q0 106 36 153q21 28 49 38t49 11q15 -1 25 -3t30 -12q4 -2 8 -2q6 0 10 4t4 12t-2 17t-6 14q-5 9 -17 13t-40 4q-38 0 -64 -14q-7 -5 -10 -6t-7 -1 q-6 0 -16 6t-11 12q-1 3 -1 9t-1 10v11q1 11 1 13v16q-1 13 -1 15q0 13 6 21t26 14q27 9 43 11t35 2l21 1h20q26 0 64 -8t61 -23q21 -15 29 -39t9 -76v-23q-1 -18 -1 -26l1 -31v-31v-43q-1 -37 -1 -44zM121 606h-3q-4 0 -10 2q-3 1 -20 3l-16 2l-5 1q-7 2 -10 2q-11 1 -16 3 t-5 8q0 4 4 17t14 28t30 26t51 11q16 0 55 -7q39 -8 55 -8q12 0 18 7q8 10 11 10q0 1 1 1q2 0 5 -1l2 -1q1 0 26 -4l12 -2q24 -4 30 -6t5 -5l-3 -12q-10 -35 -36 -53t-64 -19q-11 -1 -26 1t-46 9l-5 1q-15 3 -21 3q-11 0 -16 -3q-3 -2 -8 -7q-6 -6 -9 -7z"/>
<glyph glyph-name="adieresis" horiz-adv-x="375" unicode="" d="M179 268q-5 0 -13 -4t-13 -15q-5 -10 -6 -19t-1 -32v-19q0 -60 33 -60q15 0 23 13t8 20q1 4 1 76q0 18 -10 29t-22 11zM356 214v-73l1 -26v-28q0 -5 -1 -24q-1 -24 -1 -26v-15q1 -13 -7 -18t-19 -5h-24q-18 1 -26 1t-20 -1h-8q-1 0 -7 -1h-8q-10 0 -12 4t-2 12 q0 11 -6 11q-2 0 -13 -9q-3 -4 -5 -5q-21 -17 -57 -17q-25 0 -41 5t-29 14q-20 13 -33 35q-14 22 -20 46q-6 26 -8 50t-3 45q0 106 36 153q21 28 49 38t49 11q15 -1 25 -3t30 -12q4 -2 8 -2q6 0 10 4t4 12t-2 17t-6 14q-5 9 -17 13t-40 4q-38 0 -64 -14q-7 -5 -10 -6t-7 -1 q-6 0 -16 6t-11 12q-1 3 -1 9t-1 10v11q1 11 1 13v16q-1 13 -1 15q0 13 6 21t26 14q27 9 43 11t35 2l21 1h20q26 0 64 -8t61 -23q21 -15 29 -39t9 -76v-23q-1 -18 -1 -26l1 -31v-31v-43q-1 -37 -1 -44zM230 685q0 13 6 17t13 3h32q23 -1 34 -1h7q10 1 13 1q11 1 14 -5t3 -18 v-14l-1 -15q0 -2 1 -12v-13q0 -12 -6 -18t-25 -7q-2 0 -33 -1q-24 -1 -30 -1q-18 0 -22 5t-4 19q0 3 -1 28v21v5q-1 4 -1 6zM75 682q1 16 9 20t17 4q4 0 17 -1q18 -1 20 -1l17 1h20q15 1 19 -7t4 -30v-11q1 -11 1 -14q-1 -6 -1 -15t-1 -11q-3 -7 -7 -11t-13 -4l-7 1h-8h-21 l-21 -1h-17q-18 0 -22 8t-4 25q0 4 -1 24t-1 23z"/>
<glyph glyph-name="aring" horiz-adv-x="375" unicode="" d="M179 268q-5 0 -13 -4t-13 -15q-5 -10 -6 -19t-1 -32v-19q0 -60 33 -60q15 0 23 13t8 20q1 4 1 76q0 18 -10 29t-22 11zM356 214v-73l1 -26v-28q0 -5 -1 -24q-1 -24 -1 -26v-15q1 -13 -7 -18t-19 -5h-24q-18 1 -26 1t-20 -1h-8q-1 0 -7 -1h-8q-10 0 -12 4t-2 12 q0 11 -6 11q-2 0 -13 -9q-3 -4 -5 -5q-21 -17 -57 -17q-25 0 -41 5t-29 14q-20 13 -33 35q-14 22 -20 46q-6 26 -8 50t-3 45q0 106 36 153q21 28 49 38t49 11q15 -1 25 -3t30 -12q4 -2 8 -2q6 0 10 4t4 12t-2 17t-6 14q-5 9 -17 13t-40 4q-38 0 -64 -14q-7 -5 -10 -6t-7 -1 q-6 0 -16 6t-11 12q-1 3 -1 9t-1 10v11q1 11 1 13v16q-1 13 -1 15q0 13 6 21t26 14q27 9 43 11t35 2l21 1h20q26 0 64 -8t61 -23q21 -15 29 -39t9 -76v-23q-1 -18 -1 -26l1 -31v-31v-43q-1 -37 -1 -44zM212 713q-25 -1 -40 -13t-15 -31q1 -17 17 -29t38 -12q26 0 40 14 t14 31q0 15 -16 27t-38 13zM97 673q0 43 34 71t82 28q53 0 85 -31t32 -69q0 -43 -36 -72t-83 -29q-53 1 -83 31t-31 71z"/>
<glyph glyph-name="ae" horiz-adv-x="583" unicode="" d="M178 272q-9 0 -15 -6q-12 -8 -16 -24t-4 -34q0 -38 2 -52t8 -24q9 -12 23 -12q15 0 24 14q5 8 7 16t2 18v67q-1 17 -11 27t-20 10zM391 442q-15 0 -25 -13q-7 -11 -9 -25t-2 -43q0 -11 2 -17t9 -9q4 -1 14 -1t19 -1q9 0 15 2t10 9q2 4 2 16v25q0 20 -5 34q-5 13 -13 18 t-17 5zM45 478v27q1 21 5 28t17 12q27 10 51 13t59 3q33 0 51 -2t44 -9q2 0 11 -3q14 -5 15 -5q4 0 11 4q4 3 5 3q11 6 34 11t47 5q47 1 73 -13t46 -34q25 -25 39 -65t14 -89v-33l-1 -34q-1 -7 -1 -37q0 -8 -2 -14t-9 -14q-6 -6 -12 -10t-20 -4q-3 0 -18 1q-16 1 -19 1 q-4 0 -17 -1q-18 -1 -20 -1q-3 0 -24 1q-24 2 -30 2q-22 0 -30 -4t-9 -21q-1 -6 1 -14t8 -17q8 -17 26 -25t51 -9q27 0 48 10l10 5q14 7 21 8h4q13 0 22 -8t9 -20v-7q-1 -7 -1 -8q-1 -8 -1 -24l1 -19v-22q0 -11 -3 -16q-6 -15 -44 -24t-74 -9q-39 0 -47 1l-16 2q-16 2 -18 4 l-6 2q-2 0 -10 -5q-3 -1 -8 -1q-3 0 -25 1q-23 1 -28 1q-4 0 -20 -1q-22 -1 -24 -1q-7 0 -9 1t-2 3t-1 12q0 11 -8 11q-3 0 -10 -7q-21 -23 -65 -23q-14 0 -26 2q-16 3 -32 11t-27 19q-19 19 -32 57t-13 98q0 43 6 83t24 70q15 24 43 41t61 17q13 -1 22 -3t31 -12 q8 -4 12 -4q8 0 11 9q0 1 1 9t1 13q0 7 -5 14q-5 9 -17 15t-41 7q-19 1 -29 -1t-20 -5q-2 -1 -7 -3q-13 -6 -19 -8l-9 -3q-6 0 -14 5t-10 10q-3 6 -3 19q0 2 1 8v13z"/>
<glyph glyph-name="ccedilla" horiz-adv-x="271" unicode="" d="M106 -68q0 22 18 36t40 15q26 -1 44 -19t17 -46q0 -9 -1 -13q-4 -31 -16 -49t-34 -43l-5 -5q-7 -7 -13 -11t-11 -4q-9 1 -17 17t-8 22q0 4 7 11l6 6q2 1 4 3q7 9 7 17q0 7 -3 11t-13 11q-10 5 -16 17t-6 24zM189 566h22q20 -1 22 -1q18 1 23 -9t5 -25v-72q0 -21 -5 -33 t-24 -13h-10q-10 1 -13 1q-9 0 -15 -5t-8 -8q-10 -13 -14 -39t-5 -75q1 -77 9 -103t41 -26q1 0 11 1t11 1q15 0 19 -10t4 -21q0 -6 -1 -29q-2 -23 -2 -29l1 -17v-20q0 -23 -13 -30t-33 -7h-17q-15 1 -18 1h-14q-16 0 -35 5q-17 5 -29 11t-25 19q-24 25 -34 45t-16 50l-1 3v1 q-6 29 -8 52t-2 70q0 73 5 123t24 99q16 40 48 65t97 25z"/>
<glyph glyph-name="egrave" d="M161 365q-1 -11 1 -19t9 -11q4 -1 15 -1t22 -1q14 -1 20 5t6 23q0 41 -3 52q-5 17 -15 22t-19 5q-13 0 -21 -8t-10 -18q-3 -10 -4 -22t-1 -27zM360 85v-41q0 -15 -10 -23q-12 -9 -44 -17t-78 -8q-54 0 -94 14t-71 56q-29 39 -37 85t-8 128q0 3 2 35t2 41t1 17 q7 95 51 144t125 49q43 0 76 -13t60 -52q24 -34 31 -68t7 -73q0 -11 -1 -59t-2 -52l-1 -1q-5 -11 -13 -20t-21 -9q-2 0 -13 1q-12 1 -14 1q-3 0 -24 -1q-22 -2 -26 -2q-7 0 -33 1q-35 1 -39 1q-10 0 -17 -4t-7 -21q0 -19 11 -33q13 -18 29 -23t37 -5q27 0 39 3t38 16l2 1 q10 3 15 3q9 0 19 -8t10 -17l-1 -12q-1 -28 -1 -34zM74 696q0 8 5 10t9 2h9l8 -1h21q17 -1 24 -1q5 0 24 1q26 1 29 1q14 0 19 -4t9 -17l5 -15t9 -24q4 -10 7 -18t4 -10t2 -3q3 -7 3 -10q0 -8 -10 -12h-4q-4 -1 -7 -1h-7q-16 1 -22 1h-40q-4 0 -7 2t-12 11q-4 3 -16 16 q-12 14 -30 32t-18 19l-1 1q-13 11 -13 20z" unicode=""/>
<glyph glyph-name="eacute" d="M161 365q-1 -11 1 -19t9 -11q4 -1 15 -1t22 -1q14 -1 20 5t6 23q0 41 -3 52q-5 17 -15 22t-19 5q-13 0 -21 -8t-10 -18q-3 -10 -4 -22t-1 -27zM360 85v-41q0 -15 -10 -23q-12 -9 -44 -17t-78 -8q-54 0 -94 14t-71 56q-29 39 -37 85t-8 128q0 3 2 35t2 41t1 17 q7 95 51 144t125 49q43 0 76 -13t60 -52q24 -34 31 -68t7 -73q0 -11 -1 -59t-2 -52l-1 -1q-5 -11 -13 -20t-21 -9q-2 0 -13 1q-12 1 -14 1q-3 0 -24 -1q-22 -2 -26 -2q-7 0 -33 1q-35 1 -39 1q-10 0 -17 -4t-7 -21q0 -19 11 -33q13 -18 29 -23t37 -5q27 0 39 3t38 16l2 1 q10 3 15 3q9 0 19 -8t10 -17l-1 -12q-1 -28 -1 -34zM146 608q0 4 3 11q1 0 2 4q7 15 13 33t9 24q0 1 1 4q3 5 3 7q5 9 9 13t18 4q5 0 23 -1q23 -1 25 -1h16q5 0 23 1q24 1 26 1q15 0 15 -12q0 -7 -4 -12t-17 -18l-6 -6q-7 -8 -11 -11q-4 -5 -15 -16q-13 -13 -14 -15l-4 -4 q-8 -10 -13 -14t-7 -5h-44h-14q-11 -1 -16 -1q-9 0 -15 2t-6 12z" unicode=""/>
<glyph glyph-name="ecircumflex" d="M161 365q-1 -11 1 -19t9 -11q4 -1 15 -1t22 -1q14 -1 20 5t6 23q0 41 -3 52q-5 17 -15 22t-19 5q-13 0 -21 -8t-10 -18q-3 -10 -4 -22t-1 -27zM360 85v-41q0 -15 -10 -23q-12 -9 -44 -17t-78 -8q-54 0 -94 14t-71 56q-29 39 -37 85t-8 128q0 3 2 35t2 41t1 17 q7 95 51 144t125 49q43 0 76 -13t60 -52q24 -34 31 -68t7 -73q0 -11 -1 -59t-2 -52l-1 -1q-5 -11 -13 -20t-21 -9q-2 0 -13 1q-12 1 -14 1q-3 0 -24 -1q-22 -2 -26 -2q-7 0 -33 1q-35 1 -39 1q-10 0 -17 -4t-7 -21q0 -19 11 -33q13 -18 29 -23t37 -5q27 0 39 3t38 16l2 1 q10 3 15 3q9 0 19 -8t10 -17l-1 -12q-1 -28 -1 -34zM72 606q0 6 7 15q2 3 3 4q3 3 7 10q4 6 7 9q5 7 10 15q17 23 22 31q6 10 12 14t15 4q2 0 14 -1q11 -1 13 -1h30q2 0 16 1t16 1q14 0 19 -2q6 -2 11 -8t20 -30q6 -10 16 -24t13 -16q5 -6 9 -12t3 -11q-1 -6 -5 -9t-10 -3 l-23 1h-23q-13 0 -20 -1q-10 -2 -14 -2q-10 1 -16 7t-10 17v1q0 4 -4 8t-9 5q-6 0 -11 -9q0 -1 -2 -7q-1 -6 -3 -10q-3 -11 -13 -11q-4 0 -18 1q-19 1 -21 1h-17l-18 -1q-14 0 -20 4t-6 9z" unicode=""/>
<glyph glyph-name="edieresis" d="M161 365q-1 -11 1 -19t9 -11q4 -1 15 -1t22 -1q14 -1 20 5t6 23q0 41 -3 52q-5 17 -15 22t-19 5q-13 0 -21 -8t-10 -18q-3 -10 -4 -22t-1 -27zM360 85v-41q0 -15 -10 -23q-12 -9 -44 -17t-78 -8q-54 0 -94 14t-71 56q-29 39 -37 85t-8 128q0 3 2 35t2 41t1 17 q7 95 51 144t125 49q43 0 76 -13t60 -52q24 -34 31 -68t7 -73q0 -11 -1 -59t-2 -52l-1 -1q-5 -11 -13 -20t-21 -9q-2 0 -13 1q-12 1 -14 1q-3 0 -24 -1q-22 -2 -26 -2q-7 0 -33 1q-35 1 -39 1q-10 0 -17 -4t-7 -21q0 -19 11 -33q13 -18 29 -23t37 -5q27 0 39 3t38 16l2 1 q10 3 15 3q9 0 19 -8t10 -17l-1 -12q-1 -28 -1 -34zM220 688q0 12 6 16t13 4h32q23 -1 34 -1h7q10 1 13 1q11 0 14 -6t3 -17v-14l-1 -15q0 -2 1 -12v-13q0 -13 -6 -19t-25 -6q-2 0 -33 -1q-24 -1 -30 -1q-18 0 -22 5t-4 19q0 3 -1 28v21v5q-1 4 -1 6zM65 685q1 15 9 19t17 5 q4 0 17 -1q18 -1 20 -1l17 1h20q15 0 19 -8t4 -29v-11q1 -11 1 -14q-1 -6 -1 -15t-1 -11q-3 -6 -7 -10t-13 -5l-7 1h-8h-21l-21 -1h-17q-18 0 -22 8t-4 25q0 4 -1 24t-1 23z" unicode=""/>
<glyph glyph-name="igrave" horiz-adv-x="187" unicode="" d="M17 534q0 14 11 21q8 5 17 5q3 0 17 -1t17 -1q5 0 33 1t33 1q11 0 19 -5t8 -23q0 -3 -1 -44q-2 -37 -2 -47q0 -6 1 -40q1 -35 1 -42q0 -9 -1 -43q-1 -45 -1 -49q0 -5 1 -35q1 -32 1 -38q0 -14 -1 -36q-2 -23 -2 -37q0 -7 2 -41q2 -16 2 -29v-17q0 -20 -8 -26t-18 -6 q-2 0 -11 1q-12 1 -14 1h-23q-12 0 -36 -2h-8q-7 -1 -8 -1q-20 0 -26 9t-5 24q0 10 1 27q1 24 1 92l1 26v28v33q-1 24 -1 35q0 5 1 35q1 31 1 37v26l-1 26l1 38v40q0 4 -1 27q-1 25 -1 30zM-35 696q0 8 5 10t9 2h8l9 -1h21q17 -1 24 -1q5 0 24 1q26 1 29 1q14 0 19 -4t9 -17 q2 -3 6 -15l8 -24q4 -10 7 -18t4 -10t2 -3q3 -7 3 -10q0 -8 -10 -12h-4q-4 -1 -7 -1h-7q-16 1 -22 1h-40q-4 0 -7 2t-12 11q-3 3 -15 16q-12 14 -30 32l-19 19l-1 1q-13 11 -13 20z"/>
<glyph glyph-name="iacute" horiz-adv-x="187" unicode="" d="M17 534q0 14 11 21q8 5 17 5q3 0 17 -1t17 -1q5 0 33 1t33 1q11 0 19 -5t8 -23q0 -3 -1 -44q-2 -37 -2 -47q0 -6 1 -40q1 -35 1 -42q0 -9 -1 -43q-1 -45 -1 -49q0 -5 1 -35q1 -32 1 -38q0 -14 -1 -36q-2 -23 -2 -37q0 -7 2 -41q2 -16 2 -29v-17q0 -20 -8 -26t-18 -6 q-2 0 -11 1q-12 1 -14 1h-23q-12 0 -36 -2h-8q-7 -1 -8 -1q-20 0 -26 9t-5 24q0 10 1 27q1 24 1 92l1 26v28v33q-1 24 -1 35q0 5 1 35q1 31 1 37v26l-1 26l1 38v40q0 4 -1 27q-1 25 -1 30zM37 608q0 4 3 11q1 0 2 4q6 15 12 33t10 24q0 1 1 4q3 5 3 7q4 9 8 13t19 4 q5 0 23 -1q23 -1 25 -1h16q5 0 23 1q24 1 26 1q15 0 15 -12q0 -7 -4 -12t-17 -18l-6 -6q-7 -8 -11 -11q-4 -5 -15 -16q-13 -13 -14 -15l-4 -4q-8 -10 -13 -14t-7 -5h-44h-14q-11 -1 -16 -1q-8 0 -14 2t-7 12z"/>
<glyph glyph-name="icircumflex" horiz-adv-x="187" unicode="" d="M17 534q0 14 11 21q8 5 17 5q3 0 17 -1t17 -1q5 0 33 1t33 1q11 0 19 -5t8 -23q0 -3 -1 -44q-2 -37 -2 -47q0 -6 1 -40q1 -35 1 -42q0 -9 -1 -43q-1 -45 -1 -49q0 -5 1 -35q1 -32 1 -38q0 -14 -1 -36q-2 -23 -2 -37q0 -7 2 -41q2 -16 2 -29v-17q0 -20 -8 -26t-18 -6 q-2 0 -11 1q-12 1 -14 1h-23q-12 0 -36 -2h-8q-7 -1 -8 -1q-20 0 -26 9t-5 24q0 10 1 27q1 24 1 92l1 26v28v33q-1 24 -1 35q0 5 1 35q1 31 1 37v26l-1 26l1 38v40q0 4 -1 27q-1 25 -1 30zM-37 606q0 6 7 15q2 3 3 4q3 3 7 10q4 6 7 9q5 7 10 15q17 23 22 31q5 10 11 14 t16 4q2 0 14 -1q11 -1 13 -1h30q2 0 16 1t16 1q14 0 19 -2q6 -2 11 -8t20 -30q7 -10 17 -24t12 -16l8 -12t4 -11q0 -6 -4 -9t-11 -3l-23 1h-23q-13 0 -20 -1q-10 -2 -14 -2q-9 1 -15 7t-11 17v1q-1 4 -5 8t-8 5q-6 0 -11 -9q0 -1 -2 -7q-1 -6 -3 -10q-3 -11 -13 -11 q-4 0 -18 1q-19 1 -21 1h-18l-17 -1q-15 0 -21 4t-5 9z"/>
<glyph glyph-name="idieresis" horiz-adv-x="187" unicode="" d="M17 534q0 14 11 21q8 5 17 5q3 0 17 -1t17 -1q5 0 33 1t33 1q11 0 19 -5t8 -23q0 -3 -1 -44q-2 -37 -2 -47q0 -6 1 -40q1 -35 1 -42q0 -9 -1 -43q-1 -45 -1 -49q0 -5 1 -35q1 -32 1 -38q0 -14 -1 -36q-2 -23 -2 -37q0 -7 2 -41q2 -16 2 -29v-17q0 -20 -8 -26t-18 -6 q-2 0 -11 1q-12 1 -14 1h-23q-12 0 -36 -2h-8q-7 -1 -8 -1q-20 0 -26 9t-5 24q0 10 1 27q1 24 1 92l1 26v28v33q-1 24 -1 35q0 5 1 35q1 31 1 37v26l-1 26l1 38v40q0 4 -1 27q-1 25 -1 30zM111 688q-1 12 5 16t14 4h32q23 -1 34 -1h7q10 1 13 1q11 0 14 -6t3 -17v-14l-1 -15 q0 -2 1 -12v-13q-1 -13 -7 -19t-24 -6q-2 0 -33 -1q-24 -1 -30 -1q-18 0 -22 5t-4 19q0 3 -1 28v21v5q-1 4 -1 6zM-44 685q0 15 8 19t18 5q4 0 17 -1q18 -1 20 -1l17 1h20q16 0 20 -8t3 -29v-11q1 -11 1 -14v-15t-2 -11q-4 -6 -8 -10t-12 -5l-7 1h-8h-21l-21 -1h-17 q-18 0 -22 8t-4 25q0 4 -1 24t-1 23z"/>
<glyph glyph-name="eth" d="M195 424q-18 0 -24 -14t-6 -42q0 -4 1 -15v-19v-149q0 -26 8 -37t21 -11q12 1 19 7q6 6 10 15t4 17t1 16q0 8 -1 61q-2 56 -2 67l1 22v25q0 21 -6 39t-26 18zM176 558l2 2l-1 2q-9 19 -15 24t-18 5q-1 0 -25 -1q-17 -1 -20 -1q-4 -1 -11 -1q-10 0 -13 5q-5 3 -11 21 t-6 21q0 16 15 16h10l10 -1h15t4 2q0 4 -11 13q-9 9 -9 19q0 23 25 23h26q19 -1 28 -1q13 0 35 3q1 0 8 1h7q17 0 25 -4t15 -15q1 -3 9 -13t10 -15v-1q4 -6 6 -8t9 -1q3 0 21 1q17 1 20 1q10 0 15 -5q3 -4 7 -19t5 -20q-1 -9 -5 -12t-12 -4h-1h-18q-6 0 -6 -2t4 -8 q11 -20 26 -63t21 -87q2 -14 4 -41t2 -58q1 -42 1 -68q-1 -12 -1 -26t-1 -36t-2 -37q-1 -16 -2 -20q-3 -42 -19 -72q-16 -31 -39 -49t-50 -26t-56 -9q-21 0 -37 1t-38 7q-20 7 -40 19t-36 33q-13 17 -23 46t-10 35q-5 27 -7 72t-2 110q0 77 8 121t42 82q18 21 40 31t50 10 q4 0 20 -2z" unicode=""/>
<glyph glyph-name="ntilde" horiz-adv-x="375" unicode="" d="M18 527q0 17 8 22t21 5h18q15 -1 22 -1h8q3 0 20 1t20 1q6 1 12 -1t9 -7l1 -3v-4l1 -3v-4q2 -6 7 -6l11 7q6 3 12 7t8 4q10 5 24 9t26 4q30 0 54 -13t35 -32q10 -17 15 -35t5 -54v-29q-1 -24 -1 -29l1 -25v-25v-22l-1 -23q0 -3 2 -37q1 -31 1 -40q0 -6 -1 -45 q-1 -40 -1 -48q0 -4 1 -32q1 -29 1 -35q0 -23 -10 -29t-34 -6h-16q-13 1 -19 1q-3 0 -19 -1h-21q-13 -1 -22 5t-9 25q0 6 1 43q1 38 1 45t-1 46q-1 40 -1 48q0 9 1 64q1 59 1 70q0 43 -3 57t-17 15q-23 0 -23 -52l1 -53v-56q0 -5 -1 -33q-1 -29 -1 -35q0 -7 2 -41 q1 -19 1 -29t1 -14q0 -3 -1 -17q-1 -17 -1 -19q0 -3 1 -12q1 -13 1 -15q0 -25 -8 -33t-25 -8q-5 0 -23 1q-22 1 -25 1t-20 -1q-18 -2 -22 -2q-27 0 -27 31v46q0 7 1 55q1 51 1 61q0 6 -1 39q-1 34 -1 41q0 5 1 38q1 34 1 41q0 9 -1 66q-1 60 -1 72v18q-1 14 -1 20zM110 606 h-3q-4 0 -10 2q-3 1 -20 3l-16 2l-5 1q-7 2 -10 2q-11 1 -16 3t-5 8q0 4 4 17t14 28t30 26t51 11q16 0 55 -7q39 -8 55 -8q12 0 18 7q8 10 11 10q0 1 1 1q2 0 5 -1l2 -1q1 0 26 -4l12 -2q23 -4 29 -6t6 -5l-3 -12q-11 -35 -37 -53t-63 -19q-11 -1 -26 1t-46 9l-5 1 q-15 3 -21 3q-11 0 -16 -3q-3 -2 -8 -7q-6 -6 -9 -7z"/>
<glyph glyph-name="ograve" d="M195 424q-18 0 -24 -14t-6 -44q0 -7 1 -15v-18v-135q0 -29 4 -45t24 -16q23 -1 29 17t6 43q0 8 -1 59q-2 54 -2 65l1 22v25q-1 24 -7 40t-25 16zM16 312q0 71 5 105t19 64q11 21 25 36t23 21q19 12 50 21t68 9q33 0 60 -9t46 -23q18 -14 30 -30t17 -30q11 -24 15 -72 t4 -135q0 -55 -2 -90t-7 -56q-4 -21 -9 -33t-13 -23q-20 -33 -55 -53t-95 -21q-36 -1 -67 9t-54 32q-17 16 -24 28t-14 31q-1 1 -1 2l-2 7q-9 23 -11 34t-4 34q-1 15 -2 39t-1 47q-1 29 -1 56zM69 696q0 8 5 10t9 2h9l8 -1h21q17 -1 24 -1q5 0 24 1q26 1 29 1q14 0 19 -4 t9 -17q2 -3 6 -15l8 -24q4 -10 7 -18t4 -10t2 -3q3 -7 3 -10q0 -8 -10 -12h-4q-4 -1 -7 -1h-7q-16 1 -22 1h-40q-4 0 -7 2t-12 11q-3 3 -15 16q-12 14 -30 32l-19 19l-1 1q-13 11 -13 20z" unicode=""/>
<glyph glyph-name="oacute" d="M195 424q-18 0 -24 -14t-6 -44q0 -7 1 -15v-18v-135q0 -29 4 -45t24 -16q23 -1 29 17t6 43q0 8 -1 59q-2 54 -2 65l1 22v25q-1 24 -7 40t-25 16zM16 312q0 71 5 105t19 64q11 21 25 36t23 21q19 12 50 21t68 9q33 0 60 -9t46 -23q18 -14 30 -30t17 -30q11 -24 15 -72 t4 -135q0 -55 -2 -90t-7 -56q-4 -21 -9 -33t-13 -23q-20 -33 -55 -53t-95 -21q-36 -1 -67 9t-54 32q-17 16 -24 28t-14 31q-1 1 -1 2l-2 7q-9 23 -11 34t-4 34q-1 15 -2 39t-1 47q-1 29 -1 56zM141 608q0 4 3 11q1 0 2 4q6 15 12 33t10 24q0 1 1 4q3 5 3 7q4 9 8 13t19 4 q5 0 23 -1q23 -1 25 -1h16q5 0 23 1q24 1 26 1q15 0 15 -12q0 -7 -4 -12t-17 -18l-6 -6q-7 -8 -11 -11q-4 -5 -15 -16q-13 -13 -14 -15l-4 -4q-8 -10 -13 -14t-7 -5h-44h-14q-11 -1 -16 -1q-8 0 -14 2t-7 12z" unicode=""/>
<glyph glyph-name="ocircumflex" d="M195 424q-18 0 -24 -14t-6 -44q0 -7 1 -15v-18v-135q0 -29 4 -45t24 -16q23 -1 29 17t6 43q0 8 -1 59q-2 54 -2 65l1 22v25q-1 24 -7 40t-25 16zM16 312q0 71 5 105t19 64q11 21 25 36t23 21q19 12 50 21t68 9q33 0 60 -9t46 -23q18 -14 30 -30t17 -30q11 -24 15 -72 t4 -135q0 -55 -2 -90t-7 -56q-4 -21 -9 -33t-13 -23q-20 -33 -55 -53t-95 -21q-36 -1 -67 9t-54 32q-17 16 -24 28t-14 31q-1 1 -1 2l-2 7q-9 23 -11 34t-4 34q-1 15 -2 39t-1 47q-1 29 -1 56zM67 606q0 6 7 15q2 3 3 4q3 3 7 10q4 6 7 9q5 7 10 15q17 23 22 31q5 10 11 14 t16 4q2 0 14 -1q11 -1 13 -1h30q2 0 16 1t16 1q14 0 19 -2q6 -2 11 -8t20 -30q7 -10 17 -24t12 -16l8 -12t4 -11q0 -6 -4 -9t-11 -3l-23 1h-23q-13 0 -20 -1q-10 -2 -14 -2q-9 1 -15 7t-11 17v1q-1 4 -5 8t-8 5q-6 0 -11 -9q0 -1 -2 -7q-1 -6 -3 -10q-3 -11 -13 -11 q-4 0 -18 1q-19 1 -21 1h-17l-18 -1q-15 0 -21 4t-5 9z" unicode=""/>
<glyph glyph-name="otilde" d="M195 424q-18 0 -24 -14t-6 -44q0 -7 1 -15v-18v-135q0 -29 4 -45t24 -16q23 -1 29 17t6 43q0 8 -1 59q-2 54 -2 65l1 22v25q-1 24 -7 40t-25 16zM16 312q0 71 5 105t19 64q11 21 25 36t23 21q19 12 50 21t68 9q33 0 60 -9t46 -23q18 -14 30 -30t17 -30q11 -24 15 -72 t4 -135q0 -55 -2 -90t-7 -56q-4 -21 -9 -33t-13 -23q-20 -33 -55 -53t-95 -21q-36 -1 -67 9t-54 32q-17 16 -24 28t-14 31q-1 1 -1 2l-2 7q-9 23 -11 34t-4 34q-1 15 -2 39t-1 47q-1 29 -1 56zM120 606h-3q-4 0 -10 2q-3 1 -20 3l-16 2l-5 1q-7 2 -10 2q-11 1 -16 3t-5 8 q0 4 4 17t14 28t30 26t51 11q16 0 55 -7q39 -8 55 -8q12 0 18 7q8 10 11 10q0 1 1 1q2 0 5 -1l2 -1q1 0 26 -4l12 -2q23 -4 29 -6t6 -5l-3 -12q-11 -35 -37 -53t-63 -19q-11 -1 -26 1t-46 9l-5 1q-15 3 -21 3q-11 0 -16 -3q-3 -2 -8 -7q-6 -6 -9 -7z" unicode=""/>
<glyph glyph-name="odieresis" d="M195 424q-18 0 -24 -14t-6 -44q0 -7 1 -15v-18v-135q0 -29 4 -45t24 -16q23 -1 29 17t6 43q0 8 -1 59q-2 54 -2 65l1 22v25q-1 24 -7 40t-25 16zM16 312q0 71 5 105t19 64q11 21 25 36t23 21q19 12 50 21t68 9q33 0 60 -9t46 -23q18 -14 30 -30t17 -30q11 -24 15 -72 t4 -135q0 -55 -2 -90t-7 -56q-4 -21 -9 -33t-13 -23q-20 -33 -55 -53t-95 -21q-36 -1 -67 9t-54 32q-17 16 -24 28t-14 31q-1 1 -1 2l-2 7q-9 23 -11 34t-4 34q-1 15 -2 39t-1 47q-1 29 -1 56zM215 686q-1 12 5 16t14 4h32q23 -1 34 -1h7q10 1 13 1q11 0 14 -6t3 -17v-14 l-1 -15q0 -2 1 -12v-13q-1 -13 -7 -19t-24 -6q-2 0 -33 -1q-24 -1 -30 -1q-18 0 -22 5t-4 19q0 3 -1 28v21v5q-1 4 -1 6zM60 683q0 15 8 19t18 5q4 0 17 -1q18 -1 20 -1l17 1h20q16 0 20 -8t3 -29v-11q1 -11 1 -14v-15t-2 -11q-4 -6 -8 -10t-12 -5l-7 1h-8h-21l-21 -1h-17 q-18 0 -22 8t-4 25q0 4 -1 24t-1 23z" unicode=""/>
<glyph glyph-name="oslash" horiz-adv-x="417" unicode="" d="M243 286l-15 -18q-5 -7 -11 -15q-10 -15 -15 -21q-4 -5 -5 -6q-5 -6 -6 -7q-19 -24 -23 -31t-4 -14q0 -18 10 -32t27 -15q27 0 36 24q5 7 5 13v19q0 5 1 34q2 30 2 36v15t-2 18zM165 276q10 10 24 28q4 6 11 16q16 20 22 30t9 12q7 8 9 14t3 16q1 16 -9 28t-28 11 q-15 0 -25 -6t-13 -26q0 -2 -1 -21q-3 -20 -3 -29v-13l1 -30v-30zM22 266v51q0 8 2 24q2 26 2 41q0 19 1 29q0 11 6 36t19 46q14 25 28 35t31 19h1q24 11 45 15t68 5q19 -1 31 -3t32 -9l4 -2q16 -5 26 -13t27 -25q1 3 7 9t7 8q8 9 10 11t4 2q3 0 7 -3t13 -10q7 -5 8 -6 q8 -5 8 -8q0 -7 -13 -24l-2 -2q-7 -8 -19 -26q7 -32 8 -57q1 -14 1 -43l3 -33v-30q-1 -23 -1 -33l1 -24v-27q0 -27 -2 -47t-7 -45q-6 -31 -14 -49t-23 -34q-19 -22 -39 -31t-42 -14q-16 -5 -24 -5h-37q-31 0 -43 2t-39 14q-16 6 -24 12t-27 25l-2 1l-7 -9q-5 -6 -9 -12 t-9 -12q-5 -8 -11 -8q-5 0 -8 3l-3 3q-3 4 -5 5q-2 2 -5 4q-7 4 -9 7q-3 5 -3 9q0 5 6 14l1 1q4 3 8 9t16 25q9 13 11 15q-8 34 -9 52q-1 10 -1 29q-1 14 -1 20q0 5 -2 30q-2 29 -2 33z"/>
<glyph glyph-name="ugrave" d="M14 513q0 15 5 29t24 15q5 0 15 -2h17q14 -1 20 -1q4 0 22 2q7 0 18 1h5q9 0 17 -5t8 -22v-21q-1 -17 -1 -24q0 -5 1 -44q2 -41 2 -50q0 -3 -1 -39q-2 -33 -2 -42q0 -27 1 -75v-26v-20q-1 -15 -1 -22q0 -11 7 -19t24 -8t25 14t8 48q0 4 -1 30q-1 27 -1 32v60q0 77 -1 115 q0 8 -1 38q-1 39 -1 43q0 16 5 26t23 10l12 -1l12 -1q7 -1 21 -1q23 0 27 1q2 0 12 2q9 1 11 1q17 1 24 -7t7 -19v-10l-1 -11v-11q-1 -33 -1 -41l1 -24v-28q1 -14 1 -96q0 -7 -1 -57q-2 -53 -2 -65q0 -4 1 -30q1 -27 1 -32v-17q-1 -13 -1 -19q0 -3 1 -25q2 -23 2 -28 q0 -36 -28 -36q-4 0 -20 1q-21 1 -23 1q-15 0 -34 -2h-6q-10 -2 -16 -2q-10 0 -15 3t-6 7v2v3q0 1 -1 3v3v1q-2 6 -4 6t-7 -5l-1 -1q-2 -2 -6 -5l-2 -1q-23 -13 -37 -17t-44 -3q-39 0 -62 13q-18 9 -28 23q-10 13 -14 27t-6 26q-1 12 -1 22l1 27v30q0 5 -1 33q-1 29 -1 35 l1 61v66q0 70 -1 104q0 8 -1 26t-1 25zM69 696q0 8 5 10t9 2h9l8 -1h21q17 -1 24 -1q5 0 24 1q26 1 29 1q14 0 19 -4t9 -17q2 -3 6 -15l8 -24q4 -10 7 -18t4 -10t2 -3q3 -7 3 -10q0 -8 -10 -12h-4q-4 -1 -7 -1h-7q-16 1 -22 1h-40q-4 0 -7 2t-12 11q-3 3 -15 16 q-12 14 -30 32l-19 19l-1 1q-13 11 -13 20z" unicode=""/>
<glyph glyph-name="uacute" d="M14 513q0 15 5 29t24 15q5 0 15 -2h17q14 -1 20 -1q4 0 22 2q7 0 18 1h5q9 0 17 -5t8 -22v-21q-1 -17 -1 -24q0 -5 1 -44q2 -41 2 -50q0 -3 -1 -39q-2 -33 -2 -42q0 -27 1 -75v-26v-20q-1 -15 -1 -22q0 -11 7 -19t24 -8t25 14t8 48q0 4 -1 30q-1 27 -1 32v60q0 77 -1 115 q0 8 -1 38q-1 39 -1 43q0 16 5 26t23 10l12 -1l12 -1q7 -1 21 -1q23 0 27 1q2 0 12 2q9 1 11 1q17 1 24 -7t7 -19v-10l-1 -11v-11q-1 -33 -1 -41l1 -24v-28q1 -14 1 -96q0 -7 -1 -57q-2 -53 -2 -65q0 -4 1 -30q1 -27 1 -32v-17q-1 -13 -1 -19q0 -3 1 -25q2 -23 2 -28 q0 -36 -28 -36q-4 0 -20 1q-21 1 -23 1q-15 0 -34 -2h-6q-10 -2 -16 -2q-10 0 -15 3t-6 7v2v3q0 1 -1 3v3v1q-2 6 -4 6t-7 -5l-1 -1q-2 -2 -6 -5l-2 -1q-23 -13 -37 -17t-44 -3q-39 0 -62 13q-18 9 -28 23q-10 13 -14 27t-6 26q-1 12 -1 22l1 27v30q0 5 -1 33q-1 29 -1 35 l1 61v66q0 70 -1 104q0 8 -1 26t-1 25zM141 608q0 4 3 11q1 0 2 4q6 15 12 33t10 24q0 1 1 4q3 5 3 7q4 9 8 13t19 4q5 0 23 -1q23 -1 25 -1h16q5 0 23 1q24 1 26 1q15 0 15 -12q0 -7 -4 -12t-17 -18l-6 -6q-7 -8 -11 -11q-4 -5 -15 -16q-13 -13 -14 -15l-4 -4 q-8 -10 -13 -14t-7 -5h-44h-14q-11 -1 -16 -1q-8 0 -14 2t-7 12z" unicode=""/>
<glyph glyph-name="ucircumflex" d="M14 513q0 15 5 29t24 15q5 0 15 -2h17q14 -1 20 -1q4 0 22 2q7 0 18 1h5q9 0 17 -5t8 -22v-21q-1 -17 -1 -24q0 -5 1 -44q2 -41 2 -50q0 -3 -1 -39q-2 -33 -2 -42q0 -27 1 -75v-26v-20q-1 -15 -1 -22q0 -11 7 -19t24 -8t25 14t8 48q0 4 -1 30q-1 27 -1 32v60q0 77 -1 115 q0 8 -1 38q-1 39 -1 43q0 16 5 26t23 10l12 -1l12 -1q7 -1 21 -1q23 0 27 1q2 0 12 2q9 1 11 1q17 1 24 -7t7 -19v-10l-1 -11v-11q-1 -33 -1 -41l1 -24v-28q1 -14 1 -96q0 -7 -1 -57q-2 -53 -2 -65q0 -4 1 -30q1 -27 1 -32v-17q-1 -13 -1 -19q0 -3 1 -25q2 -23 2 -28 q0 -36 -28 -36q-4 0 -20 1q-21 1 -23 1q-15 0 -34 -2h-6q-10 -2 -16 -2q-10 0 -15 3t-6 7v2v3q0 1 -1 3v3v1q-2 6 -4 6t-7 -5l-1 -1q-2 -2 -6 -5l-2 -1q-23 -13 -37 -17t-44 -3q-39 0 -62 13q-18 9 -28 23q-10 13 -14 27t-6 26q-1 12 -1 22l1 27v30q0 5 -1 33q-1 29 -1 35 l1 61v66q0 70 -1 104q0 8 -1 26t-1 25zM67 606q0 6 7 15q2 3 3 4q3 3 7 10q4 6 7 9q5 7 10 15q17 23 22 31q5 10 11 14t16 4q2 0 14 -1q11 -1 13 -1h30q2 0 16 1t16 1q14 0 19 -2q6 -2 11 -8t20 -30q7 -10 17 -24t12 -16l8 -12t4 -11q0 -6 -4 -9t-11 -3l-23 1h-23 q-13 0 -20 -1q-10 -2 -14 -2q-9 1 -15 7t-11 17v1q-1 4 -5 8t-8 5q-6 0 -11 -9q0 -1 -2 -7q-1 -6 -3 -10q-3 -11 -13 -11q-4 0 -18 1q-19 1 -21 1h-17l-18 -1q-15 0 -21 4t-5 9z" unicode=""/>
<glyph glyph-name="udieresis" d="M14 513q0 15 5 29t24 15q5 0 15 -2h17q14 -1 20 -1q4 0 22 2q7 0 18 1h5q9 0 17 -5t8 -22v-21q-1 -17 -1 -24q0 -5 1 -44q2 -41 2 -50q0 -3 -1 -39q-2 -33 -2 -42q0 -27 1 -75v-26v-20q-1 -15 -1 -22q0 -11 7 -19t24 -8t25 14t8 48q0 4 -1 30q-1 27 -1 32v60q0 77 -1 115 q0 8 -1 38q-1 39 -1 43q0 16 5 26t23 10l12 -1l12 -1q7 -1 21 -1q23 0 27 1q2 0 12 2q9 1 11 1q17 1 24 -7t7 -19v-10l-1 -11v-11q-1 -33 -1 -41l1 -24v-28q1 -14 1 -96q0 -7 -1 -57q-2 -53 -2 -65q0 -4 1 -30q1 -27 1 -32v-17q-1 -13 -1 -19q0 -3 1 -25q2 -23 2 -28 q0 -36 -28 -36q-4 0 -20 1q-21 1 -23 1q-15 0 -34 -2h-6q-10 -2 -16 -2q-10 0 -15 3t-6 7v2v3q0 1 -1 3v3v1q-2 6 -4 6t-7 -5l-1 -1q-2 -2 -6 -5l-2 -1q-23 -13 -37 -17t-44 -3q-39 0 -62 13q-18 9 -28 23q-10 13 -14 27t-6 26q-1 12 -1 22l1 27v30q0 5 -1 33q-1 29 -1 35 l1 61v66q0 70 -1 104q0 8 -1 26t-1 25zM222 686q0 12 6 16t13 4h32q23 -1 34 -1h7q10 1 13 1q11 0 14 -6t3 -17v-14l-1 -15q0 -2 1 -12v-13q0 -13 -6 -19t-25 -6q-2 0 -33 -1q-24 -1 -30 -1q-18 0 -22 5t-4 19q0 3 -1 28v21v5q-1 4 -1 6zM67 683q1 15 9 19t17 5q4 0 17 -1 q18 -1 20 -1l17 1h20q15 0 19 -8t4 -29v-11q1 -11 1 -14q-1 -6 -1 -15t-1 -11q-3 -6 -7 -10t-13 -5l-7 1h-8h-21l-21 -1h-17q-18 0 -22 8t-4 25q0 4 -1 24t-1 23z" unicode=""/>
<glyph glyph-name="yacute" d="M288 71q-3 -8 -8 -26q-8 -27 -11 -38t-6 -17q-18 -45 -49 -59t-84 -14q-18 -1 -38 1t-35 6q-9 4 -17 8t-11 14q-2 3 -2 11v45v21l-1 20q0 21 6 27t18 6q7 0 15 -4q2 -1 3 -2q5 -4 7 -5q5 -4 14 -4q11 1 15 7t5 14q0 1 -2 11t-4 19q-2 7 -2 9q-4 19 -14 51l-3 11 q-1 4 -5 24q-5 19 -6 23q-7 25 -17 58l-3 10q-7 27 -11 43q-1 4 -4 18l-6 24t-2 12t-2 12l-3 15q-1 2 -2 11q-2 9 -3 11q0 1 -3 13q-7 28 -13 51t-5 29q0 13 10 17t23 3h18q15 -1 21 -1q2 0 51 2q14 1 17 1q18 0 23 -8t6 -25v-2q2 -30 2 -40t3 -26v-1q1 -5 2 -11q1 -7 2 -12 q2 -11 3 -32q2 -17 2 -21q0 -12 4 -37t5 -29q3 -13 3 -19t1 -11q0 -13 5 -13q2 0 5 10q1 2 1 3q8 36 10 47t2 32v2q2 17 2 22t3 24q5 32 5 57q0 6 1 12v11q3 42 6 54t15 12h8q8 -1 10 -1h13q9 -1 16 -1h26t11 2q2 0 14 2q8 1 10 1q16 0 24 -4t8 -16q-2 -5 -2 -11t-1 -15v-3 q-2 -17 -10 -53q-4 -20 -10 -58l-5 -28q-2 -12 -5 -23t-7 -25q-2 -7 -4 -20q-3 -13 -5 -20q-1 -8 -6 -26l-2 -6q-3 -13 -8 -37l-2 -7q-2 -7 -7 -27t-12 -47zM141 608q0 4 3 11q1 0 2 4q6 15 12 33t10 24q0 1 1 4q3 5 3 7q4 9 8 13t19 4q5 0 23 -1q23 -1 25 -1h16q5 0 23 1 q24 1 26 1q15 0 15 -12q0 -7 -4 -12t-17 -18l-6 -6q-7 -8 -11 -11q-4 -5 -15 -16q-13 -13 -14 -15l-4 -4q-8 -10 -13 -14t-7 -5h-44h-14q-11 -1 -16 -1q-8 0 -14 2t-7 12z" unicode=""/>
<glyph glyph-name="thorn" d="M198 419q-20 1 -26 -19t-6 -54q0 -10 1 -73q1 -65 1 -78q0 -28 10 -37t20 -9q6 1 14 5t14 19q4 11 4 27t1 76l1 31v31q0 40 -9 61q-1 8 -7 14t-18 6zM17 671q0 19 7 24t19 5q13 0 19 -1t20 -1t21 -1q3 0 17 2q12 1 14 1q18 0 23 -10t5 -22q0 -4 -1 -31q-1 -28 -1 -34 l1 -22v-23q0 -17 9 -17q4 0 6 1t11 6l3 2q10 6 27 10t31 3q51 0 82 -37q13 -16 22 -36t15 -48q7 -28 9 -72q2 -43 2 -104q0 -89 -8 -133t-25 -73q-18 -31 -45 -48t-60 -17q-23 0 -40 9q-5 2 -15 8q-6 2 -10 2q-9 0 -11 -8t-2 -21q0 -4 2 -23t2 -22q0 -8 -6 -15t-20 -7h-8 q-5 1 -6 1q-9 1 -27 1q-4 0 -29 -1q-26 -1 -32 -1q-23 0 -23 24q0 3 2 27q2 27 2 33v29q-1 22 -1 32v231q0 23 1 49v207v38q-1 28 -1 42v19q-1 15 -1 22z" unicode=""/>
<glyph glyph-name="OE" horiz-adv-x="604" unicode="" d="M180 296v-82q0 -32 8 -50t33 -18q15 0 22 6q12 7 18 30q1 3 1 22t2 54q2 64 2 77v104t-3 78q-1 23 -8 39t-30 16q-11 0 -23 -6t-16 -22q-2 -6 -4 -22t-1 -34q-2 -32 -2 -44q0 -4 1 -34q2 -31 2 -37q0 -5 -1 -37q-1 -33 -1 -40zM424 237v-46q0 -17 10 -24t30 -7l20 1h19 q3 0 28 1h28q23 0 29 -14t6 -56v-44q0 -22 -8 -36t-34 -13q-3 0 -24 1q-22 2 -26 2q-5 0 -23 -1q-24 -1 -26 -1q-6 0 -28 1q-30 1 -33 1h-16t-49 -2h-32q-4 -1 -9 -2t-9 -2q-10 -2 -30 -4t-31 -3q-32 0 -52 4t-35 10q-17 7 -33 17t-30 29q-14 17 -25 41t-16 69q-1 11 -1 45 t-2 81v157v29t3 34q3 51 7 73t10 41q14 36 46 58t56 28q12 4 38 7t42 3h28t22 -2q5 -1 12 -3q21 -4 32 -5q5 -1 40 -1q4 0 16 1q16 1 18 1q13 1 51 1h24l24 -1l20 1h19q22 0 36 -6t14 -30q0 -2 -1 -17t-1 -18l1 -19v-20q0 -42 -36 -42q-6 0 -12 1h-11h-15h-57q-29 0 -29 -31 l1 -15v-15q0 -2 -1 -10q-1 -10 -1 -12q0 -8 4 -15q4 -6 10 -10t21 -4q5 0 36 2q18 2 31 2h17q12 0 23 -4t15 -16q2 -3 2 -7v-21l1 -28v-31q0 -25 -10 -37t-38 -12q-5 0 -28 2q-27 2 -31 2q-6 0 -13 -1t-15 -4t-14 -11t-6 -19v-10q1 -11 1 -14z"/>
<glyph glyph-name="oe" horiz-adv-x="604" unicode="" d="M228 231v139q0 28 -5 43t-26 15q-17 0 -25 -15t-8 -38q0 -4 1 -29q1 -26 1 -32t-1 -51q-2 -47 -2 -57q-1 -14 1 -28t4 -20q4 -10 13 -16t17 -6q15 0 22 11t8 28v8q1 5 1 10v10q-1 17 -1 28zM412 442q-12 0 -20 -8t-12 -19t-4 -21q-2 -10 -2 -17v-10q1 -9 1 -12 q0 -15 6 -19t17 -4h12l12 -1q21 0 25 11q3 2 3 14v23q0 9 -1 19t-5 20t-11 17q-8 7 -21 7zM310 534q22 14 44 22t60 8q56 0 88 -18t54 -52q12 -19 23 -51t11 -76q0 -11 -2 -62q0 -25 -1 -41t-1 -17q-3 -8 -12 -19t-23 -11q-3 0 -15 1t-15 1q-4 0 -20 -1q-22 -1 -24 -1 q-5 0 -33 1q-29 2 -35 2q-19 0 -27 -4t-8 -21q0 -9 3 -19t10 -20q9 -12 25 -19t43 -7q25 0 42 4t29 12l3 1q13 5 17 5q8 0 19 -6t11 -21q0 -9 -1 -13q-1 -12 -1 -36l1 -17v-17q0 -19 -14 -27q-12 -7 -42 -13t-72 -7q-44 1 -74 7t-63 27q-19 -14 -45 -24t-71 -10 q-13 -1 -29 1l-24 3q-5 -1 -27 9t-41 26q-29 26 -39 56t-14 62v1q-5 63 -5 128q-1 53 1 85t4 55q4 37 12 56t24 37q23 26 52 40t76 15q37 0 69 -8t57 -27z"/>
<glyph glyph-name="Scaron" horiz-adv-x="354" unicode="" d="M92 875q10 0 30 2q10 1 17 1q5 0 9 -2t8 -7q2 -3 4 -9q3 -8 6 -12q4 -7 11 -7q5 0 7 3t3 7q3 16 7 21t11 5q3 0 17 -1t16 -1l20 1h19q13 0 21 -2t8 -11q0 -5 -6 -12q-2 -2 -4 -5l-6 -9q-11 -15 -25 -35t-16 -24q-6 -8 -11 -12t-16 -3l-19 1h-19q-27 0 -39 -1 q-10 -2 -15 -2q-12 1 -18 5t-12 11l-1 1q-12 18 -17 26t-13 18q-17 21 -22 29t-5 15q0 10 17 10h17zM14 41v50v16l-1 15q0 2 1 10q1 12 1 13q0 4 1 8q0 10 2 14q3 5 14 11t17 6q3 0 5 -1t9 -5l3 -2q5 -3 15 -7q28 -14 51 -14q18 1 28 7t15 14t7 16t1 12q0 16 -10 30t-34 36 q-5 6 -13 13l-7 7q-9 9 -23 29q-3 3 -9 10q-12 13 -17 19q-10 14 -16 22t-12 23q-16 31 -23 55t-7 64q0 46 6 70t15 42q7 12 21 29t20 23q13 11 50 23t85 12q23 0 49 -2t35 -7q13 -7 15 -19t3 -53v-49q0 -5 -1 -11t-4 -10q-4 -7 -14 -12t-17 -5q-3 0 -5 1t-12 4l-1 1 q-22 10 -46 10q-45 0 -45 -40q0 -13 4 -21t17 -20l11 -11q9 -10 10 -11t12 -13q6 -5 14 -15t12 -13q20 -17 27 -25t22 -29q10 -15 15 -23t14 -32l2 -4q12 -27 16 -50t4 -68q0 -12 -2 -28t-6 -34q-6 -20 -18 -40t-31 -39q-19 -16 -37 -28t-37 -17q-20 -5 -36 -7t-33 -2 q-22 0 -36 2t-49 10q-27 5 -37 13t-10 27z"/>
<glyph glyph-name="scaron" horiz-adv-x="313" unicode="" d="M303 165q0 -50 -13 -79q-12 -24 -19 -34t-18 -20q-23 -22 -49 -31t-69 -9q-38 0 -53 2t-35 6q-19 6 -28 12t-9 24l1 24v27q0 18 -1 27v6q-1 5 -1 6q0 12 8 20t18 8q4 0 6 -1q6 -1 16 -6l5 -2q4 -1 21 -3t21 -2q14 0 26 8t13 22q-1 14 -7 23t-17 19q-4 4 -15 14 q-4 3 -10 8q-12 12 -26 28t-23 33q-17 33 -23 55t-5 45q1 25 5 47t10 32q0 2 8 14t11 18q21 30 55 43t72 13h9q7 0 25 -2q17 -1 27 -2h2q21 -2 31 -6t12 -19v-4q1 -5 1 -9q0 -9 -1 -23v-11q0 -2 1 -23q1 -16 1 -20q0 -15 -10 -23t-20 -7q-4 0 -18 5l-6 3q-13 5 -25 5 q-15 0 -25 -6t-9 -20q1 -12 11 -24t33 -37q27 -27 41 -43t24 -39q11 -22 16 -41t5 -51zM70 706q6 0 29 1q19 1 20 1q10 0 16 -9q3 -3 6 -10t5 -11q4 -7 10 -7t8 4t4 10v1q4 14 8 18t10 3q3 0 16 -1t15 -1q5 0 23 1q24 1 26 1q7 0 13 -4t6 -11q0 -2 -7 -13q0 -1 -1 -2 q-7 -9 -15 -20t-24 -34l-10 -14q-6 -9 -12 -13t-19 -3l-20 1h-22q-21 0 -31 -1q-10 -2 -15 -2q-13 1 -19 5t-12 13l-1 1q-7 10 -18 26t-22 31l-9 12q-2 6 -4 10t-2 6q0 12 17 12h14q12 -1 17 -1z"/>
<glyph glyph-name="Ydieresis" horiz-adv-x="417" unicode="" d="M228 801v5q0 4 -1 18q-1 18 -1 20q0 14 6 18t19 4h28q22 -1 33 -1h8q8 1 10 1q8 0 12 -4t5 -10v-34l1 -12v-13q0 -16 -6 -22t-23 -7q-3 -2 -31 -2h-40q-16 0 -19 12q-1 3 -1 27zM71 843q1 15 9 19t18 4q2 0 16 -1t16 -1l20 1h23q5 0 9 -1t7 -4q5 -4 5 -10v-26v-10 q1 -9 1 -12q1 -10 -1 -20t-6 -14t-8 -4t-18 -1h-32l-33 -1q-13 0 -19 7t-5 13v16q0 26 -1 34v6q-1 4 -1 5zM-3 679q0 13 7 19t16 5h7q11 -1 18 -1q20 -2 25 -2q3 0 28 2h6q9 0 24 1h9q15 1 21 -7t11 -26v-2q1 -3 3 -18t2 -18q4 -16 5 -24q9 -32 16 -79q1 -7 5 -25t6 -19 q1 0 2 5l1 2q2 5 6 26t8 41q0 3 1 8l4 17q8 35 10 52q0 3 1 16q0 9 1 16q2 16 8 26t27 10q6 0 29 -1q23 -2 29 -2h7q12 1 19 1q11 1 26 1q13 1 22 -3t9 -18q0 -7 -3 -19l-6 -17l-7 -17q-2 -5 -4 -16t-3 -16q-7 -28 -16 -51q-16 -46 -23 -69q-5 -16 -13 -48q-9 -38 -16 -58 q-10 -28 -15 -41q-12 -30 -16 -44t-6 -24t-4 -18v-25v-3q-2 -47 -2 -73v-27t4 -61q0 -2 1 -14q1 -13 1 -15q0 -9 -6 -18t-26 -9q-5 0 -24 1q-25 1 -27 1q-5 0 -17 -1t-18 -1q-20 -2 -21 -2q-9 0 -17 7t-9 24q0 3 2 18q1 15 1 18q0 5 -1 33q-1 30 -1 36v16t2 35q2 23 2 35v19 q0 17 -3 30q-1 7 -9 30t-14 39q-2 3 -8 23t-9 26l-1 4q-6 23 -8 28t-7 18q-1 6 -9 28t-16 48q-8 25 -16 49t-11 40q-8 30 -13 45q-4 14 -6 20t-1 13z"/>
<glyph glyph-name="circumflex" horiz-adv-x="208" unicode="" d="M-27 606q0 6 7 15q2 3 3 4q3 3 7 10q4 6 7 9q5 7 10 15q17 23 22 31q5 10 11 14t16 4q2 0 14 -1q11 -1 13 -1h30q2 0 16 1t16 1q14 0 19 -2q6 -2 11 -8t20 -30q7 -10 17 -24t12 -16l8 -12t4 -11q0 -6 -4 -9t-11 -3l-23 1h-23q-13 0 -20 -1q-10 -2 -14 -2q-9 1 -15 7 t-11 17v1q-1 4 -5 8t-8 5q-6 0 -11 -9q0 -1 -2 -7q-1 -6 -3 -10q-3 -11 -13 -11q-4 0 -18 1q-19 1 -21 1h-17l-18 -1q-15 0 -21 4t-5 9z"/>
<glyph glyph-name="tilde" horiz-adv-x="208" unicode="" d="M30 606h-3q-4 0 -10 2q-3 1 -20 3l-16 2l-5 1q-7 2 -10 2q-11 1 -16 3t-5 8q0 4 4 17t14 28t30 26t51 11q16 0 55 -7q39 -8 55 -8q12 0 18 7q8 10 11 10q0 1 1 1q2 0 5 -1l2 -1q1 0 26 -4l12 -2q23 -4 29 -6t6 -5l-3 -12q-11 -35 -37 -53t-63 -19q-11 -1 -26 1t-46 9 l-5 1q-15 3 -21 3q-11 0 -16 -3q-3 -2 -8 -7q-6 -6 -9 -7z"/>
<glyph glyph-name="endash" horiz-adv-x="417" unicode="" d="M5 328q1 10 9 16t17 6q5 0 22 -1q23 -1 25 -1q4 0 20 1q20 1 22 1h12l11 -1l10 1h10q5 0 16 -1q10 -1 15 -1l11 1h11h11q11 -1 13 -1q3 0 14 1q15 1 17 1q3 0 18 -1t17 -1q8 0 36 1q38 1 42 1q11 0 17 -6t6 -24v-40l1 -20v-24q0 -9 -2 -16t-13 -10l-2 -1h-4h-4 q-7 1 -12 1h-13q-10 -1 -15 -1h-10q-9 1 -12 1h-8l-8 -1h-12h-7q-7 -1 -9 -1h-20q-40 -1 -42 -1l-26 1h-28h-14q-15 1 -19 1h-10q-10 -1 -13 -1q-2 0 -14 1t-14 1h-19l-19 -1q-22 0 -27 10t-5 32q0 49 -1 61v7q-1 7 -1 9z"/>
<glyph glyph-name="emdash" horiz-adv-x="562" unicode="" d="M9 251v37q0 4 -1 18q-1 19 -1 21q-1 10 7 17t20 7q3 0 19 -1t19 -1h59h44q34 -1 49 -1q188 0 277 1l13 1h15q9 0 15 -5t7 -24v-37l1 -23v-28q0 -25 -23 -25q-2 0 -13 1q-12 1 -14 1h-9l-10 -1l-9 1h-10h-7l-8 -1h-16h-9q-7 -1 -9 -1h-50l-17 1h-21q-15 0 -23 -1 q-10 -2 -16 -2l-7 1h-8h-68q-8 0 -61 1q-56 1 -67 1h-17q-18 -1 -23 -1q-18 0 -23 12t-5 31z"/>
<glyph glyph-name="quoteleft" horiz-adv-x="167" unicode="" d="M150 693q0 -3 -4 -9t-12 -14q-6 -6 -9 -18t-3 -18q0 -7 4 -11t7 -6t9 -3q4 -1 6 -2q8 -5 10 -12t2 -20q0 -5 -1 -23q-1 -26 -1 -29q0 -5 1 -24q1 -26 1 -29q0 -11 -5 -21t-23 -9q-6 0 -16 2q-12 1 -36 1h-18q-14 -1 -21 -1q-16 -1 -22 7t-7 17q-2 10 -2 28v40q0 37 10 73 t47 82q6 9 15 11t45 2q23 0 23 -14z"/>
<glyph glyph-name="quotesinglbase" horiz-adv-x="187" unicode="" d="M84 172q4 0 26 2q21 2 25 2q19 0 29 -10t9 -26v-94q1 -24 -5 -48t-25 -54q-13 -23 -34 -23h-13l-14 1h-12l-15 -1h-15q-6 0 -12 2t-5 9q0 13 11 19l1 1q9 4 13 10t4 17q0 9 -4 13t-7 6q-2 1 -7 3q-7 2 -11 5q-5 4 -7 10t-2 12q0 4 1 31q1 28 1 33t-1 22q-1 23 -1 25 q0 23 10 29t22 6q3 0 19 -1t19 -1z"/>
<glyph glyph-name="quotedblleft" horiz-adv-x="354" unicode="" d="M191 546q0 36 10 68t39 71q11 15 16 18t24 3l15 1h14q7 -1 13 -3t7 -11q0 -5 -8 -14l-1 -1q-10 -10 -14 -22t-4 -21t4 -13t8 -6q2 -1 7 -2q6 -1 9 -3q6 -3 8 -11t2 -16v-23l-1 -24q0 -4 1 -29q1 -26 1 -32q1 -13 -5 -22t-27 -9q-5 0 -22 1q-21 1 -24 1t-17 -1 q-20 -1 -23 -1q-13 0 -20 7t-7 10q-2 4 -2 8t-1 18q0 4 -1 28q-1 25 -1 30zM11 553q1 17 3 31t9 31q7 23 15 39t27 41q7 7 13 9t24 3h1l14 1h14q9 0 13 -4t4 -9t-2 -7t-7 -9q-10 -11 -14 -24t-4 -20q0 -13 11 -18q2 -1 7 -1q7 -1 10 -3q4 -2 8 -9t4 -21v-14q-1 -11 -1 -16 q0 -7 2 -37q1 -30 1 -37q0 -11 -2 -15q-7 -18 -27 -18q-3 0 -16 2q-14 1 -17 1q-36 0 -46 -1q-5 -1 -13 -1q-20 0 -26 17q-2 4 -2 11t-1 30v4q0 4 -1 21q-1 21 -1 23z"/>
<glyph glyph-name="quotedblright" horiz-adv-x="354" unicode="" d="M188 675q0 15 8 23t21 9q2 0 16 -1t16 -1q34 0 46 1q1 0 7 1h6q20 1 25 -13t5 -40q0 -3 1 -27q2 -25 2 -30q0 -13 -2 -22t-11 -39q-4 -20 -14 -37t-21 -32q-9 -12 -13 -15t-9 -4q-5 -2 -11 -2h-25q-4 -1 -12 -1q-20 0 -20 13q0 4 5 11l5 5q4 5 6 8q3 6 7 16t4 18 q0 12 -4 16t-15 5q-9 2 -15 9t-6 27l1 13v16v28t-2 27v9q-1 8 -1 9zM9 676q1 18 9 25t23 7h7q11 -1 18 -1q22 -2 26 -2q7 0 21 2q1 0 8 1h7q9 0 19 -7t10 -26l1 -14v-16q0 -4 1 -20q1 -20 1 -22q0 -6 -2 -26q-5 -35 -16 -59t-28 -47q-13 -19 -20 -22t-37 -3h-7q-7 -1 -9 -1 q-7 0 -13 4t-6 9t5 12q2 3 7 8q3 4 4 5q6 9 8 19t3 16q0 12 -11 18q-3 2 -9 3q-7 2 -9 3q-9 7 -9 27l1 20v20v27t-2 25v8q-1 6 -1 7z"/>
<glyph glyph-name="ellipsis" horiz-adv-x="1000" unicode="" d="M882 170q9 0 15 -2q3 -2 8 -8t5 -14v-3q-1 -2 -1 -3v-19q-1 -20 -1 -31l1 -24v-28q0 -20 -5 -30t-21 -10q-15 1 -66 1q-3 0 -19 -1q-17 -1 -20 -1q-10 -1 -18 5t-7 21q0 3 1 21q1 17 1 20q0 49 -1 64v8q-1 5 -1 6q0 27 23 27h8q6 -1 49 -1q17 0 25 1q2 0 12 1h12z M549 170q9 0 15 -2q3 -2 8 -8t5 -14v-3q-1 -2 -1 -3v-19q-1 -20 -1 -31l1 -24v-28q0 -20 -5 -30t-21 -10q-15 1 -66 1q-3 0 -19 -1q-17 -1 -20 -1q-9 -1 -17 5t-8 21q0 3 1 21q1 17 1 20q0 49 -1 64v8q-1 5 -1 6q0 27 23 27h8q6 -1 49 -1q17 0 25 1q2 0 12 1h12zM216 170 q9 0 15 -2q3 -2 8 -8t5 -14v-3q-1 -2 -1 -3v-19q-1 -20 -1 -31l1 -24v-28q0 -20 -5 -30t-21 -10q-15 1 -66 1q-3 0 -19 -1q-17 -1 -20 -1q-10 -1 -18 5t-7 21q0 3 1 21q1 17 1 20q0 49 -1 64v8q-1 5 -1 6q0 27 23 27h8q6 -1 49 -1q17 0 25 1q2 0 12 1h12z"/>
<glyph glyph-name="guilsinglleft" horiz-adv-x="167" unicode="" d="M91 286q12 -13 20 -21l13 -13q18 -17 21 -22t3 -14v-5q-1 -4 -1 -6q-1 -16 -1 -47q0 -21 1 -31q0 -1 1 -11t1 -11q0 -9 -7 -9q-2 0 -4 2t-8 6l-1 1q-12 12 -43 44t-41 42l-12 12l-1 1q-10 8 -12 12t-2 15q0 3 1 19t1 19q0 8 -1 51l-1 19q0 16 6 23q0 2 20 20t30 29 q15 14 19 18q10 12 16 17q2 2 5 4l4 4q1 1 4 5q7 8 13 11q4 2 6 2q6 0 6 -11v-3q-1 -3 -1 -4q-1 -9 -1 -42q0 -26 1 -43v-6q1 -4 1 -12q0 -7 -2 -11t-9 -9l-13 -13z"/>
<glyph glyph-name="guilsinglright" horiz-adv-x="167" unicode="" d="M76 281q-16 17 -20 21l-13 13q-18 19 -21 23t-3 13q0 2 1 6v5q1 16 1 47q0 21 -1 31q0 1 -1 14q-1 7 -1 8q0 10 7 10q2 0 4 -2t9 -8q7 -7 68 -70l28 -28l1 -1q9 -9 11 -13t3 -14q0 -4 -1 -17q-1 -18 -1 -20q0 -9 2 -55v-15q0 -16 -6 -24l-17 -17t-26 -24q-21 -20 -26 -25 q-10 -12 -16 -18q-6 -4 -9 -7q-1 -1 -3 -4q-8 -10 -14 -13q-4 -2 -6 -2q-6 0 -6 11q0 2 1 4v3q1 10 1 43q0 25 -1 43v6q-1 3 -1 11t2 12t9 9q3 2 9 9l4 4q3 2 11 10z"/>
<glyph glyph-name="trademark" horiz-adv-x="688" unicode="" d="M187 639v-265h-84v265h-102v67h286v-67h-100zM674 706v-332h-82l4 177q0 13 2 29t4 39l-4 -16l-6 -24t-4 -14l-56 -191h-75l-59 192q-2 10 -8 28t-6 23l2 -11q3 -28 5 -55l4 -177h-81v332h106l76 -240l71 240h107z"/>
</font>
</defs>
</svg>
