<?xml version="1.0" standalone="no"?>
<!DOCTYPE svg PUBLIC "-//W3C//DTD SVG 1.1//EN" "http://www.w3.org/Graphics/SVG/1.1/DTD/svg11.dtd" >
<svg xmlns="http://www.w3.org/2000/svg">
<metadata></metadata>
<defs>
<font id="blockberegular" horiz-adv-x="1067" >
<font-face units-per-em="2048" ascent="1638" descent="-410" />
<missing-glyph horiz-adv-x="598" />
<glyph horiz-adv-x="0" />
<glyph unicode="&#xd;" horiz-adv-x="598" />
<glyph unicode=" "  horiz-adv-x="598" />
<glyph unicode="&#x09;" horiz-adv-x="598" />
<glyph unicode="&#xa0;" horiz-adv-x="598" />
<glyph unicode="!" horiz-adv-x="555" d="M98 1354q1 86 64 86h61q4 0 32 -2t34 -2t39.5 2t40.5 2q55 0 71 -45q4 -12 4 -113q0 -27 -8 -80q-4 -70 -10 -166q-2 -37 -8 -108q-2 -59 -8 -144q-8 -61 -9 -88q0 -12 -10 -133q0 -25 -4 -71q-8 -78 -30.5 -96.5t-98.5 -18.5q-57 0 -72 26q-12 92 -28 215q-4 41 -13 125 q-10 94 -20 224q0 18 -2 55q-6 45 -12 108l-5 99q-2 25 -6 57q-2 18 -2 68zM113 121q0 10 2 67v70q0 70 86 61h88h22q19 -2 21 -2t16 2h17q63 -4 63 -59q0 -4 2 -41v-43t-2 -50t-2 -52q0 -74 -47 -74q-2 0 -20.5 2t-22.5 2q-6 0 -44 -2t-46 -2q-68 0 -92 8q-39 12 -39 54 t-2 59z" />
<glyph unicode="&#x22;" horiz-adv-x="894" d="M98 1395q0 70 54 108q43 31 100 31q51 0 88 -27q51 -35 51 -104q0 -13 -4 -33l-108 -534h-64l-113 512q-4 18 -4 47zM524 1395q0 70 54 108q43 31 100 31q51 0 88 -27q51 -35 51 -104q0 -13 -4 -33l-108 -534h-64l-113 512q-4 18 -4 47z" />
<glyph unicode="$" horiz-adv-x="894" d="M63 76q3 47 3 53v66q0 18 2 26q4 29 4 41v29q-2 25 -2 31q0 43 110 43q31 0 64 -15q14 -4 39 -12q14 -2 98 -2q49 0 82 28.5t33 77.5q0 45 -27 82q-31 29 -72 70q-16 16 -45 33q-49 29 -108 92q-10 10 -45 43q-78 68 -103 145q-33 106 -33 170q0 78 9 113q10 47 45 108 q10 18 53 61.5t164 84.5q8 2 17 7t9 44v33q-2 27 -2 33q0 51 45 51q4 0 26 -2t26 -2t28 2h29q47 0 47 -39q0 -6 -2 -34t-2 -30t2 -16v-16q0 -10 12 -11q4 0 9 2h6q18 0 82 -12q74 -12 104.5 -26.5t26.5 -45.5v-94v-18q-2 -14 -2 -19q0 -4 2 -30v-33q0 -59 -80 -60 q-4 0 -41 9q-25 6 -139 16q-41 0 -76 -25.5t-35 -66.5q0 -53 41 -92q55 -41 127 -101q6 -10 13 -13t15.5 -8t16.5 -16q14 -16 61 -59q154 -139 154 -334q0 -90 -10 -123l-41 -96q-27 -37 -64 -84q-43 -47 -77 -65q-18 -16 -52.5 -30.5t-40.5 -14.5q-20 -4 -20 -25 q0 -6 2 -51v-51q0 -51 -13.5 -63.5t-50.5 -12.5q-2 0 -15 2t-17 2h-41q-35 2 -41 2q-14 0 -21.5 9t-7.5 36q0 2 2 18v19q0 35 -2 45v25q0 10 -8 10h-12q10 0 -60 6q-41 2 -94 8q-109 18 -107 72z" />
<glyph unicode="%" horiz-adv-x="1705" d="M33 995q0 23 10 109q10 78 37 133q37 74 72 102q6 6 18 15q4 6 13.5 14t23.5 16q86 49 147 50q78 0 144 -35q125 -66 159 -203q29 -111 29 -266q0 -31 -2 -48.5t-14.5 -74.5t-12.5 -59q-6 -25 -24 -66q-33 -72 -107.5 -124t-142.5 -52h-51q-43 0 -80 22q-23 16 -47 29 q-90 43 -142 199q-31 94 -30 239zM258 930q0 -78 22.5 -155t81.5 -77q41 0 64 33q12 18 29 84q0 18 2 57q0 12 3 36t3 36q0 6 -7 99.5t-10 95.5q-2 16 -12 39q-29 63 -78 63q-66 0 -84 -96q-12 -61 -12 -174v-21q-2 -16 -2 -20zM418 29q0 12 26 57q14 29 41 86q8 16 27 47 q12 25 35 66q37 86 119 252q14 23 43 71q37 66 73 152q18 35 54 106q16 39 43 88l18 31q8 18 20.5 50t61.5 118q8 10 22 33q51 111 111 233q25 31 59 31q4 0 28 -3t28 -3q6 0 16 2h19q33 0 32 -35q0 -18 -14 -41q-37 -61 -53.5 -99t-30.5 -63q-8 -14 -39 -84 q-10 -20 -33 -65q-14 -31 -49 -94l-43 -86q-25 -49 -30 -59.5t-17 -28.5q-4 -6 -20 -46q-6 -10 -19 -32q-6 -12 -10 -27q-49 -94 -115 -229q-6 -16 -35 -74q-57 -102 -68 -133t-30 -55q-6 -12 -18 -35q-2 -6 -6 -21q-10 -23 -33 -65q-10 -23 -33 -56q-18 -20 -104 -18h-21 q-20 -2 -22 -2q-33 0 -33 31zM1018 492q0 6 3 35.5t3 33.5q4 47 16 88q10 33 47 115q23 41 64 79t106 62q47 16 72 17h33q31 -2 33 -2q45 -12 133 -64l41 -41q10 -10 51 -78q49 -92 49 -325q0 -18 -12 -84l-6 -49q-2 -14 -13 -46q0 -18 -24 -65q-27 -66 -100.5 -120 t-159.5 -54q-84 0 -119 24q-20 10 -57 35l-19 13q-82 72 -119 206q-20 76 -20 136v41q-2 35 -2 43zM1243 422q0 -53 8 -86q18 -150 97 -150q59 0 82 86q16 41 16 162q0 4 -6 82t-6 80q0 18 -15 70q-27 63 -80 63q-61 0 -82 -98q-12 -61 -12 -129v-39q-2 -35 -2 -41z" />
<glyph unicode="&#x26;" horiz-adv-x="1236" d="M35 463q0 25 2 37q16 98 63 170q18 29 74 75q47 43 72 56q10 4 33 14q35 18 34 49q0 18 -23.5 63.5t-33.5 96.5q-8 43 -8 55v6q4 20 10 60q2 18 8 53q14 59 76 121q55 53 111 76q33 12 69 26q10 2 39 2q4 0 28.5 2t31.5 2l98 -16q49 -14 102 -53q68 -53 90 -115 q4 -8 11.5 -24.5t19.5 -49.5q10 -51 10 -94q0 -41 -6 -67q-20 -88 -55 -135.5t-86 -81.5q-57 -39 -60 -72q-2 -29 16.5 -57.5t37.5 -55.5q61 -98 82 -98q12 0 24 24q18 33 19 82q0 18 -2 27q-10 27 -11 35q0 37 45 37q8 0 54.5 -2t56.5 -2q35 0 53 2q8 2 25 2q49 0 49 -33 v-49q0 -47 -6 -78q-25 -98 -41.5 -128t-48.5 -89q-6 -12 -20.5 -31.5t-14.5 -25.5q0 -20 35 -74q29 -45 39 -55q2 -2 7 -9.5t7 -11.5l6 -12q4 -6 10.5 -13.5t6.5 -23.5q0 -43 -10.5 -52.5t-40 -9.5t-115.5 -12q-51 -10 -72 -10q-29 0 -41 27q-27 55 -64 55q-10 0 -36 -15 q-49 -27 -127 -45q-84 -20 -144 -20q-12 0 -69 8q-18 0 -56 2q-45 6 -133 47q-39 23 -116 95q-4 4 -27 38q-88 88 -88 275zM352 471q0 -47 29 -98q49 -88 160 -88q8 0 12 2q12 2 37.5 3t52.5 21q8 8 8 19q0 10 -12 28q-4 6 -14 27q-29 55 -64 100q-27 33 -43 58 q-36 53 -65 53q-35 0 -68 -44t-33 -81zM530 1083q0 -47 43 -104q16 -23 33 -23q25 0 65 36t40 91q-1 93 -95 93q-86 0 -86 -93z" />
<glyph unicode="'" horiz-adv-x="425" d="M68 1395q0 70 53 108q43 31 100 31q51 0 88 -27q51 -35 51 -104q0 -13 -4 -33l-108 -534h-64l-112 512q-4 18 -4 47z" />
<glyph unicode="(" horiz-adv-x="598" d="M63 694q0 6 4.5 50t4.5 53v18q-2 16 -2 19q0 18 14 96t18 88q8 29 31 80q14 41 37 96q43 92 115 147q33 20 57 41q14 12 39 33q8 8 43 25q45 20 80 20q45 0 45 -59v-51v-33q-2 -29 -2 -35q0 -4 2 -25v-26q0 -39 -33 -72q-68 -68 -98 -219q-6 -20 -17 -61v-27 q0 -27 -2 -39q-6 -88 -6 -143v-54v-30q-2 -25 -2 -31q0 -18 8 -68q4 -37 11 -90q39 -139 45 -152.5t69 -92.5q12 -12 29 -37q2 -8 2 -72v-25q-2 -20 -2 -24v-37q0 -49 -6 -63q-8 -33 -39 -33q-39 0 -64 8q-35 6 -110 59q-68 47 -115 123q-4 8 -22 33q-39 45 -70 123 q-4 20 -16 61q-8 18 -21 56q-8 47 -18 102q0 12 -3 62.5t-3 58.5v88v29q-2 25 -3 30z" />
<glyph unicode=")" horiz-adv-x="598" d="M41 1221v53q0 4 2 26v25v39q0 94 39 94q4 0 22.5 -2t20.5 -2q55 -6 113 -47q45 -33 75 -64q23 -23 56 -65q8 -16 34 -49q39 -49 66 -125q18 -51 37 -121q2 -2 9 -45t7 -66q0 -2 2 -15t2 -15v-21q0 -12 2 -28.5t2 -36.5v-131q0 -16 -4 -51t-4 -52q0 -2 2 -14v-16 q0 -23 -16 -112t-47 -159q-14 -41 -37 -100q-47 -88 -102 -135q-25 -16 -74 -54q-12 -12 -41 -32q-8 -8 -37 -21q-43 -20 -80 -20q-45 0 -45 67v66q0 4 2 18.5t2 16.5q0 4 -2 27.5t-2 27.5q0 25 10 47q2 4 47 55q8 8 31 49q14 25 25 64q35 131 35 141v33q0 6 2 18v19 q0 6 3 44t3 46v109q0 4 2 28.5t2 30.5q0 20 -5 56t-6 50.5t-6 45.5q-14 45 -24 88q-10 16 -19 53q-8 25 -26 45q-20 31 -53 72q-25 23 -25 45z" />
<glyph unicode="*" horiz-adv-x="681" d="M33 1157v4l20 78q4 20 15.5 59t56.5 39q4 0 25 -8q41 -23 67 -22q20 0 16 41q0 2 3 18v18t-2.5 17.5t-2.5 15.5q0 10 2 15q14 23 58 22h18q12 -2 19 -2q4 0 20.5 2t18.5 2q6 0 17 -2t17 -2q31 -2 40.5 -8t9.5 -33t-5 -49q-2 -10 -4 -23q2 -37 21 -36q27 0 76 28 q14 8 26 8q25 0 39 -45q2 -6 7 -18t6 -17.5t11.5 -49.5t10.5 -48q0 -29 -33 -35q-86 -16 -86 -41q0 -10 35 -44.5t35 -57.5q0 -8 -15.5 -21.5t-20.5 -17.5t-13.5 -11t-12.5 -11q-14 -6 -22 -13q-16 -18 -55 -41q0 -2 -5 -2q-25 0 -43 25q-2 4 -5 12t-5 12q-39 59 -53 60 q-14 0 -49 -55.5t-51 -55.5q-12 0 -37 21q-14 12 -33 24l-49 33q-27 14 -27 35q0 37 51 76q16 14 17 30q0 12 -17 17q-23 8 -63 14q-49 6 -49 43z" />
<glyph unicode="," horiz-adv-x="425" d="M53 141q0 2 2 24.5t2 27.5v38q-2 33 -2 39q0 35 43 45h52q12 0 37.5 3.5t37.5 3.5q4 0 29 -3.5t29 -3.5q2 0 12 2h12q8 -2 27 -6q8 0 22.5 -14t14.5 -193q0 -39 -13 -79q-6 -18 -10 -36t-10 -42q-6 -8 -14 -27q-2 -10 -11 -31q-27 -45 -61 -104q-16 -33 -62 -33 q-4 0 -27.5 2t-29.5 2q-2 0 -16 -2h-17q-31 0 -30 35q0 6 16 27q25 31 45.5 80t20.5 65q0 37 -31 37q-55 0 -61.5 31.5t-6.5 111.5z" />
<glyph unicode="-" horiz-adv-x="598" d="M59 537q0 78 7 94q12 33 57 43h45q4 0 27.5 2t29.5 2q4 0 27.5 -3t30.5 -3q2 0 22.5 2t24.5 2t30.5 -2t32.5 -2t41 2h41q41 0 53 -37q8 -16 9 -115q0 -4 -2.5 -24.5t-2.5 -24.5q0 -29 -2 -43q-8 -55 -65 -55q-2 0 -16 2h-20.5h-22.5q-16 -2 -23 -2q-4 0 -33 2h-32h-31 q-25 -2 -31 -2q-10 0 -31 2h-32q-4 0 -31 -2t-31 -2q-51 0 -63 49q-8 35 -9 115z" />
<glyph unicode="." horiz-adv-x="425" d="M51 164q0 6 3 50t3 52q0 57 37 58q2 0 21.5 -2.5t23.5 -2.5t33 3.5t35 3.5q4 0 35.5 -3.5t38.5 -3.5q2 0 16 3h18q45 0 56 -23q4 -10 2 -55v-43q2 -39 2 -43t-2 -32t-2 -34q0 -2 2 -19.5t2 -21.5q0 -51 -51 -51q-2 0 -21.5 2t-23.5 2q-6 0 -45 -2t-48 -2q-4 0 -30 2h-31 h-14q-12 -2 -15 -2q-39 0 -43 39v24v50q-2 43 -2 51z" />
<glyph unicode="/" horiz-adv-x="768" d="M29 61q0 20 10 60q25 66 65 203q27 109 68 229q12 39 37 115q6 31 20 88q10 31 31 92q25 86 59 205q27 66 68 198q6 37 21 107q16 57 49 74q27 12 106 12q119 0 135 -6q35 -12 35 -64q0 -33 -10 -63q-20 -49 -47 -119q-18 -80 -62 -236q-12 -27 -32 -84q-16 -72 -60 -215 l-37 -100q-12 -57 -45 -168q-27 -70 -67 -215q-16 -100 -29 -123q-27 -49 -98 -51h-64q-57 2 -65 2q-88 0 -88 59z" />
<glyph unicode="0" horiz-adv-x="1110" d="M45 780l8 85t28.5 164t61.5 151q45 80 86 118q8 6 20.5 16.5t31.5 28.5q27 16 67 41q96 55 191 56h24q18 -2 25 -2q43 -2 60.5 -5t60.5 -20q37 -14 61 -29q47 -27 86 -65l43 -43q29 -27 55 -76q35 -63 52 -113q23 -70 34 -151q2 -23 7 -66q4 -16 8 -53q0 -4 2 -73.5 t2 -84.5q0 -43 -6 -102q-4 -16 -13 -51q0 -12 -4 -41q-4 -14 -12 -43q-2 -18 -10 -55q-16 -47 -39 -107q-20 -41 -72.5 -102.5t-89.5 -85.5q-47 -31 -70 -43q-80 -41 -149 -43h-35q-31 2 -35 2q-98 0 -170 53q-6 6 -20.5 14t-38.5 21q-49 29 -109 112q-53 78 -77 142 q-4 16 -33 102q-4 27 -15 80q-4 12 -8 37l-6 78v49v57q-2 43 -2 47zM379 649q0 -68 20 -170q0 -31 17 -82q8 -43 41 -75q39 -51 90 -52q2 0 14 2h12q14 2 43 15q35 23 46.5 39t33 76.5t21.5 152.5q0 -14 4 45q6 68 6 88q0 -10 -6 80q-4 55 -10 129q-2 45 -19 133 q-6 6 -30 68q-16 27 -39 41q-39 25 -74 24q-41 0 -70 -18q-41 -27 -53 -55q0 -8 -5 -19.5t-13 -28.5q-4 -31 -5 -36q-20 -86 -20 -154q0 -2 2 -21v-22q0 -29 -4 -45q0 -2 2 -25v-26q0 -4 -2 -31t-2 -33z" />
<glyph unicode="1" horiz-adv-x="1110" d="M150 1083q0 29 7 48.5t89 78.5q63 45 80 60q29 20 88 61q18 8 53 29q20 16 61 41q68 23 117 22h12q8 -2 15 -2q16 0 86 -12q51 -18 51 -84v-25q-2 -20 -2 -24t2 -25v-26v-74q-2 -63 -2 -76q0 -16 2 -51v-51v-101v-45v-28q-2 -23 -2 -29q0 -4 2 -25v-24.5v-79.5 q0 -4 2 -36t2 -38v-32q-2 -23 -2 -35v-54v-26q-2 -25 -2 -29t2 -29v-28.5v-116.5q0 -4 2 -41v-41v-82q0 -53 -68 -53q-10 0 -67 4t-68 4q-20 0 -45 -6h-16q-12 -2 -19 -2q-61 0 -61 72q0 29 2 49l6 63v35q-2 29 -2 33t2 29v28q0 2 2 23v24v33q0 4 3 29.5t3 32.5q0 6 -2 41.5 t-2 42.5q0 8 2 49t2 47v51q-2 45 -2 53q0 4 2 37t2 39q0 43 -4 63q0 2 2 25v27q0 82 -39 82q-29 0 -77 -31q-74 -47 -103 -47t-72.5 59.5t-43.5 93.5z" />
<glyph unicode="2" d="M23 123q0 37 16 59q4 6 58.5 51.5t65.5 52.5t24.5 18t48.5 38q29 18 51 41q12 14 39 41q41 37 86 68q25 16 44 35.5t48 45.5q8 12 26 35q6 8 19 21q74 74 94 116q4 10 14 27q2 6 8.5 15.5t8.5 13.5q4 14 8 26.5t10 20.5q0 -12 3 15.5t3 51.5q0 2 2 13.5t2 13.5 q0 10 -10 49q-23 90 -102 117q-6 4 -21 8q-37 14 -67 14q-16 0 -56 -10q-18 -4 -47.5 -20.5t-46.5 -40.5q-27 -39 -26 -72q0 -2 2 -22.5t2 -24.5q0 -12 -11 -43q-16 -33 -71 -33q-8 0 -25.5 2t-25.5 2h-21q-18 -2 -22 -2q-6 0 -19 2h-20h-15q-31 0 -49 39q-14 33 -14 70 q0 8 2 23.5t2 26.5t2 44q2 27 18 70q20 55 31 76q14 29 49 73q49 63 115 94q72 43 182 54h64q4 0 33 2h32q74 0 176 -37q59 -23 123 -76q57 -47 79 -84t50 -102q23 -72 23 -164q0 -100 -12.5 -141t-40.5 -113q-6 -10 -15.5 -27.5t-28 -50.5t-38.5 -59q-6 -8 -21 -23 q-2 -4 -20 -26q-53 -72 -131 -142q-20 -16 -56 -47q-16 -12 -34 -29q0 -10 34 -10q2 0 21.5 2t23.5 2t38 -2t42 -2q4 0 29 2h31h69q100 0 101 -67q0 -8 -3 -27.5t-3 -30.5q0 -2 2 -19t2 -22v-18q-2 -14 -2 -21q0 -2 2 -16v-18q0 -18 -22.5 -44t-39.5 -32q-6 -2 -59 -2 q-14 0 -49 4q-18 2 -60 2q-8 0 -63 -2h-66q-6 0 -40 2t-40 2h-32q-27 -2 -33 -2q-14 0 -55 -2h-56h-8q-6 0 -44 2t-46 2q-4 0 -34 -2t-36 -2h-30q-27 2 -33 2q-4 0 -33 -2t-35 -2h-26q-41 0 -41 61q0 6 -2 34t-2 32z" />
<glyph unicode="3" d="M0 227q0 37 35 68q4 2 10 7t8 7l43 43q8 6 20.5 20.5t35.5 33.5q12 8 30 8q20 0 43 -19q29 -27 70 -63q10 -4 18.5 -11.5t21.5 -15.5t69.5 -22.5t76.5 -14.5q31 2 64 5t78 32q74 45 73 119v14q-2 13 -2 15v12q0 35 -35 74q-31 33 -65 51q-61 33 -117 41q-10 0 -28 2 q-45 4 -54 6q-33 12 -37 45l-2 76q0 43 11 61q20 39 61 43q18 2 35.5 5t62.5 13.5t85 48.5t40 85q0 57 -35 86q-51 51 -131 51q-66 0 -90 -12q-6 0 -41 -21q-43 -27 -73 -59q-12 -14 -43 -43q-18 -18 -43 -19q-25 0 -58 41q-18 12 -38.5 35t-49.5 53q-25 20 -24 48 q0 45 75 114q29 29 101 80q59 33 114 51q12 2 39 6q78 12 74 13q4 0 29 2h30q47 0 107 -6q119 -12 205 -72q70 -49 116 -123q45 -90 46 -137q0 -10 -3 -49q-4 -66 -28 -115q-35 -68 -78 -106q-51 -47 -51 -52q0 -6 17.5 -14t49.5 -29q14 -6 47 -43q49 -51 70 -104 q33 -86 33 -191q0 -127 -82 -237q-51 -70 -134 -112t-140 -54q-66 -14 -195 -14q-145 0 -258 61q-23 16 -74 45q-20 10 -74 51q-61 59 -61 86z" />
<glyph unicode="4" d="M31 465q0 49 61 137q45 66 72 113q16 18 43 59q12 25 35 55q10 18 32 56q23 31 66 98q8 14 27 45q12 18 34.5 58t71.5 118q4 8 12.5 22.5t25.5 42t42 68.5t35 55.5t26.5 22.5t196.5 8q47 0 47 -51q0 -2 -2 -26.5t-2 -28.5t2 -25v-26v-74q-2 -63 -2 -76v-41q2 -8 6 -61 q0 -12 -2 -90t-2 -93v-55q0 -6 -2 -43t-2 -45q0 -2 2 -26v-27q0 -51 61 -51q31 0 36 1t14.5 3t13.5 2q18 0 37 -15q10 -12 10 -51q0 -2 2 -15t2 -15v-21q-2 -16 -2 -20v-43q0 -4 2 -27v-27q0 -27 -22.5 -35t-89.5 -8q-59 0 -60 -63q0 -4 2 -39v-39q0 -4 -2 -36t-2 -38 q0 -2 2 -22v-23q0 -53 -43 -53q-2 0 -8 2h-10h-131q-4 0 -33 -2t-35 -2q-47 0 -47 49q0 8 2 54t2 57q0 33 -6 57q0 43 -4 55q-18 49 -88 49h-25q-20 -2 -24 -2t-31 2h-33h-90q-4 0 -26.5 2.5t-26.5 2.5q-6 0 -40 -3.5t-40 -3.5q-2 0 -12 2h-15q-61 1 -61 60v41v22 q-2 20 -2 23zM379 623q0 -41 88 -41h27q23 -2 26 -2q37 0 37 88v41q-2 29 -2 41q0 8 2 51t2 51q0 49 -16 49q-10 0 -51 -53l-58 -98q-55 -98 -55 -127z" />
<glyph unicode="5" d="M0 217q0 39 43 76q59 51 86 84q25 25 43 24q18 0 47 -20l31 -31q6 -4 16 -11t15 -11q33 -23 100 -54q45 -10 86 -10q16 0 43 8q76 23 106 62q61 76 62 178q0 35 -32 88t-71.5 80t-105.5 41q-10 2 -28.5 4t-26.5 2h-15q-12 -2 -16 -2h-25q-51 0 -88 -12q-6 0 -17 -3 t-17.5 -5.5t-34.5 -2.5q-33 0 -49 17q-23 23 -23 53q0 4 2 14v15q-2 14 -4 31.5t-6 160.5q0 8 2 57.5t2 59.5v39q-2 25 -6 123q-4 111 -4 92q0 25 15 44t60 19q14 0 44 -2t45 -2q10 0 26 4q-6 0 29 3q25 -4 82 -7q16 0 135 4q25 0 70 -3t65 -3q35 4 66.5 5t66.5 1 q80 0 80 -81q0 -6 2 -49.5t2 -51.5v-18q-2 -16 -2 -21q0 -33 -35 -49q-6 -2 -18 -10q-20 -10 -53 -10q-4 0 -29 2t-31 2q-8 0 -56 -2t-58 -2q-4 0 -33 2h-35q-61 0 -100 -15q-25 -8 -25 -43q0 -66 21 -71h65q76 0 117 -9q88 -18 137 -53q10 -8 49 -37q90 -68 129 -145 q18 -37 37 -80q23 -68 23 -166q-4 -70 -29 -201q-18 -57 -66 -129q-59 -86 -116 -120q-14 -8 -43 -25q-6 -4 -17.5 -10t-27.5 -10q-23 -8 -64 -25q-80 -27 -176 -27q-76 0 -154 17q-39 8 -114 41q-94 41 -129 78q-25 25 -62 65q-8 16 -8 43z" />
<glyph unicode="6" horiz-adv-x="1110" d="M47 586q0 4 3 35.5t3 37.5v56q0 86 13 141q4 27 16 78q0 12 10 43q10 57 53 141q47 94 93 135q25 16 69 56l25 18q45 35 102 57q12 2 37 11q18 8 59 20l48 8q82 14 135 13l53 -2q10 -2 68 -2q33 0 79 -11q61 -14 66 -71q0 -2 -2 -17.5t-2 -19.5t2 -15v-16q-2 -12 -4 -29 v-45q0 -35 -29 -51q-16 -16 -53 -16q-4 0 -36 4t-38 4h-29q-25 -2 -30 -2h-39h-21q-16 -2 -20 -2q-10 0 -43 -10q-6 -2 -20.5 -5.5t-22.5 -7.5q-20 -8 -51 -26q-8 -4 -68 -64q-14 -25 -37 -59q-33 -51 -33 -92q0 -20 21 -21q2 0 39 19q8 6 26 16q45 25 115 33h43q8 0 23 2 h22q16 0 21 -2q25 -2 84 -25q72 -29 109.5 -59.5t68.5 -65.5q57 -61 74 -131q14 -39 14 -84q0 -2 2 -17.5t2 -19.5v-14q-2 -8 -2 -14q0 -2 2 -16.5t2 -16.5v-23q-2 -18 -2 -22q0 -49 -18 -107q-14 -43 -52.5 -115.5t-148.5 -142.5q-59 -39 -129 -53q-25 -4 -76 -14h-51 q-10 0 -76 7l-67 7q-18 4 -62 18q-70 25 -133 76q-49 49 -69.5 71.5t-37.5 53.5q-43 82 -71.5 176.5t-28.5 188.5zM399 459q0 -37 23 -78q12 -23 39 -49q12 -14 51 -30.5t61 -16.5q57 0 89 18q29 10 57 39q18 35 26 43q18 29 19 70q0 98 -68 149q-45 35 -108 35h-15 q-10 -2 -14 -2q-2 0 -8 2h-10q-23 0 -64 -23q-18 -10 -33 -24q-33 -23 -39 -41.5t-6 -91.5z" />
<glyph unicode="7" horiz-adv-x="1024" d="M16 1346q0 35 8.5 53t45.5 18h16q12 -2 23 -2q33 -4 38 -4q8 0 50 2h47q4 0 33.5 -3t35.5 -3q14 0 43 4h68q4 0 31 2h32h136h221q6 0 39 4q10 0 22 2h17q66 0 90 -37q18 -29 18 -57q0 -10 -18 -55q-6 -16 -19 -47q-8 -16 -24 -49q-2 -6 -23 -48q-8 -14 -19.5 -39.5 t-31.5 -70.5q-4 -8 -57 -144q-51 -115 -152 -344q-37 -88 -53 -137q-49 -150 -60 -201q-6 -35 -20 -104q-18 -59 -57 -74q-29 -12 -129 -12q-90 0 -123 10q-47 14 -47 60q0 2 16 82q8 45 29.5 107.5t38.5 121.5q8 29 51 133q8 37 33 84q10 31 18 53.5t55 116.5q14 27 37 82 t37 82q51 102 51 117q0 37 -24 53q-12 6 -52 6q-31 0 -61 2q-2 0 -29.5 2t-34.5 2q-16 0 -47.5 -3t-48.5 -3q-6 0 -53 5t-57 5q-6 0 -43 -2t-45 -2q-20 0 -35 25q-12 16 -13 28q0 4 2.5 18.5t2.5 16.5v12q-2 8 -2 15v22q0 8 -3.5 48t-3.5 47z" />
<glyph unicode="8" d="M29 414q0 82 20 137q33 88 92 135q16 16 33 27q25 14 49 28q33 20 35 41q0 16 -14 27l-31 25q-8 4 -23 18q-41 33 -59 59q-49 68 -49 179q0 20 8 69q12 78 49 123q25 29 58 61q41 39 133 72q57 21 200 21q98 0 160 -11q39 -12 61.5 -20t79.5 -35q150 -92 150 -246 q0 -80 -27 -149q-20 -55 -61 -90q-23 -18 -53 -45l-11 -11q-4 -2 -12 -7t-12 -9q-16 -12 -17 -22q0 -8 15 -15q25 -12 55 -31q4 -2 39 -32q23 -18 57 -54q55 -76 68 -118q10 -33 10 -109q0 -4 2 -29v-28q0 -2 -3 -20.5t-3 -23.5t-1 -18.5t-3 -20.5t-8 -22q-18 -47 -55 -98 q-20 -29 -80 -84q-57 -39 -99 -57q-10 -4 -94 -33q-74 -12 -117 -12h-26q-23 2 -29 2q-2 0 -22 -2h-23q-94 0 -192 45q-70 29 -91 49q-29 18 -71.5 66.5t-61.5 105.5q-27 86 -26 162zM346 422q0 -100 94 -133q49 -16 105 -17q55 0 108 39q31 23 44.5 51.5t13.5 63.5 q0 49 -41 102q-25 31 -68 57.5t-74 26.5q-41 0 -102 -45q-80 -61 -80 -145zM403 1081q0 -45 28 -75.5t44 -38.5q31 -31 68 -31q41 0 96 70q27 43 27 73q0 4 -6.5 25.5t-26.5 38.5q-33 27 -74 31q-53 6 -37 6q-43 0 -81 -29t-38 -70z" />
<glyph unicode="9" horiz-adv-x="1110" d="M27 885q0 102 6 121q4 82 57 178q33 59 64 94q27 29 82 70q47 37 59 41q92 51 211 51h16q12 -2 17 -2h39q143 0 260 -86q109 -80 159 -211q10 -27 17 -39q8 -29 26 -90q0 -4 4.5 -30t4.5 -30q14 -104 14 -172q0 -123 -8 -168q-12 -68 -13 -77q-10 -80 -28 -140 q-12 -37 -66 -139q-18 -37 -84 -111q-25 -31 -100 -88q-55 -33 -102 -45q-125 -35 -199 -35h-23q-2 0 -18 -2h-19q-35 2 -122 5q-49 6 -88 32q-27 18 -32 30.5t-5 111.5v59q0 25 20.5 44t48.5 19q4 0 39 -4t41 -4q4 0 27.5 2t27.5 2h33q25 0 51 7q47 10 105 34q37 16 65 37 q47 35 66 62q35 49 35 104q0 37 -21 37q-4 0 -30 -16q-31 -23 -33 -23q-16 -8 -76.5 -23.5t-87.5 -15.5h-14q-18 4 -56 10q-25 2 -86 19q-8 2 -20 8t-39 20q-20 8 -54 30t-70 67t-65 98q-36 70 -36 158zM350 967q0 -86 62 -150q49 -51 127 -51q12 0 45 6q45 8 81.5 36 t47.5 46q16 27 16 80q0 84 -65.5 139t-151.5 55q-12 0 -47 -12t-39 -16q-23 -12 -51 -53q-6 -14 -15.5 -35t-9.5 -45z" />
<glyph unicode=":" horiz-adv-x="512" d="M88 158q0 41 4 57v31q-2 27 -2 30q0 45 51 46h19q16 -2 20 -3q4 0 39 2.5t43 2.5q4 0 34 -2.5t36 -2.5q2 0 18 3h19q31 0 37 -15.5t6 -66.5q0 -6 2 -43v-42v-28q-2 -25 -2 -29t2 -24v-27q0 -47 -56 -47h-92q-27 0 -133 4q-29 2 -37 19q-4 10 -4 51q0 6 -2 41t-2 43z M90 954q0 68 47 68q2 0 14.5 -2t16.5 -2t31.5 2t33.5 2t40 -2t42 -2q2 0 27 2h29q41 0 41 -41v-92q0 -2 2 -21v-22q0 -2 -2 -17.5t-2 -19.5q0 -2 2 -20.5t2 -22.5v-23q0 -47 -47 -47q-2 0 -23 2h-25h-32q-20 -2 -33 -2q-4 0 -31 2h-33q-2 0 -23.5 -2t-25.5 -2q-33 0 -41 23 q-6 12 -6 53t-2 47q0 4 2 29v26q0 6 -2 42t-2 42z" />
<glyph unicode=";" horiz-adv-x="512" d="M88 186q0 6 2 33t2 31v33q0 41 33 41h6q4 -2 6 -2q25 -4 66 -5q6 0 31.5 2.5t29.5 2.5t21.5 -2.5t19.5 -2.5q8 0 22.5 2.5t20.5 2.5q18 0 33 -9q18 -14 16 -67v-56q0 -2 2 -22v-25q-2 -59 -4 -73q-16 -117 -43 -170q-10 -14 -26 -43q-31 -57 -39 -68q-14 -23 -29 -25 q-4 -2 -80 -2q-2 0 -18 -2h-19q-33 0 -32 27q0 27 26 53q8 10 25 37q2 2 14 34t12 46q0 31 -12 38t-45 7q-39 0 -39 45q0 4 2 29v26q0 6 -2 42t-2 42zM88 868q0 2 2 22.5t2 22.5v45q0 53 39 54q4 0 19.5 -3t17.5 -3q8 0 48 2t46 2q80 0 109.5 -6.5t29.5 -77.5q0 -6 3.5 -42 t3.5 -42t-2.5 -39t-2.5 -39q0 -2 2.5 -18.5t2.5 -20.5q0 -29 -39 -39q-8 -2 -58 -2q-2 0 -23.5 2t-25.5 2q-2 0 -19.5 -2t-21.5 -2q-2 0 -12 2h-14h-56q-20 0 -33.5 15.5t-13.5 29.5q0 2 2 27v30q0 4 -3 39t-3 41z" />
<glyph unicode="?" horiz-adv-x="724" d="M86 1348q0 45 35 59l67 27q27 10 62 10q8 0 24.5 -2t24.5 -2q4 0 22.5 2t20.5 2h64q39 0 69 -14q55 -20 86 -54q45 -47 51 -96q0 -2 7.5 -57.5t7.5 -57.5q0 -92 -43 -194q-12 -25 -33 -72q-57 -129 -74 -291q-2 -23 -8 -65q-4 -20 -4 -35q0 -2 2 -16v-19q0 -72 -47 -80 h-55h-23q-20 -2 -25 -2q-47 0 -55 51q-24 141 -24 170q0 49 8 113q2 23 43 203q10 47 10 69q0 55 -26.5 85t-79.5 30q-10 0 -25 -4q-47 -14 -37 -14h-2q-39 2 -39 41v53q0 12 -2 79.5t-2 80.5zM205 160q0 6 2 40t2 42v16q-2 14 -2 18q0 51 59 52h27q2 0 16.5 2t18.5 2 q10 0 56 -3t48 -3t19 2h20q57 0 57 -68v-24q-2 -23 -2 -27q0 -6 2 -39t2 -39t-3 -42t-3 -42q0 -27 -23.5 -37t-148.5 -10h-10q-4 0 -33.5 2t-36.5 2h-28q-37 0 -37 43q0 4 2 23v20q0 6 -2 36t-2 34z" />
<glyph unicode="A" horiz-adv-x="1193" d="M0 72q0 25 8 49q4 10 10 31q2 4 7 38l6 43q8 33 18 76q2 31 10 90q8 49 29 127q6 16 12 49t17 93q27 133 37 153q6 12 14 39q2 8 4 27q18 123 33 168q2 8 6 27.5t9 35t16 47.5q6 16 10 52q16 123 52 173t118 50q25 0 51 -2q16 -1 44 -1q57 0 165 5q20 3 38 3 q64 0 113 -38q41 -31 62 -107l22 -83q8 -23 23 -68l16 -78q2 -12 6 -37q2 -8 11 -30q10 -33 28 -111q2 -23 15 -72q23 -76 25.5 -99.5t6.5 -62.5q2 -6 7.5 -18t7.5 -18q8 -33 18 -76q2 -23 8 -64q6 -12 15 -41q20 -72 22 -98q2 -12 8 -41q14 -35 31 -115q4 -14 10 -45 q6 -14 15 -39q6 -31 6 -59q0 -39 -88 -39q-8 0 -55.5 -3t-57.5 -3q-82 0 -102 8q-43 14 -66 78q-4 18 -16 53q-4 8 -12 25q-18 41 -58 57q-29 12 -125 12h-65q-16 0 -64 -10q-66 -14 -84 -35q-45 -51 -49 -127q-2 -23 -20.5 -41t-71.5 -18q-6 0 -49 2h-49q-4 0 -30 -2 t-32 -2q-53 0 -63 10q-33 18 -33 62zM457 641q0 -98 129 -98q43 0 94 10q43 8 43 51q0 14 -2 25q-6 70 -25 129q-6 20 -18 63q-4 23 -12 66q-4 14 -15 41q-4 12 -20 73q-12 45 -47 46q-18 0 -35 -23q-2 -4 -45 -131l-6 -49q-6 -20 -11.5 -48t-17.5 -85q-12 -45 -12 -70z" />
<glyph unicode="B" horiz-adv-x="1236" d="M72 111l4 97q4 97 4 118q0 12 -2 85.5t-2 88.5q0 12 3 90t3 92q0 8 -2 54t-2 57q0 8 2 59t2 61v60q-2 51 -2 61v107q0 2 2 16v14.5v14.5q-2 10 -2 12q0 4 2 21v20q0 10 -2 49q-3 81 -4 81v-3q0 76 74 78q22 1 46 1t50 -1h65h8q14 0 37 -2h17q8 0 20 2h21q12 2 39 2h32 q20 -2 31 -2q6 0 42 2t42 2q-8 0 49 -4q188 -12 246 -43q8 -4 53 -31q18 -8 51 -29q8 -4 40 -36.5t44 -67.5q6 -18 21 -41q31 -51 31 -119q0 -80 -15 -137q-12 -33 -26 -74q-29 -70 -101 -102q-23 -10 -22 -21q0 -6 12 -10l21 -11q20 -11 24 -15q18 -14 33 -25 q57 -39 86 -143q18 -68 18 -150q0 -10 -14 -92q-12 -66 -21.5 -90.5t-46.5 -69.5q-68 -86 -155 -110q4 0 -69 -13.5t-101 -13.5q-10 0 -33 2h-35h-26q-25 -2 -29 -2h-111q-6 0 -46 2t-48 2q-16 0 -50 -2t-50 -2q-6 0 -47 3t-50 3q-12 0 -38.5 -2t-38.5 -2q-47 0 -70 49 q-14 31 -14 60zM406 432q0 -12 6 -57q10 -74 96 -74h70q12 -2 38 -2q4 0 28 2t28 2q37 4 69 19q84 37 84 127q0 100 -90 139q-51 22 -139 22q-82 0 -123 -15t-57 -58q-2 -25 -6 -72q-4 -8 -4 -33zM422 1036q0 -127 106 -127q10 0 29 2h26.5h28.5q23 -2 27 -2q49 0 94 27 q55 35 55 94q0 47 -22 74q-23 35 -90 49q-82 8 -113 8q-16 0 -47 -4q-66 -8 -82 -45q-6 -14 -12 -76z" />
<glyph unicode="C" horiz-adv-x="894" d="M31 696q0 2 2 23.5t2 25.5v27q-2 23 -2 27q0 12 7 64t26 153q29 100 88 176q98 123 157.5 160t139.5 63q119 39 266 39q68 0 94 -6q47 -10 47 -84q0 -12 -2 -40t-2 -42q0 -6 2 -43t2 -45q0 -31 -6 -47q-18 -25 -51 -25q-10 0 -31 4q-61 6 -61 7q-80 0 -158 -43 q-63 -33 -92 -72q-45 -59 -68 -121q-14 -39 -14 -164q0 -66 35 -155q43 -119 123 -193q70 -66 184 -66q43 0 63 9q2 0 14.5 3t16.5 3q47 0 47 -64v-22q-2 -20 -2 -25q0 -2 2 -22.5t2 -24.5t-3 -34.5t-3 -37.5v-36q0 -41 -35 -60q-20 -14 -61 -14q-6 0 -64.5 2t-62.5 2 q-18 2 -53 6q-63 8 -140 43q-27 10 -96 57q-10 8 -49 43q-35 27 -100 86q-49 59 -93 150q-55 115 -63 207q-8 41 -8 106z" />
<glyph unicode="D" horiz-adv-x="1366" d="M78 371q0 10 2 102q3 160 4 160v-4q0 6 -3 47t-3 49q0 4 2 28.5t2 30.5v29q0 4 2 37v40v93q-2 84 -2 100q0 6 2 45v48q0 8 -3 68.5t-3 72.5q0 92 45 110q20 8 188 9q29 0 56 -2q12 0 30.5 -2t22.5 -2q20 0 61 4t62 4h22q18 -2 21 -2q2 0 16 2h16q2 0 17.5 -2t19.5 -2h27 q57 0 90 -17q4 0 12.5 -3t12.5 -5q16 -2 49 -12q10 -6 31 -19q10 -2 30 -8q4 -2 27 -14q12 -4 33 -13q41 -18 110 -81q106 -96 158 -211q45 -102 51 -123q23 -76 23 -156v-27q-2 -23 -2 -26q0 -6 2 -38t2 -38q0 -27 -19 -119q-8 -37 -24 -96q-6 -10 -17 -35q-4 -14 -16 -45 q-10 -12 -29 -41q-6 -8 -14 -24.5t-14 -24.5q-33 -49 -101 -113q-45 -43 -104 -69q-14 -6 -62 -21q-14 -6 -43 -18q-2 0 -75.5 -18.5t-327.5 -18.5h-6q-12 0 -91 3t-96 3h-61q-131 0 -131 72q0 6 2 34.5t2 32.5q0 20 -3 117.5t-3 108.5zM420 715q0 -193 8 -279q6 -57 33 -78 q46 -36 179 -36h7q37 0 49 2q80 12 142 49q74 45 114 168q27 84 27 139q0 59 -6 90q-6 18 -15 59q-2 14 -8 39q-16 25 -45 72q-20 35 -67 66q-57 45 -72 53q-63 33 -184 33q-14 0 -68 -5q-23 -4 -39 -18q-23 -20 -31 -37q-14 -25 -18 -74v-90q0 -10 -3 -75.5t-3 -77.5z" />
<glyph unicode="E" horiz-adv-x="1024" d="M84 350q0 18 2 62v61q0 4 2 27v27.5v41.5q-2 35 -2 43v37q-2 33 -2 39v141q0 23 2 35q0 4 2 27.5t2 28.5q0 6 -3 42.5t-3 43.5q0 16 2 47.5t2 46.5q0 6 2 53t2 51q0 8 -3 52t-3 53q0 66 10 86q25 51 72 51h39q33 -2 39 -2q8 0 57 2t59 2q8 0 51.5 -2t49.5 -2h76 q23 0 69.5 3t71.5 3q8 0 63.5 -3t65.5 -3q6 0 41 2t41 2q70 0 70 -68v-30q-2 -27 -3 -33q0 -6 3.5 -47t3.5 -49q0 -23 -23 -54q-4 -6 -28.5 -18t-47.5 -12q-4 0 -30 2h-31t-45 -2t-47 -2q-14 0 -23 2q-18 0 -53 4t-53 4q-78 0 -105 -12q-43 -20 -43 -89q0 -76 4 -92 q12 -41 64 -49q43 -6 76 -6q8 0 54 3t56 3q6 0 46 -4t48 -4q14 0 42 2t40 2q47 0 58 -4q39 -27 37 -61q0 -23 -3.5 -57t-3.5 -83q0 -10 -4 -41q-10 -73 -88 -73h-2h-104q-4 0 -27 2h-26h-21q-18 -2 -23 -2q-4 0 -31.5 3t-33.5 3q-10 0 -30.5 -2t-31.5 -2h-16q-20 0 -43 -11 q-37 -16 -37 -86q0 -109 21 -137q29 -39 143 -39q6 0 43 2h40h36q29 -2 35 -2q80 0 108 4q14 2 43 2q63 0 84 -39q14 -29 15 -86v-14q2 -8 6 -27.5t4 -29.5v-53q0 -68 -70 -68q-12 0 -34.5 2t-35.5 2q-23 0 -47 -2q-10 0 -27.5 -2t-21.5 -2q2 0 -47 2l-49 2q-23 0 -88 -2 q-27 0 -62.5 -2t-39.5 -2t-36 2t-53 2q-76 2 -90 2h-65q-16 0 -39 -2h-27q-39 0 -59 18q-33 29 -33 78q0 4 2 29v27q0 12 -2 35.5t-2 35.5v37q0 8 -2 47t-2 45z" />
<glyph unicode="F" horiz-adv-x="937" d="M78 59l3 51q3 52 3 62q0 27 -2 80t-2 133q0 8 2 66v67q0 6 3 49t3 51q0 29 -3 84.5t-3 83.5q0 20 3 139t3 142v61q-2 53 -2 62q0 4 2 37v37v10q0 4 -3 36.5t-3 39.5q0 27 13.5 51t36 30.5t93.5 6.5h29q25 -2 31 -2q4 0 30 2h33h27q18 -2 26 -2q6 0 50.5 2t52.5 2 q6 0 42 -2t42 -2h104q4 0 30 2t32 2h26q18 -2 27 -2q4 0 31 2h32q70 0 70 -80q0 -4 -2 -40t-2 -44q0 -4 2 -29v-30q0 -53 -41 -68q-18 -10 -76 -12q-43 -2 -49 -2q-4 0 -33.5 2t-35 3t-17.5 1h-16t-17 2h-16h-19q-14 -2 -18 -2q-6 0 -43 2h-43q-37 0 -57 -10 q-39 -18 -39 -117q0 -88 49 -117q37 -16 98 -16q8 0 51 2t50 2q4 0 37.5 -3t39.5 -3q4 0 35 4t37 4q43 0 55.5 -15.5t12.5 -48.5q0 -6 -2 -21.5t-2 -23.5v-43q0 -4 -3.5 -30.5t-3.5 -32.5q0 -12 -4 -39q-14 -45 -63 -45h-141q-4 0 -33 2h-33q-94 0 -135 -33q-14 -12 -25 -37 q-14 -35 -14 -112q0 -4 -2 -37t-2 -41v-72v-31q-2 -27 -2 -32q0 -4 2 -27v-27q0 -2 2 -16v-16v-45q0 -59 -49 -64h-51q-6 0 -46 -2t-49 -2h-20q-18 2 -23 2q-2 0 -20 -2h-23q-63 0 -63 61z" />
<glyph unicode="G" horiz-adv-x="1366" d="M45 829q0 39 14 134q12 86 48 149.5t77 114.5q63 78 162 133q25 12 68 33q53 29 92 39q82 22 167 22h7q51 0 88 6h20q14 -2 21 -2q4 0 37 2t39 2q33 0 108 -2q135 -4 197 -53q41 -33 41 -78v-35q-2 -29 -2 -34v-29q0 -6 2 -39t2 -39q0 -51 -53 -51q-43 0 -68 8 q-10 4 -37 8q-6 2 -20.5 3t-22.5 1q-25 0 -63 11q-49 10 -64.5 12t-68.5 2q-2 0 -25 2h-29q-39 0 -90 -14q-20 -4 -82 -23q-18 -6 -57 -31q-72 -45 -102 -102q-12 -20 -35 -84q-14 -59 -15 -160l11 -51q4 -25 10 -45.5t16 -56.5q10 -18 29 -45q12 -16 72 -80q29 -31 112 -72 q70 -35 97.5 -42t119.5 -7q78 0 97 49q10 29 10 82q0 55 -6 80q-10 41 -27 51q-23 14 -100 14q-43 0 -43 56q0 12 6 127v22q-2 20 -2 23q0 82 59 82q4 0 25.5 -2t25.5 -2h68q6 0 34.5 -2.5t33.5 -2.5q8 0 57 4.5t59 4.5q86 0 105 -56q6 -18 6 -127q0 -6 2 -41v-43v-49 q-2 -35 -2 -51q0 -6 2 -47t2 -49v-27q-2 -18 -2 -26q0 -2 2 -21v-23q0 -2 -2 -22.5t-2 -24.5q0 -2 2 -22v-23q0 -2 -3 -67.5t-3 -71.5q-2 -57 -10 -80q-25 -43 -78 -55q-18 -4 -154 -4h-86q-4 0 -33.5 -2t-36.5 -2h-4q-47 0 -147 18q-66 12 -162 49q-20 6 -61 23 q-6 2 -82 50t-90 60q-39 25 -60 45q-10 6 -50 56.5t-56 81.5q-33 68 -70 151q-18 53 -22 96q-4 20 -13 60q-4 29 -4 65q-8 49 -8 86z" />
<glyph unicode="H" horiz-adv-x="1366" d="M78 86q0 8 2 59.5t2 61.5v43q-2 29 -2 43q0 8 2 58t2 61q0 6 -2 83.5t-2 94.5q0 4 2 30.5t2 28.5q4 59 4 148q0 12 -3 85.5t-3 88.5q0 10 3 68.5t3 68.5q0 8 -2 53t-2 53v107q0 76 16.5 95.5t57.5 19.5q16 0 49 -2t49 -2q4 0 21.5 2t19.5 2h14q10 -2 15 -2h34q33 0 41 -2 q35 -16 35 -64q0 -20 -2 -31q0 4 -6 -155q0 -127 8 -160q6 -104 105 -104h102q8 0 54 -3.5t57 -3.5q78 0 123 23q61 31 61 108v56q-2 45 -2 55q0 4 2 31v28q0 8 -3 63.5t-3 65.5q0 49 12 64q16 25 41 25q6 0 17.5 -2.5t17.5 -2.5q12 0 22 2q4 0 13 3h10h27q12 -2 12 -3 q29 -4 26 -4q-2 0 41 7q8 2 23 2q51 0 70.5 -12.5t19.5 -65.5q0 -8 -3 -55.5t-3 -57.5q0 -4 2 -39t2 -43q0 -10 -3 -69.5t-3 -71.5q0 -6 2 -49t2 -51q0 -6 -2 -47.5t-2 -49.5q0 -6 2 -43v-45v-61q-2 -51 -2 -62v-75v-33q-2 -27 -2 -33t2 -31v-30q0 -20 -2 -60.5t-2 -58.5 q0 -10 3 -71.5t3 -74.5v-80q0 -65 -64 -65h-2h-28q-25 2 -29 2q-8 0 -53 -2t-55 -2q-76 0 -101 29q-22 43 -22 67q0 6 3 66q3 58 3 71v31q-2 27 -2 33q0 4 2 35v37q0 90 -4 122.5t-39 67.5q-4 2 -72 12h-57q-2 0 -19 2h-20h-66q-4 0 -30 2h-31q-74 0 -109 -18 q-57 -31 -57 -109q0 -4 2 -16v-16v-21q-2 -14 -2 -18t2 -25v-26q0 -8 -2 -53.5t-2 -53.5q0 -6 2 -47v-49q0 -63 -12 -86q-14 -29 -60 -31h1q0 2 -81 2h-65q-57 -2 -70 -2q-47 0 -53 33q-8 8 -8 51z" />
<glyph unicode="I" horiz-adv-x="512" d="M72 96q0 23 4 69t4 68q0 16 -2 116t-2 120q0 2 2 16.5t2 18.5t-3 25.5t-3 25.5q0 10 4 80t4 84q0 25 -3 72.5t-3 70.5v84q0 8 3 50t3 48q0 16 -2 47t-2 46q0 6 3 37.5t3 35.5q0 10 -4 69.5t-4 70.5q0 29 16.5 58.5t38.5 31.5h19q16 -2 18 -2q6 0 37 2h35h41q29 -2 41 -2 q2 0 22 2h23q23 0 41 -23q24 -30 24 -61v-39q-2 -31 -2 -37q0 -4 2 -35v-35t-2 -49t-2 -51q0 -23 2 -71t2 -72v-45q-2 -37 -2 -45v-78v-45q-2 -37 -2 -45t2 -62.5t2 -64.5v-70q-2 -61 -2 -70q-4 -37 -4 -55q0 -6 2 -43t2 -45v-168q0 -4 3 -34.5t3 -37.5q0 -27 -20.5 -43 t-42.5 -16q-2 0 -24.5 2t-26.5 2q-6 0 -41 -2t-41 -2q-4 0 -28 2t-28 2q-2 0 -21.5 -2t-23.5 -2q-59 0 -65 51q-2 4 -2 45z" />
<glyph unicode="J" horiz-adv-x="724" d="M-4 96q0 57 6 116.5t6 70.5q0 37 29 47q20 6 108 6q18 0 42 7t39.5 18.5t29.5 44.5q27 63 27 129v47q0 16 2 45.5t2 44.5q0 6 -2 35.5t-2 33.5q0 6 2 35t2 33v31q0 4 2 20v21q0 -10 -2 45q-4 90 -4 110q0 10 -2 60.5t-2 58.5q0 6 2 49v49q0 10 -2.5 62.5t-2.5 60.5 q0 70 125 70h13q12 -2 18 -2q29 -4 33 -4q16 0 48 4t48 4q23 0 46.5 -18.5t23.5 -47.5q0 -4 -2 -37.5t-2 -39.5q0 -8 2 -56.5t2 -58.5v-49q-2 -43 -2 -51q0 -4 2 -29t2 -29v-16q-2 -12 -2 -17q0 -2 2 -16v-18v-27q-2 -23 -2 -27q0 -82 4 -118q0 -35 -3 -102.5t-3 -102.5 q0 -4 2 -35v-38v-21q-2 -16 -2 -23v-61q0 -23 -4 -82q-6 -94 -39 -154q-55 -100 -113 -131q-37 -20 -102 -33q-41 -8 -111 -8h-67h-62q-51 -2 -61 -2q-74 0 -74 96z" />
<glyph unicode="K" horiz-adv-x="1193" d="M72 70q6 113 6 112q0 12 -2 88t-2 90v109q0 4 3 26.5t3 26.5q0 12 -4 37v35q-2 27 -2 37q0 6 2 14v14q8 33 8 58q0 10 -2 28.5t-2 26.5q0 4 2 21v20q0 14 -4 43q0 8 -2 86t-2 88q0 6 2 45v45t-2 67.5t-2 72.5q0 4 2 28v27q0 6 -2 30.5t-2 28.5q0 66 55 66q8 0 25.5 -2 t25.5 -2l35 2q35 2 41 2h14q10 -2 13 -2q35 8 75 8q33 0 49 -21q20 -27 21 -45q0 -10 -4 -30v-56q-2 -51 -2 -57q0 -4 2 -37t2 -39v-59q-2 -49 -2 -60q0 -14 4 -41q6 -35 31 -34q12 0 28 14q49 43 152 186q27 37 80 113q25 37 80 111q6 10 20 24q33 33 86 33q4 0 24.5 -3 t24.5 -3q6 0 38 3t36 3q6 0 39 -2t39 -2q2 0 16 2h19q55 0 55 -47q0 -31 -35 -74q-12 -14 -35 -43q-37 -51 -88 -123q-25 -29 -73 -88q-4 -6 -29 -39l-33 -49q-14 -20 -45 -59q-10 -14 -29 -43q-30 -44 -30 -85v-3q0 -25 16 -62l51 -102l12 -37q2 -4 37 -60q18 -37 58 -110 q20 -33 57 -100q23 -45 45 -82q25 -49 57 -115q35 -55 35 -80q0 -47 -43 -47q-4 0 -29.5 2t-31.5 2t-45 -2t-47 -2q-4 0 -35 2t-37 2q-4 0 -31.5 -3t-34.5 -3q-27 0 -40 14.5t-58 110.5q-10 27 -26 63q-6 6 -15 21q-4 6 -8 18q-4 6 -10 17q-2 4 -15 32l-36 72q-20 35 -50 82 q-8 16 -26 51q-39 66 -74 66q-49 0 -53 -76v-21q2 -20 2 -22q0 -4 -3 -38t-3 -40t2 -40t2 -42v-22q-2 -18 -2 -23q4 -92 5 -98t3 -19.5t2 -15.5q0 -27 -16.5 -52.5t-38.5 -27.5q-12 0 -37 -4q-2 0 -19 2h-18t-35 -2t-37 -2q-4 0 -26.5 2t-26.5 2t-23.5 -3t-23.5 -3 q-14 0 -27 6q-28 22 -28 45q0 14 2 21z" />
<glyph unicode="L" horiz-adv-x="937" d="M76 1374q0 66 63 66h127q16 0 47 2t47 2q74 0 74 -74q0 -4 -3 -39t-3 -41v-61q0 -20 -2 -60.5t-2 -60.5v-123q0 -4 2 -28.5t2 -28.5q2 -141 2 -144q0 -14 -5 -100t-5 -102q0 -12 4 -74q6 -70 6 -76q4 -76 51 -90q14 -4 84 -4h33q29 -2 33 -2q6 0 38.5 2t39.5 2 q4 0 37.5 -2t41.5 -2q4 0 32 2t34 2q61 0 61 -64q0 -31 -2 -49q0 -2 -4 -32.5t-4 -36.5t4 -42t4 -42q0 -74 -88 -74q-6 0 -43 2h-45h-53q-35 -2 -53 -2q-8 0 -60.5 2t-62.5 2h-33q-23 -2 -35 -2q-2 0 -22 2h-23.5h-27.5q-23 -2 -27 -2q-6 0 -44 2t-46 2q-6 0 -43 -3t-45 -3 q-84 0 -84 106q0 8 3 60.5t3 62.5v119q0 6 2 45v45q0 27 -3 77t-3 77q0 102 2 139t2 55v43q-2 37 -2 45q0 12 2 39v39q0 8 -3 58.5t-3 60.5q0 4 2 30.5t2 33.5q0 2 -2 22.5t-2 24.5v55q0 6 2 31v30q0 4 -2 37t-2 39z" />
<glyph unicode="M" horiz-adv-x="1536" d="M76 1370q0 43 49 68q10 6 25 6h14l2 -2h10q6 0 51 2h47q2 2 41 4q39 0 59.5 -18.5t71.5 -102.5q25 -37 70 -104q8 -12 23 -41l30 -41q20 -29 49 -68l93 -123q52 -71 76 -71h1q29 0 66 63q57 80 72 105l24 40q16 18 43 62l19 35q14 27 41 76q14 33 47 96q12 20 37 61 q27 27 59 27q8 0 52 -2t52 -2q10 0 28 2t26 2q4 0 23.5 -2t21.5 -2q27 0 47 -21.5t20 -42.5q0 -2 -2 -30.5t-2 -32.5q-2 -47 -2 -113v-137q0 -6 -4 -45t-4 -47q0 -12 4 -90t4 -95v-38q-2 -33 -2 -39q0 -12 3 -94.5t3 -98.5v-72q-2 -61 -2 -73v-27q-12 -86 -12 -106 q0 -6 5 -51.5t5 -53.5v-22q-2 -18 -2 -23v-20q0 -70 -98 -70h-47q-39 2 -47 2h-58q-2 0 -22 -2h-25q-47 0 -47 59q0 4 -2 28t-2 28q0 6 2 45t2 47v37q-2 33 -2 37q0 6 2 40.5t2 40.5v29q-2 20 -2 29q0 4 2 34.5t2 36.5v70q0 4 -2 19.5t-2 17.5q0 10 -11 22.5t-24 12.5 q-37 0 -88 -64q-16 -23 -55 -65q-18 -16 -53 -60q-46 -69 -91 -69h-1q-8 0 -23.5 7t-48.5 46q-43 66 -105 131q-8 8 -22 23q-8 8 -23 28q-57 84 -86 84t-43 -14q-20 -35 -20 -84v-109q0 -6 2 -43v-43t-5 -47t-5 -49q0 -12 2 -93t2 -97q0 -4 2 -29v-31q0 -59 -66 -59 q-2 0 -20.5 2t-30.5 2q-27 2 -55 2q-2 0 -17 -2h-26q-33 -4 -43 -4q-51 0 -68 35q-12 25 -12 43q0 8 2 59v57.5v36.5q-2 29 -2 33q0 23 3 67t3 64v62q-2 53 -2 63v80v37q-2 33 -2 39q0 14 2 41.5t2 42.5v20q-2 19 -2 23t2 32.5t2 34.5t2 47v47.5v26.5q-2 23 -2 29q0 4 2 22 v21q0 35 -4 51v68q0 18 -5 105t-5 89z" />
<glyph unicode="N" horiz-adv-x="1323" d="M68 1362q0 35 4 47q10 33 41 33q2 0 20.5 -3t22.5 -3h12q6 2 18 2h31l4 -2h12q6 0 23 2h27q47 0 65 -6q6 -2 18.5 -4.5t36.5 -6.5q18 -6 36 -25.5t124 -189.5q12 -18 37 -54t59 -99q10 -20 58 -88q53 -76 104 -181q16 -29 41 -71.5t31 -42.5q18 0 18 88q0 4 2 28v29v19 q-2 12 -2 18t2 32.5t2 30.5t-3 37t-3 39t3 42t3 44t-3 51t-3 50v149q0 2 -2 25.5t-2 29.5q0 37 33 50q6 2 55 2h54l37 -2l36 -2q8 0 21 2h20q2 0 17.5 2t19.5 2q53 0 53 -76q0 -6 -3 -46t-3 -48q0 -6 2 -47v-49.5v-65.5q-2 -55 -2 -66v-67q0 -23 -2 -62q0 -4 -3 -55t-3 -61 v1l4 -106v-158q0 -25 2 -94v-94v-14q-2 -10 -2 -15q-4 -29 -4 -39q0 -4 2 -26v-29q0 -10 6 -72.5t6 -74.5q0 -70 -75 -70q-23 0 -33 2h-19q-16 -2 -20 -2t-35 2t-37 2q-4 0 -24.5 -2t-24.5 -2q-51 0 -94 88q-16 35 -45 74q-39 55 -66 104q-35 61 -73 127q-8 14 -29 39 q-29 51 -68 101q-23 37 -67 112q-18 43 -64 111q-25 18 -35 18q-8 0 -12 -4q-12 -10 -14 -35q-6 -53 -6 -106q0 -4 2 -29v-27v-26q-2 -23 -2 -27v-47v-24q-2 -20 -2 -25q0 -18 2 -32.5t2 -86.5q0 -4 2 -32.5t2 -34.5v-72q0 -14 1 -19.5t5 -34t4 -34.5q0 -20 -20.5 -42 t-32.5 -24h-39q-4 0 -29.5 -4t-31 -5t-46.5 -1q-4 0 -34.5 -2t-36.5 -2q-35 0 -57.5 15.5t-22.5 50.5v108q0 8 2 57.5t2 59.5v28q-2 25 -2 31v51q0 6 2 47t2 50q0 4 -2 28.5t-2 28.5q-2 29 -2 53q0 96 4 159.5t4 57.5q0 20 -4 60.5t-4 54.5v64q2 59 2 65q0 8 -2 61.5 t-2 63.5q0 4 2 23v23v17q-2 15 -2 17v26q0 4 -3 30t-3 32z" />
<glyph unicode="O" horiz-adv-x="1449" d="M45 756q0 33 10 73q14 96 39 156q18 41 39 88q8 12 25 37q18 37 47 84q12 14 37 41q12 16 37 45q12 12 40 33q8 6 20.5 17t18.5 16q27 25 91 49q14 4 43 14q18 8 55 23q18 6 92 15t84 9t60.5 -8t54.5 -8q70 -8 102 -21q70 -31 145 -69q27 -12 107 -93q20 -27 65 -71 q16 -18 43 -70q6 -16 21 -49q14 -25 39 -78q12 -29 20 -76q20 -119 21 -256q0 -59 -21 -133q-33 -119 -43 -143q-29 -72 -84 -148q-68 -92 -129 -129q-20 -8 -61 -28q-10 -8 -37 -23q-49 -31 -113 -45q-18 -4 -59 -10q-76 -14 -100 -14q-82 0 -115 4q-16 2 -45 10 q-35 4 -55.5 9t-37 12.5t-59.5 23.5q-31 10 -49 23.5t-55 39.5q-66 47 -88.5 69t-67.5 81q-18 25 -61 96q-10 16 -29 51q-25 57 -35 142q-12 107 -12 211zM381 737q0 -10 4 -80q0 -6 18 -73q20 -74 42 -112t69 -81q37 -35 50.5 -39t37.5 -10q14 -6 42 -13t58 -7h19 q14 -2 18 -3q25 0 60 3q49 10 123 65q29 20 96 113q6 12 33 116q10 41 10 78v33q-2 23 -2 33v26q0 25 -2 35q-14 68 -49 123q-14 18 -45 53q-14 18 -43 50q-39 31 -111 53q-27 8 -107 8q-35 0 -51 -4q-51 -12 -86 -35q-63 -41 -90 -72q-39 -45 -63 -98q-2 -6 -19 -84 q-4 -20 -12 -65v-13z" />
<glyph unicode="P" horiz-adv-x="1236" d="M72 1307q0 84 55 114q31 16 78 17q2 0 24.5 2t26.5 2h86q2 0 37 2t40 2t75.5 3t74.5 3q-2 0 72 -2q133 -4 229 -37q53 -18 119 -57q57 -35 80 -53q39 -33 82 -103t53 -115q2 -31 10 -88q8 -45 9 -116q0 -92 -43 -191q-23 -51 -25 -59q-10 -14 -35 -45q-6 -8 -17 -24.5 t-18 -24.5q-18 -20 -83.5 -63.5t-100.5 -55.5t-143 -29q-39 -6 -94 -6q-6 0 -49.5 4t-51.5 4q-51 0 -61 -2q-45 -8 -62 -29q-23 -20 -26.5 -57t-3.5 -33l4 -36q4 -35 5 -44.5t1 -37.5q0 -4 2 -30t2 -30q0 -66 -37 -84q-23 -10 -106 -10q-6 0 -50.5 2t-52.5 2q-4 0 -25.5 -2 t-25.5 -2q-18 0 -35.5 22.5t-17.5 55.5q0 14 3 97t3 99q0 6 -2 42t-2 42t2 41v39v35q-2 31 -2 35q0 12 3 87t3 89v43q0 41 4 59q0 6 2 15v14q-2 -6 -2 41q0 6 2 31v30q0 6 -3 37t-3 35q0 76 2 88v31q-2 27 -2 31v28q0 10 -5 69.5t-5 72.5zM422 891q0 -25 4 -37q0 -29 4 -47 q14 -66 59 -92q6 -6 41 -15q49 -14 103 -14q68 0 108 12l39 19q18 8 45 26q4 8 16.5 20.5t30.5 37.5q2 8 9 24q16 63 16 129v11q-16 45 -35 92q-8 16 -28 33q-39 35 -59.5 45t-74.5 20q-20 4 -100 6q-2 0 -22.5 2t-24.5 2q-10 0 -39 -8t-37 -14q-14 -6 -26 -27 q-20 -31 -24.5 -58.5t-4.5 -131.5v-35z" />
<glyph unicode="Q" horiz-adv-x="1449" d="M45 764q0 33 10.5 73t34.5 142q16 41 27.5 66.5t42.5 72.5q18 33 47 78q10 10 29.5 33.5t44.5 54.5q23 18 65 53q53 41 100 58q33 12 99 37q37 12 184 24h6q80 -12 78 -12q47 -6 141 -31q10 -4 64 -31q27 -10 76 -34q45 -33 102 -95q12 -16 37 -45q10 -8 27 -26 q27 -27 40 -62q2 -6 19 -47q10 -18 31 -59q31 -61 39 -162q0 -8 5 -95t5 -89q0 -141 -84 -336q25 -4 98 -4q33 -2 33 -37q0 -4 -2 -38t-2 -40q0 -4 2 -25.5t2 -23.5v-25q-2 -20 -2 -24q0 -2 2 -21.5t2 -23.5q0 -43 -49 -43q-16 -4 -25 -4q-41 -8 -92 -9q-63 0 -102 19 q-29 12 -84 59q-10 -2 -25.5 -10t-39 -19.5t-64.5 -29.5q-16 -8 -52 -21q-53 -10 -116 -22q-45 -4 -66 -4q-68 0 -102 6q-14 4 -43 10q-20 2 -58 10q-18 8 -59 25q-31 8 -96 43q-23 16 -70 49q-102 70 -168 193l-18 34q-6 14 -23 41q-49 98 -49 320v22q-2 21 -2 25zM381 735 q0 -51 6 -88q6 -25 15.5 -59.5t15.5 -59.5q4 -12 31 -61q14 -25 55 -65t56 -45t40 -13q10 -2 27 -8q37 -14 114 -14q68 0 113 24q-59 63 -59 90q0 8 13 35t28 41q12 8 20 12q18 16 29 17q39 0 76 -35q25 -23 38 -23q2 0 5 2h4q8 4 22 52q2 18 12 51q4 23 11 47q8 39 8 59v35 q-2 23 -2 33v29q0 18 -2 28t-21.5 61.5t-25.5 61.5q-16 20 -52 62q-12 16 -40 45q-16 12 -56 30q-66 31 -182 31q-12 0 -18 -2q-20 -4 -58 -14q-27 -8 -80 -47q-41 -31 -80 -93q-6 -10 -20 -32q-10 -12 -25 -62q-2 -14 -6 -41q-12 -72 -12 -84z" />
<glyph unicode="R" horiz-adv-x="1150" d="M72 78q0 14 4 44t4 46v41q-2 35 -2 43q0 27 4 78t4 76q0 16 -2 47.5t-2 46.5v65q-2 53 -2 64q0 4 2 35v36q0 6 -2 43t-2 45v-1l2 83q4 66 10 201v84q-2 74 -2 82t-2 43t-2 41q0 61 10 88q18 43 74 43q4 0 26.5 -2t26.5 -2t29 2h28h41q37 -2 46 -2h67q4 0 37 2h37 q12 0 41 2h39q94 0 127 -8q20 -2 104 -27q47 -20 95.5 -45.5t86.5 -64.5q29 -41 64 -88q8 -12 27 -60q20 -59 22 -98v-23q-2 -20 -2 -22q0 -6 2 -41t2 -41q0 -113 -51 -211q-25 -47 -90 -117q-80 -86 -80 -110q0 -29 37 -58q63 -49 112 -63q12 -2 35 -10q31 -18 31 -62v-22 q-2 -14 -2 -23q0 -4 2 -26.5t2 -26.5q0 -6 -3 -44t-3 -46q0 -2 2 -21v-22q0 -41 -39 -60q-25 -12 -47 -12q-90 0 -184 78q-82 68 -131 125l-24.5 24.5t-37.5 26.5q-20 20 -45 37q-55 37 -102 37q-10 0 -28.5 -11.5t-33 -41t-14.5 -89.5q0 -18 8 -60t8 -67q0 -57 -55 -57 q-12 0 -41 5t-43 5q-45 -2 -43 -2q-14 -2 -47 -2h-37q-31 -2 -37 -2q-61 0 -61 72zM416 825q0 -8 3 -56t3 -58q2 -23 6 -33q10 -20 31 -27q10 -4 59 -6q14 0 39 4q12 2 47 17q10 4 29 12q8 8 26 22q10 8 29 24.5t53 78.5q41 74 41 151q0 43 -22 84q-31 57 -90 76 q-47 14 -80 14q4 1 -86 9q-8 0 -34 -11.5t-38 -38.5q-16 -39 -16 -65q0 -6 2 -49t2 -51q0 -6 -2 -47t-2 -50z" />
<glyph unicode="S" horiz-adv-x="894" d="M55 1077q0 84 19 137q31 90 92 144q80 68 203 88q90 14 161 14q113 0 205 -28q45 -14 51 -41q-2 6 -2 -48q0 -2 2 -22v-25v-43q0 -4 2 -28v-29q0 -37 -22.5 -53.5t-58.5 -16.5q-10 0 -36 6.5t-145 16.5q-29 0 -65 -21q-43 -23 -43 -73q0 -43 41 -92q80 -55 116 -89 q6 -8 23 -22q6 -4 23 -12q20 -14 43 -45q18 -14 51 -43q27 -25 65 -74q70 -111 70 -256q0 -86 -14 -119q0 -2 -18.5 -46t-20.5 -46q-6 -8 -45 -59q-53 -68 -101 -93q-55 -29 -162 -65q-51 -2 -122 -6q-41 -2 -35 -2q-10 0 -51 4q-47 6 -52 6q-55 4 -73 8q-29 6 -58 21 q-35 18 -35 47q0 4 3 28v32v24l-3 24q0 6 3.5 41t3.5 43q0 2 -2 22.5t-2 24.5q0 47 100 47q43 0 84 -14q10 -4 33 -10q90 -2 92 -2q41 0 67 14q49 27 50 94q0 25 -11 52q-12 35 -55 67q-35 35 -47 43q-23 14 -53 35q-74 53 -136 121q-39 35 -57 63q-37 57 -53 115 q-25 90 -25 141z" />
<glyph unicode="T" horiz-adv-x="1024" d="M4 1196q2 86 2 94v39v49q0 66 84 66q8 0 50 -2t48 -2q8 0 60 2h59q6 0 52.5 -2t56.5 -2q8 0 50 2t48 2h25q20 -2 22 -2q4 0 25.5 2t25.5 2h21q16 -2 18 -2t25 2h26q4 0 28 -2t28 -2t22 2h21q6 0 39.5 -3t40.5 -3q4 0 29.5 3t31.5 3q12 0 29.5 -6t25 -11.5t12.5 -20.5 t5 -79q0 -6 2 -41v-41v-29q0 -2 2 -16v-16q0 -53 -64 -68q-12 -2 -114 -2q-76 0 -107 -29q-20 -20 -31 -39q0 -14 -8 -71q-6 -43 -6 -133q0 -4 2 -32t2 -34q0 -4 -2 -29.5t-2 -31.5q0 -8 3 -51.5t3 -67.5v-62q0 -4 2 -33.5t2 -35.5q0 -14 -3 -47t-3 -49q0 -6 3 -43t3 -45 v-86q0 -4 -2 -29t-2 -29t2 -32.5t2 -34.5q0 -66 -96 -66h-57h-25q-23 -2 -26 -2q-4 0 -28 3t-28 3q-2 0 -19.5 -2t-21.5 -2q-35 0 -49 49q-6 20 -4 41v25q0 12 2 35.5t2 35.5v183q0 8 -2 62t-2 65q0 6 3 41.5t3 44.5v26q-2 18 -2 27q0 6 3 33.5t3 31.5q0 6 -3 47.5t-3 49.5 q0 6 2 55v57q0 4 -2 39t-2 41q0 2 2 15v12q0 57 -43 84q-33 20 -143 20q-12 0 -38 -3t-38 -3q-27 0 -54.5 22.5t-27.5 57.5z" />
<glyph unicode="U" horiz-adv-x="1366" d="M78 1155q0 8 2 62v61v84q0 10 14 43q18 43 58 43q-4 0 36 -6q12 -2 43 -2l37 2l37 2q72 0 105 -8q34 -16 34 -50q0 -4 -4 -32.5t-4 -169.5q0 -8 2 -62.5t2 -64.5q0 -6 -2 -49t-2 -52q0 -4 2 -28v-31q0 -4 -3 -38t-3 -42t2 -63.5t2 -65.5v-18q-2 -16 -2 -21q2 -12 6 -51 q0 -20 2 -31q8 -113 29 -153q27 -51 76 -78q61 -33 149 -33q37 0 82 12q68 18 106 69.5t40 113.5q0 4 4 51q2 41 2 51v31q-2 25 -2 28v54q0 4 2 20.5t2 18.5q0 6 -2 32.5t-2 30.5q0 45 4 82q8 74 8 86q0 4 -5 70.5t-5 74.5t2 65.5t2 70.5v39q-2 35 -2 43q0 47 16.5 72.5 t69.5 25.5h37q2 -2 4 -2h16q8 0 65.5 3t67.5 3q35 0 54 -23q27 -47 26 -69v-72v-29q-2 -25 -2 -28v-37q2 -20 2 -76q0 -2 -2 -22.5t-2 -24.5t2 -27v-28q0 -6 -3 -44t-3 -44q0 -12 2 -39q4 -53 4 -84q0 -102 -4 -201q0 -2 -2 -31.5t-2 -36.5q0 -2 2 -18v-20q-2 -80 -2 -86.5 t-16 -110.5q-6 -35 -50 -104q-31 -49 -75 -82q-55 -41 -119 -72q-43 -20 -103 -35q-78 -18 -165 -18h-97q-57 0 -159 16q-88 12 -117 23l-58 28q-76 37 -112 82q-16 18 -51 70q-14 27 -39 82q-6 25 -17 73q-18 80 -20 146v37q2 33 2 37v32q-2 23 -2 33q0 4 2 23v22v23 q-2 18 -2 22t2 31v29v34q-2 25 -2 35q0 8 2 29v29v69q0 6 2 35v35q0 6 -3 46t-3 48z" />
<glyph unicode="V" horiz-adv-x="1110" d="M8 1378q0 68 68 68q2 0 22.5 -2t24.5 -2t30.5 2t32.5 2h23q18 -2 22 -2t23 2h22q53 0 68 -37q8 -41 21 -96q12 -41 32 -125q8 -53 21 -127q4 -29 12 -84q8 -23 21 -68q4 -16 10 -47q6 -20 14 -63q2 -25 10 -72q4 -14 13 -43q2 -10 12 -63q20 -106 43 -107q8 0 11 8 t11.5 27.5t33 111t24.5 97.5l12 73q25 104 49 218q6 20 15 57q6 51 18 121q10 39 27 119q8 57 18 73q14 27 51 27q18 0 31 -2h18q10 -2 11 -2q2 0 10 2h16q12 2 27 2h27l2 -2h10q2 0 22.5 3t24.5 3q59 0 72 -35q8 -8 8 -45q0 -27 -12 -57q-14 -47 -22.5 -99.5t-29.5 -150.5 q-14 -43 -37 -133q0 -31 -5 -46.5t-13 -41.5q-2 -14 -8 -45q-2 -10 -8 -29q-12 -61 -33 -141q-6 -18 -19 -54q-14 -78 -36 -184q-10 -49 -27 -117q-8 -27 -25 -79l-12 -54q-4 -16 -8 -29.5t-9 -37.5q-5 -26 -37 -50q-28 -21 -56 -21q-5 0 -9 1h-43q-37 -2 -45 -2t-26 2h-29 q-2 0 -25.5 -2t-25.5 -2h-64q-4 0 -12 -2h-10q-8 -2 -25 -2q-43 0 -67 37q-59 90 -84 284q0 16 -9 43q-2 10 -8 37q0 4 -14 62q-2 8 -8 45q-2 6 -19 63q-27 88 -26 111q-4 12 -9 45q-16 57 -24 110q-6 31 -14 72q-8 31 -23 94q-4 20 -12 62q-4 29 -15 65q-4 14 -10 43 q-10 39 -25.5 111t-15.5 100z" />
<glyph unicode="W" horiz-adv-x="1662" d="M-2 1378l2 25q6 10 20 31l21 6q27 -2 53 0l29 -6q51 0 82 4q20 0 80 -4l32 -19l21 -33q23 -96 29 -151q4 -31 16 -98q12 -41 57 -215q8 -29 29 -119q8 -33 29 -131q16 -74 22 -113q4 -18 19 -70l6 -24l18 -17q10 14 29 74q2 8 14 60q9 28 25 108q14 51 37 119q2 18 12 69 l2 25v11q0 29 -8 75q-12 49 -23 100l-14 82l-19 62q-2 25 -16 119q-4 18 -10 57l26 27l35 8q109 -10 152 -10l37 4h35l24 -7q10 -10 29 -38q4 -20 12 -76l19 -72l10 -94q8 -37 41 -189q14 -66 37 -184q4 -25 22 -143q6 -35 12.5 -63.5t8.5 -43.5q10 -29 12 -57l8 -16l12 2 q20 51 29 75q2 16 14 64q2 20 7.5 60t21.5 116q6 49 49 229q12 41 35 129q10 45 25 117q14 59 32 156l15 20l16 8q25 2 88 7l39 4q23 -2 68 -6q20 0 59 2q18 -14 37 -35l4 -23q0 -29 -21 -112l-32 -160q-6 -27 -21 -80q-2 -16 -14 -63q-4 -14 -21 -78q-20 -100 -65 -289 q-16 -57 -55 -240q-14 -59 -29 -137q-10 -29 -37 -127l-10 -37l-17 -22q-56 -31 -93 -31h-5l-57 2q-20 1 -47 1q-54 0 -133 -3l-27 -4q-25 0 -61 18l-19 21q-25 70 -45 168q-6 20 -23 73q-6 18 -16 58l-16 14l-15 -16q-4 -12 -18 -45q-4 -18 -21 -72q-16 -61 -22 -92 l-18 -74l-27 -35l-41 -18q-50 6 -83 6h-15l-68 -4l-59 4q-29 -2 -62 -2q-10 8 -39 29l-28 47q-16 100 -54 270l-45 170l-24 146q-8 43 -47 190q-16 61 -43 190q-29 145 -66 293z" />
<glyph unicode="X" horiz-adv-x="1193" d="M0 47q0 27 61 125q10 14 29 43q37 57 107 176q10 20 30 62q4 8 29 49q4 6 11 21.5t12 21.5q16 33 31.5 54.5t39.5 59.5q37 61 37 66q0 10 -18 37q-2 2 -23.5 40t-25 45l-11.5 23q-4 8 -14 23q-12 25 -41 74q-70 113 -102 186q-23 47 -62 104q-10 16 -31 50q-39 59 -39 86 q0 51 50 51h14q12 -2 20 -2q29 -4 35 -4q29 0 88.5 3t87.5 3q43 0 67 -21.5t67 -115.5q8 -20 26 -60l25 -41q16 -27 28 -53q39 -80 76 -80q18 0 74 105q16 31 37 67q2 4 18 27q2 6 25.5 47t29 51t13.5 27q20 39 57 47q4 2 88 2q4 0 31 -2t31 -2t28.5 2t28.5 2h22 q20 -2 25 -2q2 0 18 2h19q43 0 43 -43q0 -27 -16 -55q-31 -43 -86 -131l-84 -144q-23 -39 -41 -63q-23 -31 -72 -115q-53 -109 -80 -125q-4 -4 -12 -14.5t-8 -32.5q0 -16 20 -41q47 -59 109 -156q20 -33 71 -116q16 -23 49 -74q18 -35 43 -82l41 -68l50 -69q30 -42 30 -78 q0 -39 -32 -39q-2 0 -21 2h-20.5h-79.5q-4 0 -38 2t-40 2q-4 0 -33 -2t-35 -2q-37 0 -67 33q-45 47 -78 125q-25 39 -60 90q-10 16 -28.5 49t-47 75t-38.5 42q-18 0 -37 -43q-10 -20 -113 -217q-14 -43 -63 -131q-23 -23 -88 -23q-4 0 -23 2h-21h-22q-18 -2 -22 -2 q-2 0 -23 2h-24q-6 0 -38 -3t-36 -3q-33 0 -55.5 17.5t-22.5 31.5z" />
<glyph unicode="Y" horiz-adv-x="1236" d="M0 1407q0 41 51 41q14 0 25 -2h14q8 -2 10 -2t50 2l47 2h32q27 -2 31 -2q6 0 17.5 2t17.5 2q25 0 50.5 -10t49.5 -60q10 -25 31 -73q20 -37 57 -105q35 -84 84 -201q40 -75 60 -75q16 0 30 24q6 8 9 21l12 18q25 49 39 96q8 27 41 101q8 18 24.5 54t38.5 87q27 66 47 96 q23 25 70 25q-12 0 27 -2t135 -2q4 0 35.5 2t38.5 2q63 0 63 -27q0 -31 -31 -88q-10 -25 -35 -76q-6 -12 -18 -39.5t-35 -76.5q-35 -78 -98 -199q-12 -18 -37 -59q-6 -14 -18.5 -45t-20.5 -46.5t-22 -41.5q-20 -37 -45 -91q-6 -10 -15 -30q-67 -145 -67 -197q0 -6 2 -26v-27 q0 -6 -2 -43t-2 -45q0 -4 3 -39t3 -43v-41q-2 -35 -2 -43q0 -4 2 -28.5t2 -28.5q0 -27 -17.5 -48.5t-42.5 -21.5q-2 0 -20.5 3t-22.5 3q4 0 -41 -2h-71q-4 0 -40 -2t-42 -2q-29 0 -51 31q-18 25 -19 47q0 31 6 55v31q-2 25 -2 28q0 6 3 41t3 41q0 -4 -4 43q-2 10 -2 35v72 q-2 12 -6 41q0 16 -6 49q-6 12 -18 39q-4 12 -15 33l-18 37q-20 49 -58 133q-12 20 -34 61q-10 25 -33 74q-14 25 -43 76q-18 35 -49 108q-14 27 -43 78q-10 25 -31 70q-37 76 -53 102q-2 2 -7.5 12.5t-11.5 26.5q-12 25 -12 45z" />
<glyph unicode="Z" horiz-adv-x="1110" d="M8 113q0 45 33 90q25 33 42 62.5t50 86.5q6 12 39 60q29 41 82 141q29 47 82 143q31 51 72 121q12 25 38 70l37 49q16 33 21 37q66 94 65 123q0 34 -63 34h-4q-8 0 -27.5 -2t-30.5 -2q-4 0 -27.5 2t-27.5 2q-12 0 -37.5 -2t-38.5 -2q-6 0 -39.5 4.5t-40.5 4.5 q-4 0 -46 -4.5t-50 -4.5q-31 0 -49 23q-29 29 -29 47q0 4 2 36t2 38q0 4 -2 22.5t-2 20.5v59q0 41 12.5 53.5t37.5 12.5h26q2 0 2 -2h13q6 0 34.5 3t32.5 3h25q16 -2 24 -2q4 0 37 3t39 3t41 -2t43 -2q4 0 37 2h37h41q27 -2 39 -2q4 0 30 2h31q4 0 32.5 -2t35.5 -2 q4 0 25.5 2t25.5 2h18q14 -2 17 -2q4 0 24.5 2t22.5 2q4 0 24.5 -2t24.5 -2q8 0 27 2h26h23q2 0 10 2h16q12 2 27 2q57 0 57 -62q0 -86 -24.5 -120.5t-67.5 -112.5q-12 -20 -42 -69.5t-69 -114.5l-32 -56q-6 -10 -28.5 -44.5t-53.5 -86.5q-12 -18 -38 -59t-58 -100 q-12 -18 -35 -60q-6 -12 -19 -39q-6 -6 -20 -32q-25 -39 -31 -54q-29 -49 -29 -65q0 -29 43 -35q4 0 25 2h25q8 0 65 -5t68 -5q8 0 58 4t60 4q2 0 24 -2t26 -2q49 0 53 2t12 4h12l29 -2q20 -6 32.5 -27.5t12.5 -50.5q0 -4 -2 -30.5t-2 -32.5q0 -8 2 -59.5t2 -61.5 q0 -78 -74 -78h-47q-41 2 -49 2h-168q-8 0 -64.5 -2t-66.5 -2q-8 0 -59 3t-62 3l-61 -2q-62 -2 -133 -2h-41q-35 2 -41 2q-8 0 -54 -3t-57 -3q-33 0 -71 35q-16 14 -17 45v20q-2 16 -2 19z" />
<glyph unicode="[" horiz-adv-x="641" d="M90 -47q0 33 6 63q0 6 2 66q0 4 -2 21.5t-2 19.5q0 4 2 22v21v65v19q-2 16 -2 20q0 6 2 51.5t2 53.5q0 10 -2 31.5t-2 33.5q0 4 2 28t2 30v47v49q0 16 -2 47t-2 45v80v39q-2 33 -2 37q0 12 4 88t4 90q0 12 -3 92t-3 96q0 4 2 39v43q0 4 -2 38t-2 40q0 88 49 88 q2 0 17.5 -2t19.5 -2t21 2h18q20 0 57 -2t56 -2q8 0 45 2t43 2q41 2 61 0h43q31 0 45.5 -12t14.5 -53v-29q0 -8 -2 -24.5t-2 -24.5q0 -12 4 -41v-45q0 -25 -9.5 -29t-37.5 -4h-95q-57 0 -57 -37q-2 16 -2 -117v-108q0 -4 2 -10v-13v-186q0 -29 -2 -106.5t-2 -108.5 q0 -8 3 -62.5t3 -64.5q0 -8 -2 -60.5t-2 -62.5q0 -6 2 -43v-45q4 -37 35 -37h24q10 0 30 -2t30 -2q4 0 16 2h14q47 0 48 -61q2 -18 2 -76q0 -4 2 -29v-31q0 -61 -47 -61h-23q-20 2 -25 2q-4 0 -30 -2h-33h-37q-25 2 -37 2q-4 0 -33 -2h-34q-6 0 -41 2t-43 2h-35 q-51 0 -66 23q-10 12 -10 55z" />
<glyph unicode="]" horiz-adv-x="641" d="M49 1395q0 61 47 61h25q18 -2 22 -2t31 2h36h34q25 -2 37 -2q6 0 34 2h33q6 0 41 -2t43 -2h35q51 0 65 -22q10 -12 11 -56q0 -33 -6 -63q0 -6 -2 -66q0 -2 2 -19.5t2 -21.5v-20q-2 -18 -2 -23v-65q0 -2 2 -19v-20q0 -6 -2 -51t-2 -54q0 -10 2 -31.5t2 -33.5 q0 -4 -2 -27.5t-2 -30.5v-47v-49q0 -14 2 -45t2 -47v-80q0 -6 2 -39v-37q0 -12 -4.5 -87.5t-4.5 -90.5q0 -12 3.5 -92t3.5 -96v-39q-2 -35 -2 -43q0 -4 2 -38t2 -40q0 -88 -49 -88q-2 0 -17.5 2t-19.5 2q-2 0 -19 -2h-20q-20 0 -57 2t-56 2q-6 0 -43 -2t-45 -2q-41 -2 -61 0 h-43q-31 0 -45.5 12.5t-14.5 53.5v28q0 8 2 24.5t2 24.5q0 12 -4 41v45q0 25 12 31q6 2 35 2h95q57 0 57 37q2 -16 2 117v108v13q-2 6 -2 10v186q0 31 2 109t2 106q0 8 -3 62.5t-3 64.5q0 8 2 60.5t2 62.5v43q-2 37 -2 45q-4 37 -35 37h-25q-10 0 -29.5 2t-29.5 2h-16 q-12 -2 -15 -2q-47 0 -47 62q-2 18 -2 75v29q-2 25 -2 31z" />
<glyph unicode="_" horiz-adv-x="1024" d="M-20 -154h1064v-102h-1064v102z" />
<glyph unicode="`" horiz-adv-x="598" d="M115 1372q0 37 26 47q4 2 25 2h39q0 -2 2 -2h14q6 0 15 2h14q10 2 31 2h14q12 -2 16 -2q2 0 17.5 2t19.5 2q61 0 82 -36.5t21 -77.5q0 -8 2 -23q0 -4 8 -23.5t8 -21.5v-20q0 -14 6 -41t6 -37q0 -31 -28 -31q-4 -2 -45 -2h-46h-77q-35 0 -45 29q-6 14 -24.5 45t-51.5 92 q-4 10 -29 47q-20 31 -20 47z" />
<glyph unicode="a" horiz-adv-x="1024" d="M33 375q0 27 14 63q8 25 45 76q6 4 17.5 17.5t33.5 39.5q35 35 101 60q23 4 32 8q23 8 76 20q16 2 49 3l43 6h15q12 -2 16 -2t23.5 2t21.5 2q10 0 15.5 -2t25.5 -6h12q4 0 19.5 -3.5t17.5 -3.5q45 0 45 35q0 37 -53 58q-37 14 -88 14q-76 0 -106.5 -6t-75.5 -21 q-31 -6 -37 -6t-18.5 -4t-34.5 -14q-61 -23 -76 -23q-55 0 -55 49q0 6 2 36t2 34v20q-2 16 -2 19q0 4 2 18v19v24q0 39 20 60q12 10 51 22q14 4 40 11.5t38 11.5q23 8 78 22q86 14 176 15q141 0 240 -41q80 -33 114 -72q6 -10 21 -27q8 -6 22 -22q33 -45 33 -127v-84 q-2 -74 -2 -88q0 -4 2 -33t2 -35v-26q-2 -25 -2 -29t2 -31v-31t-2 -48t-2 -50q0 -53 4 -74v-59q-2 -51 -2 -61q0 -4 2 -26t2 -26q0 -65 -95 -65h-3h-55q-6 0 -51 -2h-52q-18 0 -30 24q0 8 -6.5 18.5t-16.5 10.5q-8 0 -25 -14q-39 -33 -108 -45q-25 -4 -86 -4q-53 0 -123 12 q-84 14 -143 63q-68 68 -82 97q-23 37 -37 92q-6 43 -6 129zM340 336q0 -53 49 -76.5t82 -23.5q6 0 57 10q18 0 68 18q51 27 51 76q0 31 -29 51q-53 37 -90 37h-12q-10 -2 -14 -2q-2 0 -14.5 2t-14.5 2q6 0 -24 -6q-4 -2 -29 -8t-29 -8q-51 -16 -51 -72z" />
<glyph unicode="b" horiz-adv-x="1150" d="M66 721q0 12 2 92t2 94q0 8 2 58.5t2 60.5q0 6 -3 49t-3 51q0 6 2 51.5t2 53.5v57q0 6 2 31v29t-2 21t-2 20q0 55 55 55q12 0 34.5 -2t35.5 -2q18 0 26 4h15q10 -2 12 -2q56 4 76 4h10q45 0 57 -39q6 -20 6 -61q0 -2 -2 -25t-2 -27v-41q-2 -37 -2 -45q0 -4 2 -28.5 t2 -30.5q0 -10 -2 -32.5t-2 -35.5q0 -80 49 -80q10 0 15 3q18 6 57 16l37 6q12 6 36.5 13.5t82.5 7.5q72 0 127 -21q4 -2 51 -27q20 -8 57 -26q10 -6 27 -23q12 -8 33 -24q41 -43 81 -90q14 -25 41 -95q14 -37 21 -86q2 -18 6 -57q4 -16 10 -51v-6v-21q-2 -14 -2 -20v-54 q-4 -18 -12 -57q-2 -12 -2 -43q-8 -68 -111.5 -215t-332.5 -147q-125 0 -218 53q-20 12 -36 12q-29 0 -50 -31q-18 -20 -39 -20q-4 0 -30.5 2t-30.5 2h-100h-21q-16 -2 -20 -2q-47 4 -47 72v192q0 6 2 48t2 50q0 18 -2 52.5t-2 50.5q0 6 2 43v45q0 12 -3 83t-3 85zM381 526 q0 -14 4 -51v-10q-2 -8 -2 -12q0 -57 23.5 -92t95.5 -64q63 -27 96 -27q59 0 109.5 27t76.5 59q37 78 37 148q-4 74 -6 76q-2 10 -7 28.5t-13 40.5q-12 12 -29 27l-25 31q-27 18 -65 38q-12 2 -39 3q-4 0 -27.5 3t-29.5 3q-14 0 -41 -11q-37 -12 -45 -14q-16 -4 -31 -14 q-33 -33 -53 -70q-29 -51 -29 -119z" />
<glyph unicode="c" horiz-adv-x="724" d="M31 578q0 43 24 129q35 121 129 217q63 66 152 92q16 2 44 9t38 10t24.5 4t20.5 1t18.5 2t20.5 2h100q70 0 70 -61v-14q-2 -8 -2 -13q-4 -53 -4 -147q0 -37 -5.5 -46t-28 -20.5t-77.5 -11.5q-4 0 -16 2h-17h-8q-10 -2 -49 -20q-12 -4 -34.5 -14.5t-47.5 -47.5 q-33 -45 -33 -84v-14q-2 -12 -2 -16t2 -7v-8v-6q-2 -4 -2 -8q0 -2 4 -21.5t4 -21.5q39 -106 121 -142t150 -36q55 0 55 -64q0 -4 -3 -33.5t-3 -35.5t3 -41t3 -43v-33q0 -57 -78 -57h-18q-14 2 -21 2h-41q-70 0 -129 12q-20 4 -59 20.5t-123 69.5q-80 61 -125 156 q-18 53 -41 104q-12 49 -12 135q0 6 -2 48.5t-2 50.5z" />
<glyph unicode="d" horiz-adv-x="1193" d="M31 539q0 115 39 206q6 14 18 39t33.5 66t73.5 82q10 8 41 26q16 10 44.5 31t69.5 35q57 20 123 20q4 0 26.5 2.5t26.5 2.5q94 0 160 -29l39 -23q33 -18 41 -18q29 0 29 74q0 4 2 27.5t2 27.5q0 6 -2 13.5t-2 13.5v172q0 16 -2 39q0 2 -2.5 20t-2.5 23q0 14 15 28 q18 25 49 25q8 0 52 -3t52 -3q2 0 52 2l49 2q39 0 52 -19.5t13 -48.5q0 -4 -3 -27.5t-3 -27.5v-111v-28q-2 -23 -2 -29q0 -4 2 -29v-29v-20q-2 -16 -2 -20q0 -2 2 -21.5t2 -23.5v-23q-2 -14 -2 -22q0 -2 2 -23v-23v-67v-27q-2 -25 -2 -28q0 -6 2 -46t2 -49v-32 q-4 -25 -4 -88q0 -4 2 -38t2 -40v-31q-2 -25 -2 -31q0 -4 2 -34.5t2 -36.5q0 -4 -3 -28t-3 -30q0 -4 2 -39v-39q0 -8 3 -58t3 -60q0 -115 -63 -115q-8 0 -62.5 2t-64.5 2q-18 0 -53 -2q-2 0 -17 -2h-18q-16 0 -25.5 12.5t-15.5 26.5t-21 14q-6 0 -20 -10q-29 -20 -68 -33 q-49 -16 -143 -22h-64q-102 14 -108 16q-23 4 -43.5 15.5t-63.5 27.5q-88 31 -135 107q-6 10 -22.5 35.5t-42.5 78.5q-6 27 -25 80q-4 16 -10 51q-2 29 -8 142zM338 502q0 -86 45 -137q39 -45 88 -64q43 -16 119 -16q29 0 57 12q104 33 139 94q10 20 15 66q0 6 3 23.5 t3 25.5q0 16 -8 49q0 14 -2 27q-8 49 -33 77q-14 16 -68 52q-12 8 -51 16q-10 4 -35 8h-24q-4 0 -19 2h-16q-10 0 -23 -2q-39 -6 -55 -12q-29 -8 -47 -27q-2 -2 -8 -9t-10 -11q-10 -6 -25 -23q-12 -23 -16 -37q-29 -63 -29 -114z" />
<glyph unicode="e" d="M33 492q0 117 19.5 191.5t45.5 111.5q16 41 78 107.5t154 107.5q84 37 153 37h90q94 0 177 -37q125 -57 206 -207q2 -2 31 -73t29 -230q0 -86 -74 -86h-65q-12 0 -89 -2t-92 -2q-6 0 -52 2t-54 2h-49q-43 -2 -52 -2h-67q-55 0 -55 -31q0 -39 67 -78q59 -33 105 -35h24 q23 2 27 2t24.5 -2t24.5 -2t23 2h20q12 0 41 6q23 2 63 5q16 4 84 28q55 18 80 19q57 0 58 -39v-11q-2 -6 -2 -10q-2 -20 -2 -92q0 -4 2 -31v-30q0 -25 -23 -43q-68 -53 -178 -74q-76 -14 -103 -14q-6 0 -45 -3.5t-47 -3.5q-37 2 -78 7q-90 6 -126 16q-27 6 -142 61 q-102 49 -164 160q-67 123 -67 273zM367 684q0 -49 112 -49h21q12 -2 20 -2q2 0 15 2h12q4 0 20.5 -2t18.5 -2q4 0 51 8q59 10 59 33q0 59 -67 94q-45 22 -78 22q-84 0 -125 -26q-59 -39 -59 -78z" />
<glyph unicode="f" horiz-adv-x="598" d="M-4 805v24q2 20 2 25q0 8 -2 25v22q0 -2 6 80q4 33 29 41q16 6 41 27q8 16 8 67q0 100 4 131q8 70 43 121q20 29 57 53q48 31 138 31q6 0 33.5 2t31.5 2q8 0 49 -2t47 -2h35q39 0 53 -10q27 -12 31 -56q0 -18 -2 -56t-2 -56q0 -4 2 -34t2 -36q0 -23 -6 -31t-43 -26 q-14 -8 -49 -8q-55 0 -72 -4q-39 -10 -39 -50q0 -31 23 -49q12 -12 76 -12q4 0 23.5 2t21.5 2q61 0 61 -82q0 -6 -4 -51t-4 -53q0 -4 2 -25v-26q0 -39 -25 -56q-12 -8 -53 -8q-61 0 -82 -29q-12 -16 -12 -59q0 -4 -2 -30.5t-2 -33.5q0 -10 2 -69.5t2 -69.5v-49 q-2 -33 -2 -49q0 -8 2 -53t2 -56q0 -2 -2 -15t-2 -15q0 -18 4 -55.5t4 -55.5q0 -33 -23.5 -60.5t-62.5 -27.5q-2 0 -18 2h-19q-10 0 -33.5 -2t-36.5 -2h-26q-25 2 -29 2h-28q-23 0 -41.5 13.5t-18.5 76.5q0 4 2 34t2 36v96q0 6 -2 38t-2 36q0 8 3 52t3 52v39q-2 33 -2 39 q0 8 2 55v58q0 18 -6 34q-14 37 -35 46q-12 4 -32 14q-27 16 -27 86z" />
<glyph unicode="g" d="M35 637v20q2 8 5 22.5t3 21t2 20.5v18q10 80 90 170q14 14 37 41q18 20 66 58q63 35 135 43q-2 0 88 2q2 0 12 2t12 2q4 0 28 -3t29 -4t72 -8l45 -18q37 -18 35 -18q10 0 14.5 4t7.5 10t8 11t85 5h29q25 -2 28 -2q6 0 21 2h18t33 2q10 0 31.5 -14t21.5 -41v-76 q0 -10 -2 -32.5t-2 -34.5q0 -8 2 -33v-35q0 -4 2 -33.5t2 -36.5q0 -16 -2 -100l-2 -84q0 -25 2 -76t2 -77q0 -8 -2 -59.5t-2 -61.5t3 -66.5t3 -66.5q0 -76 -27.5 -135.5t-54.5 -79.5q-41 -25 -90 -52q-39 -10 -82 -22q-16 0 -28.5 -2t-48.5 -10q-43 -4 -203 -5 q-47 0 -90 5.5t-133 21.5q-96 25 -123 45q-43 31 -43 98q0 12 2 33v31q0 4 -3 37t-3 39q0 63 57 63q43 0 111 -28q20 -10 61 -29q12 -6 35 -15q8 -4 41 -8q16 -6 47 -14h24l50 -6h53q10 2 31 10q8 2 24 2q6 2 17.5 5t17.5 3q18 6 33 27q6 4 14 16q12 20 12 52q0 27 -26 28 q-2 0 -41 -18q-4 -2 -37 -13q-39 -12 -53 -12q-4 0 -17 2h-14h-14q-12 -2 -15 -2q-10 0 -27.5 3t-27.5 3q-35 0 -68 11q-8 2 -39 12q-10 4 -29.5 9t-45.5 17q-16 4 -47 33q-14 12 -41 35q-6 4 -27 35q-8 8 -24.5 30.5t-43.5 108.5q-24 80 -24 162zM336 602q0 -39 10 -49 l12 -25q2 -8 7 -18l24 -25q8 -6 41 -24q10 -4 27.5 -12.5t38.5 -8.5q59 0 94 11q16 6 57 28q10 8 23 25q6 6 14 18q14 29 14 62q0 61 -32 106q-27 37 -78 62q-26 7 -53 7l-21 -1h-39q-10 0 -44 -14.5t-36 -16.5q-18 -23 -43 -51q-16 -41 -16 -74z" />
<glyph unicode="h" d="M74 78v57q0 6 2 49t2 52q0 37 -2 130t-2 128v30q0 14 2 98.5t2 100.5v68v53q0 4 -2 45v45q2 49 2 94q0 4 2 31v29v22q-2 18 -2 23v110v41q-2 33 -2 39q0 68 10 90q14 37 66 37q4 0 37.5 -2t39.5 -2h66q4 0 24 2h25q27 0 44.5 -20.5t17.5 -36.5q0 -14 -5 -19v-18v-31 q-2 -27 -2 -33t2 -47t2 -49q0 -20 -5 -58t-5 -57q0 -4 2 -28.5t2 -30.5q0 -39 21 -39q12 0 16 2q27 14 62 31q31 8 86 18q12 6 77 6q16 0 66 -6q27 -4 57 -18q88 -43 109.5 -71t50.5 -64l12 -31q35 -88 35 -156q0 -8 -2 -61t-2 -64q0 -6 2 -46t2 -48v-37q-2 -33 -2 -39v-45 v-47q-2 -39 -2 -47v-55v-31q-2 -25 -2 -31q0 -4 2 -32v-35q0 -27 -31 -58q-16 -16 -39 -16l-63 -2h-23q-20 2 -24 2q-6 0 -48 -3t-50 -3q-45 0 -45 69q0 6 2 19v16v23q-2 18 -2 22q0 2 2 24.5t2 27.5v61q0 6 2 31.5t2 29.5q0 39 -2 45q0 4 2 41v41q0 129 -17.5 166t-21.5 41 q-27 35 -82 35q-45 0 -74 -19.5t-51 -70.5q-29 -61 -29 -176q0 -6 2 -41t2 -41v-41q-2 -29 -2 -43q0 -6 2 -43t2 -45q0 -2 -2 -24.5t-2 -26.5q0 -2 2 -20.5t2 -22.5q0 -47 -30 -64q-12 -10 -39 -10q-6 0 -49 2t-52 2h-47q-39 -2 -47 -2q-31 0 -48 22q-15 19 -15 49v7z" />
<glyph unicode="i" horiz-adv-x="468" d="M66 51q12 141 12 160v49q-2 31 -2 47q0 6 2 41v39t-2 41t-2 41v80q0 12 -2 87t-2 89q0 10 3 71.5t3 73.5q0 8 -3 48t-3 47q0 23 12 39q20 28 90 28q6 0 38 -4t36 -4q10 0 32.5 2t32.5 2h39q23 0 41.5 -26.5t18.5 -40.5v-23q-2 -18 -2 -23v-32q0 -18 -4.5 -73.5 t-4.5 -131.5q0 -6 -2 -46t-2 -48q0 -12 4 -92t4 -97q0 -6 -2 -42t-2 -44q0 -6 3.5 -37.5t3.5 -35.5q2 -25 2 -113q0 -127 -84 -127q-4 0 -32 2t-34 2q-18 0 -43 -2q-49 -4 -74 -4q-76 0 -75 57zM70 1190v24.5v30.5q-2 23 -2 27v53q0 45 41 53l57 4h24q17 -2 23 -2t32.5 2 t30.5 2q84 0 103 -12q29 -18 29 -63v-33q-2 -29 -2 -35t2 -41v-43q0 -23 -17.5 -46.5t-52.5 -23.5q-6 0 -45 3h-47q-4 0 -30 -2.5t-30 -2.5q-76 0 -86 9q-32 16 -32 64q0 13 2 32z" />
<glyph unicode="j" horiz-adv-x="512" d="M2 82v65q0 39 53 39q68 0 68 103v321v58q-2 49 -2 59q0 6 2 45t2 47l-4 90l-6 43q0 27 20.5 52.5t40.5 27.5h39q27 0 39 -4h59h2q0 -2 2 -2h21q12 0 20 2l21 2q45 0 57 -29q6 -14 6 -71v-53q0 -10 -3 -77t-3 -79q0 -20 2 -63.5t2 -65.5v-156q0 -6 -2 -53t-2 -57 q0 -29 2 -52v-145q0 -59 -10 -88q0 -4 -10 -29q-2 -8 -8 -22q-12 -33 -45 -66q-51 -51 -172 -51h-99q-47 0 -65.5 15.5t-22.5 62.5v14q-2 10 -2 15q0 2 2 20t2 23q0 4 -3 29.5t-3 29.5zM117 1325q0 29 22.5 41t42.5 12h15q12 -2 14 -2q6 0 40 2t40 2h28q25 -2 29 -2 q2 0 17 2h16q29 0 45 -24.5t16 -50.5q0 -6 -2 -42t-2 -44q0 -31 2 -52q0 -2 2 -10v-10q0 -61 -88 -62q-4 0 -24.5 2.5t-22.5 2.5h-12q-12 -2 -14 -3q-2 0 -15 3h-16q-4 0 -29.5 -2.5t-32.5 -2.5q-39 0 -49 15q-18 25 -18 57q0 8 2 21v20q0 8 -2 21.5t-3 22.5t-1 83z" />
<glyph unicode="k" horiz-adv-x="980" d="M66 1391q0 55 57 55q14 0 24 -2h15q8 -2 10 -2q47 0 109 4q4 0 14 2h16q68 0 78 -47v-47q0 -6 3 -44t3 -40q0 -4 -3 -30t-3 -32t2 -47t2 -49v-96q-2 -70 -2 -96q0 -49 10 -105q16 -76 41 -76q20 0 31 11q25 14 62 90q4 6 17 48t13 50q8 63 21.5 74.5t77.5 11.5q8 0 26 -2 q10 -2 35 -4q-4 0 45 6h18q14 -2 19 -2q4 0 18 2h17q55 0 55 -68q0 -12 -8 -61q-2 -8 -9.5 -25.5t-10.5 -28t-10 -29.5t-25 -56q-4 -12 -11.5 -36t-29.5 -61q-61 -94 -62 -124q0 -23 21 -52q0 -2 16 -22q29 -55 74 -131q25 -37 63 -103q4 -6 10 -22q20 -33 66 -99 q16 -23 16 -45q0 -63 -34 -63h-15q-12 2 -14 2h-162q-4 0 -27 -2h-26q-51 0 -86 68q-4 6 -12 22q-6 8 -17.5 25.5t-25.5 54.5q-10 27 -50 98q-53 84 -75 84q-41 0 -54 -61q-2 -18 -2 -94q0 -2 -2 -19.5t-2 -21.5t2 -38t2 -40q0 -23 -16 -45.5t-26.5 -26.5t-78.5 -4 q-4 0 -24 -2h-23.5h-19.5q-14 2 -19 2q-4 0 -32.5 -2t-34.5 -2q-31 0 -49 37q-4 12 -4 76q0 2 2 14v12v23q1 30 1 64.5t-1 74.5v80v51q-2 45 -2 53t2 56.5t2 56.5q0 10 -3 68.5t-3 70.5t2 90t2 92q0 12 -2 82t-2 84v93q0 4 2 26v25.5v52.5q-2 45 -2 53v27v16q-2 12 -2 17z " />
<glyph unicode="l" horiz-adv-x="468" d="M59 66v16q4 25 4 63v29q-2 23 -2 27q0 6 2.5 46t2.5 48v35q0 4 2 37v38v35q-2 31 -2 37q0 4 3 38t3 40q0 4 -2 29.5t-2 31.5q0 12 2 37t2 37v113q0 8 -2 63.5t-2 65.5v49q0 8 4 35q4 20 4 33q0 14 -4 43l-2 19t-2 36q0 10 2 29v26q0 4 3 35t3 37q0 4 -3 30.5t-3 32.5v37 q0 27 30.5 48.5t65.5 21.5q4 0 31.5 -2t33.5 -2q4 0 28 2t28 2q80 0 102 -31q12 -16 12 -41q0 -4 2 -33v-34q0 -10 -3 -68.5t-3 -69.5q0 -8 4.5 -56t4.5 -58q0 -4 -2.5 -36t-2.5 -38q0 -10 2 -33v-35q0 -6 -3 -47t-3 -49q0 -6 2 -45t2 -47v-41q-2 -35 -2 -41q0 -14 2 -46 t2 -48q0 -2 -2 -39t-2 -41q0 -23 2 -45v-27q-2 -25 -2 -28q0 -4 2 -25v-25q0 -4 -2 -36.5t-2 -38.5q0 -4 2 -37t2 -39v-23q-2 -18 -2 -22q0 -2 2 -23.5t2 -25.5q0 -18 -24 -41q-35 -33 -60 -33q-6 0 -40.5 3t-40.5 3h-58q-47 -2 -57 -2q-20 0 -42 24.5t-22 39.5z" />
<glyph unicode="m" horiz-adv-x="1536" d="M70 938q0 31 21.5 61.5t41.5 30.5q25 0 43 -6h88q20 0 35 2h33q20 0 33 -16q6 -10 15 -29.5t15 -19.5q4 0 17 10q70 59 159 65h45q41 -2 46 -2q106 0 178 -51q14 -14 45 -35q8 -6 20 -6q2 0 12.5 3t12.5 3q18 4 26 19q20 33 103 57q47 14 106 14h33q43 0 76 -12 q43 -16 90 -59q37 -33 43 -45.5t16 -36.5q6 -10 15 -27l12 -37q6 -27 6 -73q0 -6 3 -51.5t3 -53.5v-35q-2 -31 -2 -37q0 -113 2 -143q2 -4 3 -15.5t1 -17.5v-18q-2 -16 -2 -21q0 -6 2 -41v-43q0 -12 2 -92v-96q0 -31 -16 -55q-20 -33 -53 -33q-6 0 -18.5 2t-18.5 2 q-2 0 -23 -2h-22q-8 2 -49 2q-4 0 -32 -2t-34 -2q-47 0 -55 49q0 4 2 31v30q0 39 -6 82q0 4 2 29v30v34q-2 29 -2 32q0 10 3 80t3 84q0 135 -35 185q-24 32 -79 32h-3q-29 0 -59 -20q-43 -29 -43 -96v-84q0 -10 -2 -79t-2 -83q0 -4 2 -30t2 -32v-24q-2 -20 -2 -25 q0 -2 2 -22.5t2 -24.5v-16q-2 -14 -2 -17q0 -4 3 -30.5t3 -30.5q0 -39 -12 -51q-14 -18 -43 -23q-2 0 -21 2h-22q-6 0 -44 -4t-46 -4h-37q-2 0 -20.5 -2t-22.5 -2q-61 0 -62 94q0 61 4 90v17q-2 14 -2 16q0 4 2 26.5t2 26.5q0 6 -2 31t-2 29v49q0 2 2 24v25q0 4 -2 27.5 t-2 29.5v74q0 84 -31 117q-23 25 -55 24q-37 0 -65 -16q-39 -23 -52 -100q-6 -41 -6 -99q0 -4 -2 -26.5t-2 -26.5v-51v-27q-2 -25 -2 -28q0 -6 3 -48.5t3 -50.5v-18q-2 -16 -2 -21q0 -25 4 -78q2 -8 2 -24q0 -80 -75 -80q-6 0 -45 2t-48 2q-12 0 -30 -4h-58q-73 0 -73 97 q0 18 2 52q2 33 2 48v14q-2 10 -2 12q0 4 2 21.5t2 19.5v17q-2 12 -2 16q0 2 2 16v17q0 6 -3 51t-3 53q0 6 2 52.5t2 56.5v24q-2 23 -2 27t2 20v21q0 4 -2 27.5t-2 29.5q0 4 2 36t2 38q0 4 -2 38t-2 42v37v26q-2 23 -2 27z" />
<glyph unicode="n" d="M72 94q0 12 2 35t2 33v153v50q-2 43 -2 51v59v29q-2 25 -2 28q0 8 2 48.5t2 46.5v71q-2 59 -2 72q0 8 2 59v62v49q0 76 51 90l37 -2l74 -4q41 2 38 2q12 2 62 2q43 0 53 -12q4 -8 12.5 -25.5t12.5 -17.5q16 0 53 35q25 12 52.5 23t76.5 11q4 0 29.5 -2t31.5 -2h41 q55 0 115 -30q12 -6 86 -66q37 -37 57 -78q37 -59 37 -149q0 -6 -2 -44t-2 -46q0 -6 2 -52v-51v-63q-2 -55 -2 -66q0 -8 2 -61t2 -64q0 -8 -2 -59t-2 -62q0 -4 2 -36v-39q0 -39 -12 -52q-14 -20 -39 -20q-4 0 -14 2h-15h-84h-28q-25 -2 -31 -2q-59 0 -72 4q-30 10 -30 110v7 q0 6 3 43t3 42t2 52v50v38q-2 33 -2 39q0 16 2 47v45q0 125 -41 193q-27 43 -96 43q-39 0 -78 -27q-31 -20 -43 -59q-8 -16 -15 -78q-4 -35 -6 -68v-32q0 -6 -3 -44t-3 -47q0 -18 4 -132.5t4 -137.5q0 -86 -82 -86q-4 0 -38 2h-39q-2 0 -22.5 -2t-24.5 -2q-76 0 -98.5 14.5 t-22.5 79.5z" />
<glyph unicode="o" horiz-adv-x="1150" d="M29 457q0 10 2 28.5t2 26.5q0 4 -2 28.5t-2 28.5q0 49 11 85t26 75q8 14 36 57q23 35 68 84q6 6 19.5 17.5t39.5 38.5q14 12 39 30q33 8 94 50q72 36 175 36h6q4 0 38.5 2.5t41.5 2.5q80 0 157 -31q18 -10 58 -31q14 -8 45 -22q43 -25 86 -72q12 -14 35 -45q8 -8 24 -29 q10 -12 21.5 -26.5t37.5 -83.5q32 -79 32 -142q0 -10 -1 -20q-4 -66 -12 -156q-10 -27 -31 -80q-12 -33 -45 -94q-57 -82 -86 -111q-45 -35 -86 -57l-49 -18q-12 -6 -33 -17q-33 -14 -74 -22q-55 -10 -151 -10q-31 0 -156 22q-39 6 -105.5 43t-88.5 59q-31 41 -47 62 q-55 55 -72 100q-53 123 -53 191zM346 522q0 -66 25 -123q14 -33 28 -49q25 -31 72 -55q41 -20 96 -21q55 0 117 43q47 33 64 58q4 14 16 39q6 10 14 30q13 37 13 82q0 59 -29 105q-23 35 -66 63q-18 20 -65 29q-14 2 -33.5 4t-34.5 4q-18 0 -90 -24q-45 -23 -67 -50 q-59 -74 -60 -135z" />
<glyph unicode="p" horiz-adv-x="1193" d="M68 229q0 14 2 43t2 45v154v4q0 6 2 43t2 45q0 6 -2 34t-2 32q0 6 2 33v32v33q0 6 -2 42t-2 42t3 38t3 38q0 4 -2 27.5t-2 29.5q0 70 59 84l45 -2h33q31 2 35 2h30q4 0 26 2t26 2q31 0 47 -18q6 -10 20.5 -27.5t22.5 -17.5q6 0 57 26.5t64 30.5q41 14 96 14q4 0 35.5 2 t38.5 2q86 0 159 -40q33 -14 94.5 -48t118.5 -120q29 -45 51 -117q2 -12 9 -35q2 -10 10 -33q14 -41 14 -88q-2 -29 -6 -88q0 -29 -4 -90q-6 -45 -61 -176q-43 -74 -101 -119q-14 -10 -41 -31q-14 -12 -65 -39q-66 -29 -91.5 -32.5t-109.5 -3.5h-18q-14 2 -19 2h-43 q-25 0 -69 12q-53 14 -74 14q-51 0 -60 -45q-2 -6 -4 -61q0 -4 3 -24.5t3 -24.5q0 -27 -22.5 -45.5t-44.5 -18.5h-12q-8 2 -11 2q-18 4 -55 4h-49h-27q-23 2 -26 2q-4 0 -17 -2h-18q-49 0 -49 51q0 6 2 48v46v42q-2 37 -2 43t2 40.5t2 43.5q0 8 -4 57t-4 59zM393 485 q0 -72 13 -96q2 -4 24 -41q10 -14 35 -29q49 -16 94 -38q14 -4 51 -5q80 0 107 19q35 20 53 35q10 8 51 69q25 49 25 113q0 59 -32 115.5t-87 81t-121 24.5q-53 0 -107.5 -29.5t-72.5 -56.5q-33 -49 -33 -162z" />
<glyph unicode="q" horiz-adv-x="1193" d="M31 588q0 55 16 100q10 18 23 55q2 8 8 25q25 74 61 111q2 2 10.5 9t11.5 12t11 13q27 37 73 65t95 48q39 10 109 21h30q29 -2 33 -3q4 0 31 3h28q39 0 86 -11q55 -12 76 -24q2 0 25.5 -11.5t27.5 -11.5q12 0 20.5 10.5t21 25.5t28.5 15q4 0 27.5 -2t29.5 -2h80q4 0 31 2 h29q27 0 47 -23.5t20 -51.5v-33q-2 -27 -2 -33v-111q0 -8 2 -65t2 -68q0 -6 -3 -46t-3 -48q0 -6 3 -43t3 -45q0 -6 -2 -47t-2 -49v-82q0 -4 2 -30.5t2 -33.5v-102q0 -14 -3 -44t-3 -46q0 -4 2 -28.5t2 -31.5v-100q0 -57 -15 -72.5t-48 -15.5h-23q-18 2 -22 2t-37 -2h-39h-33 q-2 0 -20 -2h-21q-63 0 -63 47q0 23 1 26t4 23.5t3 24.5q0 18 -12 65q-14 33 -50 31l-77 -6q-12 -2 -37 -8q-39 -8 -135 -8q-37 0 -97 14q-29 8 -94 39q-82 41 -112 63q-12 10 -50.5 56.5t-50.5 70.5q-4 6 -22 60q-33 90 -33 209q0 8 -3 48t-3 46zM348 471q0 -14 21 -70 q25 -68 82 -94q74 -35 112 -35q4 0 33 2h31q49 8 94 39q57 39 70 97q8 25 8 108q0 49 -18.5 105.5t-80.5 89.5q-51 26 -110 26h-4t-17 2h-18q-51 0 -101.5 -25.5t-68.5 -51.5q-23 -37 -33 -121q0 -33 2 -39v-17q-2 -12 -2 -16z" />
<glyph unicode="r" horiz-adv-x="681" d="M70 82q0 6 2 47t2 49v66q0 4 2 35v36q0 6 -2 42t-2 44q0 47 2 78q0 29 0 27q0 6 2 30.5t2 26.5q0 14 -2 41t-2 39q0 23 2 31q4 18 4 33q0 4 -2 27.5t-2 27.5v49v33q-2 27 -2 33v49q0 100 59 100h19q16 -2 18 -2h43h33q27 -2 30 -2q4 0 28 2t28 2q39 0 45 -31 q8 -51 10 -53q6 -8 12 -8q12 0 29 16q6 6 21 23q55 61 129 61q98 0 98 -59v-17q-2 -12 -2 -16q0 -2 2 -16v-15.5v-25.5q-2 -23 -2 -27q0 -2 2 -24v-25q0 -8 -2 -25v-61q0 -47 -15.5 -57.5t-66.5 -10.5q-33 0 -77 -18.5t-60 -34.5q-27 -25 -56 -92q-4 -8 -14 -61v-87 q0 -6 2 -48t2 -50v-35q-2 -31 -2 -36q0 -20 1 -27.5t4 -32t3 -29.5q0 -51 -21.5 -77.5t-58.5 -26.5q-6 0 -41.5 2t-44.5 2h-24q-23 -2 -27 -2q-14 -2 -49 -2t-49 35q-10 23 -10 47z" />
<glyph unicode="s" horiz-adv-x="811" d="M29 100q0 4 2 37t2 39v33q-2 31 -2 37q0 18 4 30q12 41 65 41h27q25 -2 27 -2q23 -4 65 -12q14 0 41 -2q4 0 33 -3t35 -3q51 0 78 27q14 23 14 43q0 55 -154 114q-74 29 -106 62l-21 20q-12 12 -33 35q-57 64 -57 152q0 18 4 55q6 51 10 67q8 29 31 54q76 86 148 104 q86 23 139 23q86 0 172 -13q27 -4 57 -12q100 -29 101 -65q0 -6 -2 -41t-2 -41q0 -4 2 -32t2 -34q0 -70 -72 -70q-31 0 -70 10.5t-86 10.5q-14 0 -37.5 -10.5t-23.5 -32.5q0 -23 89 -66t151 -98q6 -6 19 -17.5t40 -33.5q39 -37 51 -107q3 -17 3 -42q0 -13 -1 -27v-27 q2 -25 2 -29q0 -63 -45 -135q-53 -88 -148.5 -125t-228.5 -37q-193 0 -278 50q-47 27 -47 73z" />
<glyph unicode="t" horiz-adv-x="555" d="M12 799q0 2 2 25.5t2 27.5v61q-2 53 -2 62q0 51 43 51h15q20 0 20 33q0 4 2 20v19q-4 76 -4 73.5t-2 36.5q0 25 22.5 43.5t39.5 18.5h12q10 -2 12 -2q6 0 34 3t32 3h20q18 -2 21 -2q4 0 27.5 2t29.5 2q68 0 68 -82q0 -4 -2.5 -36t-2.5 -38q0 -4 2 -28v-31q0 -37 31 -37 q2 0 23 4q6 0 14 2h10q8 0 41 -8q27 -12 27 -45q0 -4 2 -29v-28q0 -4 -2 -37t-2 -39q0 -2 2 -19v-18q0 -39 -23 -51q-14 -10 -57 -13q-23 -2 -31 -4q-14 -4 -22 -14q-16 -20 -17 -72v-61q0 -2 -2 -15.5t-2 -15.5q0 -4 2 -12t2 -10q4 -61 4 -62q0 -4 -2 -32.5t-2 -34.5 q0 -59 12.5 -79t43.5 -24h34q31 0 31 -74v-86q0 -4 2 -30v-33q0 -88 -145 -88q-127 0 -174 14q-35 10 -58 47q-10 20 -28 54q-4 16 -13 49q-4 12 -10 35q-6 31 -6 90q0 4 2 39v39v51q-2 45 -2 53q0 14 2 100v101q0 55 -27 69q-12 4 -31.5 16.5t-19.5 45.5z" />
<glyph unicode="u" d="M70 762q-1 13 -1 26q0 26 3 52v75v21q-2 18 -2 20q0 59 39 70h49q6 0 18 2h19q12 2 36 2h27q-4 0 10 -2h11q4 0 28.5 3t28.5 3q23 0 31 -6q30 -30 30 -68q0 -6 -2 -30t-2 -31q0 -4 2 -29.5t2 -29.5q0 -6 -4 -47t-4 -50q0 -4 2 -32.5t2 -34.5q0 -10 -2 -30.5t-2 -33.5 q0 -4 2 -26v-27v-24q-2 -23 -2 -27q0 -90 27 -141q31 -57 98 -58q45 0 74 17q35 25 47 61q10 29 20 57q0 2 3.5 41t3.5 41v21q-2 16 -3 18q0 8 3 21v18v55q0 23 3 66t3 63q0 10 -4.5 73t-4.5 75q0 88 68 88h59q25 0 33 4h29q23 -2 26 -2q4 0 28 2t28 2q25 0 39 -22.5 t14 -69.5q0 -4 2 -33v-33q0 -4 -2 -33.5t-2 -35.5q0 -12 2 -40t2 -42v-72q0 -6 2 -41v-41t-2 -38.5t-2 -41.5q0 -12 2 -38v-39q0 -6 -2 -46t-2 -49q0 -14 2 -39q2 -33 2 -40v-82q2 -43 2 -48q0 -61 -21.5 -83.5t-74.5 -22.5q-6 0 -45 2h-47q-4 0 -37 -2t-39 -2q-41 0 -53 25 q-2 10 -10.5 24t-16.5 14t-18 -10q-78 -59 -183 -59q-88 0 -143 16q-29 10 -68 31q-8 4 -47 43q-16 12 -24 20q-88 74 -88 252q0 74 2 111t2 31v24q-2 16 -2 23q0 10 2 26v25q0 4 -2 25.5t-2 25.5q0 2 2 17v18v2v-1z" />
<glyph unicode="v" horiz-adv-x="894" d="M-4 967q0 35 12 47q20 20 51 20q4 0 20.5 -2t18.5 -2t17 2h16q12 0 35.5 -2t36.5 -2q16 0 26 2h27q51 0 78 -53q2 -4 28 -96q6 -20 7 -43q2 -31 10 -68q8 -25 18 -61q4 -29 23 -95q2 -20 10 -59q12 -76 29 -76q6 0 10 12.5t10 51.5q4 20 13 59q2 14 6 45t32 164 q6 33 25 94q4 12 9 35t11 55q18 35 74 35l49 -2l50 -2q-14 0 40 4q41 4 56 4q51 0 51 -59q0 -14 -4 -39q-27 -102 -66 -244q-2 -10 -30 -129q-6 -27 -19 -76q-2 -10 -18 -59q-6 -25 -21 -78q-20 -55 -43 -135q-2 -12 -8 -37q-4 -12 -12 -37q-4 -14 -12 -45q-10 -14 -31 -47 q-10 -16 -41 -43q-20 -10 -58 -6q-4 0 -28 -2h-31h-39q-35 2 -41 2q-4 0 -18 -2h-17q-31 0 -51 14q-41 31 -80 154q-14 41 -41 123q-49 170 -106 360q-16 45 -45 137q-6 29 -21 88q-18 81 -18 93z" />
<glyph unicode="w" horiz-adv-x="1366" d="M0 965q0 27 21.5 47t48.5 20h41q35 -2 43 -2q4 0 29.5 2t31.5 2q68 0 86 -39q14 -31 37 -94q6 -23 18.5 -62.5t32.5 -115.5q6 -25 17 -45q27 -59 36 -113q14 -71 31 -71q8 0 20.5 26.5t14.5 50.5q4 18 14 54q4 25 4 41q0 18 -22 108q0 14 -4 39q-16 47 -39 119 q-6 18 -6 26q0 35 18.5 53.5t38.5 18.5q2 0 21.5 -2t23.5 -2q6 0 42 2t44 2h62q63 0 86 -74q6 -33 20 -100q2 -8 7 -23.5t7 -21.5q6 -27 17 -68q8 -31 22 -127q4 -27 4 -34q12 -37 13 -50q0 -4 8 -28q2 -12 6 -12q16 0 16 24q2 14 23 88q4 12 10 37q0 2 10 37q23 84 54 194 l12 31q12 74 20 86q25 37 80 37h60q4 0 25.5 -2t25.5 -2q6 0 32.5 2t30.5 2q68 0 68 -61q0 -20 -29 -107q-10 -27 -25.5 -78t-43.5 -147q-14 -33 -37 -98q-23 -76 -56 -179q-18 -47 -53 -143q-10 -37 -34.5 -107.5t-67.5 -93.5q-21 -10 -62 -10h-90h-22q-18 -2 -23 -2 q-23 0 -47 18q-35 27 -53 93q-14 47 -33 112q0 8 -4 25q-14 29 -23 28q-6 0 -14 -12q-8 -23 -18 -80q-14 -49 -23 -104q-14 -53 -34.5 -65.5t-106.5 -14.5q-4 0 -42 -2t-46 -2q-57 0 -92 76q-8 18 -27 67q-29 94 -45 133q-6 16 -18 45q-10 41 -33 123q-8 18 -23 58l-20 55 q-23 61 -41 115q-43 125 -43 151q-6 31 -21 90q-12 33 -12 56z" />
<glyph unicode="x" horiz-adv-x="980" d="M10 47q0 18 51 100q14 25 41 66q31 59 99 174q12 16 30 47q8 14 27 43q37 51 37 72q0 20 -25 57q-12 18 -39 58q-8 16 -28 45q-12 18 -29 39l-24 40q-10 16 -31 48q-8 14 -25 38q-8 16 -27.5 50t-19.5 55q0 33 15.5 44t41.5 11h13q12 -2 20 -2q29 -4 33 -4h180 q25 0 47 -33q6 -16 23 -45q6 -10 20 -28q25 -35 49 -88q10 -25 17 -25q4 0 39 68q23 35 57 100q16 37 33 43q10 6 61 6h52h40.5t-0.5 0l37 -2q6 0 45 3t45 3q41 0 41 -39q0 -29 -26 -65q-16 -20 -38 -57.5t-54 -90.5q-23 -27 -60 -84q-16 -29 -49 -88q-37 -66 -37 -76 t13 -32q33 -55 90 -156q10 -20 45 -74q25 -35 44 -70.5t58 -97.5q23 -29 23 -59q0 -41 -54 -41q-4 0 -16 2h-16h-170h-21q-18 -2 -22 -2q-18 0 -27 4q-16 8 -43 43q-16 35 -41 82q-2 4 -14.5 20.5t-14.5 19.5t-5 11t-5 12.5t-7 11.5t-7 8t-9.5 14.5t-11.5 13.5 q-6 -12 -18 -31q-20 -31 -47 -82q-16 -25 -29 -47q-14 -29 -28.5 -55.5t-61.5 -26.5q-4 0 -41 2t-45 2l-64 -4q-20 -4 -75 -4q-61 0 -62 53z" />
<glyph unicode="y" horiz-adv-x="937" d="M16 967q0 51 33 59h35q-12 0 20 2q41 4 66 4q6 0 34.5 -2t33.5 -2q4 0 22 2h21q8 0 27.5 -5t24.5 -9t11 -17q33 -74 55 -139q10 -33 29 -100q29 -86 57 -187q0 -20 15 -20q6 0 10 10q27 53 55 217q2 14 4 39q16 33 17 68q6 12 14 35l6 18q6 39 25 66q14 20 67 20 q2 0 21.5 2t23.5 2h9q8 -2 16 -3t20 -1q4 0 29 2h29q2 0 17.5 2t19.5 2q49 0 49 -76q0 -23 -12 -67q-6 -25 -41 -131q-6 -20 -29 -76q-10 -23 -26.5 -78t-61.5 -194q-8 -20 -57 -146l-6.5 -19.5t-6.5 -21.5q-8 -16 -22 -47q-4 -12 -15 -35q-31 -76 -69 -118q-57 -66 -78 -76 q-74 -39 -143 -51q-45 -6 -156 -7q-57 0 -88 13q-37 14 -43 53q-4 12 -4 14t2 18.5t2 18.5v25q-2 16 -2 24v49v19q-2 14 -2 16q0 72 76 72q18 0 129 -10q35 -2 34 28q0 14 -22 60q0 2 -2 7t-4 7q-10 45 -70 170q-4 12 -16 33q-16 49 -43 117q-16 29 -47 90q-12 33 -31 78 q-10 16 -27 55q-4 16 -14 49q-20 51 -21 72z" />
<glyph unicode="z" horiz-adv-x="811" d="M29 94q0 47 26 99q18 37 45 88q10 16 26.5 45.5t49.5 87.5q10 12 29 39q6 14 20 43q4 6 13 16q16 33 49 90q8 14 24.5 42t16.5 50q0 25 -41 25q-4 0 -30 -3t-32 -3h-28q-4 0 -32 -3t-34 -3q-45 0 -63 34q-8 16 -9 86q0 4 -3 34t-3 36q0 25 6 49q0 33 4 41q14 41 84 41h37 q2 -2 4 -2h23q8 0 64.5 3t66.5 3h47q33 -2 43 -2t49 -2t45 -2q2 0 67.5 2t115.5 2q33 0 53 -24q10 -14 10 -52v-47q0 -57 -45 -127q-18 -27 -49 -80q-41 -80 -74 -118q-41 -51 -76 -115q-43 -78 -43 -113q0 -39 47 -39q4 0 25 2h25q2 0 16 2h18h15q4 -2 80 -2q70 0 75 -61 v-57v-27q-6 -18 -6 -43q0 -10 2 -26.5t2 -24.5q0 -43 -26 -70q-18 -12 -74 -12h-31q-25 2 -30 2h-140q-102 2 -141 2q-8 0 -51 2h-51q-10 0 -77 -3t-79 -3q-39 0 -53 39q-2 10 -2 59z" />
<glyph unicode="{" horiz-adv-x="724" d="M16 721q0 53 39 53h15q10 -2 12 -2q45 0 80 35t53 84q10 27 10 90q0 6 3 45t3 47v35q-2 23 -2 33v14q4 20 13 68q2 29 18 80q12 23 41 51q10 8 31 24q35 33 57 43q4 2 123 23q57 10 78 10h26q23 -2 27 -2q2 0 14 2h13q55 0 55 -76v-24q-2 -16 -2 -25q0 -4 2 -24v-25 q0 -43 -51 -45h-19q-16 2 -18 2q-18 0 -33 -4q-33 -10 -47 -19q-31 -18 -41 -51q-2 -20 -8 -63q-2 -14 -8 -43v-4q0 -16 2 -51t2 -52q0 -4 -4 -29.5t-4 -29.5t-1 -14.5t-3 -16.5q-4 -49 -29 -86l-60 -59q-14 -12 -50 -25.5t-48 -13.5h-14q-23 0 -23 -10q4 -4 14.5 -5.5 t22.5 -1.5q39 -6 82 -30q27 -16 61.5 -72.5t40.5 -85.5q0 -10 3.5 -26.5t3.5 -24.5v-33q0 -4 4 -34.5t4 -37.5v-47q-2 -39 -2 -47q0 -29 4 -36t10 -21q2 -6 8 -19q8 -20 38 -39.5t61 -19.5q4 0 24.5 2t24.5 2q16 0 34.5 -7t18.5 -38q0 -4 -2 -25.5t-2 -25.5q0 -2 3 -25.5 t3 -27.5q0 -45 -25 -62q-8 -6 -45 -6q-2 0 -18 -2h-18q-6 0 -49.5 4t-51.5 4h-43q-16 0 -61 19q-33 12 -90 45q-10 10 -27 28q-31 33 -39 45q-14 23 -22 60q-12 61 -13 151q0 8 3 49t3 48q0 39 -18 116q-14 59 -51 78q-6 4 -16.5 11.5t-28.5 21.5q-8 4 -43 4q-51 0 -51 47 q0 8 2 23v22q0 4 -4.5 36t-4.5 38z" />
<glyph unicode="}" horiz-adv-x="724" d="M-2 49q0 43 51 43h17q12 -2 18 -2q104 0 123 74q2 20 9 65t7 43v4q0 8 -2 50.5t-2 48.5q0 -18 10 63q0 23 9 66q10 37 49 71q20 25 30 35q51 43 107 43q18 -2 16 -2q16 0 17 13q-16 2 -43 6q-10 4 -33 12q-12 4 -37 12q-33 16 -70 82q-35 57 -38 86q-2 6 -4.5 20.5 t-2.5 22.5v37q0 4 -4 34t-4 36t2 51v51q0 18 -4 29q-18 39 -29 55q-6 10 -32 25q-14 10 -23 12q-14 6 -39 6q-2 0 -18.5 -2t-20.5 -2q-18 2 -24 6q-33 4 -33 39q0 2 2 22.5t2 24.5t-3 24.5t-3 24.5q0 76 51 76h47q10 0 68.5 -4t71.5 -4q27 0 79 -19q45 -16 59.5 -23 t33.5 -26q6 -8 23.5 -26.5t25.5 -28.5q35 -43 37 -113q0 -27 1 -38t4 -32.5t3 -33.5q0 -4 -4 -50t-4 -52q0 -10 5 -33t5 -33q2 -16 8 -49q4 -16 17.5 -41t50.5 -47q8 -10 30 -25q8 -4 50 -4t42 -37v-26q-2 -25 -2 -29q0 -2 4.5 -35t2.5 -41q0 -20 -14.5 -36.5t-24.5 -16.5 q-29 4 -27 4q-55 0 -98 -59q-31 -43 -37 -66.5t-8 -91.5q0 -18 -3 -48t-3 -36q0 -4 2 -31.5t2 -34.5q0 -27 -4.5 -48t-13.5 -67t-34 -73q-12 -14 -49 -49q-10 -10 -30 -27q-31 -23 -80 -33l-62 -6q-35 -6 -61 -10h-99q-66 0 -65 70q0 8 2 25.5t2 27.5q0 2 -2 24.5t-2 26.5z " />
<glyph unicode="&#xa1;" horiz-adv-x="555" d="M104 74v69q0 29 9 88q2 47 8 144q4 35 10 102q0 53 6 160q4 23 10 72q0 16 3 49q6 160 14 198q4 16 6 35q6 39 20 51q25 23 95 23q72 0 80 -33q6 -41 14 -92q0 -16 4 -49t14 -96q2 -33 6 -97q6 -55 17 -170q6 -90 20 -245v-64q2 -10 6.5 -33.5t4.5 -35.5v-78 q0 -63 -54 -72q-4 0 -35 2h-36q-4 0 -33 2h-33q-4 0 -40 -2t-42 -2q-74 0 -74 74zM117 1262q0 113 9 145.5t54 32.5h25q14 -2 22 -2q4 0 23 2h20h70q72 0 88 -33q8 -16 8 -100q0 -63 -2 -106.5t-6 -53.5q-16 -29 -63 -29q-8 0 -25 4h-47q-39 -2 -47 -2q-2 0 -17 2h-15h-15 q-14 -2 -17 -2q-49 0 -61 39v33q0 6 -2 35.5t-2 34.5z" />
<glyph unicode="&#xa2;" horiz-adv-x="724" d="M31 575q0 47 24 132q35 123 129 215q82 84 178 98v16q4 -16 5 64q0 4 -3.5 29.5t-3.5 29.5q0 59 52 60q6 0 33.5 -4.5t31.5 -4.5q2 0 19 2h18q45 0 45 -71q0 -10 -4 -35v-31q-2 -25 -2 -31q53 0 71.5 -2t33 -21.5t14.5 -39.5v-12q-2 -8 -2 -13q-4 -49 -4 -147 q0 -37 -5.5 -47t-29.5 -23q-16 -8 -51 -8q-53 0 -72 -2q-74 -25 -80 -31q-20 -10 -47 -47q-31 -45 -31 -84v-14q-2 -14 -2 -16q0 -4 2 -7v-8v-6q-2 -4 -2 -8q0 -2 4 -21.5t4 -21.5q35 -104 123 -143q80 -35 148 -35q55 0 55 -64q0 -4 -3 -32.5t-3 -34.5t3 -42t3 -44 q-2 -14 -2 -33q0 -57 -70 -57h-26q-23 2 -27 2q2 -12 2 -54q0 -4 2 -26v-27q0 -57 -49 -57q-2 0 -23.5 3t-25.5 3q-6 0 -22.5 -2t-24.5 -2q-53 0 -54 63q0 10 2.5 57.5t2.5 59.5q-14 2 -107 49q-8 4 -47 35q-80 61 -125 156q-18 53 -41 104q-12 49 -12 135q0 6 -2 47t-2 49z " />
<glyph unicode="&#xa3;" horiz-adv-x="1024" d="M14 164q0 2 2 24.5t2 26.5q0 31 15 43q10 6 45 14q164 35 164 193v24q-2 14 -2 19q0 31 -15 94q0 12 -10 27q4 0 -22 -2q-4 0 -18.5 2t-16.5 2h-13q-10 -2 -12 -2h-22q-2 0 -18.5 -2t-20.5 -2q-33 0 -41 51q0 4 2 29v27.5v45.5q-2 41 -2 49q0 45 51 45q2 0 24 2h27 q31 0 31 11q0 2 -2 7t-2 11t-4 21v16l-11 25q-8 18 -8 65q0 2 -2 16.5t-2 18.5q0 8 2 20v17q-2 12 -2 16q0 47 6 64q6 61 45 116q35 63 95 107q33 25 86 45q41 16 71 23q6 0 41 7t43 7h23q16 -2 24 -2q4 0 37 2h39q2 0 22.5 -2t24.5 -2h8q4 0 7 -2q18 0 36 -6q8 -4 13 -5 q2 -2 14 0q23 0 129 -32q41 -12 41 -47q0 -6 -6 -43t-6 -43q0 -16 -4 -52q-2 -10 -9 -32v-4q0 -4 2 -15v-16q0 -47 -43 -47q-16 0 -53 12q-43 14 -90 14q-35 8 -53 9q-6 0 -41 2h-41q-70 0 -102 -37q-25 -27 -25 -68q0 -6 2 -25.5t2 -21.5q8 -55 8 -62.5t8.5 -34t8.5 -30.5 q4 -20 16 -20q4 0 8 2h8q2 0 15.5 -2.5t15.5 -2.5t21 3h20t14 2h13h35q2 0 24 2h27q45 0 55 -4q16 -10 16 -48q0 -2 2 -14v-16l-2 -33t-2 -41q0 -4 3 -26.5t3 -28.5q0 -41 -55 -41q-6 0 -18 2h-16.5h-14.5q-12 -2 -14 -2t-17 2h-16h-23q-2 0 -12 2h-14q4 0 -21 -2 q-10 0 -24 -6v-31q0 -4 2 -33t2 -35q0 -4 -4 -33.5t-4 -36.5t-6.5 -26.5t-22.5 -56.5q-8 -14 -23 -45q-12 -23 -12 -33t12 -14q2 0 17 2h16q4 0 23.5 -2t23.5 -2h17q16 0 34 -7h29q8 0 109 -12q12 0 32 4q2 0 68 4t69 4t22.5 3.5t23.5 3.5q29 0 28 -37v-19q-2 -14 -2 -18 v-29q0 -6 -2 -38t-2 -38q0 -2 3 -25.5t3 -27.5q0 -31 -8 -43q-12 -20 -76 -27q-14 0 -26 -2l-37 -6h-45q-2 0 -19 -2h-20q-86 4 -84 4q-27 6 -84 15q-39 4 -145 14q-25 2 -45 2q-2 0 -18.5 2t-20.5 2h-21q-16 -2 -20 -2q-2 0 -15.5 2t-17.5 2q-12 0 -37 -4h-37h-28 q-25 -2 -29 -2q12 0 -62 -12q-25 -4 -41 -4q-45 0 -45 47q0 2 2 24v26.5v18.5q-2 14 -2 21q-4 29 -4 41z" />
<glyph unicode="&#xa5;" horiz-adv-x="1236" d="M-4 1407q0 18 20 33q10 2 31 8l51 -4q10 0 61.5 2t59.5 2h41l55 2q43 2 60 -33q12 -25 28 -57q8 -16 9 -27q20 -45 65 -127q4 -6 64 -155q20 -43 47 -90l20 -27q6 -6 15 -6q20 0 41 43q6 12 32 73q8 25 37 90.5t45 108.5q4 10 41 84q29 80 47 96q25 25 103 25 q47 0 123 -2q8 0 41.5 3t40.5 3q61 0 61 -33q0 -2 -6 -20.5t-6 -22.5q-33 -72 -76 -164q-45 -106 -119 -247q-8 -16 -8 -29q0 -18 35 -18q4 0 22.5 2t20.5 2q80 0 80 -43q0 -4 -2 -24.5t-2 -23.5q0 -78 -13.5 -89t-36.5 -11h-65q-119 0 -131.5 -5t-30.5 -40q-41 -76 -41 -90 q0 -18 23 -18q-6 0 28.5 2t79.5 2q4 0 78 -7q66 0 65 0q35 -4 35 -38v-17q-2 -12 -2 -14q0 -6 2 -42t2 -38q0 -29 -20.5 -37t-106.5 -8q2 0 -79 6l-66 -4q-27 2 -66 0q-27 -2 -30 -23q-8 -8 -8 -41q0 -8 4 -68.5t4 -70.5l-2 -59q4 -47 2 -60q-4 -47 -39 -57l-62 2 q-45 -4 -49 -4q-59 2 -100 0q-2 0 -22.5 -2t-24.5 -2q-57 0 -60 53q-6 123 -6 152v6l4 92l-4 37v20q0 27 -45 27q-10 0 -65.5 -4t-63.5 -4q2 0 -59 6h-88q-33 8 -52 45q-4 14 0 70l-2 30q-4 47 56 47h22q18 -2 21 -2l53 5q4 -1 76 -7q41 -4 78 4q14 2 14 17q0 8 -25 49 q-12 31 -30 68q-6 14 -19.5 15t-36.5 3h-20q-25 4 -47 4q-51 0 -64 -2q-25 -4 -28 -4q-41 0 -54 31q-4 8 -6 73l-2 50q0 12 17 32q10 12 30 13h39q35 -2 39 -2q37 0 37 16q0 6 -43 100q-8 25 -37 80q-23 39 -49 103q-41 76 -82 159q-2 10 -4 27z" />
<glyph unicode="&#xa8;" horiz-adv-x="598" d="M-82 1352q0 29 18.5 45t36.5 16h27q0 -2 2 -2h8l35 2l35 2h29q23 -2 26 -2q6 0 37 2t35 2q39 0 39 -43v-33q0 -2 2 -20v-19.5v-19.5q-2 -16 -2 -20q0 -2 2 -19v-17v-20q-2 -16 -2 -20v-21q0 -35 -37 -39h-62q-6 0 -43.5 -2t-46.5 -2q-2 0 -20 2h-22.5h-24.5 q-18 -2 -23 -2q-33 0 -47 29q2 -10 2 39q0 10 -2 78.5t-2 83.5zM350 1290q0 2 2 22.5t2 24.5q0 2 -2 17.5t-2 19.5q0 45 41 45q4 0 27.5 -2t27.5 -2q10 0 33 2h31.5h34.5q20 -2 30 -2q4 0 25 2h25q20 0 41 -18q12 -10 12 -35q0 -2 2 -12v-13v-59q0 -2 -2 -22.5t-2 -24.5v-37 q0 -72 -41 -72q-2 0 -17 2h-18h-25q-20 -2 -24 -2h-47q-6 0 -39 2h-37h-29q-41 0 -45 37v60q0 4 -2 32.5t-2 34.5z" />
<glyph unicode="&#xa9;" horiz-adv-x="1705" d="M125 723q0 309 217 522q213 207 512 207q311 0 520 -213t209 -514q0 -305 -211 -518t-520 -213q-293 0 -506 203q-221 211 -221 526zM190 723q0 -279 195 -471.5t469 -192.5q281 0 472.5 193.5t191.5 470.5q0 274 -189.5 468.5t-470.5 194.5t-474.5 -194.5t-193.5 -468.5 zM358 723q0 217 138.5 365.5t373.5 148.5q233 0 402 -174l-178 -172q-104 100 -226 100q-127 0 -196 -84q-59 -72 -60 -182q0 -119 71 -191.5t189 -72.5q124 0 222 92l178 -164q-164 -172 -402 -172q-242 0 -381 152q-131 139 -131 354z" />
<glyph unicode="&#xaa;" horiz-adv-x="724" d="M57 1032v8q4 27 21 60q4 4 26.5 30.5t24.5 28.5q25 25 100 47q41 12 90 13h19q4 0 16 2h15q20 0 32 -7q-4 0 23 -4q25 0 25 19q-2 10 -13 20q-20 25 -74 21l-65 -4q-29 -6 -70 -17q-12 -2 -32 -10q-37 -14 -50 -14q-18 0 -28.5 8t-10.5 27q0 2 3 22v23v61q0 25 14 39 q14 6 35 16q147 37 209 37q170 0 225 -74q2 -2 6 -7t5 -6l15 -15q23 -31 23 -84v-51q-2 -45 -2 -54q0 -2 2 -20v-22.5v-18.5q-2 -14 -2 -16t2 -21v-20.5v-30.5q-2 -25 -2 -31q0 -2 2 -22v-23v-78q0 -2 2 -14v-16q0 -31 -33 -41q-12 -4 -67 -5h-31q-27 -2 -33 -2 q-18 0 -23 17.5t-10 17.5q-4 0 -11 -7t-19 -13q-45 -20 -109 -21q-111 0 -170 49q-41 35 -51 62q-14 16 -23 59q-6 18 -6 82zM258 1008q0 -27 25.5 -43.5t54.5 -16.5q-14 0 35 6q12 2 41.5 13.5t29.5 42.5q0 12 -8 20q-20 23 -61 33q-20 -2 -19 -2q-20 2 -18 2 q-16 -4 -37 -10q-43 -12 -43 -45z" />
<glyph unicode="&#xab;" horiz-adv-x="724" d="M31 438q0 6 2 39t2 39q0 14 -2 44t-2 44v27q0 33 35 59q131 100 155 129q47 53 66 53q33 0 32 -41q0 8 -4 -55q-6 -82 -6 -96q0 -2 2 -21v-20q0 -35 -49 -70q-33 -23 -33 -30q0 -12 21 -25q12 -8 35.5 -24t25.5 -41v-99q2 -14 3 -32.5t3 -32.5q4 -20 5 -33q0 -16 -7 -23 q-16 -16 -32 -16q-8 0 -31 23q-31 27 -64 55q-16 8 -24 14l-19 19q-6 2 -15 10t-28.5 22.5t-50.5 32.5q-20 12 -20 49zM383 446q0 8 2 64v65v29q-2 25 -2 31q0 20 5 27.5t44 33.5q14 12 41 35q55 47 109 100l18 25q18 18 33 18q31 0 35 -43v-47q0 -6 -2 -31.5t-2 -29.5 t2 -36t2 -38q0 -49 -39 -71q-12 -6 -37 -25q-14 -6 -14 -16q0 -18 40 -33q45 -23 46 -58v-45q-2 -37 -2 -45q0 -6 4 -48t4 -50q0 -37 -33 -41q-12 0 -34.5 19.5t-63.5 52.5q-53 45 -104.5 82t-51.5 75z" />
<glyph unicode="&#xad;" horiz-adv-x="598" d="M59 537q0 78 7 94q12 33 57 43h45q4 0 27.5 2t29.5 2q4 0 27.5 -3t30.5 -3q2 0 22.5 2t24.5 2t30.5 -2t32.5 -2t41 2h41q41 0 53 -37q8 -16 9 -115q0 -4 -2.5 -24.5t-2.5 -24.5q0 -29 -2 -43q-8 -55 -65 -55q-2 0 -16 2h-20.5h-22.5q-16 -2 -23 -2q-4 0 -33 2h-32h-31 q-25 -2 -31 -2q-10 0 -31 2h-32q-4 0 -31 -2t-31 -2q-51 0 -63 49q-8 35 -9 115z" />
<glyph unicode="&#xae;" horiz-adv-x="1705" d="M125 723q0 311 217 522q211 207 510 207q311 0 521 -213t210 -514q0 -305 -212 -518t-521 -213q-293 0 -504 203q-221 211 -221 526zM190 723q0 -279 194 -471.5t468 -192.5q281 0 473.5 193.5t192.5 472.5q0 272 -190.5 466.5t-471.5 194.5q-279 0 -472.5 -194.5 t-193.5 -468.5zM512 262v938h334q150 0 221 -22q82 -27 127 -99q39 -59 39 -133q0 -141 -164 -215q49 -31 66 -57q25 -37 39 -119q20 -121 30 -162q18 -74 49 -131h-258q-31 61 -51 201.5t-48 166t-159 25.5v-393h-225zM737 834h99q100 0 131 18q41 25 41 82q0 63 -50 84 q-25 10 -153 10h-68v-194z" />
<glyph unicode="&#xaf;" horiz-adv-x="598" d="M25 1178q0 2 3 23.5t3 25.5q0 8 -2 23.5t-2 21.5q0 55 63 55q12 0 85 -3t87 -3q18 0 57 4t58 4q4 0 33.5 -3t35.5 -3q4 0 29 3t31 3q68 0 67 -49q0 -4 -4 -31.5t-4 -34.5q0 -2 2 -16v-18q0 -47 -61 -47q-6 0 -49 3t-51 3q-20 0 -39 -6h-29q-23 -2 -25 -3q-6 0 -41.5 3.5 t-44.5 3.5q-4 0 -28.5 -2t-28.5 -2h-39h-22q-20 -2 -25 -3q-59 0 -59 48z" />
<glyph unicode="&#xb2;" horiz-adv-x="724" d="M37 602q0 23 12 39q2 6 55.5 50t67.5 52q25 14 33 27l24 25q31 31 56 43q8 6 26.5 24.5t30.5 26.5q6 8 16 22l13 13q43 43 57 73q4 4 9 15.5t16 34.5q2 8 6 14q4 14 4 41q0 4 2 8v8q0 27 -17.5 57.5t-39.5 38.5q-41 18 -66 19q-45 0 -75.5 -24.5t-30.5 -61.5q0 -2 2 -14 v-15q0 -12 -7 -28q-14 -23 -47 -23q-6 0 -16 2h-18q-27 -2 -25 -2q-2 0 -16 2h-19q-43 0 -43 72q0 39 4 59q0 33 26.5 85t55.5 79q70 68 170 70q4 2 92 2q43 0 103.5 -22.5t106.5 -76t59 -127.5q6 -37 8 -69q0 -100 -35 -162q-2 -4 -8 -16.5t-17 -32.5q-4 -6 -14 -19 l-12 -18q-4 -6 -12.5 -14.5t-14.5 -18.5q-16 -20 -41 -49q-12 -12 -76 -70q-6 -4 -18 -14q0 -2 37 -2q-8 -2 57 -2q2 0 17 2h18h47q66 0 66 -45v-18q-2 -12 -2 -19q0 -2 2 -12v-12.5v-12.5q-2 -12 -2 -14t2 -10v-13q0 -12 -15.5 -29.5t-25.5 -21.5h-39q-4 0 -33 2h-35h-84 q-2 0 -24 2h-23.5h-17.5q-14 -2 -17 -2h-78q-4 0 -30 2h-30h-17q-10 -2 -17 -2q-4 0 -24 2h-27q-2 0 -20.5 -2t-22.5 -2q-27 0 -36 6t-9 33q0 4 -2 23.5t-2 21.5z" />
<glyph unicode="&#xb3;" horiz-adv-x="724" d="M23 670q0 18 10 29.5t24 23.5l62 61q8 4 22 4t29 -10q35 -35 41 -39t15.5 -10t14.5 -9t39.5 -12.5t47.5 -9.5q72 0 108 39q25 27 25 56v14q-2 10 -2 12q0 20 -17.5 42t-81.5 46q-25 10 -53 12.5t-43.5 13.5t-15.5 71q0 27 6 40q10 25 41 29q4 2 12 2h10q6 0 18.5 4 t20.5 4q76 23 76 80q0 35 -20 54q-33 31 -80 30q-47 0 -56 -8q-39 -16 -69 -47q-8 -10 -25.5 -25.5t-29.5 -15.5q-18 0 -41 27q-16 16 -25 20q-12 14 -31 35q-16 13 -16 31q0 16 12 36q31 51 101 91q80 45 182 45q152 0 231 -78q70 -68 70 -139q0 -51 -6 -72 q-12 -41 -41 -78q-27 -25 -53 -51q23 -16 38 -23q53 -35 76 -96q20 -53 21 -119q0 -156 -140 -225q-86 -43 -208 -43q-92 0 -166 39q-14 10 -45 29q-14 8 -48 32q-41 39 -40 58z" />
<glyph unicode="&#xb4;" horiz-adv-x="598" d="M106 1153q0 20 15 41q6 15 6 27v4l10 20q2 4 13 68q0 6 5 18t7 22.5t4 30.5q12 35 37 35q2 0 17.5 -2t19.5 -2q14 0 108 4q4 0 22.5 -2t20.5 -2q6 0 33 3t29 3q37 -6 36 -39q0 -29 -16 -55q-6 -8 -15 -25.5t-26 -46.5q-8 -10 -18 -20q-2 -2 -6.5 -9t-6.5 -12 q-12 -16 -30 -43q-2 -8 -11 -24q-16 -31 -84 -31h-30q-25 -2 -31 -2q-4 0 -33 2h-32q-43 0 -44 37z" />
<glyph unicode="&#xb7;" horiz-adv-x="425" d="M51 524q0 6 3 50.5t3 52.5q0 57 37 57q2 0 21.5 -2t23.5 -2t33 3t35 3q4 0 35.5 -3t38.5 -3q2 0 16 2h18q45 0 56 -23q4 -10 2 -55v-43q2 -39 2 -43t-2 -31.5t-2 -33.5q0 -2 2 -19.5t2 -21.5q0 -20 -16.5 -36t-34.5 -16q-2 0 -21.5 2.5t-23.5 2.5q-6 0 -45 -2.5t-48 -2.5 q-4 0 -30 2h-31h-14q-12 -2 -15 -2q-39 0 -43 39v25v49q-2 43 -2 51z" />
<glyph unicode="&#xb8;" horiz-adv-x="598" d="M154 -231q0 6 3 20t3 24.5t4 34.5q6 33 41 33q2 0 14 -2h14q39 0 39 37q0 6 -12 27q-27 43 -27 92q0 24 23 28h20q-10 2 68 3q14 0 23 -19q2 -10 4 -35q0 -6 2 -17t2 -18q0 -12 -6.5 -22t-6.5 -16q0 -12 19 -29q10 -6 27 -16q35 -35 34 -60q0 -8 -4 -29q-10 -49 -30 -65 q-47 -35 -93 -35q-2 0 -17 2t-19 2q-2 0 -13 -2h-12q-10 0 -55 13.5t-45 48.5z" />
<glyph unicode="&#xb9;" horiz-adv-x="724" d="M104 1206q0 12 6.5 28.5t41.5 43.5q57 41 120 88q10 6 33 18q12 10 41 24.5t74 14.5q55 0 72 -8q35 -45 34 -55v-17q-2 -12 -2 -16q0 -2 2 -14v-18.5v-45.5q-2 -39 -2 -47q0 -4 2 -35v-36v-58q-2 -53 -2 -63q0 -2 2 -17v-16v-49q0 -2 2 -23v-24v-74v-19q-2 -16 -2 -20 q0 -23 2 -35v-37q-2 -31 -2 -37t2 -51v-51q0 -37 -47 -37q-6 0 -42 3t-42 3q-2 0 -23.5 -3t-25.5 -3q-43 0 -43 55q0 35 6 66v21q-2 16 -2 20q0 6 2 43v45q0 2 2 17.5t2 19.5v27q-2 23 -2 28q0 2 2 25v27v36q-2 31 -2 37q0 4 2 25v24v70q0 49 -20 49q-18 0 -47 -18 q-45 -31 -68 -31q-14 0 -45 34t-31 66z" />
<glyph unicode="&#xba;" horiz-adv-x="768" d="M37 1081q0 2 2 19v19v18q-2 14 -2 18q0 49 24 102q20 45 54 78q4 4 24 21l25 24q12 12 26 21q98 55 175 55q2 0 24 2h25q59 0 100 -20q10 -6 35 -19q51 -23 121 -106q57 -68 57 -174q-2 -37 -4 -45q-4 -49 -6 -62q-6 -20 -25 -65q-23 -53 -76 -107q-29 -23 -55 -37 q-18 -6 -51 -22q-25 -10 -47 -15q-31 -6 -94 -6l-60 8q-41 6 -53 11q-18 4 -51 22q-53 31 -74 58q-14 18 -36.5 45.5t-41.5 87.5q-16 49 -16 69zM244 1126q0 -39 14 -77.5t61 -63.5q16 -8 60 -12q39 0 86 39q18 16 33.5 49.5t15.5 64.5q0 39 -15.5 66t-41.5 39 q-35 23 -80 22q-57 0 -95 -44t-38 -83z" />
<glyph unicode="&#xbb;" horiz-adv-x="724" d="M51 844q0 37 33 37q14 0 33 -19q37 -33 104 -86q12 -10 41 -31q53 -39 65.5 -52t12.5 -40q0 -6 -2 -60t-2 -63q0 -4 2 -30.5t2 -32.5q0 -29 -33 -51q-49 -33 -102 -86l-25 -25l-39 -39q-35 -43 -51 -43q-37 0 -37 56q0 6 2 39.5t2 41.5v33q-2 23 -2 33q0 49 7.5 67.5 t45 39t37.5 30.5q0 8 -34.5 27.5t-34.5 21.5q-18 10 -19 43q0 4 2 29v27q0 61 -4 91t-4 42zM399 850q0 14 15.5 25.5t23.5 11.5q12 0 33 -25q16 -16 49 -41q2 -2 19.5 -14t21.5 -15.5t21 -19.5l32 -24q12 -8 45 -27q25 -12 29 -21.5t4 -44.5q0 -4 -2 -40.5t-2 -43.5 q0 -27 2 -39q4 -23 4 -32v-19q-2 -14 -2 -18q0 -29 -24 -45q-14 -8 -43 -31q-106 -80 -117 -100l-45 -45q-18 -14 -29 -15q-31 0 -31 41q1 33 9 82v105q0 45 41 70.5t41 35.5t-15.5 20.5t-39 27t-29.5 46.5q0 4 2 23v21v26q-2 20 -2 24.5t-2 25t-2 22.5q0 14 -1.5 21 t-3.5 17.5t-2 14.5z" />
<glyph unicode="&#xbf;" horiz-adv-x="724" d="M88 281q0 106 49 208q8 16 25 52q6 14 28 73q35 92 48 220q2 23 6 64.5t4 35.5v20q-2 16 -2 19q0 55 26 69q12 6 62 7q4 0 24 2h25q55 0 61 -29q6 -14 19 -88q12 -80 12 -113q0 -106 -35 -248q-25 -100 -24 -131q0 -49 20 -73q31 -37 88 -37q10 0 14.5 2l22.5 10 q12 6 23 4q35 0 39 -39v-49q0 -16 2 -70.5t2 -68.5v-27q0 -31 -9.5 -40t-58.5 -29q-59 -25 -102 -25q-4 0 -27 2h-26h-17q-14 -2 -18 -2h-52h-22q-43 0 -100 35q-16 10 -54 45q-29 39 -39 76q-14 55 -14 125zM182 1182q0 4 2 23.5t2 23.5t-2 39t-2 41q0 4 3 38.5t3 41.5 q0 43 45 49q4 0 52.5 3t50.5 3h29q25 -2 28.5 -2t19 -2t17.5 -2h31q39 0 45 -29v-25q-2 -23 -2 -26q0 -6 2 -42t2 -44q0 -4 -2 -31t-2 -33q0 -2 2 -20v-21q0 -33 -19 -43q-27 -12 -106 -12q-25 0 -33 1t-37.5 3t-31.5 2t-18.5 -2t-20.5 -2q-57 0 -58 68z" />
<glyph unicode="&#xc0;" horiz-adv-x="1193" d="M0 72q0 25 8 49q4 10 10 31q2 4 7 38l6 43q8 33 18 76q2 31 10 90q8 49 29 127q6 16 12 49t17 93q27 133 37 153q6 12 14 39q2 8 4 27q18 123 33 168q2 8 6 27.5t9 35t16 47.5q6 16 10 52q16 123 52 173t118 50q25 0 51 -2q47 -4 209 4q88 14 151 -35q41 -31 62 -107 l22 -83q8 -23 23 -68l16 -78q2 -12 6 -37q2 -8 11 -30q10 -33 28 -111q2 -23 15 -72q23 -76 25.5 -99.5t6.5 -62.5q2 -6 7.5 -18t7.5 -18q8 -33 18 -76q2 -23 8 -64q6 -12 15 -41q20 -72 22 -98q2 -12 8 -41q14 -35 31 -115q4 -14 10 -45q6 -14 15 -39q6 -31 6 -59 q0 -39 -88 -39q-8 0 -55.5 -3t-57.5 -3q-82 0 -102 8q-43 14 -66 78q-4 18 -16 53q-4 8 -12 25q-18 41 -58 57q-29 12 -125 12h-65q-16 0 -64 -10q-66 -14 -84 -35q-45 -51 -49 -127q-2 -23 -20.5 -41t-71.5 -18q-6 0 -49 2h-49q-4 0 -30 -2t-32 -2q-53 0 -63 10 q-33 18 -33 62zM342 1794q0 29 18 41q12 8 33 8q4 0 26.5 -2t29.5 -2q8 0 57 3t59 3q61 0 83 -23.5t30 -80.5q0 -14 4 -45q2 -4 7 -14.5t6 -14.5t3 -25v-24q8 -57 9 -45q0 -45 -74 -41h-29q-27 -2 -31 -2q-2 0 -18 2h-18.5h-12.5q-10 -2 -14 -2q-33 0 -49 45q-4 12 -23 35 q-10 14 -47 90q-12 27 -26 47q-23 33 -23 47zM457 641q0 -98 129 -98q43 0 94 10q43 8 43 51q0 14 -2 25q-6 70 -25 129q-6 20 -18 63q-4 23 -12 66q-4 14 -15 41q-4 12 -20 73q-12 45 -47 46q-18 0 -35 -23q-2 -4 -45 -131l-6 -49q-6 -20 -11.5 -48t-17.5 -85 q-12 -45 -12 -70z" />
<glyph unicode="&#xc1;" horiz-adv-x="1193" d="M0 72q0 25 8 49q4 10 10 31q2 4 7 38l6 43q8 33 18 76q2 31 10 90q8 49 29 127q6 16 12 49t17 93q27 133 37 153q6 12 14 39q2 8 4 27q18 123 33 168q2 8 6 27.5t9 35t16 47.5q6 16 10 52q16 123 52 173t118 50q25 0 51 -2q47 -4 209 4q88 14 151 -35q41 -31 62 -107 l22 -83q8 -23 23 -68l16 -78q2 -12 6 -37q2 -8 11 -30q10 -33 28 -111q2 -23 15 -72q23 -76 25.5 -99.5t6.5 -62.5q2 -6 7.5 -18t7.5 -18q8 -33 18 -76q2 -23 8 -64q6 -12 15 -41q20 -72 22 -98q2 -12 8 -41q14 -35 31 -115q4 -14 10 -45q6 -14 15 -39q6 -31 6 -59 q0 -39 -88 -39q-8 0 -55.5 -3t-57.5 -3q-82 0 -102 8q-43 14 -66 78q-4 18 -16 53q-4 8 -12 25q-18 41 -58 57q-29 12 -125 12h-65q-16 0 -64 -10q-66 -14 -84 -35q-45 -51 -49 -127q-2 -23 -20.5 -41t-71.5 -18q-6 0 -49 2h-49q-4 0 -30 -2t-32 -2q-53 0 -63 10 q-33 18 -33 62zM438 1571q0 14 9.5 32.5t10.5 23.5t2 11.5t2 9.5t5 13q6 33 14 70q6 10 13 34q0 14 4 39q12 33 34 33q8 0 15 -2h39q6 0 43 2t45 2q2 0 25.5 -3t27.5 -3t28.5 4t28.5 4q37 0 37 -43q0 -23 -16 -53q-6 -8 -16.5 -25.5t-26.5 -46.5q-6 -6 -17 -20l-12 -19 q-4 -8 -16 -22.5t-17 -24.5q-16 -37 -28.5 -45t-71.5 -8h-35q-29 -2 -35 -2q-61 0 -69 4q-23 4 -23 35zM457 641q0 -98 129 -98q43 0 94 10q43 8 43 51q0 14 -2 25q-6 70 -25 129q-6 20 -18 63q-4 23 -12 66q-4 14 -15 41q-4 12 -20 73q-12 45 -47 46q-18 0 -35 -23 q-2 -4 -45 -131l-6 -49q-6 -20 -11.5 -48t-17.5 -85q-12 -45 -12 -70z" />
<glyph unicode="&#xc2;" horiz-adv-x="1193" d="M0 72q0 25 8 49q4 10 10 31q2 4 7 38l6 43q8 33 18 76q2 31 10 90q8 49 29 127q6 16 12 49t17 93q27 133 37 153q6 12 14 39q2 8 4 27q18 123 33 168q2 8 6 27.5t9 35t16 47.5q6 16 10 52q16 123 52 173t118 50q25 0 51 -2q47 -4 209 4q88 14 151 -35q41 -31 62 -107 l22 -83q8 -23 23 -68l16 -78q2 -12 6 -37q2 -8 11 -30q10 -33 28 -111q2 -23 15 -72q23 -76 25.5 -99.5t6.5 -62.5q2 -6 7.5 -18t7.5 -18q8 -33 18 -76q2 -23 8 -64q6 -12 15 -41q20 -72 22 -98q2 -12 8 -41q14 -35 31 -115q4 -14 10 -45q6 -14 15 -39q6 -31 6 -59 q0 -39 -88 -39q-8 0 -55.5 -3t-57.5 -3q-82 0 -102 8q-43 14 -66 78q-4 18 -16 53q-4 8 -12 25q-18 41 -58 57q-29 12 -125 12h-65q-16 0 -64 -10q-66 -14 -84 -35q-45 -51 -49 -127q-2 -23 -20.5 -41t-71.5 -18q-6 0 -49 2h-49q-4 0 -30 -2t-32 -2q-53 0 -63 10 q-33 18 -33 62zM274 1563q0 27 56 82q4 4 12 13t12 13q12 20 37 60q18 23 43 53q8 14 29.5 36.5t48.5 22.5h27q23 -2 26 -2q4 0 29 2h27q49 0 92 -57q10 -10 30 -33q6 -8 19 -27q20 -23 47 -57q8 -16 29 -43q33 -35 32 -51q0 -39 -45 -39h-41h-26q-23 -2 -27 -2t-22 2h-23.5 h-15.5q-12 -2 -17 -2q-18 0 -37 22q-8 14 -28 37q-14 10 -33 11q-23 0 -39 -27q-27 -41 -51 -41q-4 0 -14 2h-12.5h-18.5q-12 -2 -17 -2h-51h-20q-16 -2 -21 -2q-37 0 -37 29zM457 641q0 -98 129 -98q43 0 94 10q43 8 43 51q0 14 -2 25q-6 70 -25 129q-6 20 -18 63 q-4 23 -12 66q-4 14 -15 41q-4 12 -20 73q-12 45 -47 46q-18 0 -35 -23q-2 -4 -45 -131l-6 -49q-6 -20 -11.5 -48t-17.5 -85q-12 -45 -12 -70z" />
<glyph unicode="&#xc3;" horiz-adv-x="1193" d="M0 72q0 25 8 49q4 10 10 31q2 4 7 38l6 43q8 33 18 76q2 31 10 90q8 49 29 127q6 16 12 49t17 93q27 133 37 153q6 12 14 39q2 8 4 27q18 123 33 168q2 8 6 27.5t9 35t16 47.5q6 16 10 52q16 123 52 173t118 50q25 0 51 -2q47 -4 209 4q88 14 151 -35q41 -31 62 -107 l22 -83q8 -23 23 -68l16 -78q2 -12 6 -37q2 -8 11 -30q10 -33 28 -111q2 -23 15 -72q23 -76 25.5 -99.5t6.5 -62.5q2 -6 7.5 -18t7.5 -18q8 -33 18 -76q2 -23 8 -64q6 -12 15 -41q20 -72 22 -98q2 -12 8 -41q14 -35 31 -115q4 -14 10 -45q6 -14 15 -39q6 -31 6 -59 q0 -39 -88 -39q-8 0 -55.5 -3t-57.5 -3q-82 0 -102 8q-43 14 -66 78q-4 18 -16 53q-4 8 -12 25q-18 41 -58 57q-29 12 -125 12h-65q-16 0 -64 -10q-66 -14 -84 -35q-45 -51 -49 -127q-2 -23 -20.5 -41t-71.5 -18q-6 0 -49 2h-49q-4 0 -30 -2t-32 -2q-53 0 -63 10 q-33 18 -33 62zM274 1608q0 4 7 59q12 104 81 141q23 13 56 13q2 0 15 2t16 2q37 -4 47 -8.5t39 -12.5q12 -6 24 -10t25 -8q41 -10 68.5 -20.5t39.5 -10.5q35 0 47 29q0 4 6.5 18.5t59.5 14.5q78 0 78 -48q0 -10 -11 -65q0 -12 -2 -39q-14 -115 -133 -115q-29 0 -84 13 q-18 4 -54 17t-51.5 16t-39.5 10q-31 10 -37 10q-27 0 -40 -24.5t-24.5 -30t-78.5 -5.5q-53 0 -54 52zM457 641q0 -98 129 -98q43 0 94 10q43 8 43 51q0 14 -2 25q-6 70 -25 129q-6 20 -18 63q-4 23 -12 66q-4 14 -15 41q-4 12 -20 73q-12 45 -47 46q-18 0 -35 -23 q-2 -4 -45 -131l-6 -49q-6 -20 -11.5 -48t-17.5 -85q-12 -45 -12 -70z" />
<glyph unicode="&#xc4;" horiz-adv-x="1193" d="M0 72q0 25 8 49q4 10 10 31q2 4 7 38l6 43q8 33 18 76q2 31 10 90q8 49 29 127q6 16 12 49t17 93q27 133 37 153q6 12 14 39q2 8 4 27q18 123 33 168q2 8 6 27.5t9 35t16 47.5q6 16 10 52q16 123 52 173t118 50q25 0 51 -2q47 -4 209 4q88 14 151 -35q41 -31 62 -107 l22 -83q8 -23 23 -68l16 -78q2 -12 6 -37q2 -8 11 -30q10 -33 28 -111q2 -23 15 -72q23 -76 25.5 -99.5t6.5 -62.5q2 -6 7.5 -18t7.5 -18q8 -33 18 -76q2 -23 8 -64q6 -12 15 -41q20 -72 22 -98q2 -12 8 -41q14 -35 31 -115q4 -14 10 -45q6 -14 15 -39q6 -31 6 -59 q0 -39 -88 -39q-8 0 -55.5 -3t-57.5 -3q-82 0 -102 8q-43 14 -66 78q-4 18 -16 53q-4 8 -12 25q-18 41 -58 57q-29 12 -125 12h-65q-16 0 -64 -10q-66 -14 -84 -35q-45 -51 -49 -127q-2 -23 -20.5 -41t-71.5 -18q-6 0 -49 2h-49q-4 0 -30 -2t-32 -2q-53 0 -63 10 q-33 18 -33 62zM156 1757q0 63 59 64q4 0 21.5 -2t19.5 -2q4 0 30.5 2t30.5 2h35q2 0 18.5 -2t20.5 -2t15 2h12q10 2 53 2q25 0 30 -13.5t5 -56.5q0 -2 2 -20v-21.5v-19.5q-2 -16 -2 -21q0 -6 2 -20v-23v-2v-27q-2 -18 -2 -26q0 -25 -19 -37q-10 -6 -71 -4q-94 -2 -86 -2 q-4 0 -37 2h-39q-4 0 -28.5 -3t-28.5 -3q-39 0 -39 43v137v27q-2 23 -2 26zM457 641q0 -98 129 -98q43 0 94 10q43 8 43 51q0 14 -2 25q-6 70 -25 129q-6 20 -18 63q-4 23 -12 66q-4 14 -15 41q-4 12 -20 73q-12 45 -47 46q-18 0 -35 -23q-2 -4 -45 -131l-6 -49 q-6 -20 -11.5 -48t-17.5 -85q-12 -45 -12 -70zM612 1696q0 2 2 23.5t2 25.5q0 2 -2 16.5t-2 18.5q0 39 41 43q4 0 26.5 -2t27.5 -2h92h35q29 -2 32 -2q2 0 21 2h22q14 0 31 -9q10 -8 23 -24v-109q0 -4 -2.5 -33.5t-2.5 -35.5q0 -2 3 -15v-14q0 -53 -41 -53q-6 0 -18.5 2 t-16.5 2q-2 0 -15.5 -2t-15.5 -2t-6 2h-6q-14 0 -86 2h-92q-43 0 -48 33v57q0 4 -2 37t-2 39z" />
<glyph unicode="&#xc5;" horiz-adv-x="1193" d="M0 72q0 25 8 49q4 10 10 31q2 4 7 38l6 43q8 33 18 76q2 31 10 90q8 49 29 127q6 16 12 49t17 93q27 133 37 153q6 12 14 39q2 8 4 27q18 123 33 168q2 8 6 27.5t9 35t16 47.5q6 16 10 52q16 123 52 173t118 50q25 0 51 -2q47 -4 209 4q88 14 151 -35q41 -31 62 -107 l22 -83q8 -23 23 -68l16 -78q2 -12 6 -37q2 -8 11 -30q10 -33 28 -111q2 -23 15 -72q23 -76 25.5 -99.5t6.5 -62.5q2 -6 7.5 -18t7.5 -18q8 -33 18 -76q2 -23 8 -64q6 -12 15 -41q20 -72 22 -98q2 -12 8 -41q14 -35 31 -115q4 -14 10 -45q6 -14 15 -39q6 -31 6 -59 q0 -39 -88 -39q-8 0 -55.5 -3t-57.5 -3q-82 0 -102 8q-43 14 -66 78q-4 18 -16 53q-4 8 -12 25q-18 41 -58 57q-29 12 -125 12h-65q-16 0 -64 -10q-66 -14 -84 -35q-45 -51 -49 -127q-2 -23 -20.5 -41t-71.5 -18q-6 0 -49 2h-49q-4 0 -30 -2t-32 -2q-53 0 -63 10 q-33 18 -33 62zM383 1665q0 100 72 156q51 43 106 43t94 -18.5t68 -55.5q39 -49 39 -115q0 -115 -88 -168q-51 -31 -99 -30q-14 0 -41 4l-26 4q-125 41 -125 180zM457 641q0 -98 129 -98q43 0 94 10q43 8 43 51q0 14 -2 25q-6 70 -25 129q-6 20 -18 63q-4 23 -12 66 q-4 14 -15 41q-4 12 -20 73q-12 45 -47 46q-18 0 -35 -23q-2 -4 -45 -131l-6 -49q-6 -20 -11.5 -48t-17.5 -85q-12 -45 -12 -70zM494 1669q0 -33 23.5 -57.5t55.5 -24.5q80 0 80 82q0 86 -80 86q-23 0 -51 -24.5t-28 -61.5z" />
<glyph unicode="&#xc6;" horiz-adv-x="1748" d="M-2 76v2q0 12 25 96q39 127 86 287q23 66 53 160q4 27 16 77q6 20 43 128t39 112q4 20 14 57q8 27 27 78q6 20 19.5 59t35.5 113q8 20 23 64q18 55 22 65q10 20 30 38t82 18t232 6t236 6q12 0 84 2t86 2q6 0 43 -2t43 -2t23 2h22q12 0 21 -2h14q6 -2 8 -2q12 0 23 2h20 h49q4 0 26.5 2t26.5 2h33q29 -2 33 -2q2 0 18 2h19q4 0 19.5 -2t20.5 -2t21 -4q29 0 29 -41v-15q-2 -14 -2 -16t3 -22.5t3 -24.5q0 -2 -2 -21.5t-2 -23.5t2 -28.5t2 -28.5q0 -23 -2 -31q-10 -41 -68 -41h-79q-4 0 -31 -2t-33 -2t-43 2h-45t-57 3t-60 3q-18 0 -67 -10 q-29 -6 -40.5 -41t-11.5 -82q0 -61 15 -84q16 -35 100 -35h55q6 0 46 -2t49 -2h88q8 0 54 2t56 2q39 0 55.5 -22.5t16.5 -88.5q0 -2 2 -21.5t2 -23.5v-16q-2 -14 -2 -18q0 -8 2 -27v-29q0 -29 -8 -45q-29 -29 -72 -28q-4 0 -39 2h-38h-35q-31 -2 -37 -2h-6q-29 0 -60 2 q-2 0 -14 2h-17.5h-31.5q-27 -2 -33 -2h-74q-76 0 -76 -109q0 -53 6.5 -95t51.5 -57h74q4 0 27.5 -2t29.5 -2q2 0 24.5 2t26.5 2q6 0 50 -3t52 -3q4 0 35 2h35h27q23 -2 26 -2q6 0 21 2h20q72 0 88 -34q4 -6 4 -52v-20q2 -20 3 -23q2 -43 2 -69q0 -4 2 -31t2 -31 q0 -25 -22.5 -41t-43.5 -16h-14q-10 2 -17 2q-16 4 -47 4q-49 0 -92 -6h-37q-33 2 -39 2q-4 0 -39.5 -2t-42.5 -2q-18 0 -56 4t-56 4h-53q-47 -2 -56 -2q-14 0 -103 -4t-108 -4q-59 0 -80 20q-35 35 -36 64q-2 2 -2 39q0 57 -11.5 74.5t-46.5 27.5t-71 10q-10 0 -33 2h-33 h-23q-18 -2 -22 -2q-2 0 -21 2h-20q-80 0 -115 -55q-16 -29 -30 -90q-18 -82 -91 -80q-2 0 -22 2h-25q-4 0 -34.5 -2t-36.5 -2q-4 0 -27 2t-29 2h-14q-14 -2 -16 -2q-23 0 -47.5 16.5t-24.5 53.5zM524 653q0 -37 29 -61q18 -16 82 -17h18q14 -2 19 -2q45 2 51 4.5t35 26.5 q10 10 26 41q6 20 13 113v26q-2 20 -2 25q0 4 2 31v32q0 133 -13 203q-10 60 -55 60q-51 0 -82 -101q-16 -41 -37 -100q-14 -51 -49 -152q-6 -14 -18 -45q-2 -2 -10.5 -37.5t-8.5 -46.5z" />
<glyph unicode="&#xc7;" horiz-adv-x="894" d="M39 690q0 37 4 53v25q-2 23 -2 27q0 20 10 82q2 20 8 65q10 72 50 156q35 74 116 162q76 80 133 108q168 82 369 82q90 0 114.5 -14.5t24.5 -69.5v-33q-2 -29 -2 -35v-59q4 -12 4 -43q0 -78 -61 -78q-6 0 -44 5t-44 5q-78 0 -142.5 -31.5t-105.5 -76.5q-27 -31 -68 -119 q-18 -39 -18 -168q0 -37 4 -55q8 -59 49 -154q51 -115 129 -164q72 -45 146 -45q43 0 73.5 6.5t34.5 6.5q47 0 47 -60v-22q-2 -18 -2 -23q0 -10 2 -28v-31q0 -4 -3 -37t-3 -39v-25q0 -49 -45 -65q-29 -8 -121 -8h-26q-23 2 -27 2q-12 0 -20 -12q0 -8 -5 -23q0 -4 -2 -8 t-2 -8q0 -14 21 -21q45 -23 59 -47q2 -2 6 -16l7 -13q4 -8 4 -30q0 -49 -40 -77t-83 -32q-16 -6 -53 -6q-2 0 -18.5 2t-18.5 2q-39 2 -54 10q-20 12 -20 68v20q-2 16 -2 21q0 49 41 49q4 0 12 -2h12q41 0 41 65q0 45 -20 68q-2 2 -57 33q-61 35 -103 67q-14 16 -49 43 q-10 8 -45 37q-84 68 -143 197q-41 90 -52 131q-10 33 -16 121q-4 53 -4 59z" />
<glyph unicode="&#xc8;" horiz-adv-x="1024" d="M84 350q0 18 2 62v61q0 4 2 27v27.5v41.5q-2 35 -2 43v37q-2 33 -2 39v141q0 23 2 35q0 4 2 27.5t2 28.5q0 6 -3 42.5t-3 43.5q0 16 2 47.5t2 46.5q0 6 2 53t2 51q0 8 -3 52t-3 53q0 66 10 86q25 51 72 51h39q33 -2 39 -2q8 0 57 2t59 2q8 0 51.5 -2t49.5 -2h76 q23 0 69.5 3t71.5 3q8 0 63.5 -3t65.5 -3q6 0 41 2t41 2q70 0 70 -68v-30q-2 -27 -3 -33q0 -6 3.5 -47t3.5 -49q0 -23 -23 -54q-4 -6 -28.5 -18t-47.5 -12q-4 0 -30 2h-31t-45 -2t-47 -2q-14 0 -23 2q-18 0 -53 4t-53 4q-78 0 -105 -12q-43 -20 -43 -89q0 -76 4 -92 q12 -41 64 -49q43 -6 76 -6q8 0 54 3t56 3q6 0 46 -4t48 -4q14 0 42 2t40 2q47 0 58 -4q39 -27 37 -61q0 -23 -3.5 -57t-3.5 -83q0 -10 -4 -41q-10 -74 -90 -73h-104q-4 0 -27 2h-26h-21q-18 -2 -23 -2q-4 0 -31.5 3t-33.5 3q-10 0 -30.5 -2t-31.5 -2h-16q-20 0 -43 -11 q-37 -16 -37 -86q0 -109 21 -137q29 -39 143 -39q6 0 43 2h40h36q29 -2 35 -2q80 0 108 4q14 2 43 2q63 0 84 -39q14 -29 15 -86v-14q2 -8 6 -27.5t4 -29.5v-53q0 -68 -70 -68q-12 0 -34.5 2t-35.5 2q-23 0 -47 -2q-10 0 -27.5 -2t-21.5 -2q2 0 -47 2l-49 2q-23 0 -88 -2 q-27 0 -62.5 -2t-39.5 -2t-36 2t-53 2q-76 2 -90 2h-65q-16 0 -39 -2h-27q-39 0 -59 18q-33 29 -33 78q0 4 2 29v27q0 12 -2 35.5t-2 35.5v37q0 8 -2 47t-2 45zM279 1794q0 29 18 41q12 8 33 8q4 0 26.5 -2t28.5 -2q8 0 57.5 3t59.5 3q61 0 82.5 -23.5t29.5 -80.5 q0 -14 4 -45q2 -4 7.5 -14.5t6.5 -14.5t3 -25v-24q8 -57 8 -45q0 -45 -74 -41h-28q-27 -2 -31 -2q-2 0 -18 2h-18.5h-12.5q-10 -2 -15 -2q-33 0 -49 45q-4 12 -22 35q-10 14 -47 90q-12 27 -27 47q-22 33 -22 47z" />
<glyph unicode="&#xc9;" horiz-adv-x="1024" d="M84 350q0 18 2 62v61q0 4 2 27v27.5v41.5q-2 35 -2 43v37q-2 33 -2 39v141q0 23 2 35q0 4 2 27.5t2 28.5q0 6 -3 42.5t-3 43.5q0 16 2 47.5t2 46.5q0 6 2 53t2 51q0 8 -3 52t-3 53q0 66 10 86q25 51 72 51h39q33 -2 39 -2q8 0 57 2t59 2q8 0 51.5 -2t49.5 -2h76 q23 0 69.5 3t71.5 3q8 0 63.5 -3t65.5 -3q6 0 41 2t41 2q70 0 70 -68v-30q-2 -27 -3 -33q0 -6 3.5 -47t3.5 -49q0 -23 -23 -54q-4 -6 -28.5 -18t-47.5 -12q-4 0 -30 2h-31t-45 -2t-47 -2q-14 0 -23 2q-18 0 -53 4t-53 4q-78 0 -105 -12q-43 -20 -43 -89q0 -76 4 -92 q12 -41 64 -49q43 -6 76 -6q8 0 54 3t56 3q6 0 46 -4t48 -4q14 0 42 2t40 2q47 0 58 -4q39 -27 37 -61q0 -23 -3.5 -57t-3.5 -83q0 -10 -4 -41q-10 -74 -90 -73h-104q-4 0 -27 2h-26h-21q-18 -2 -23 -2q-4 0 -31.5 3t-33.5 3q-10 0 -30.5 -2t-31.5 -2h-16q-20 0 -43 -11 q-37 -16 -37 -86q0 -109 21 -137q29 -39 143 -39q6 0 43 2h40h36q29 -2 35 -2q80 0 108 4q14 2 43 2q63 0 84 -39q14 -29 15 -86v-14q2 -8 6 -27.5t4 -29.5v-53q0 -68 -70 -68q-12 0 -34.5 2t-35.5 2q-23 0 -47 -2q-10 0 -27.5 -2t-21.5 -2q2 0 -47 2l-49 2q-23 0 -88 -2 q-27 0 -62.5 -2t-39.5 -2t-36 2t-53 2q-76 2 -90 2h-65q-16 0 -39 -2h-27q-39 0 -59 18q-33 29 -33 78q0 4 2 29v27q0 12 -2 35.5t-2 35.5v37q0 8 -2 47t-2 45zM375 1571q0 14 9 32.5t10 23.5t2 11.5t2 9.5t5 13q6 33 15 70q6 10 12 34q0 14 4 39q12 33 35 33q8 0 14 -2h39 q6 0 43 2t45 2q2 0 26 -3t28 -3t28.5 4t28.5 4q37 0 37 -43q0 -23 -17 -53q-6 -8 -16 -25.5t-27 -46.5q-6 -6 -16 -20l-12 -19q-4 -8 -16.5 -22.5t-16.5 -24.5q-16 -37 -28.5 -45t-71.5 -8h-35q-29 -2 -35 -2q-61 0 -70 4q-23 4 -22 35z" />
<glyph unicode="&#xca;" horiz-adv-x="1024" d="M84 350q0 18 2 62v61q0 4 2 27v27.5v41.5q-2 35 -2 43v37q-2 33 -2 39v141q0 23 2 35q0 4 2 27.5t2 28.5q0 6 -3 42.5t-3 43.5q0 16 2 47.5t2 46.5q0 6 2 53t2 51q0 8 -3 52t-3 53q0 66 10 86q25 51 72 51h39q33 -2 39 -2q8 0 57 2t59 2q8 0 51.5 -2t49.5 -2h76 q23 0 69.5 3t71.5 3q8 0 63.5 -3t65.5 -3q6 0 41 2t41 2q70 0 70 -68v-30q-2 -27 -3 -33q0 -6 3.5 -47t3.5 -49q0 -23 -23 -54q-4 -6 -28.5 -18t-47.5 -12q-4 0 -30 2h-31t-45 -2t-47 -2q-14 0 -23 2q-18 0 -53 4t-53 4q-78 0 -105 -12q-43 -20 -43 -89q0 -76 4 -92 q12 -41 64 -49q43 -6 76 -6q8 0 54 3t56 3q6 0 46 -4t48 -4q14 0 42 2t40 2q47 0 58 -4q39 -27 37 -61q0 -23 -3.5 -57t-3.5 -83q0 -10 -4 -41q-10 -74 -90 -73h-104q-4 0 -27 2h-26h-21q-18 -2 -23 -2q-4 0 -31.5 3t-33.5 3q-10 0 -30.5 -2t-31.5 -2h-16q-20 0 -43 -11 q-37 -16 -37 -86q0 -109 21 -137q29 -39 143 -39q6 0 43 2h40h36q29 -2 35 -2q80 0 108 4q14 2 43 2q63 0 84 -39q14 -29 15 -86v-14q2 -8 6 -27.5t4 -29.5v-53q0 -68 -70 -68q-12 0 -34.5 2t-35.5 2q-23 0 -47 -2q-10 0 -27.5 -2t-21.5 -2q2 0 -47 2l-49 2q-23 0 -88 -2 q-27 0 -62.5 -2t-39.5 -2t-36 2t-53 2q-76 2 -90 2h-65q-16 0 -39 -2h-27q-39 0 -59 18q-33 29 -33 78q0 4 2 29v27q0 12 -2 35.5t-2 35.5v37q0 8 -2 47t-2 45zM221 1563q0 27 55 82q4 4 12.5 13t12.5 13q12 20 37 60q18 23 43 53q8 14 29.5 36.5t48.5 22.5h26q23 -2 27 -2 t29 2h26q49 0 92 -57q10 -10 31 -33q6 -8 19 -27q20 -23 47 -57q8 -16 28 -43q33 -35 33 -51q0 -39 -45 -39h-41h-26q-23 -2 -27 -2t-23 2h-23h-16q-12 -2 -16 -2q-18 0 -37 22q-8 14 -28 37q-14 10 -33 11q-23 0 -39 -27q-27 -41 -51 -41q-4 0 -15 2h-12h-18q-12 -2 -17 -2 h-51h-20q-16 -2 -21 -2q-37 0 -37 29z" />
<glyph unicode="&#xcb;" horiz-adv-x="1024" d="M84 350q0 18 2 62v61q0 4 2 27v27.5v41.5q-2 35 -2 43v37q-2 33 -2 39v141q0 23 2 35q0 4 2 27.5t2 28.5q0 6 -3 42.5t-3 43.5q0 16 2 47.5t2 46.5q0 6 2 53t2 51q0 8 -3 52t-3 53q0 66 10 86q25 51 72 51h39q33 -2 39 -2q8 0 57 2t59 2q8 0 51.5 -2t49.5 -2h76 q23 0 69.5 3t71.5 3q8 0 63.5 -3t65.5 -3q6 0 41 2t41 2q70 0 70 -68v-30q-2 -27 -3 -33q0 -6 3.5 -47t3.5 -49q0 -23 -23 -54q-4 -6 -28.5 -18t-47.5 -12q-4 0 -30 2h-31t-45 -2t-47 -2q-14 0 -23 2q-18 0 -53 4t-53 4q-78 0 -105 -12q-43 -20 -43 -89q0 -76 4 -92 q12 -41 64 -49q43 -6 76 -6q8 0 54 3t56 3q6 0 46 -4t48 -4q14 0 42 2t40 2q47 0 58 -4q39 -27 37 -61q0 -23 -3.5 -57t-3.5 -83q0 -10 -4 -41q-10 -74 -90 -73h-104q-4 0 -27 2h-26h-21q-18 -2 -23 -2q-4 0 -31.5 3t-33.5 3q-10 0 -30.5 -2t-31.5 -2h-16q-20 0 -43 -11 q-37 -16 -37 -86q0 -109 21 -137q29 -39 143 -39q6 0 43 2h40h36q29 -2 35 -2q80 0 108 4q14 2 43 2q63 0 84 -39q14 -29 15 -86v-14q2 -8 6 -27.5t4 -29.5v-53q0 -68 -70 -68q-12 0 -34.5 2t-35.5 2q-23 0 -47 -2q-10 0 -27.5 -2t-21.5 -2q2 0 -47 2l-49 2q-23 0 -88 -2 q-27 0 -62.5 -2t-39.5 -2t-36 2t-53 2q-76 2 -90 2h-65q-16 0 -39 -2h-27q-39 0 -59 18q-33 29 -33 78q0 4 2 29v27q0 12 -2 35.5t-2 35.5v37q0 8 -2 47t-2 45zM104 1767q0 63 60 64q4 0 21.5 -2t19.5 -2q4 0 30.5 2t30.5 2h35q2 0 18.5 -2t20.5 -2t14 2h13q10 2 53 2 q25 0 30 -13.5t5 -56.5q0 -2 2 -20v-21.5v-19.5q-2 -16 -2 -21q0 -6 2 -20v-23v-2v-26q-2 -18 -2 -27q0 -25 -19 -37q-10 -6 -71 -4q-94 -2 -86 -2q-4 0 -37 2h-39q-4 0 -28.5 -3t-29.5 -3q-39 0 -39 43v137v27q-2 23 -2 26zM561 1706q0 2 2 23.5t2 25.5q0 2 -2 16.5 t-2 18.5q0 39 41 43q4 0 26.5 -2t26.5 -2h93h34q29 -2 33 -2q2 0 21 2h22q14 0 31 -8q10 -8 22 -25v-108q0 -4 -2 -34t-2 -36q0 -2 2 -14v-15q0 -53 -41 -53q-6 0 -18 2t-16 2q-2 0 -15.5 -2t-15.5 -2t-6 2h-6q-14 0 -86 2h-93q-43 0 -47 33v57q0 4 -2 37t-2 39z" />
<glyph unicode="&#xcc;" horiz-adv-x="512" d="M23 1794q0 29 18 41q12 8 33 8q4 0 26.5 -2t28.5 -2q8 0 57.5 3t59.5 3q61 0 82.5 -23.5t29.5 -80.5q0 -14 4 -45q2 -4 7.5 -14.5t6.5 -14.5t3 -25v-24q8 -57 8 -45q0 -45 -74 -41h-28q-27 -2 -31 -2q-2 0 -18 2h-18.5h-12.5q-10 -2 -15 -2q-33 0 -49 45q-4 12 -22 35 q-10 14 -47 90q-12 27 -27 47q-22 33 -22 47zM72 96q0 23 4 69t4 68q0 16 -2 116t-2 120q0 2 2 16.5t2 18.5t-3 25.5t-3 25.5q0 10 4 80t4 84q0 25 -3 72.5t-3 70.5v84q0 8 3 50t3 48q0 16 -2 47t-2 46q0 6 3 37.5t3 35.5q0 10 -4 69.5t-4 70.5q0 29 16.5 58.5t38.5 31.5h19 q16 -2 18 -2q6 0 37 2h35h41q29 -2 41 -2q2 0 22 2h23q23 0 41 -23q25 -31 24 -63v-37q-2 -31 -2 -37q0 -4 2 -35v-35t-2 -49t-2 -51q0 -23 2 -71t2 -72v-45q-2 -37 -2 -45v-78v-45q-2 -37 -2 -45t2 -62.5t2 -64.5v-70q-2 -61 -2 -70q-4 -37 -4 -55q0 -6 2 -43t2 -45v-168 q0 -4 3 -34.5t3 -37.5q0 -27 -20.5 -43t-42.5 -16q-2 0 -24.5 2t-26.5 2q-6 0 -41 -2t-41 -2q-4 0 -28 2t-28 2q-2 0 -21.5 -2t-23.5 -2q-59 0 -65 51q-2 4 -2 45z" />
<glyph unicode="&#xcd;" horiz-adv-x="512" d="M72 96q0 23 4 69t4 68q0 16 -2 116t-2 120q0 2 2 16.5t2 18.5t-3 25.5t-3 25.5q0 10 4 80t4 84q0 25 -3 72.5t-3 70.5v84q0 8 3 50t3 48q0 16 -2 47t-2 46q0 6 3 37.5t3 35.5q0 10 -4 69.5t-4 70.5q0 29 16.5 58.5t38.5 31.5h19q16 -2 18 -2q6 0 37 2h35h41q29 -2 41 -2 q2 0 22 2h23q23 0 41 -23q25 -31 24 -63v-37q-2 -31 -2 -37q0 -4 2 -35v-35t-2 -49t-2 -51q0 -23 2 -71t2 -72v-45q-2 -37 -2 -45v-78v-45q-2 -37 -2 -45t2 -62.5t2 -64.5v-70q-2 -61 -2 -70q-4 -37 -4 -55q0 -6 2 -43t2 -45v-168q0 -4 3 -34.5t3 -37.5q0 -27 -20.5 -43 t-42.5 -16q-2 0 -24.5 2t-26.5 2q-6 0 -41 -2t-41 -2q-4 0 -28 2t-28 2q-2 0 -21.5 -2t-23.5 -2q-59 0 -65 51q-2 4 -2 45zM119 1571q0 14 9 32.5t10 23.5t2 11.5t2 9.5t5 13q6 33 15 70q6 10 12 34q0 14 4 39q12 33 35 33q8 0 14 -2h39q6 0 43 2t45 2q2 0 26 -3t28 -3 t28.5 4t28.5 4q37 0 37 -43q0 -23 -17 -53q-6 -8 -16 -25.5t-27 -46.5q-6 -6 -16 -20l-12 -19q-4 -8 -16.5 -22.5t-16.5 -24.5q-16 -37 -28.5 -45t-71.5 -8h-35q-29 -2 -35 -2q-61 0 -70 4q-23 4 -22 35z" />
<glyph unicode="&#xce;" horiz-adv-x="512" d="M-35 1563q0 27 55 82q4 4 12.5 13t12.5 13q12 20 37 60q18 23 43 53q8 14 29.5 36.5t48.5 22.5h26q23 -2 27 -2t29 2h26q49 0 92 -57q10 -10 31 -33q6 -8 19 -27q20 -23 47 -57q8 -16 28 -43q33 -35 33 -51q0 -39 -45 -39h-41h-26q-23 -2 -27 -2t-23 2h-23h-16 q-12 -2 -16 -2q-18 0 -37 22q-8 14 -28 37q-14 10 -33 11q-23 0 -39 -27q-27 -41 -51 -41q-4 0 -15 2h-12h-18q-12 -2 -17 -2h-51h-20q-16 -2 -21 -2q-37 0 -37 29zM72 96q0 23 4 69t4 68q0 16 -2 116t-2 120q0 2 2 16.5t2 18.5t-3 25.5t-3 25.5q0 10 4 80t4 84 q0 25 -3 72.5t-3 70.5v84q0 8 3 50t3 48q0 16 -2 47t-2 46q0 6 3 37.5t3 35.5q0 10 -4 69.5t-4 70.5q0 29 16.5 58.5t38.5 31.5h19q16 -2 18 -2q6 0 37 2h35h41q29 -2 41 -2q2 0 22 2h23q23 0 41 -23q25 -31 24 -63v-37q-2 -31 -2 -37q0 -4 2 -35v-35t-2 -49t-2 -51 q0 -23 2 -71t2 -72v-45q-2 -37 -2 -45v-78v-45q-2 -37 -2 -45t2 -62.5t2 -64.5v-70q-2 -61 -2 -70q-4 -37 -4 -55q0 -6 2 -43t2 -45v-168q0 -4 3 -34.5t3 -37.5q0 -27 -20.5 -43t-42.5 -16q-2 0 -24.5 2t-26.5 2q-6 0 -41 -2t-41 -2q-4 0 -28 2t-28 2q-2 0 -21.5 -2 t-23.5 -2q-59 0 -65 51q-2 4 -2 45z" />
<glyph unicode="&#xcf;" horiz-adv-x="512" d="M-152 1741v26q0 63 60 64q2 0 19.5 -2t21.5 -2t30.5 2t30.5 2h35q2 0 18.5 -2t20.5 -2t14 2h13q10 2 53 2q25 0 30 -13.5t5 -56.5q0 -2 2 -20v-21.5v-19.5q-2 -16 -2 -21q0 -6 2 -20v-23v-2v-26q-2 -18 -2 -27q0 -25 -19 -37q-10 -6 -71 -4q-94 -2 -86 -2q-4 0 -37 2h-39 q-4 0 -28.5 -3t-29.5 -3q-39 0 -39 43v137q0 2 -2 27zM72 96q0 23 4 69t4 68q0 16 -2 116t-2 120q0 2 2 16.5t2 18.5t-3 25.5t-3 25.5q0 10 4 80t4 84q0 25 -3 72.5t-3 70.5v84q0 8 3 50t3 48q0 16 -2 47t-2 46q0 6 3 37.5t3 35.5q0 10 -4 69.5t-4 70.5q0 29 16.5 58.5 t38.5 31.5h19q16 -2 18 -2q6 0 37 2h35h41q29 -2 41 -2q2 0 22 2h23q23 0 41 -23q25 -31 24 -63v-37q-2 -31 -2 -37q0 -4 2 -35v-35t-2 -49t-2 -51q0 -23 2 -71t2 -72v-45q-2 -37 -2 -45v-78v-45q-2 -37 -2 -45t2 -62.5t2 -64.5v-70q-2 -61 -2 -70q-4 -37 -4 -55q0 -6 2 -43 t2 -45v-168q0 -4 3 -34.5t3 -37.5q0 -27 -20.5 -43t-42.5 -16q-2 0 -24.5 2t-26.5 2q-6 0 -41 -2t-41 -2q-4 0 -28 2t-28 2q-2 0 -21.5 -2t-23.5 -2q-59 0 -65 51q-2 4 -2 45zM305 1706q0 2 2 23.5t2 25.5q0 2 -2 16.5t-2 18.5q0 39 41 43q4 0 26.5 -2t26.5 -2h93h34 q29 -2 33 -2q2 0 21 2h22q14 0 31 -8q10 -8 22 -25v-108q0 -4 -2 -34t-2 -36q0 -2 2 -14v-15q0 -53 -41 -53q-6 0 -18 2t-16 2q-2 0 -15.5 -2t-15.5 -2t-6 2h-6q-14 0 -86 2h-93q-43 0 -47 33v57q0 4 -2 37t-2 39z" />
<glyph unicode="&#xd0;" horiz-adv-x="1366" d="M-6 678q0 4 2 31.5t2 33.5t-2 31v31q0 47 57 47q33 0 33 27q0 53 -2 137v178q0 8 -3 63.5t-3 65.5q0 43 16.5 78t55.5 35q10 0 77.5 2t81.5 2t53 -4q33 -4 52 -2q47 2 96 6q33 2 108 2q4 0 18.5 -2t16.5 -2h29q47 0 63 -8q88 -25 100.5 -31t33.5 -17q10 -2 28 -8 q10 -4 29.5 -13t60.5 -32q45 -31 82 -63q63 -57 115 -131q45 -63 86 -177q27 -74 33 -174q0 -4 -2 -26.5t-2 -26.5t2 -29.5t2 -31.5q0 -45 -2 -66q-12 -115 -39 -172q-10 -27 -35 -80q-14 -23 -38.5 -66.5t-127.5 -146.5q-49 -39 -98 -61q-18 -8 -60 -21l-43 -18 q-57 -16 -105 -23.5t-108 -13.5h-194q-14 0 -95 3t-96 3h-61q-129 0 -129 70q0 6 2 41v41q0 14 -2 108t-2 113q0 10 2 76.5t2 79.5v34q0 2 2 15v16q0 31 -31 31h-12q-10 -2 -14 -2q-35 0 -35 47zM420 604q0 -4 2 -16v-15q0 10 4 -102q2 -84 33 -111q45 -37 192 -36 q31 0 43 2q86 14 148 51q70 41 110 160q29 86 29 147q0 53 -6 82q-16 86 -23 106q-6 12 -23.5 37t-23.5 36t-24 34q-4 4 -57 44l-54 40q-59 33 -184 33q-94 0 -128 -37t-34 -150q0 -59 45 -59h14q12 -2 17 -2q6 0 20 2h21q4 0 26.5 -2t26.5 -2t25.5 2t23.5 2q47 0 47 -41 v-16q-2 -12 -2 -17q0 -2 2 -16v-19.5v-27.5q-2 -25 -2 -29q0 -47 -33 -47q-10 -4 -51 -4q-4 0 -29.5 3t-31.5 3h-11q-10 -2 -14 -2h-29q-27 -2 -30 -2q-39 0 -39 -31z" />
<glyph unicode="&#xd1;" horiz-adv-x="1323" d="M68 1362q0 35 4 47q10 33 41 33q2 0 20.5 -3t22.5 -3h12q4 2 10 2h39l4 -2h12q6 0 23 2h27q47 0 65 -6q6 -2 18.5 -4.5t36.5 -6.5q18 -6 36 -25.5t124 -189.5q12 -18 37 -54t59 -99q10 -20 58 -88q53 -76 104 -181q16 -29 41 -71.5t31 -42.5q18 0 18 88q0 4 2 28v29v19 q-2 12 -2 18t2 32.5t2 30.5t-3 37t-3 39t3 42t3 44t-3 51t-3 50v149q0 2 -2 25.5t-2 29.5q0 37 33 50q6 2 55 2h54l37 -2l36 -2q8 0 21 2h20q2 0 17.5 2t19.5 2q53 0 53 -76q0 -6 -3 -46t-3 -48q0 -6 2 -47v-49.5v-65.5q-2 -55 -2 -66v-67q0 -23 -2 -62q0 -4 -3 -55t-3 -61 q0 14 4 -105v-158q0 -25 2 -94v-94v-14q-2 -10 -2 -15q-4 -29 -4 -39q0 -4 2 -26v-29q0 -10 6 -72.5t6 -74.5q0 -70 -75 -70q-23 0 -33 2h-19q-16 -2 -20 -2t-35 2t-37 2q-4 0 -24.5 -2t-24.5 -2q-51 0 -94 88q-16 35 -45 74q-39 55 -66 104q-35 61 -73 127q-8 14 -29 39 q-29 51 -68 101q-23 37 -67 112q-18 43 -64 111q-25 18 -35 18q-8 0 -12 -4q-12 -10 -14 -35q-6 -53 -6 -106q0 -4 2 -29v-27v-26q-2 -23 -2 -27v-47v-24q-2 -20 -2 -25q0 -18 2 -32.5t2 -86.5q0 -4 2 -32.5t2 -34.5v-72q0 -14 1 -19.5t5 -34t4 -34.5q0 -20 -20.5 -42 t-32.5 -24h-39q-4 0 -29.5 -4t-31 -5t-46.5 -1q-4 0 -34.5 -2t-36.5 -2q-35 0 -57.5 15.5t-22.5 50.5v108q0 8 2 57.5t2 59.5v28q-2 25 -2 31v51q0 6 2 47t2 50q0 4 -2 28.5t-2 28.5q-2 29 -2 53q0 96 4 159.5t4 57.5q0 20 -4 60.5t-4 54.5v64q2 59 2 65q0 8 -2 61.5 t-2 63.5q0 4 2 23v23v17q-2 15 -2 17v26q0 4 -3 30t-3 32zM360 1608q0 4 7 59q12 104 82 141q22 13 55 13q2 0 15 2t16 2q37 -4 47 -8.5t39 -12.5q12 -6 24 -10t25 -8q41 -10 68.5 -20.5t39.5 -10.5q35 0 47 29q0 4 6.5 18.5t59.5 14.5q78 0 78 -48q0 -10 -11 -65 q0 -12 -2 -39q-14 -115 -133 -115q-29 0 -84 13q-18 4 -54 17t-51.5 16t-39.5 10q-31 10 -37 10q-27 0 -40 -24.5t-24.5 -30t-78.5 -5.5q-53 0 -54 52z" />
<glyph unicode="&#xd2;" horiz-adv-x="1449" d="M45 756q0 33 10 73q14 96 39 156q18 41 39 88q8 12 25 37q18 37 47 84q12 14 37 41q12 16 37 45q12 12 40 33q8 6 20.5 17t18.5 16q27 25 91 49q14 4 43 14q18 8 55 23q18 6 92 15t84 9t60.5 -8t54.5 -8q70 -8 102 -21q70 -31 145 -69q27 -12 107 -93q20 -27 65 -71 q16 -18 43 -70q6 -16 21 -49q14 -25 39 -78q12 -29 20 -76q20 -119 21 -256q0 -59 -21 -133q-33 -119 -43 -143q-29 -72 -84 -148q-68 -92 -129 -129q-20 -8 -61 -28q-10 -8 -37 -23q-49 -31 -113 -45q-18 -4 -59 -10q-76 -14 -100 -14q-82 0 -115 4q-16 2 -45 10 q-35 4 -55.5 9t-37 12.5t-59.5 23.5q-31 10 -49 23.5t-55 39.5q-66 47 -88.5 69t-67.5 81q-18 25 -61 96q-10 16 -29 51q-25 57 -35 142q-12 107 -12 211zM381 737q0 -10 4 -80q0 -6 18 -73q20 -74 42 -112t69 -81q37 -35 50.5 -39t37.5 -10q14 -6 42 -13t58 -7h19 q14 -2 18 -3q25 0 60 3q49 10 123 65q29 20 96 113q6 12 33 116q10 41 10 78v33q-2 23 -2 33v26q0 25 -2 35q-14 68 -49 123q-14 18 -45 53q-14 18 -43 50q-39 31 -111 53q-27 8 -107 8q-35 0 -51 -4q-51 -12 -86 -35q-63 -41 -90 -72q-39 -45 -63 -98q-2 -6 -19 -84 q-4 -20 -12 -65v-13zM492 1794q0 29 18 41q12 8 33 8q4 0 26.5 -2t28.5 -2q8 0 57.5 3t59.5 3q61 0 82.5 -23.5t29.5 -80.5q0 -14 4 -45q2 -4 7.5 -14.5t6.5 -14.5t3 -25v-24q8 -57 8 -45q0 -45 -74 -41h-28q-27 -2 -31 -2q-2 0 -18 2h-18.5h-12.5q-10 -2 -15 -2 q-33 0 -49 45q-4 12 -22 35q-10 14 -47 90q-12 27 -27 47q-22 33 -22 47z" />
<glyph unicode="&#xd3;" horiz-adv-x="1449" d="M45 756q0 33 10 73q14 96 39 156q18 41 39 88q8 12 25 37q18 37 47 84q12 14 37 41q12 16 37 45q12 12 40 33q8 6 20.5 17t18.5 16q27 25 91 49q14 4 43 14q18 8 55 23q18 6 92 15t84 9t60.5 -8t54.5 -8q70 -8 102 -21q70 -31 145 -69q27 -12 107 -93q20 -27 65 -71 q16 -18 43 -70q6 -16 21 -49q14 -25 39 -78q12 -29 20 -76q20 -119 21 -256q0 -59 -21 -133q-33 -119 -43 -143q-29 -72 -84 -148q-68 -92 -129 -129q-20 -8 -61 -28q-10 -8 -37 -23q-49 -31 -113 -45q-18 -4 -59 -10q-76 -14 -100 -14q-82 0 -115 4q-16 2 -45 10 q-35 4 -55.5 9t-37 12.5t-59.5 23.5q-31 10 -49 23.5t-55 39.5q-66 47 -88.5 69t-67.5 81q-18 25 -61 96q-10 16 -29 51q-25 57 -35 142q-12 107 -12 211zM381 737q0 -10 4 -80q0 -6 18 -73q20 -74 42 -112t69 -81q37 -35 50.5 -39t37.5 -10q14 -6 42 -13t58 -7h19 q14 -2 18 -3q25 0 60 3q49 10 123 65q29 20 96 113q6 12 33 116q10 41 10 78v33q-2 23 -2 33v26q0 25 -2 35q-14 68 -49 123q-14 18 -45 53q-14 18 -43 50q-39 31 -111 53q-27 8 -107 8q-35 0 -51 -4q-51 -12 -86 -35q-63 -41 -90 -72q-39 -45 -63 -98q-2 -6 -19 -84 q-4 -20 -12 -65v-13zM588 1571q0 14 9 32.5t10 23.5t2 11.5t2 9.5t5 13q6 33 15 70q6 10 12 34q0 14 4 39q12 33 35 33q8 0 14 -2h39q6 0 43 2t45 2q2 0 26 -3t28 -3t28.5 4t28.5 4q37 0 37 -43q0 -23 -17 -53q-6 -8 -16 -25.5t-27 -46.5q-6 -6 -16 -20l-12 -19 q-4 -8 -16.5 -22.5t-16.5 -24.5q-16 -37 -28.5 -45t-71.5 -8h-35q-29 -2 -35 -2q-61 0 -70 4q-23 4 -22 35z" />
<glyph unicode="&#xd4;" horiz-adv-x="1449" d="M45 756q0 33 10 73q14 96 39 156q18 41 39 88q8 12 25 37q18 37 47 84q12 14 37 41q12 16 37 45q12 12 40 33q8 6 20.5 17t18.5 16q27 25 91 49q14 4 43 14q18 8 55 23q18 6 92 15t84 9t60.5 -8t54.5 -8q70 -8 102 -21q70 -31 145 -69q27 -12 107 -93q20 -27 65 -71 q16 -18 43 -70q6 -16 21 -49q14 -25 39 -78q12 -29 20 -76q20 -119 21 -256q0 -59 -21 -133q-33 -119 -43 -143q-29 -72 -84 -148q-68 -92 -129 -129q-20 -8 -61 -28q-10 -8 -37 -23q-49 -31 -113 -45q-18 -4 -59 -10q-76 -14 -100 -14q-82 0 -115 4q-16 2 -45 10 q-35 4 -55.5 9t-37 12.5t-59.5 23.5q-31 10 -49 23.5t-55 39.5q-66 47 -88.5 69t-67.5 81q-18 25 -61 96q-10 16 -29 51q-25 57 -35 142q-12 107 -12 211zM381 737q0 -10 4 -80q0 -6 18 -73q20 -74 42 -112t69 -81q37 -35 50.5 -39t37.5 -10q14 -6 42 -13t58 -7h19 q14 -2 18 -3q25 0 60 3q49 10 123 65q29 20 96 113q6 12 33 116q10 41 10 78v33q-2 23 -2 33v26q0 25 -2 35q-14 68 -49 123q-14 18 -45 53q-14 18 -43 50q-39 31 -111 53q-27 8 -107 8q-35 0 -51 -4q-51 -12 -86 -35q-63 -41 -90 -72q-39 -45 -63 -98q-2 -6 -19 -84 q-4 -20 -12 -65v-13zM434 1563q0 27 55 82q4 4 12.5 13t12.5 13q12 20 37 60q18 23 43 53q8 14 29.5 36.5t48.5 22.5h26q23 -2 27 -2t29 2h26q49 0 92 -57q10 -10 31 -33q6 -8 19 -27q20 -23 47 -57q8 -16 28 -43q33 -35 33 -51q0 -39 -45 -39h-41h-26q-23 -2 -27 -2t-23 2 h-23h-16q-12 -2 -16 -2q-18 0 -37 22q-8 14 -28 37q-14 10 -33 11q-23 0 -39 -27q-27 -41 -51 -41q-4 0 -15 2h-12h-18q-12 -2 -17 -2h-51h-20q-16 -2 -21 -2q-37 0 -37 29z" />
<glyph unicode="&#xd5;" horiz-adv-x="1449" d="M45 756q0 33 10 73q14 96 39 156q18 41 39 88q8 12 25 37q18 37 47 84q12 14 37 41q12 16 37 45q12 12 40 33q8 6 20.5 17t18.5 16q27 25 91 49q14 4 43 14q18 8 55 23q18 6 92 15t84 9t60.5 -8t54.5 -8q70 -8 102 -21q70 -31 145 -69q27 -12 107 -93q20 -27 65 -71 q16 -18 43 -70q6 -16 21 -49q14 -25 39 -78q12 -29 20 -76q20 -119 21 -256q0 -59 -21 -133q-33 -119 -43 -143q-29 -72 -84 -148q-68 -92 -129 -129q-20 -8 -61 -28q-10 -8 -37 -23q-49 -31 -113 -45q-18 -4 -59 -10q-76 -14 -100 -14q-82 0 -115 4q-16 2 -45 10 q-35 4 -55.5 9t-37 12.5t-59.5 23.5q-31 10 -49 23.5t-55 39.5q-66 47 -88.5 69t-67.5 81q-18 25 -61 96q-10 16 -29 51q-25 57 -35 142q-12 107 -12 211zM381 737q0 -10 4 -80q0 -6 18 -73q20 -74 42 -112t69 -81q37 -35 50.5 -39t37.5 -10q14 -6 42 -13t58 -7h19 q14 -2 18 -3q25 0 60 3q49 10 123 65q29 20 96 113q6 12 33 116q10 41 10 78v33q-2 23 -2 33v26q0 25 -2 35q-14 68 -49 123q-14 18 -45 53q-14 18 -43 50q-39 31 -111 53q-27 8 -107 8q-35 0 -51 -4q-51 -12 -86 -35q-63 -41 -90 -72q-39 -45 -63 -98q-2 -6 -19 -84 q-4 -20 -12 -65v-13zM424 1608q0 4 6 59q12 104 82 141q22 13 55 13q2 0 15.5 2t15.5 2q37 -4 47 -8.5t39 -12.5q12 -6 24.5 -10t24.5 -8q41 -10 68.5 -20.5t40.5 -10.5q35 0 47 29q0 4 6 18.5t59 14.5q78 0 78 -48q0 -10 -10 -65q0 -12 -2 -39q-14 -115 -133 -115 q-29 0 -84 13q-18 4 -54 17t-51.5 16t-40.5 10q-31 10 -36 10q-27 0 -40.5 -24.5t-24.5 -30t-79 -5.5q-53 0 -53 52z" />
<glyph unicode="&#xd6;" horiz-adv-x="1449" d="M45 756q0 33 10 73q14 96 39 156q18 41 39 88q8 12 25 37q18 37 47 84q12 14 37 41q12 16 37 45q12 12 40 33q8 6 20.5 17t18.5 16q27 25 91 49q14 4 43 14q18 8 55 23q18 6 92 15t84 9t60.5 -8t54.5 -8q70 -8 102 -21q70 -31 145 -69q27 -12 107 -93q20 -27 65 -71 q16 -18 43 -70q6 -16 21 -49q14 -25 39 -78q12 -29 20 -76q20 -119 21 -256q0 -59 -21 -133q-33 -119 -43 -143q-29 -72 -84 -148q-68 -92 -129 -129q-20 -8 -61 -28q-10 -8 -37 -23q-49 -31 -113 -45q-18 -4 -59 -10q-76 -14 -100 -14q-82 0 -115 4q-16 2 -45 10 q-35 4 -55.5 9t-37 12.5t-59.5 23.5q-31 10 -49 23.5t-55 39.5q-66 47 -88.5 69t-67.5 81q-18 25 -61 96q-10 16 -29 51q-25 57 -35 142q-12 107 -12 211zM328 1765q0 63 59 64q4 0 21.5 -2t19.5 -2q4 0 30.5 2t30.5 2h35q2 0 18.5 -2t20.5 -2t15 2h12q10 2 53 2 q25 0 30 -13.5t5 -56.5q0 -2 2 -20v-21.5v-19.5q-2 -16 -2 -21q0 -6 2 -20v-23v-2v-26q-2 -18 -2 -27q0 -25 -19 -37q-10 -6 -71 -4q-94 -2 -86 -2q-4 0 -37 2h-39q-4 0 -28.5 -3t-28.5 -3q-39 0 -39 43v137v27q-2 23 -2 26zM381 737q0 -10 4 -80q0 -6 18 -73 q20 -74 42 -112t69 -81q37 -35 50.5 -39t37.5 -10q14 -6 42 -13t58 -7h19q14 -2 18 -3q25 0 60 3q49 10 123 65q29 20 96 113q6 12 33 116q10 41 10 78v33q-2 23 -2 33v26q0 25 -2 35q-14 68 -49 123q-14 18 -45 53q-14 18 -43 50q-39 31 -111 53q-27 8 -107 8q-35 0 -51 -4 q-51 -12 -86 -35q-63 -41 -90 -72q-39 -45 -63 -98q-2 -6 -19 -84q-4 -20 -12 -65v-13zM784 1704q0 2 2 23.5t2 25.5q0 2 -2 16.5t-2 18.5q0 39 41 43q4 0 26.5 -2t27.5 -2h92h35q29 -2 32 -2q2 0 21 2h22q14 0 31 -8q10 -8 23 -25v-108q0 -4 -2.5 -34t-2.5 -36q0 -2 3 -14 v-15q0 -53 -41 -53q-6 0 -18.5 2t-16.5 2q-2 0 -15.5 -2t-15.5 -2t-6 2h-6q-14 0 -86 2h-92q-43 0 -48 33v57q0 4 -2 37t-2 39z" />
<glyph unicode="&#xd8;" horiz-adv-x="1449" d="M43 760q0 45 25 137q8 37 22 86q16 41 41 90q2 4 25 39q16 33 51 88q10 12 33 35q10 16 34 45q35 39 97 78q41 27 78 39q12 4 32.5 11t55.5 22q20 8 61 14q74 12 131 12h14q6 0 52 -10q12 -2 39 -4q78 -10 131 -33q2 0 43 -23q33 -14 90 -40l16 16q4 4 11.5 14t9.5 12.5 t24 24.5q4 4 21 31q12 20 28 20q20 0 35 -14q8 -6 20.5 -14.5t30.5 -26.5q8 -8 9 -25q0 -18 -7 -24q-25 -29 -59 -70l-8 -16q-20 -20 -25 -29q14 -23 24.5 -32t29 -29.5t38.5 -63.5q6 -14 21 -51q6 -12 20 -35q39 -74 47 -180q12 -74 13 -182q0 -70 -33 -189 q-29 -106 -57 -164q-33 -47 -68 -100q-68 -84 -115 -113q-31 -14 -98 -51q-49 -20 -108 -43q-66 -12 -140 -26h-71q-41 0 -68 4q-84 12 -115 24q-2 0 -57 23q-8 2 -25 8q-41 14 -96 53q-4 -6 -14 -20l-27 -27l-20 -20q-6 -8 -20.5 -29.5t-39.5 -21.5q-8 0 -32 18l-19 12 q-35 18 -35 53q0 18 15 33q10 8 30 29q4 10 19 27q8 6 22 20q6 6 11 16q-39 47 -89 113q-25 47 -55 100q-31 68 -37 154q-12 51 -12 205zM369 750q0 -27 2 -50.5t16 -85.5q6 -27 21 -75q8 -20 32 -64q20 12 47 53q51 78 76 103l33 33q16 31 53 86q14 12 37 41q6 10 19 28 q2 2 57 80q12 18 47 57q31 31 43 50q4 12 8 18l19 18q10 14 16 29q-12 16 -33 23q-8 4 -31 10q-12 4 -26 8q-29 8 -68 8h-14q-14 -2 -16 -2t-21 2h-22h-19q-20 -6 -59 -16q-25 -12 -68 -41q-31 -20 -61 -59q-49 -61 -64 -103q-4 -25 -12 -74q-4 -18 -12 -59v-18zM539 360 q12 -12 20 -16q16 -4 39 -10q65 -19 94 -19h90q25 0 35 4q55 10 117 64q74 63 96 119q6 14 23 78q20 80 20 112q0 8 -2 53.5t-2 53.5q0 20 -8 35q-2 4 -12 34q-25 74 -58 99q-20 -27 -61 -80q-6 -10 -62 -80q-12 -18 -34 -53l-31 -37q-4 -8 -23 -29q-8 -8 -21.5 -28.5 t-37.5 -59.5q-4 -6 -15.5 -17.5t-16.5 -18.5t-15 -18t-23 -28q-6 -6 -14 -22.5t-14 -22.5q-18 -20 -43 -51q-12 -16 -35 -47q0 -2 -2 -7.5t-4 -7.5z" />
<glyph unicode="&#xd9;" horiz-adv-x="1366" d="M78 1155q0 8 2 62v61v84q0 10 14 43q18 43 58 43q-4 0 36 -6q12 -2 43 -2l37 2l37 2q72 0 105 -8q35 -16 34 -52q0 -2 -4 -30.5t-4 -169.5q0 -8 2 -62.5t2 -64.5q0 -6 -2 -49t-2 -52q0 -4 2 -28v-31q0 -4 -3 -38t-3 -42t2 -63.5t2 -65.5v-18q-2 -16 -2 -21q2 -12 6 -51 q0 -20 2 -31q8 -113 29 -153q27 -51 76 -78q61 -33 149 -33q37 0 82 12q68 18 106 69.5t40 113.5q0 4 4 51q2 41 2 51v31q-2 25 -2 28v54q0 4 2 20.5t2 18.5q0 6 -2 32.5t-2 30.5q0 45 4 82q8 74 8 86q0 4 -5 70.5t-5 74.5t2 65.5t2 70.5v39q-2 35 -2 43q0 47 16.5 72.5 t69.5 25.5h37q2 0 2 -2h18q8 0 65.5 3t67.5 3q35 0 54 -23q27 -47 26 -69v-72v-29q-2 -25 -2 -28v-37q2 -20 2 -76q0 -2 -2 -22.5t-2 -24.5t2 -27v-28q0 -6 -3 -44t-3 -44q0 -12 2 -39q4 -53 4 -84q0 -102 -4 -201q0 -2 -2 -31.5t-2 -36.5q0 -2 2 -18v-20q-2 -80 -2 -86.5 t-16 -110.5q-6 -35 -50 -104q-31 -49 -75 -82q-55 -41 -119 -72q-43 -20 -103 -35q-78 -18 -165 -18h-97q-57 0 -159 16q-88 12 -117 23l-58 28q-76 37 -112 82q-16 18 -51 70q-14 27 -39 82q-6 25 -17 73q-18 80 -20 146v37q2 33 2 37v32q-2 23 -2 33q0 4 2 23v22v23 q-2 18 -2 22t2 31v29v34q-2 25 -2 35q0 8 2 29v29v69q0 6 2 35v35q0 6 -3 46t-3 48zM449 1794q0 29 18 41q12 8 33 8q4 0 26.5 -2t28.5 -2q8 0 57.5 3t59.5 3q61 0 82.5 -23.5t29.5 -80.5q0 -14 4 -45q2 -4 7.5 -14.5t6.5 -14.5t3 -25v-24q8 -57 8 -45q0 -45 -74 -41h-28 q-27 -2 -31 -2q-2 0 -18 2h-18.5h-12.5q-10 -2 -15 -2q-33 0 -49 45q-4 12 -22 35q-10 14 -47 90q-12 27 -27 47q-22 33 -22 47z" />
<glyph unicode="&#xda;" horiz-adv-x="1366" d="M78 1155q0 8 2 62v61v84q0 10 14 43q18 43 58 43q-4 0 36 -6q12 -2 43 -2l37 2l37 2q72 0 105 -8q35 -16 34 -52q0 -2 -4 -30.5t-4 -169.5q0 -8 2 -62.5t2 -64.5q0 -6 -2 -49t-2 -52q0 -4 2 -28v-31q0 -4 -3 -38t-3 -42t2 -63.5t2 -65.5v-18q-2 -16 -2 -21q2 -12 6 -51 q0 -20 2 -31q8 -113 29 -153q27 -51 76 -78q61 -33 149 -33q37 0 82 12q68 18 106 69.5t40 113.5q0 4 4 51q2 41 2 51v31q-2 25 -2 28v54q0 4 2 20.5t2 18.5q0 6 -2 32.5t-2 30.5q0 45 4 82q8 74 8 86q0 4 -5 70.5t-5 74.5t2 65.5t2 70.5v39q-2 35 -2 43q0 47 16.5 72.5 t69.5 25.5h37q2 0 2 -2h18q8 0 65.5 3t67.5 3q35 0 54 -23q27 -47 26 -69v-72v-29q-2 -25 -2 -28v-37q2 -20 2 -76q0 -2 -2 -22.5t-2 -24.5t2 -27v-28q0 -6 -3 -44t-3 -44q0 -12 2 -39q4 -53 4 -84q0 -102 -4 -201q0 -2 -2 -31.5t-2 -36.5q0 -2 2 -18v-20q-2 -80 -2 -86.5 t-16 -110.5q-6 -35 -50 -104q-31 -49 -75 -82q-55 -41 -119 -72q-43 -20 -103 -35q-78 -18 -165 -18h-97q-57 0 -159 16q-88 12 -117 23l-58 28q-76 37 -112 82q-16 18 -51 70q-14 27 -39 82q-6 25 -17 73q-18 80 -20 146v37q2 33 2 37v32q-2 23 -2 33q0 4 2 23v22v23 q-2 18 -2 22t2 31v29v34q-2 25 -2 35q0 8 2 29v29v69q0 6 2 35v35q0 6 -3 46t-3 48zM545 1571q0 14 9 32.5t10 23.5t2 11.5t2 9.5t5 13q6 33 15 70q6 10 12 34q0 14 4 39q12 33 35 33q8 0 14 -2h39q6 0 43 2t45 2q2 0 26 -3t28 -3t28.5 4t28.5 4q37 0 37 -43q0 -23 -17 -53 q-6 -8 -16 -25.5t-27 -46.5q-6 -6 -16 -20l-12 -19q-4 -8 -16.5 -22.5t-16.5 -24.5q-16 -37 -28.5 -45t-71.5 -8h-35q-29 -2 -35 -2q-61 0 -70 4q-23 4 -22 35z" />
<glyph unicode="&#xdb;" horiz-adv-x="1366" d="M78 1155q0 8 2 62v61v84q0 10 14 43q18 43 58 43q-4 0 36 -6q12 -2 43 -2l37 2l37 2q72 0 105 -8q35 -16 34 -52q0 -2 -4 -30.5t-4 -169.5q0 -8 2 -62.5t2 -64.5q0 -6 -2 -49t-2 -52q0 -4 2 -28v-31q0 -4 -3 -38t-3 -42t2 -63.5t2 -65.5v-18q-2 -16 -2 -21q2 -12 6 -51 q0 -20 2 -31q8 -113 29 -153q27 -51 76 -78q61 -33 149 -33q37 0 82 12q68 18 106 69.5t40 113.5q0 4 4 51q2 41 2 51v31q-2 25 -2 28v54q0 4 2 20.5t2 18.5q0 6 -2 32.5t-2 30.5q0 45 4 82q8 74 8 86q0 4 -5 70.5t-5 74.5t2 65.5t2 70.5v39q-2 35 -2 43q0 47 16.5 72.5 t69.5 25.5h37q2 0 2 -2h18q8 0 65.5 3t67.5 3q35 0 54 -23q27 -47 26 -69v-72v-29q-2 -25 -2 -28v-37q2 -20 2 -76q0 -2 -2 -22.5t-2 -24.5t2 -27v-28q0 -6 -3 -44t-3 -44q0 -12 2 -39q4 -53 4 -84q0 -102 -4 -201q0 -2 -2 -31.5t-2 -36.5q0 -2 2 -18v-20q-2 -80 -2 -86.5 t-16 -110.5q-6 -35 -50 -104q-31 -49 -75 -82q-55 -41 -119 -72q-43 -20 -103 -35q-78 -18 -165 -18h-97q-57 0 -159 16q-88 12 -117 23l-58 28q-76 37 -112 82q-16 18 -51 70q-14 27 -39 82q-6 25 -17 73q-18 80 -20 146v37q2 33 2 37v32q-2 23 -2 33q0 4 2 23v22v23 q-2 18 -2 22t2 31v29v34q-2 25 -2 35q0 8 2 29v29v69q0 6 2 35v35q0 6 -3 46t-3 48zM391 1563q0 27 55 82q4 4 12.5 13t12.5 13q12 20 37 60q18 23 43 53q8 14 29.5 36.5t48.5 22.5h26q23 -2 27 -2t29 2h26q49 0 92 -57q10 -10 31 -33q6 -8 19 -27q20 -23 47 -57 q8 -16 28 -43q33 -35 33 -51q0 -39 -45 -39h-41h-27q-23 -2 -26 -2q-4 0 -23 2h-23h-16q-12 -2 -16 -2q-18 0 -37 22q-8 14 -28 37q-14 10 -33 11q-23 0 -39 -27q-27 -41 -51 -41q-4 0 -15 2h-12h-18q-12 -2 -17 -2h-51h-20q-16 -2 -21 -2q-37 0 -37 29z" />
<glyph unicode="&#xdc;" horiz-adv-x="1366" d="M78 1155q0 8 2 62v61v84q0 10 14 43q18 43 58 43q-4 0 36 -6q12 -2 43 -2l37 2l37 2q72 0 105 -8q35 -16 34 -52q0 -2 -4 -30.5t-4 -169.5q0 -8 2 -62.5t2 -64.5q0 -6 -2 -49t-2 -52q0 -4 2 -28v-31q0 -4 -3 -38t-3 -42t2 -63.5t2 -65.5v-18q-2 -16 -2 -21q2 -12 6 -51 q0 -20 2 -31q8 -113 29 -153q27 -51 76 -78q61 -33 149 -33q37 0 82 12q68 18 106 69.5t40 113.5q0 4 4 51q2 41 2 51v31q-2 25 -2 28v54q0 4 2 20.5t2 18.5q0 6 -2 32.5t-2 30.5q0 45 4 82q8 74 8 86q0 4 -5 70.5t-5 74.5t2 65.5t2 70.5v39q-2 35 -2 43q0 47 16.5 72.5 t69.5 25.5h37q2 0 2 -2h18q8 0 65.5 3t67.5 3q35 0 54 -23q27 -47 26 -69v-72v-29q-2 -25 -2 -28v-37q2 -20 2 -76q0 -2 -2 -22.5t-2 -24.5t2 -27v-28q0 -6 -3 -44t-3 -44q0 -12 2 -39q4 -53 4 -84q0 -102 -4 -201q0 -2 -2 -31.5t-2 -36.5q0 -2 2 -18v-20q-2 -80 -2 -86.5 t-16 -110.5q-6 -35 -50 -104q-31 -49 -75 -82q-55 -41 -119 -72q-43 -20 -103 -35q-78 -18 -165 -18h-97q-57 0 -159 16q-88 12 -117 23l-58 28q-76 37 -112 82q-16 18 -51 70q-14 27 -39 82q-6 25 -17 73q-18 80 -20 146v37q2 33 2 37v32q-2 23 -2 33q0 4 2 23v22v23 q-2 18 -2 22t2 31v29v34q-2 25 -2 35q0 8 2 29v29v69q0 6 2 35v35q0 6 -3 46t-3 48zM264 1765q0 63 60 64q4 0 21 -2t20 -2q4 0 30.5 2t30.5 2h35q2 0 18.5 -2t20.5 -2t14 2h12q10 2 54 2q25 0 29.5 -13.5t4.5 -56.5q0 -2 2 -20v-21.5v-19.5q-2 -16 -2 -21q0 -6 2 -20v-23 v-2v-26q-2 -18 -2 -27q0 -25 -18 -37q-10 -6 -72 -4q-94 -2 -86 -2q-4 0 -37 2h-39q-4 0 -28.5 -3t-28.5 -3q-39 0 -39 43v137v27q-2 23 -2 26zM721 1704q0 2 2 23.5t2 25.5q0 2 -2 16.5t-2 18.5q0 39 41 43q4 0 26.5 -2t26.5 -2h92h35q29 -2 33 -2q2 0 20 2h23q14 0 31 -8 q10 -8 22 -25v-108q0 -4 -2 -34t-2 -36q0 -2 2 -14v-15q0 -53 -41 -53q-6 0 -18.5 2t-16.5 2q-2 0 -15 -2t-15 -2t-7 2h-6q-14 0 -86 2h-92q-43 0 -47 33v57q0 4 -2 37t-2 39z" />
<glyph unicode="&#xdd;" horiz-adv-x="1236" d="M0 1407q0 41 51 41q14 0 25 -2h14q8 -2 10 -2t50 2l47 2h32q27 -2 31 -2q6 0 17.5 2t17.5 2q25 0 50.5 -10t49.5 -60q10 -25 31 -73q20 -37 57 -105q35 -84 84 -201q41 -76 60 -75q16 0 30 24q6 8 9 21l12 18q25 49 39 96q8 27 41 101q8 18 24.5 54t38.5 87q27 66 47 96 q23 25 70 25q-12 0 27 -2t135 -2q4 0 35.5 2t38.5 2q63 0 63 -27q0 -31 -31 -88q-10 -25 -35 -76q-6 -12 -18 -39.5t-35 -76.5q-35 -78 -98 -199q-12 -18 -37 -59q-6 -14 -18.5 -45t-20.5 -46.5t-22 -41.5q-20 -37 -45 -91q-6 -10 -15 -30q-68 -147 -67 -199q0 -4 2 -24v-27 q0 -6 -2 -43t-2 -45q0 -4 3 -39t3 -43v-41q-2 -35 -2 -43q0 -4 2 -28.5t2 -28.5q0 -27 -17.5 -48.5t-42.5 -21.5q-2 0 -20.5 3t-22.5 3q4 0 -41 -2h-71q-4 0 -40 -2t-42 -2q-29 0 -51 31q-18 25 -19 47q0 31 6 55v31q-2 25 -2 28q0 6 3 41t3 41q0 -4 -4 43q-2 10 -2 35v72 q-2 12 -6 41q0 16 -6 49q-6 12 -18 39q-4 12 -15 33l-18 37q-20 49 -58 133q-12 20 -34 61q-10 25 -33 74q-14 25 -43 76q-18 35 -49 108q-14 27 -43 78q-10 25 -31 70q-37 76 -53 102q-2 2 -7.5 12.5t-11.5 26.5q-12 25 -12 45zM481 1571q0 14 9.5 32.5t10.5 23.5t2 11.5 t2 9.5t5 13q6 33 14 70q6 10 13 34q0 14 4 39q12 33 34 33q8 0 15 -2h39q6 0 43 2t45 2q2 0 25.5 -3t27.5 -3t28.5 4t28.5 4q37 0 37 -43q0 -23 -16 -53q-6 -8 -16.5 -25.5t-26.5 -46.5q-6 -6 -17 -20l-12 -19q-4 -8 -16 -22.5t-17 -24.5q-16 -37 -28.5 -45t-71.5 -8h-35 q-29 -2 -35 -2q-61 0 -69 4q-23 4 -23 35z" />
<glyph unicode="&#xde;" horiz-adv-x="1236" d="M70 1307q0 53 11 74.5t52 45.5q20 10 45 13q14 0 43 2q2 0 24.5 2t26.5 2q80 0 107 -39q12 -25 12 -53v-23q-2 -20 -2 -24q0 -59 57 -60q2 0 11 2h12q6 0 43 5.5t47 7.5t31 2q8 0 48 -1t114 -6q18 -2 69 -18q96 -31 166 -72q53 -33 70.5 -45t40.5 -37q72 -82 97.5 -164.5 t25.5 -175.5q0 -70 -37 -157q-29 -70 -33 -76q-10 -12 -31 -39q-8 -14 -26 -39q-25 -33 -93 -76q-72 -49 -124 -63q-98 -27 -207 -27q-14 0 -80 8q-4 0 -17 3h-16q-70 0 -100 -15q-43 -23 -43 -86q0 -6 4 -42t4 -42q0 -70 -40 -83t-112 -13q-4 0 -32.5 2t-34.5 2h-37 q-33 -2 -39 -2q-53 0 -53 74q0 12 2 94t2 96q0 8 -2 59.5t-2 61.5t2 74v73v64q0 14 2 43t2 43q0 84 2 100q4 8 4 37v21q-2 12 -2 20v60q0 4 -2 36.5t-2 38.5v78q0 113 -2 137q0 6 -4 47t-4 50zM422 829q0 -29 2 -96q2 -39 27 -88q8 -18 41 -47q55 -27 126 -27q51 2 123 11 q55 18 72 36q27 31 59 68q19 55 19 96v9q-20 61 -31 81q-27 37 -65 64q-61 39 -177 39q-4 0 -32.5 2t-34.5 2q-12 0 -37 -8q-37 -12 -48 -20.5t-26 -39.5q-18 -41 -18 -82z" />
<glyph unicode="&#xdf;" horiz-adv-x="1024" d="M66 844q0 12 4 97t4 101v35q-2 31 -2 35q0 41 8 78q16 72 40.5 108.5t44 50t44.5 29.5q57 41 108 58q92 18 185 18q160 0 282 -111q84 -76 84 -198q0 -51 -12 -90q-14 -29 -41 -90q-18 -47 -18 -72q0 -23 53 -96q82 -111 117 -238q25 -86 24 -160q0 -145 -36.5 -222 t-92.5 -130q-70 -68 -176 -67q-84 0 -117 6q-49 10 -63 49q-8 27 -8 117v34q-6 31 -6 80q0 51 47 51h18q14 -2 16 -2q59 0 82 47q6 14 13 37v9q-2 2 -2 6t2 8v8q-10 45 -19 64q-27 59 -74 137q-20 35 -65 104q-37 53 -37 105q0 61 53 116q43 45 43 107q0 90 -80 90 q-33 0 -56 -28.5t-27 -94.5q-2 -47 -7 -139q0 -6 -4 -56.5t-4 -60.5q0 -4 3 -26.5t3 -26.5q2 -18 2 -84v-43q-2 -39 -2 -45q0 -18 4.5 -107.5t4.5 -87.5q0 -53 -5 -123q-4 -27 -4 -32q0 -2 2 -11v-12v-12q-2 -10 -2 -12q0 -4 6 -74q0 -29 -18 -55.5t-70 -26.5q-4 0 -32.5 2 t-46.5 2l-66 2h-23q-18 -2 -22 -2q-47 0 -57 72q0 2 2 24v25q0 116 -2 100v70q0 6 2 43t2 45q0 4 -2 35.5t-2 38.5q2 -12 2 92v30q-2 20 -2 31v137v50q-2 43 -2 51z" />
<glyph unicode="&#xe0;" horiz-adv-x="1024" d="M33 375q0 27 14 63q8 25 45 76q6 4 17.5 17.5t33.5 39.5q35 35 101 60q23 4 32 8q23 8 76 20q16 2 49 3l43 6h15q12 -2 16 -2t23.5 2t21.5 2q10 0 15.5 -2t25.5 -6h12q4 0 19.5 -3.5t17.5 -3.5q45 0 45 35q0 37 -53 58q-37 14 -88 14q-76 0 -106.5 -6t-75.5 -21 q-31 -6 -37 -6t-18.5 -4t-34.5 -14q-61 -23 -76 -23q-55 0 -55 49q0 6 2 36t2 34v20q-2 16 -2 19q0 4 2 18v19v24q0 39 20 60q12 10 51 22q14 4 40 11.5t38 11.5q23 8 78 22q86 14 176 15q141 0 240 -41q80 -33 114 -72q6 -10 21 -27q8 -6 22 -22q33 -45 33 -127v-84 q-2 -74 -2 -88q0 -4 2 -33t2 -35v-26q-2 -25 -2 -29t2 -31v-31t-2 -48t-2 -50q0 -53 4 -74v-59q-2 -51 -2 -61q0 -4 2 -26t2 -26q0 -66 -98 -65h-55q-6 0 -51 -2h-52q-18 0 -30 24q0 8 -6.5 18.5t-16.5 10.5q-8 0 -25 -14q-39 -33 -108 -45q-25 -4 -86 -4q-53 0 -123 12 q-84 14 -143 63q-68 68 -82 97q-23 37 -37 92q-6 43 -6 129zM283 1372q0 37 26 47q4 2 25 2h39q0 -2 2 -2h14q6 0 15 2h14q10 2 31 2h14q12 -2 16 -2q2 0 17.5 2t19.5 2q61 0 82 -36.5t21 -77.5q0 -8 2 -23q0 -4 8 -23.5t8 -21.5v-20q0 -14 6 -41t6 -37q0 -31 -28 -31 q-4 -2 -45 -2h-46h-77q-35 0 -45 29q-6 14 -24.5 45t-51.5 92q-4 10 -29 47q-20 31 -20 47zM340 336q0 -53 49 -76.5t82 -23.5q6 0 57 10q18 0 68 18q51 27 51 76q0 31 -29 51q-53 37 -90 37h-12q-10 -2 -14 -2q-2 0 -14.5 2t-14.5 2q6 0 -24 -6q-4 -2 -29 -8t-29 -8 q-51 -16 -51 -72z" />
<glyph unicode="&#xe1;" horiz-adv-x="1024" d="M33 375q0 27 14 63q8 25 45 76q6 4 17.5 17.5t33.5 39.5q35 35 101 60q23 4 32 8q23 8 76 20q16 2 49 3l43 6h15q12 -2 16 -2t23.5 2t21.5 2q10 0 15.5 -2t25.5 -6h12q4 0 19.5 -3.5t17.5 -3.5q45 0 45 35q0 37 -53 58q-37 14 -88 14q-76 0 -106.5 -6t-75.5 -21 q-31 -6 -37 -6t-18.5 -4t-34.5 -14q-61 -23 -76 -23q-55 0 -55 49q0 6 2 36t2 34v20q-2 16 -2 19q0 4 2 18v19v24q0 39 20 60q12 10 51 22q14 4 40 11.5t38 11.5q23 8 78 22q86 14 176 15q141 0 240 -41q80 -33 114 -72q6 -10 21 -27q8 -6 22 -22q33 -45 33 -127v-84 q-2 -74 -2 -88q0 -4 2 -33t2 -35v-26q-2 -25 -2 -29t2 -31v-31t-2 -48t-2 -50q0 -53 4 -74v-59q-2 -51 -2 -61q0 -4 2 -26t2 -26q0 -66 -98 -65h-55q-6 0 -51 -2h-52q-18 0 -30 24q0 8 -6.5 18.5t-16.5 10.5q-8 0 -25 -14q-39 -33 -108 -45q-25 -4 -86 -4q-53 0 -123 12 q-84 14 -143 63q-68 68 -82 97q-23 37 -37 92q-6 43 -6 129zM340 336q0 -53 49 -76.5t82 -23.5q6 0 57 10q18 0 68 18q51 27 51 76q0 31 -29 51q-53 37 -90 37h-12q-10 -2 -14 -2q-2 0 -14.5 2t-14.5 2q6 0 -24 -6q-4 -2 -29 -8t-29 -8q-51 -16 -51 -72zM374 1153 q0 20 15 41q6 15 6 27v4l10 20q2 4 13 68q0 6 5 18t7 22.5t4 30.5q12 35 37 35q2 0 17.5 -2t19.5 -2q14 0 108 4q4 0 22.5 -2t20.5 -2q6 0 33 3t29 3q37 -6 36 -39q0 -29 -16 -55q-6 -8 -15 -25.5t-26 -46.5q-8 -10 -18 -20q-2 -2 -6.5 -9t-6.5 -12q-12 -16 -30 -43 q-2 -8 -11 -24q-16 -31 -84 -31h-30q-25 -2 -31 -2q-4 0 -33 2h-32q-43 0 -44 37z" />
<glyph unicode="&#xe2;" horiz-adv-x="1024" d="M33 375q0 27 14 63q8 25 45 76q6 4 17.5 17.5t33.5 39.5q35 35 101 60q23 4 32 8q23 8 76 20q16 2 49 3l43 6h15q12 -2 16 -2t23.5 2t21.5 2q10 0 15.5 -2t25.5 -6h12q4 0 19.5 -3.5t17.5 -3.5q45 0 45 35q0 37 -53 58q-37 14 -88 14q-76 0 -106.5 -6t-75.5 -21 q-31 -6 -37 -6t-18.5 -4t-34.5 -14q-61 -23 -76 -23q-55 0 -55 49q0 6 2 36t2 34v20q-2 16 -2 19q0 4 2 18v19v24q0 39 20 60q12 10 51 22q14 4 40 11.5t38 11.5q23 8 78 22q86 14 176 15q141 0 240 -41q80 -33 114 -72q6 -10 21 -27q8 -6 22 -22q33 -45 33 -127v-84 q-2 -74 -2 -88q0 -4 2 -33t2 -35v-26q-2 -25 -2 -29t2 -31v-31t-2 -48t-2 -50q0 -53 4 -74v-59q-2 -51 -2 -61q0 -4 2 -26t2 -26q0 -66 -98 -65h-55q-6 0 -51 -2h-52q-18 0 -30 24q0 8 -6.5 18.5t-16.5 10.5q-8 0 -25 -14q-39 -33 -108 -45q-25 -4 -86 -4q-53 0 -123 12 q-84 14 -143 63q-68 68 -82 97q-23 37 -37 92q-6 43 -6 129zM219 1149q0 12 39 59q23 25 43 49q10 20 35 60q35 35 44 48t26.5 35.5t43.5 26.5q-14 -2 72 -2h57q25 0 46 -16q31 -33 63 -70q10 -18 16.5 -26t38.5 -41q23 -37 41 -60q31 -37 31 -53q0 -41 -51 -41q-2 0 -19 2 h-18h-29q-23 -2 -28 -2q-2 0 -19 2h-19h-18q-12 -2 -16 -2q-18 0 -44 35t-52 35q-25 0 -41 -27q-25 -43 -49 -43q-2 0 -17.5 2t-17.5 2h-15q-10 -2 -16 -2h-74q-53 0 -53 29zM340 336q0 -53 49 -76.5t82 -23.5q6 0 57 10q18 0 68 18q51 27 51 76q0 31 -29 51q-53 37 -90 37 h-12q-10 -2 -14 -2q-2 0 -14.5 2t-14.5 2q6 0 -24 -6q-4 -2 -29 -8t-29 -8q-51 -16 -51 -72z" />
<glyph unicode="&#xe3;" horiz-adv-x="1024" d="M33 375q0 27 14 63q8 25 45 76q6 4 17.5 17.5t33.5 39.5q35 35 101 60q23 4 32 8q23 8 76 20q16 2 49 3l43 6h15q12 -2 16 -2t23.5 2t21.5 2q10 0 15.5 -2t25.5 -6h12q4 0 19.5 -3.5t17.5 -3.5q45 0 45 35q0 37 -53 58q-37 14 -88 14q-76 0 -106.5 -6t-75.5 -21 q-31 -6 -37 -6t-18.5 -4t-34.5 -14q-61 -23 -76 -23q-55 0 -55 49q0 6 2 36t2 34v20q-2 16 -2 19q0 4 2 18v19v24q0 39 20 60q12 10 51 22q14 4 40 11.5t38 11.5q23 8 78 22q86 14 176 15q141 0 240 -41q80 -33 114 -72q6 -10 21 -27q8 -6 22 -22q33 -45 33 -127v-84 q-2 -74 -2 -88q0 -4 2 -33t2 -35v-26q-2 -25 -2 -29t2 -31v-31t-2 -48t-2 -50q0 -53 4 -74v-59q-2 -51 -2 -61q0 -4 2 -26t2 -26q0 -66 -98 -65h-55q-6 0 -51 -2h-52q-18 0 -30 24q0 8 -6.5 18.5t-16.5 10.5q-8 0 -25 -14q-39 -33 -108 -45q-25 -4 -86 -4q-53 0 -123 12 q-84 14 -143 63q-68 68 -82 97q-23 37 -37 92q-6 43 -6 129zM211 1192l6 59q4 47 21 82q35 72 104 72h20q2 0 13 2h12q37 0 80 -16q10 -4 27.5 -10.5t50.5 -16.5q66 -27 84 -27q35 0 47 29q2 6 7 19.5t30 13.5h53q53 0 53 -51q-6 -59 -26 -146q-33 -70 -119 -69 q-41 0 -86 12l-70 24q-31 8 -74 21q-33 10 -36 10q-33 0 -46 -29q-2 -6 -6 -14q-10 -18 -45 -18q-2 0 -14 2t-16 2h-11q-6 -2 -10 -2q-49 0 -49 51zM340 336q0 -53 49 -76.5t82 -23.5q6 0 57 10q18 0 68 18q51 27 51 76q0 31 -29 51q-53 37 -90 37h-12q-10 -2 -14 -2 q-2 0 -14.5 2t-14.5 2q6 0 -24 -6q-4 -2 -29 -8t-29 -8q-51 -16 -51 -72z" />
<glyph unicode="&#xe4;" horiz-adv-x="1024" d="M33 375q0 27 14 63q8 25 45 76q6 4 17.5 17.5t33.5 39.5q35 35 101 60q23 4 32 8q23 8 76 20q16 2 49 3l43 6h15q12 -2 16 -2t23.5 2t21.5 2q10 0 15.5 -2t25.5 -6h12q4 0 19.5 -3.5t17.5 -3.5q45 0 45 35q0 37 -53 58q-37 14 -88 14q-76 0 -106.5 -6t-75.5 -21 q-31 -6 -37 -6t-18.5 -4t-34.5 -14q-61 -23 -76 -23q-55 0 -55 49q0 6 2 36t2 34v20q-2 16 -2 19q0 4 2 18v19v24q0 39 20 60q12 10 51 22q14 4 40 11.5t38 11.5q23 8 78 22q86 14 176 15q141 0 240 -41q80 -33 114 -72q6 -10 21 -27q8 -6 22 -22q33 -45 33 -127v-84 q-2 -74 -2 -88q0 -4 2 -33t2 -35v-26q-2 -25 -2 -29t2 -31v-31t-2 -48t-2 -50q0 -53 4 -74v-59q-2 -51 -2 -61q0 -4 2 -26t2 -26q0 -66 -98 -65h-55q-6 0 -51 -2h-52q-18 0 -30 24q0 8 -6.5 18.5t-16.5 10.5q-8 0 -25 -14q-39 -33 -108 -45q-25 -4 -86 -4q-53 0 -123 12 q-84 14 -143 63q-68 68 -82 97q-23 37 -37 92q-6 43 -6 129zM119 1352q0 29 18.5 45t36.5 16h27q0 -2 2 -2h8l35 2l35 2h29q23 -2 26 -2q6 0 37 2t35 2q39 0 39 -43v-33q0 -2 2 -20v-19.5v-19.5q-2 -16 -2 -20q0 -2 2 -19v-17v-20q-2 -16 -2 -20v-21q0 -35 -37 -39h-62 q-6 0 -43.5 -2t-46.5 -2q-2 0 -20 2h-22.5h-24.5q-18 -2 -23 -2q-33 0 -47 29q2 -10 2 39q0 10 -2 78.5t-2 83.5zM340 336q0 -53 49 -76.5t82 -23.5q6 0 57 10q18 0 68 18q51 27 51 76q0 31 -29 51q-53 37 -90 37h-12q-10 -2 -14 -2q-2 0 -14.5 2t-14.5 2q6 0 -24 -6 q-4 -2 -29 -8t-29 -8q-51 -16 -51 -72zM551 1290q0 2 2 22.5t2 24.5q0 2 -2 17.5t-2 19.5q0 45 41 45q4 0 27.5 -2t27.5 -2q10 0 33 2h31.5h34.5q20 -2 30 -2q4 0 25 2h25q20 0 41 -18q12 -10 12 -35q0 -2 2 -12v-13v-59q0 -2 -2 -22.5t-2 -24.5v-37q0 -72 -41 -72 q-2 0 -17 2h-18h-25q-20 -2 -24 -2h-47q-6 0 -39 2h-37h-29q-41 0 -45 37v60q0 4 -2 32.5t-2 34.5z" />
<glyph unicode="&#xe5;" horiz-adv-x="1024" d="M33 375q0 27 14 63q8 25 45 76q6 4 17.5 17.5t33.5 39.5q35 35 101 60q23 4 32 8q23 8 76 20q16 2 49 3l43 6h15q12 -2 16 -2t23.5 2t21.5 2q10 0 15.5 -2t25.5 -6h12q4 0 19.5 -3.5t17.5 -3.5q45 0 45 35q0 37 -53 58q-37 14 -88 14q-76 0 -106.5 -6t-75.5 -21 q-31 -6 -37 -6t-18.5 -4t-34.5 -14q-61 -23 -76 -23q-55 0 -55 49q0 6 2 36t2 34v20q-2 16 -2 19q0 4 2 18v19v24q0 39 20 60q12 10 51 22q14 4 40 11.5t38 11.5q23 8 78 22q86 14 176 15q141 0 240 -41q80 -33 114 -72q6 -10 21 -27q8 -6 22 -22q33 -45 33 -127v-84 q-2 -74 -2 -88q0 -4 2 -33t2 -35v-26q-2 -25 -2 -29t2 -31v-31t-2 -48t-2 -50q0 -53 4 -74v-59q-2 -51 -2 -61q0 -4 2 -26t2 -26q0 -66 -98 -65h-55q-6 0 -51 -2h-52q-18 0 -30 24q0 8 -6.5 18.5t-16.5 10.5q-8 0 -25 -14q-39 -33 -108 -45q-25 -4 -86 -4q-53 0 -123 12 q-84 14 -143 63q-68 68 -82 97q-23 37 -37 92q-6 43 -6 129zM310 1292q0 78 63 135q55 51 115 51q49 0 96 -18q35 -20 61 -49q43 -47 43 -123q0 -109 -84 -162q-55 -35 -102 -35l-41 6q-20 4 -67 25q-84 61 -84 170zM340 336q0 -53 49 -76.5t82 -23.5q6 0 57 10q18 0 68 18 q51 27 51 76q0 31 -29 51q-53 37 -90 37h-12q-10 -2 -14 -2q-2 0 -14.5 2t-14.5 2q6 0 -24 -6q-4 -2 -29 -8t-29 -8q-51 -16 -51 -72zM420 1290q0 -35 22.5 -60.5t57.5 -25.5q31 0 55.5 21.5t24.5 58.5q0 35 -21.5 60.5t-58.5 25.5q-33 0 -56.5 -27.5t-23.5 -52.5z" />
<glyph unicode="&#xe6;" horiz-adv-x="1662" d="M37 324q0 84 29 141q4 8 38 49q20 27 80 82q14 6 38 18.5t81 34.5q88 25 197 25q33 0 65 -6l13 -2q63 -12 73 -13q27 0 27 29q0 55 -68 76q-31 6 -92 6q-82 0 -112 -10q-10 -2 -31 -11q-61 -12 -76.5 -19t-42.5 -20.5t-63 -13.5q-35 0 -62 31q-14 16 -14 98q0 8 -2 49 l-2 41q0 20 20 39q37 35 182 78q31 8 91 18q18 6 83 7q68 0 89 -2q43 -6 96 -15q10 -2 26 -8q2 0 38 -6t100 -49q16 -10 22 -10q4 0 27 16q4 4 25 19l22 14q18 8 106 30q88 10 111 11q84 0 162 -29q135 -49 215 -176q35 -55 61 -139q23 -72 23 -199q0 -90 -70 -100 q2 0 -102 -5q-2 0 -15 3h-16q-10 0 -26.5 -2.5t-24.5 -2.5q-2 0 -17 2h-18q-2 0 -20.5 -2t-22.5 -2q-6 0 -21.5 2t-23.5 2q-6 0 -13.5 -2t-13.5 -2h-51q-8 0 -64.5 3.5t-66.5 3.5q-35 0 -35 -29t25 -55q51 -55 180 -56q160 0 236 23q8 4 24 8q10 0 31 4q4 0 14 4 q33 14 60 14q41 0 41 -47v-22q-2 -18 -3 -23q0 -2 3 -22v-23q0 -59 -7 -78q-6 -47 -88 -73q-25 -8 -88 -25q-100 -27 -196 -26q-41 0 -117 4q-43 2 -113 22q-92 25 -127 55q-25 23 -39 23q-10 0 -34 -21q-66 -53 -150 -63q-16 -2 -33 -2l-30 -6q-2 0 -61.5 -3t-67.5 -3 q-63 0 -111 10q-18 4 -46 10t-89 29q-51 27 -109.5 111t-58.5 178zM356 330q0 -41 60 -64q41 -16 90 -16q123 0 149 45q14 25 15 53q0 31 -37 49q-37 27 -113 27q-88 0 -121 -27q-23 -10 -37 -37q-6 -10 -6 -30zM985 664q0 -25 29 -25h53h27q23 -2 28 -2q6 0 50.5 2t52.5 2 q61 0 61 31q0 39 -39 73q-51 37 -112 37q-66 0 -108 -37.5t-42 -80.5z" />
<glyph unicode="&#xe7;" horiz-adv-x="724" d="M31 575q0 55 28 148q27 82 68 139q33 43 84 88q63 55 129 68q12 2 39 6q14 4 43 12q10 0 31 2q10 0 41 4q25 4 41 5q76 0 98 -9q37 -12 37 -57q0 -4 -2 -41t-2 -43v-76q0 -57 -19 -69q-31 -20 -88 -21q-2 0 -16 2h-17q-18 0 -30 -6q-2 0 -33 -12q-45 -18 -72 -51 q-43 -55 -43 -132q0 -78 64 -159q27 -35 87 -60.5t126 -25.5q57 0 57 -66q0 -4 -3 -27.5t-3 -29.5q0 -10 4 -64.5t4 -56.5q0 -23 -22.5 -43t-53.5 -20q-2 0 -16 2t-19 2q-16 0 -22 -13q-12 -25 -12 -28q0 -16 24.5 -29.5t38.5 -33t14 -70.5q0 -12 -2 -17q-8 -37 -34 -57 q-33 -27 -74 -27q-2 0 -15.5 2t-17.5 2h-33q-57 0 -82 17q-33 16 -32 45q0 -16 8 41q0 31 2 37q8 37 37 36q6 0 17 -3t18 -3q20 0 28 13q6 6 10 30q0 -4 -22 49q-6 8 -18.5 12.5t-34.5 12.5q-6 2 -29 12q-4 2 -14 4q-82 29 -164 111q-39 39 -68 98q-61 127 -61 250 q0 8 -2 51t-2 49z" />
<glyph unicode="&#xe8;" d="M33 492q0 117 19.5 191.5t45.5 111.5q16 41 78 107.5t154 107.5q84 37 153 37h90q94 0 177 -37q125 -57 206 -207q2 -2 31 -73t29 -230q0 -86 -74 -86h-65q-12 0 -89 -2t-92 -2q-6 0 -52 2t-54 2h-49q-43 -2 -52 -2h-67q-55 0 -55 -31q0 -39 67 -78q59 -33 105 -35h24 q23 2 27 2t24.5 -2t24.5 -2t23 2h20q12 0 41 6q23 2 63 5q16 4 84 28q55 18 80 19q57 0 58 -39v-11q-2 -6 -2 -10q-2 -20 -2 -92q0 -4 2 -31v-30q0 -25 -23 -43q-68 -53 -178 -74q-76 -14 -103 -14q-6 0 -45 -3.5t-47 -3.5q-37 2 -78 7q-90 6 -126 16q-27 6 -142 61 q-102 49 -164 160q-67 123 -67 273zM305 1372q0 37 26 47q4 2 25 2h39q0 -2 2 -2h14q6 0 15 2h14q10 2 31 2h14q12 -2 16 -2q2 0 17.5 2t19.5 2q61 0 82 -36.5t21 -77.5q0 -8 2 -23q0 -4 8 -23.5t8 -21.5v-20q0 -14 6 -41t6 -37q0 -31 -28 -31q-4 -2 -45 -2h-46h-77 q-35 0 -45 29q-6 14 -24.5 45t-51.5 92q-4 10 -29 47q-20 31 -20 47zM367 684q0 -49 112 -49h21q12 -2 20 -2q2 0 15 2h12q4 0 20.5 -2t18.5 -2q4 0 51 8q59 10 59 33q0 59 -67 94q-45 22 -78 22q-84 0 -125 -26q-59 -39 -59 -78z" />
<glyph unicode="&#xe9;" d="M33 492q0 117 19.5 191.5t45.5 111.5q16 41 78 107.5t154 107.5q84 37 153 37h90q94 0 177 -37q125 -57 206 -207q2 -2 31 -73t29 -230q0 -86 -74 -86h-65q-12 0 -89 -2t-92 -2q-6 0 -52 2t-54 2h-49q-43 -2 -52 -2h-67q-55 0 -55 -31q0 -39 67 -78q59 -33 105 -35h24 q23 2 27 2t24.5 -2t24.5 -2t23 2h20q12 0 41 6q23 2 63 5q16 4 84 28q55 18 80 19q57 0 58 -39v-11q-2 -6 -2 -10q-2 -20 -2 -92q0 -4 2 -31v-30q0 -25 -23 -43q-68 -53 -178 -74q-76 -14 -103 -14q-6 0 -45 -3.5t-47 -3.5q-37 2 -78 7q-90 6 -126 16q-27 6 -142 61 q-102 49 -164 160q-67 123 -67 273zM367 684q0 -49 112 -49h21q12 -2 20 -2q2 0 15 2h12q4 0 20.5 -2t18.5 -2q4 0 51 8q59 10 59 33q0 59 -67 94q-45 22 -78 22q-84 0 -125 -26q-59 -39 -59 -78zM397 1153q0 20 15 41q6 15 6 27v4l10 20q2 4 13 68q0 6 5 18t7 22.5t4 30.5 q12 35 37 35q2 0 17.5 -2t19.5 -2q14 0 108 4q4 0 22.5 -2t20.5 -2q6 0 33 3t29 3q37 -6 36 -39q0 -29 -16 -55q-6 -8 -15 -25.5t-26 -46.5q-8 -10 -18 -20q-2 -2 -6.5 -9t-6.5 -12q-12 -16 -30 -43q-2 -8 -11 -24q-16 -31 -84 -31h-30q-25 -2 -31 -2q-4 0 -33 2h-32 q-43 0 -44 37z" />
<glyph unicode="&#xea;" d="M33 492q0 117 19.5 191.5t45.5 111.5q16 41 78 107.5t154 107.5q84 37 153 37h90q94 0 177 -37q125 -57 206 -207q2 -2 31 -73t29 -230q0 -86 -74 -86h-65q-12 0 -89 -2t-92 -2q-6 0 -52 2t-54 2h-49q-43 -2 -52 -2h-67q-55 0 -55 -31q0 -39 67 -78q59 -33 105 -35h24 q23 2 27 2t24.5 -2t24.5 -2t23 2h20q12 0 41 6q23 2 63 5q16 4 84 28q55 18 80 19q57 0 58 -39v-11q-2 -6 -2 -10q-2 -20 -2 -92q0 -4 2 -31v-30q0 -25 -23 -43q-68 -53 -178 -74q-76 -14 -103 -14q-6 0 -45 -3.5t-47 -3.5q-37 2 -78 7q-90 6 -126 16q-27 6 -142 61 q-102 49 -164 160q-67 123 -67 273zM242 1149q0 12 39 59q23 25 43 49q10 20 35 60q35 35 44 48t26.5 35.5t43.5 26.5q-14 -2 72 -2h57q25 0 46 -16q31 -33 63 -70q10 -18 16.5 -26t38.5 -41q23 -37 41 -60q31 -37 31 -53q0 -41 -51 -41q-2 0 -19 2h-18h-29q-23 -2 -28 -2 q-2 0 -19 2h-19h-18q-12 -2 -16 -2q-18 0 -44 35t-52 35q-25 0 -41 -27q-25 -43 -49 -43q-2 0 -17.5 2t-17.5 2h-15q-10 -2 -16 -2h-74q-53 0 -53 29zM367 684q0 -49 112 -49h21q12 -2 20 -2q2 0 15 2h12q4 0 20.5 -2t18.5 -2q4 0 51 8q59 10 59 33q0 59 -67 94 q-45 22 -78 22q-84 0 -125 -26q-59 -39 -59 -78z" />
<glyph unicode="&#xeb;" d="M33 492q0 117 19.5 191.5t45.5 111.5q16 41 78 107.5t154 107.5q84 37 153 37h90q94 0 177 -37q125 -57 206 -207q2 -2 31 -73t29 -230q0 -86 -74 -86h-65q-12 0 -89 -2t-92 -2q-6 0 -52 2t-54 2h-49q-43 -2 -52 -2h-67q-55 0 -55 -31q0 -39 67 -78q59 -33 105 -35h24 q23 2 27 2t24.5 -2t24.5 -2t23 2h20q12 0 41 6q23 2 63 5q16 4 84 28q55 18 80 19q57 0 58 -39v-11q-2 -6 -2 -10q-2 -20 -2 -92q0 -4 2 -31v-30q0 -25 -23 -43q-68 -53 -178 -74q-76 -14 -103 -14q-6 0 -45 -3.5t-47 -3.5q-37 2 -78 7q-90 6 -126 16q-27 6 -142 61 q-102 49 -164 160q-67 123 -67 273zM151 1352q0 29 18.5 45t36.5 16h27q0 -2 2 -2h8l35 2l35 2h29q23 -2 26 -2q6 0 37 2t35 2q39 0 39 -43v-33q0 -2 2 -20v-19.5v-19.5q-2 -16 -2 -20q0 -2 2 -19v-17v-20q-2 -16 -2 -20v-21q0 -35 -37 -39h-62q-6 0 -43.5 -2t-46.5 -2 q-2 0 -20 2h-22.5h-24.5q-18 -2 -23 -2q-33 0 -47 29q2 -10 2 39q0 10 -2 78.5t-2 83.5zM367 684q0 -49 112 -49h21q12 -2 20 -2q2 0 15 2h12q4 0 20.5 -2t18.5 -2q4 0 51 8q59 10 59 33q0 59 -67 94q-45 22 -78 22q-84 0 -125 -26q-59 -39 -59 -78zM583 1290q0 2 2 22.5 t2 24.5q0 2 -2 17.5t-2 19.5q0 45 41 45q4 0 27.5 -2t27.5 -2q10 0 33 2h31.5h34.5q20 -2 30 -2q4 0 25 2h25q20 0 41 -18q12 -10 12 -35q0 -2 2 -12v-13v-59q0 -2 -2 -22.5t-2 -24.5v-37q0 -72 -41 -72q-2 0 -17 2h-18h-25q-20 -2 -24 -2h-47q-6 0 -39 2h-37h-29 q-41 0 -45 37v60q0 4 -2 32.5t-2 34.5z" />
<glyph unicode="&#xec;" horiz-adv-x="468" d="M6 1372q0 37 26 47q4 2 25 2h39q0 -2 2 -2h14q6 0 15 2h14q10 2 31 2h14q12 -2 16 -2q2 0 17.5 2t19.5 2q61 0 82 -36.5t21 -77.5q0 -8 2 -23q0 -4 8 -23.5t8 -21.5v-20q0 -14 6 -41t6 -37q0 -31 -28 -31q-4 -2 -45 -2h-46h-77q-35 0 -45 29q-6 14 -24.5 45t-51.5 92 q-4 10 -29 47q-20 31 -20 47zM68 51q0 6 5 79t5 83v18q-2 16 -2 21v82q0 4 2 28v29q0 6 -2 36t-2 34q0 16 -2 143t-2 129q0 10 3 69.5t3 71.5q0 6 -3 43.5t-3 45.5q0 72 100 71q4 0 36 -4t38 -4l12 2h18q12 2 29 2q16 -2 45 -2q18 0 37 -20q23 -27 23 -56v-20q-2 -14 -2 -21 v-41q0 -8 -2.5 -24.5t-2.5 -34.5q-2 -41 -2 -133q0 -6 -3 -45t-3 -47q0 -12 5 -85t5 -87q0 -6 -2 -47t-2 -50q0 -4 3.5 -41.5t3.5 -42.5q2 -47 2 -110q0 -31 -5 -41q-2 -29 -26.5 -56.5t-52.5 -27.5q-4 0 -34 2t-36 2t-53 -4t-58 -4q-76 0 -75 57z" />
<glyph unicode="&#xed;" horiz-adv-x="468" d="M68 51q0 6 5 79t5 83v18q-2 16 -2 21v82q0 4 2 28v29q0 6 -2 36t-2 34q0 16 -2 143t-2 129q0 10 3 69.5t3 71.5q0 6 -3 43.5t-3 45.5q0 72 100 71q4 0 36 -4t38 -4l12 2h18q12 2 29 2q16 -2 45 -2q18 0 37 -20q23 -27 23 -56v-20q-2 -14 -2 -21v-41q0 -8 -2.5 -24.5 t-2.5 -34.5q-2 -41 -2 -133q0 -6 -3 -45t-3 -47q0 -12 5 -85t5 -87q0 -6 -2 -47t-2 -50q0 -4 3.5 -41.5t3.5 -42.5q2 -47 2 -110q0 -31 -5 -41q-2 -29 -26.5 -56.5t-52.5 -27.5q-4 0 -34 2t-36 2t-53 -4t-58 -4q-76 0 -75 57zM98 1153q0 20 15 41q6 15 6 27v4l10 20 q2 4 13 68q0 6 5 18t7 22.5t4 30.5q12 35 37 35q2 0 17.5 -2t19.5 -2q14 0 108 4q4 0 22.5 -2t20.5 -2q6 0 33 3t29 3q37 -6 36 -39q0 -29 -16 -55q-6 -8 -15 -25.5t-26 -46.5q-8 -10 -18 -20q-2 -2 -6.5 -9t-6.5 -12q-12 -16 -30 -43q-2 -8 -11 -24q-16 -31 -84 -31h-30 q-25 -2 -31 -2q-4 0 -33 2h-32q-43 0 -44 37z" />
<glyph unicode="&#xee;" horiz-adv-x="468" d="M-57 1149q0 12 39 59q23 25 43 49q10 20 35 60q35 35 44 48t26.5 35.5t43.5 26.5q-14 -2 72 -2h57q25 0 46 -16q31 -33 63 -70q10 -18 16.5 -26t38.5 -41q23 -37 41 -60q31 -37 31 -53q0 -41 -51 -41q-2 0 -19 2h-18h-29q-23 -2 -28 -2q-2 0 -19 2h-19h-18q-12 -2 -16 -2 q-18 0 -44 35t-52 35q-25 0 -41 -27q-25 -43 -49 -43q-2 0 -17.5 2t-17.5 2h-15q-10 -2 -16 -2h-74q-53 0 -53 29zM68 51q0 6 5 79t5 83v18q-2 16 -2 21v82q0 4 2 28v29q0 6 -2 36t-2 34q0 16 -2 143t-2 129q0 10 3 69.5t3 71.5q0 6 -3 43.5t-3 45.5q0 72 100 71q4 0 36 -4 t38 -4l12 2h18q12 2 29 2q16 -2 45 -2q18 0 37 -20q23 -27 23 -56v-20q-2 -14 -2 -21v-41q0 -8 -2.5 -24.5t-2.5 -34.5q-2 -41 -2 -133q0 -6 -3 -45t-3 -47q0 -12 5 -85t5 -87q0 -6 -2 -47t-2 -50q0 -4 3.5 -41.5t3.5 -42.5q2 -47 2 -110q0 -31 -5 -41q-2 -29 -26.5 -56.5 t-52.5 -27.5q-4 0 -34 2t-36 2t-53 -4t-58 -4q-76 0 -75 57z" />
<glyph unicode="&#xef;" horiz-adv-x="468" d="M-148 1352q0 29 18.5 45t36.5 16h27q0 -2 2 -2h8l35 2l35 2h29q23 -2 26 -2q6 0 37 2t35 2q39 0 39 -43v-33q0 -2 2 -20v-19.5v-19.5q-2 -16 -2 -20q0 -2 2 -19v-17v-20q-2 -16 -2 -20v-21q0 -35 -37 -39h-62q-6 0 -43.5 -2t-46.5 -2q-2 0 -20 2h-22.5h-24.5 q-18 -2 -23 -2q-33 0 -47 29q2 -10 2 39q0 10 -2 78.5t-2 83.5zM68 51q0 6 5 79t5 83v18q-2 16 -2 21v82q0 4 2 28v29q0 6 -2 36t-2 34q0 16 -2 143t-2 129q0 10 3 69.5t3 71.5q0 6 -3 43.5t-3 45.5q0 72 100 71q4 0 36 -4t38 -4l12 2h18q12 2 29 2q16 -2 45 -2q18 0 37 -20 q23 -27 23 -56v-20q-2 -14 -2 -21v-41q0 -8 -2.5 -24.5t-2.5 -34.5q-2 -41 -2 -133q0 -6 -3 -45t-3 -47q0 -12 5 -85t5 -87q0 -6 -2 -47t-2 -50q0 -4 3.5 -41.5t3.5 -42.5q2 -47 2 -110q0 -31 -5 -41q-2 -29 -26.5 -56.5t-52.5 -27.5q-4 0 -34 2t-36 2t-53 -4t-58 -4 q-76 0 -75 57zM284 1290q0 2 2 22.5t2 24.5q0 2 -2 17.5t-2 19.5q0 45 41 45q4 0 27.5 -2t27.5 -2q10 0 33 2h31.5h34.5q20 -2 30 -2q4 0 25 2h25q20 0 41 -18q12 -10 12 -35q0 -2 2 -12v-13v-59q0 -2 -2 -22.5t-2 -24.5v-37q0 -72 -41 -72q-2 0 -17 2h-18h-25 q-20 -2 -24 -2h-47q-6 0 -39 2h-37h-29q-41 0 -45 37v60q0 4 -2 32.5t-2 34.5z" />
<glyph unicode="&#xf0;" horiz-adv-x="1150" d="M31 537q0 57 18 125q14 55 43 108q10 20 65.5 89t106.5 97q18 8 51 25q18 10 56 31q16 4 49 14q49 12 69 12q29 0 58 -6q18 -2 47 -6q20 -4 37 -14q10 -6 16 -6q12 0 12 6q0 8 -26 37q-33 33 -35 34q-23 31 -43 35h-16q-16 -2 -19 -2q-2 0 -16 2h-19q-6 0 -44 -2t-46 -2 q-53 0 -64.5 24.5t-23.5 59.5q-20 55 -20 74q0 33 37 33q8 0 57 -4.5t59 -4.5t11 7q0 12 -41 43q-23 16 -23 45q0 41 59 47h23q-4 0 8 -2h21q12 0 90 3t92 3q55 0 135 -103q31 -39 68 -39q6 0 45 3h47q59 0 69 -50l13 -36q20 -43 20 -58q0 -43 -45 -43q-4 0 -23.5 2t-23.5 2 q-33 0 -33 -16q0 -8 21.5 -38t48.5 -83q12 -27 39 -82q35 -80 49 -180q2 -12 4 -39q0 -10 4 -27q4 -37 4 -55q0 -86 -10 -168q-6 -27 -14 -57q-20 -76 -31 -101q-16 -41 -45 -75q-8 -10 -23.5 -28.5t-42.5 -51.5q-33 -35 -103.5 -71t-104.5 -44q-20 -4 -62 -10 q-70 -10 -96 -10q-150 0 -219 30q-12 8 -32 15.5t-50 19.5q-6 2 -49 35q-12 6 -27 16q-49 63 -102 127q-55 88 -72 185q-8 49 -8 125zM356 532q0 -59 15 -92q6 -10 14 -30q2 -8 8 -25q14 -33 72.5 -74t112.5 -41q14 0 45.5 6.5t48.5 12.5q27 12 61 39q70 55 70 188 q0 53 -33 109q-6 10 -29 34q-6 8 -20 23q-63 51 -148 51q-59 0 -120 -35q-39 -23 -68 -68.5t-29 -97.5z" />
<glyph unicode="&#xf1;" d="M72 94q0 12 2 35t2 33v153v50q-2 43 -2 51v59v29q-2 25 -2 28q0 8 2 48.5t2 46.5v71q-2 59 -2 72q0 8 2 59v62v49q0 76 51 90l37 -2l74 -4q41 2 38 2q12 2 62 2q43 0 53 -12q4 -8 12.5 -25.5t12.5 -17.5q16 0 53 35q25 12 52.5 23t76.5 11q4 0 29.5 -2t31.5 -2h41 q55 0 115 -30q12 -6 86 -66q37 -37 57 -78q37 -59 37 -149q0 -6 -2 -44t-2 -46q0 -6 2 -52v-51v-63q-2 -55 -2 -66q0 -8 2 -61t2 -64q0 -8 -2 -59t-2 -62q0 -4 2 -36v-39q0 -39 -12 -52q-14 -20 -39 -20q-4 0 -14 2h-15h-84h-28q-25 -2 -31 -2q-59 0 -72 4q-31 10 -30 117 q0 6 3 43t3 42t2 52v50v38q-2 33 -2 39q0 16 2 47v45q0 125 -41 193q-27 43 -96 43q-39 0 -78 -27q-31 -20 -43 -59q-8 -16 -15 -78q-4 -35 -6 -68v-32q0 -6 -3 -44t-3 -47q0 -18 4 -132.5t4 -137.5q0 -86 -82 -86q-4 0 -38 2h-39q-2 0 -22.5 -2t-24.5 -2q-76 0 -98.5 14.5 t-22.5 79.5zM234 1192l6 59q4 47 21 82q35 72 104 72h20q2 0 13 2h12q37 0 80 -16q10 -4 27.5 -10.5t50.5 -16.5q66 -27 84 -27q35 0 47 29q2 6 7 19.5t30 13.5h53q53 0 53 -51q-6 -59 -26 -146q-33 -70 -119 -69q-41 0 -86 12l-70 24q-31 8 -74 21q-33 10 -36 10 q-33 0 -46 -29q-2 -6 -6 -14q-10 -18 -45 -18q-2 0 -14 2t-16 2h-11q-6 -2 -10 -2q-49 0 -49 51z" />
<glyph unicode="&#xf2;" horiz-adv-x="1150" d="M29 457q0 10 2 28.5t2 26.5q0 4 -2 28.5t-2 28.5q0 49 11 85t26 75q8 14 36 57q23 35 68 84q6 6 19.5 17.5t39.5 38.5q14 12 39 30q33 8 94 50q74 37 181 36q4 0 38.5 2.5t41.5 2.5q80 0 157 -31q18 -10 58 -31q14 -8 45 -22q43 -25 86 -72q12 -14 35 -45q8 -8 24 -29 q10 -12 21.5 -26.5t37.5 -83.5q37 -92 31 -162q-4 -66 -12 -156q-10 -27 -31 -80q-12 -33 -45 -94q-57 -82 -86 -111q-45 -35 -86 -57l-49 -18q-12 -6 -33 -17q-33 -14 -74 -22q-55 -10 -151 -10q-31 0 -156 22q-39 6 -105.5 43t-88.5 59q-31 41 -47 62q-55 55 -72 100 q-53 123 -53 191zM346 522q0 -66 25 -123q14 -33 28 -49q25 -31 72 -55q41 -20 96 -21q55 0 117 43q47 33 64 58q4 14 16 39q6 10 14 30q13 37 13 82q0 59 -29 105q-23 35 -66 63q-18 20 -65 29q-14 2 -33.5 4t-34.5 4q-18 0 -90 -24q-45 -23 -67 -50q-59 -74 -60 -135z M346 1372q0 37 26 47q4 2 25 2h39q0 -2 2 -2h14q6 0 15 2h14q10 2 31 2h14q12 -2 16 -2q2 0 17.5 2t19.5 2q61 0 82 -36.5t21 -77.5q0 -8 2 -23q0 -4 8 -23.5t8 -21.5v-20q0 -14 6 -41t6 -37q0 -31 -28 -31q-4 -2 -45 -2h-46h-77q-35 0 -45 29q-6 14 -24.5 45t-51.5 92 q-4 10 -29 47q-20 31 -20 47z" />
<glyph unicode="&#xf3;" horiz-adv-x="1150" d="M29 457q0 10 2 28.5t2 26.5q0 4 -2 28.5t-2 28.5q0 49 11 85t26 75q8 14 36 57q23 35 68 84q6 6 19.5 17.5t39.5 38.5q14 12 39 30q33 8 94 50q74 37 181 36q4 0 38.5 2.5t41.5 2.5q80 0 157 -31q18 -10 58 -31q14 -8 45 -22q43 -25 86 -72q12 -14 35 -45q8 -8 24 -29 q10 -12 21.5 -26.5t37.5 -83.5q37 -92 31 -162q-4 -66 -12 -156q-10 -27 -31 -80q-12 -33 -45 -94q-57 -82 -86 -111q-45 -35 -86 -57l-49 -18q-12 -6 -33 -17q-33 -14 -74 -22q-55 -10 -151 -10q-31 0 -156 22q-39 6 -105.5 43t-88.5 59q-31 41 -47 62q-55 55 -72 100 q-53 123 -53 191zM346 522q0 -66 25 -123q14 -33 28 -49q25 -31 72 -55q41 -20 96 -21q55 0 117 43q47 33 64 58q4 14 16 39q6 10 14 30q13 37 13 82q0 59 -29 105q-23 35 -66 63q-18 20 -65 29q-14 2 -33.5 4t-34.5 4q-18 0 -90 -24q-45 -23 -67 -50q-59 -74 -60 -135z M438 1153q0 20 15 41q6 15 6 27v4l10 20q2 4 13 68q0 6 5 18t7 22.5t4 30.5q12 35 37 35q2 0 17.5 -2t19.5 -2q14 0 108 4q4 0 22.5 -2t20.5 -2q6 0 33 3t29 3q37 -6 36 -39q0 -29 -16 -55q-6 -8 -15 -25.5t-26 -46.5q-8 -10 -18 -20q-2 -2 -6.5 -9t-6.5 -12 q-12 -16 -30 -43q-2 -8 -11 -24q-16 -31 -84 -31h-30q-25 -2 -31 -2q-4 0 -33 2h-32q-43 0 -44 37z" />
<glyph unicode="&#xf4;" horiz-adv-x="1150" d="M29 457q0 10 2 28.5t2 26.5q0 4 -2 28.5t-2 28.5q0 49 11 85t26 75q8 14 36 57q23 35 68 84q6 6 19.5 17.5t39.5 38.5q14 12 39 30q33 8 94 50q74 37 181 36q4 0 38.5 2.5t41.5 2.5q80 0 157 -31q18 -10 58 -31q14 -8 45 -22q43 -25 86 -72q12 -14 35 -45q8 -8 24 -29 q10 -12 21.5 -26.5t37.5 -83.5q37 -92 31 -162q-4 -66 -12 -156q-10 -27 -31 -80q-12 -33 -45 -94q-57 -82 -86 -111q-45 -35 -86 -57l-49 -18q-12 -6 -33 -17q-33 -14 -74 -22q-55 -10 -151 -10q-31 0 -156 22q-39 6 -105.5 43t-88.5 59q-31 41 -47 62q-55 55 -72 100 q-53 123 -53 191zM283 1149q0 12 39 59q23 25 43 49q10 20 35 60q35 35 44 48t26.5 35.5t43.5 26.5q-14 -2 72 -2h57q25 0 46 -16q31 -33 63 -70q10 -18 16.5 -26t38.5 -41q23 -37 41 -60q31 -37 31 -53q0 -41 -51 -41q-2 0 -19 2h-18h-29q-23 -2 -28 -2q-2 0 -19 2h-19h-18 q-12 -2 -16 -2q-18 0 -44 35t-52 35q-25 0 -41 -27q-25 -43 -49 -43q-2 0 -17.5 2t-17.5 2h-15q-10 -2 -16 -2h-74q-53 0 -53 29zM346 522q0 -66 25 -123q14 -33 28 -49q25 -31 72 -55q41 -20 96 -21q55 0 117 43q47 33 64 58q4 14 16 39q6 10 14 30q13 37 13 82 q0 59 -29 105q-23 35 -66 63q-18 20 -65 29q-14 2 -33.5 4t-34.5 4q-18 0 -90 -24q-45 -23 -67 -50q-59 -74 -60 -135z" />
<glyph unicode="&#xf5;" horiz-adv-x="1150" d="M29 457q0 10 2 28.5t2 26.5q0 4 -2 28.5t-2 28.5q0 49 11 85t26 75q8 14 36 57q23 35 68 84q6 6 19.5 17.5t39.5 38.5q14 12 39 30q33 8 94 50q74 37 181 36q4 0 38.5 2.5t41.5 2.5q80 0 157 -31q18 -10 58 -31q14 -8 45 -22q43 -25 86 -72q12 -14 35 -45q8 -8 24 -29 q10 -12 21.5 -26.5t37.5 -83.5q37 -92 31 -162q-4 -66 -12 -156q-10 -27 -31 -80q-12 -33 -45 -94q-57 -82 -86 -111q-45 -35 -86 -57l-49 -18q-12 -6 -33 -17q-33 -14 -74 -22q-55 -10 -151 -10q-31 0 -156 22q-39 6 -105.5 43t-88.5 59q-31 41 -47 62q-55 55 -72 100 q-53 123 -53 191zM275 1192l6 59q4 47 21 82q35 72 104 72h20q2 0 13 2h12q37 0 80 -16q10 -4 27.5 -10.5t50.5 -16.5q66 -27 84 -27q35 0 47 29q2 6 7 19.5t30 13.5h53q53 0 53 -51q-6 -59 -26 -146q-33 -70 -119 -69q-41 0 -86 12l-70 24q-31 8 -74 21q-33 10 -36 10 q-33 0 -46 -29q-2 -6 -6 -14q-10 -18 -45 -18q-2 0 -14 2t-16 2h-11q-6 -2 -10 -2q-49 0 -49 51zM346 522q0 -66 25 -123q14 -33 28 -49q25 -31 72 -55q41 -20 96 -21q55 0 117 43q47 33 64 58q4 14 16 39q6 10 14 30q13 37 13 82q0 59 -29 105q-23 35 -66 63q-18 20 -65 29 q-14 2 -33.5 4t-34.5 4q-18 0 -90 -24q-45 -23 -67 -50q-59 -74 -60 -135z" />
<glyph unicode="&#xf6;" horiz-adv-x="1150" d="M29 457q0 10 2 28.5t2 26.5q0 4 -2 28.5t-2 28.5q0 49 11 85t26 75q8 14 36 57q23 35 68 84q6 6 19.5 17.5t39.5 38.5q14 12 39 30q33 8 94 50q74 37 181 36q4 0 38.5 2.5t41.5 2.5q80 0 157 -31q18 -10 58 -31q14 -8 45 -22q43 -25 86 -72q12 -14 35 -45q8 -8 24 -29 q10 -12 21.5 -26.5t37.5 -83.5q37 -92 31 -162q-4 -66 -12 -156q-10 -27 -31 -80q-12 -33 -45 -94q-57 -82 -86 -111q-45 -35 -86 -57l-49 -18q-12 -6 -33 -17q-33 -14 -74 -22q-55 -10 -151 -10q-31 0 -156 22q-39 6 -105.5 43t-88.5 59q-31 41 -47 62q-55 55 -72 100 q-53 123 -53 191zM186 1352q0 29 18.5 45t36.5 16h27q0 -2 2 -2h8l35 2l35 2h29q23 -2 26 -2q6 0 37 2t35 2q39 0 39 -43v-33q0 -2 2 -20v-19.5v-19.5q-2 -16 -2 -20q0 -2 2 -19v-17v-20q-2 -16 -2 -20v-21q0 -35 -37 -39h-62q-6 0 -43.5 -2t-46.5 -2q-2 0 -20 2h-22.5 h-24.5q-18 -2 -23 -2q-33 0 -47 29q2 -10 2 39q0 10 -2 78.5t-2 83.5zM346 522q0 -66 25 -123q14 -33 28 -49q25 -31 72 -55q41 -20 96 -21q55 0 117 43q47 33 64 58q4 14 16 39q6 10 14 30q13 37 13 82q0 59 -29 105q-23 35 -66 63q-18 20 -65 29q-14 2 -33.5 4t-34.5 4 q-18 0 -90 -24q-45 -23 -67 -50q-59 -74 -60 -135zM618 1290q0 2 2 22.5t2 24.5q0 2 -2 17.5t-2 19.5q0 45 41 45q4 0 27.5 -2t27.5 -2q10 0 33 2h31.5h34.5q20 -2 30 -2q4 0 25 2h25q20 0 41 -18q12 -10 12 -35q0 -2 2 -12v-13v-59q0 -2 -2 -22.5t-2 -24.5v-37 q0 -72 -41 -72q-2 0 -17 2h-18h-25q-20 -2 -24 -2h-47q-6 0 -39 2h-37h-29q-41 0 -45 37v60q0 4 -2 32.5t-2 34.5z" />
<glyph unicode="&#xf8;" horiz-adv-x="1150" d="M29 535q0 72 20 139q25 80 53 121q8 12 31 41q92 113 139 135q12 6 41 18q16 8 47 25q16 6 43 14q70 20 105 21q10 0 34.5 -2.5t37.5 -2.5q2 0 24 3h25q33 0 78 -11q57 -12 139 -59q45 49 59.5 71.5t26.5 22.5q10 0 17 -4t26 -23q12 -8 20 -10q20 -14 21 -28 q0 -20 -37 -58q-19 -18 -35 -45q10 -8 27 -26q12 -6 30 -25q23 -29 40.5 -55.5t45.5 -79.5q31 -76 31 -137v-31q-2 -25 -2 -31q0 -10 2 -29v-30v-13q0 -35 -27.5 -115.5t-54.5 -115.5q-6 -10 -22.5 -25.5t-22.5 -25.5q-10 -16 -33 -45q-33 -39 -122 -82q-61 -31 -150 -45 q-61 -10 -84 -10q-117 0 -149.5 8t-75.5 20q-14 8 -62 25q-6 -10 -25.5 -35t-27.5 -35q-10 -20 -26 -20q-12 0 -18.5 5t-27.5 19q-2 2 -21 14.5t-19 24.5q0 6 30 45q16 20 31 47q-23 23 -87.5 107t-82.5 190q-12 70 -12 138zM344 541q0 -51 11.5 -79t27.5 -69q6 -10 25 -28 q8 16 26 43q12 14 35 38q16 29 41 66q14 18 41 53q8 14 27 45q16 16 40 52q14 14 35 55q-23 25 -96 24q-39 0 -53 -4q-47 -12 -68 -28q-4 -2 -30.5 -28t-32.5 -36q-29 -49 -29 -104zM506 287q4 -4 14 -6t27 -5q4 0 11 -4t11 -6h11q6 0 49 8.5t69 24.5q63 39 87 96t24 131 q0 -2 -4 31q-4 16 -17 39q-4 12 -18 31q-4 8 -18 14q-14 -23 -35 -51q-8 -10 -25 -31q-12 -12 -26 -39q-4 -6 -13 -20q-14 -12 -39 -43q-4 -10 -16 -33q-8 -8 -20 -23q-2 -2 -13.5 -20.5t-17.5 -24.5q-25 -37 -41 -69z" />
<glyph unicode="&#xf9;" d="M70 762q-2 39 2 78v75v21q-2 18 -2 20q0 59 39 70h49q6 0 18 2h19q12 2 36 2h27q-4 0 10 -2h11q4 0 28.5 3t28.5 3q23 0 31 -6q31 -31 30 -70q0 -4 -2 -28.5t-2 -30.5q0 -4 2 -29.5t2 -29.5q0 -6 -4 -47t-4 -50q0 -4 2 -32.5t2 -34.5q0 -10 -2 -30.5t-2 -33.5q0 -4 2 -26 v-27v-24q-2 -23 -2 -27q0 -90 27 -141q31 -57 98 -58q45 0 74 17q35 25 47 61q10 29 20 57q0 2 3.5 41t3.5 41v21q-2 16 -3 18q0 8 3 21v18v55q0 23 3 66t3 63q0 10 -4.5 73t-4.5 75q0 88 68 88h59q25 0 33 4h29q23 -2 26 -2q4 0 28 2t28 2q25 0 39 -22.5t14 -69.5 q0 -4 2 -33v-33q0 -4 -2 -33.5t-2 -35.5q0 -12 2 -40t2 -42v-72q0 -6 2 -41v-41t-2 -38.5t-2 -41.5q0 -12 2 -38v-39q0 -6 -2 -46t-2 -49q0 -14 2 -39q2 -33 2 -40v-82q2 -43 2 -48q0 -61 -21.5 -83.5t-74.5 -22.5q-6 0 -45 2h-47q-4 0 -37 -2t-39 -2q-41 0 -53 25 q-2 10 -10.5 24t-16.5 14t-18 -10q-78 -59 -183 -59q-88 0 -143 16q-29 10 -68 31q-8 4 -47 43q-16 12 -24 20q-88 74 -88 252q0 74 2 111t2 31v24q-2 16 -2 23q0 10 2 26v25q0 4 -2 25.5t-2 25.5q0 2 2 17v18v2q0 -10 -4 80zM305 1372q0 37 26 47q4 2 25 2h39q0 -2 2 -2h14 q6 0 15 2h14q10 2 31 2h14q12 -2 16 -2q2 0 17.5 2t19.5 2q61 0 82 -36.5t21 -77.5q0 -8 2 -23q0 -4 8 -23.5t8 -21.5v-20q0 -14 6 -41t6 -37q0 -31 -28 -31q-4 -2 -45 -2h-46h-77q-35 0 -45 29q-6 14 -24.5 45t-51.5 92q-4 10 -29 47q-20 31 -20 47z" />
<glyph unicode="&#xfa;" d="M70 762q-2 39 2 78v75v21q-2 18 -2 20q0 59 39 70h49q6 0 18 2h19q12 2 36 2h27q-4 0 10 -2h11q4 0 28.5 3t28.5 3q23 0 31 -6q31 -31 30 -70q0 -4 -2 -28.5t-2 -30.5q0 -4 2 -29.5t2 -29.5q0 -6 -4 -47t-4 -50q0 -4 2 -32.5t2 -34.5q0 -10 -2 -30.5t-2 -33.5q0 -4 2 -26 v-27v-24q-2 -23 -2 -27q0 -90 27 -141q31 -57 98 -58q45 0 74 17q35 25 47 61q10 29 20 57q0 2 3.5 41t3.5 41v21q-2 16 -3 18q0 8 3 21v18v55q0 23 3 66t3 63q0 10 -4.5 73t-4.5 75q0 88 68 88h59q25 0 33 4h29q23 -2 26 -2q4 0 28 2t28 2q25 0 39 -22.5t14 -69.5 q0 -4 2 -33v-33q0 -4 -2 -33.5t-2 -35.5q0 -12 2 -40t2 -42v-72q0 -6 2 -41v-41t-2 -38.5t-2 -41.5q0 -12 2 -38v-39q0 -6 -2 -46t-2 -49q0 -14 2 -39q2 -33 2 -40v-82q2 -43 2 -48q0 -61 -21.5 -83.5t-74.5 -22.5q-6 0 -45 2h-47q-4 0 -37 -2t-39 -2q-41 0 -53 25 q-2 10 -10.5 24t-16.5 14t-18 -10q-78 -59 -183 -59q-88 0 -143 16q-29 10 -68 31q-8 4 -47 43q-16 12 -24 20q-88 74 -88 252q0 74 2 111t2 31v24q-2 16 -2 23q0 10 2 26v25q0 4 -2 25.5t-2 25.5q0 2 2 17v18v2q0 -10 -4 80zM397 1153q0 20 15 41q6 15 6 27v4l10 20 q2 4 13 68q0 6 5 18t7 22.5t4 30.5q12 35 37 35q2 0 17.5 -2t19.5 -2q14 0 108 4q4 0 22.5 -2t20.5 -2q6 0 33 3t29 3q37 -6 36 -39q0 -29 -16 -55q-6 -8 -15 -25.5t-26 -46.5q-8 -10 -18 -20q-2 -2 -6.5 -9t-6.5 -12q-12 -16 -30 -43q-2 -8 -11 -24q-16 -31 -84 -31h-30 q-25 -2 -31 -2q-4 0 -33 2h-32q-43 0 -44 37z" />
<glyph unicode="&#xfb;" d="M70 762q-2 39 2 78v75v21q-2 18 -2 20q0 59 39 70h49q6 0 18 2h19q12 2 36 2h27q-4 0 10 -2h11q4 0 28.5 3t28.5 3q23 0 31 -6q31 -31 30 -70q0 -4 -2 -28.5t-2 -30.5q0 -4 2 -29.5t2 -29.5q0 -6 -4 -47t-4 -50q0 -4 2 -32.5t2 -34.5q0 -10 -2 -30.5t-2 -33.5q0 -4 2 -26 v-27v-24q-2 -23 -2 -27q0 -90 27 -141q31 -57 98 -58q45 0 74 17q35 25 47 61q10 29 20 57q0 2 3.5 41t3.5 41v21q-2 16 -3 18q0 8 3 21v18v55q0 23 3 66t3 63q0 10 -4.5 73t-4.5 75q0 88 68 88h59q25 0 33 4h29q23 -2 26 -2q4 0 28 2t28 2q25 0 39 -22.5t14 -69.5 q0 -4 2 -33v-33q0 -4 -2 -33.5t-2 -35.5q0 -12 2 -40t2 -42v-72q0 -6 2 -41v-41t-2 -38.5t-2 -41.5q0 -12 2 -38v-39q0 -6 -2 -46t-2 -49q0 -14 2 -39q2 -33 2 -40v-82q2 -43 2 -48q0 -61 -21.5 -83.5t-74.5 -22.5q-6 0 -45 2h-47q-4 0 -37 -2t-39 -2q-41 0 -53 25 q-2 10 -10.5 24t-16.5 14t-18 -10q-78 -59 -183 -59q-88 0 -143 16q-29 10 -68 31q-8 4 -47 43q-16 12 -24 20q-88 74 -88 252q0 74 2 111t2 31v24q-2 16 -2 23q0 10 2 26v25q0 4 -2 25.5t-2 25.5q0 2 2 17v18v2q0 -10 -4 80zM242 1149q0 12 39 59q23 25 43 49q10 20 35 60 q35 35 44 48t26.5 35.5t43.5 26.5q-14 -2 72 -2h57q25 0 46 -16q31 -33 63 -70q10 -18 16.5 -26t38.5 -41q23 -37 41 -60q31 -37 31 -53q0 -41 -51 -41q-2 0 -19 2h-18h-29q-23 -2 -28 -2q-2 0 -19 2h-19h-18q-12 -2 -16 -2q-18 0 -44 35t-52 35q-25 0 -41 -27 q-25 -43 -49 -43q-2 0 -17.5 2t-17.5 2h-15q-10 -2 -16 -2h-74q-53 0 -53 29z" />
<glyph unicode="&#xfc;" d="M70 762q-2 39 2 78v75v21q-2 18 -2 20q0 59 39 70h49q6 0 18 2h19q12 2 36 2h27q-4 0 10 -2h11q4 0 28.5 3t28.5 3q23 0 31 -6q31 -31 30 -70q0 -4 -2 -28.5t-2 -30.5q0 -4 2 -29.5t2 -29.5q0 -6 -4 -47t-4 -50q0 -4 2 -32.5t2 -34.5q0 -10 -2 -30.5t-2 -33.5q0 -4 2 -26 v-27v-24q-2 -23 -2 -27q0 -90 27 -141q31 -57 98 -58q45 0 74 17q35 25 47 61q10 29 20 57q0 2 3.5 41t3.5 41v21q-2 16 -3 18q0 8 3 21v18v55q0 23 3 66t3 63q0 10 -4.5 73t-4.5 75q0 88 68 88h59q25 0 33 4h29q23 -2 26 -2q4 0 28 2t28 2q25 0 39 -22.5t14 -69.5 q0 -4 2 -33v-33q0 -4 -2 -33.5t-2 -35.5q0 -12 2 -40t2 -42v-72q0 -6 2 -41v-41t-2 -38.5t-2 -41.5q0 -12 2 -38v-39q0 -6 -2 -46t-2 -49q0 -14 2 -39q2 -33 2 -40v-82q2 -43 2 -48q0 -61 -21.5 -83.5t-74.5 -22.5q-6 0 -45 2h-47q-4 0 -37 -2t-39 -2q-41 0 -53 25 q-2 10 -10.5 24t-16.5 14t-18 -10q-78 -59 -183 -59q-88 0 -143 16q-29 10 -68 31q-8 4 -47 43q-16 12 -24 20q-88 74 -88 252q0 74 2 111t2 31v24q-2 16 -2 23q0 10 2 26v25q0 4 -2 25.5t-2 25.5q0 2 2 17v18v2q0 -10 -4 80zM141 1352q0 29 18.5 45t36.5 16h27q0 -2 2 -2h8 l35 2l35 2h29q23 -2 26 -2q6 0 37 2t35 2q39 0 39 -43v-33q0 -2 2 -20v-19.5v-19.5q-2 -16 -2 -20q0 -2 2 -19v-17v-20q-2 -16 -2 -20v-21q0 -35 -37 -39h-62q-6 0 -43.5 -2t-46.5 -2q-2 0 -20 2h-22.5h-24.5q-18 -2 -23 -2q-33 0 -47 29q2 -10 2 39q0 10 -2 78.5t-2 83.5z M573 1290q0 2 2 22.5t2 24.5q0 2 -2 17.5t-2 19.5q0 45 41 45q4 0 27.5 -2t27.5 -2q10 0 33 2h31.5h34.5q20 -2 30 -2q4 0 25 2h25q20 0 41 -18q12 -10 12 -35q0 -2 2 -12v-13v-59q0 -2 -2 -22.5t-2 -24.5v-37q0 -72 -41 -72q-2 0 -17 2h-18h-25q-20 -2 -24 -2h-47 q-6 0 -39 2h-37h-29q-41 0 -45 37v60q0 4 -2 32.5t-2 34.5z" />
<glyph unicode="&#xfd;" horiz-adv-x="937" d="M16 967q0 51 33 59h35q-12 0 20 2q41 4 66 4q6 0 34.5 -2t33.5 -2q4 0 22 2h21q8 0 27.5 -5t24.5 -9t11 -17q33 -74 55 -139q10 -33 29 -100q29 -86 57 -187q0 -20 15 -20q6 0 10 10q27 53 55 217q2 14 4 39q16 33 17 68q6 12 14 35l6 18q6 39 25 66q14 20 67 20 q2 0 21.5 2t23.5 2h9q8 -2 16 -3t20 -1q4 0 29 2h29q2 0 17.5 2t19.5 2q49 0 49 -76q0 -23 -12 -67q-6 -25 -41 -131q-6 -20 -29 -76q-10 -23 -26.5 -78t-61.5 -194q-8 -20 -57 -146l-6.5 -19.5t-6.5 -21.5q-8 -16 -22 -47q-4 -12 -15 -35q-31 -76 -69 -118q-57 -66 -78 -76 q-74 -39 -143 -51q-45 -6 -156 -7q-57 0 -88 13q-37 14 -43 53q-4 12 -4 14t2 18.5t2 18.5v25q-2 16 -2 24v49v19q-2 14 -2 16q0 72 76 72q18 0 129 -10q35 -2 34 28q0 14 -22 60q0 2 -2 7t-4 7q-10 45 -70 170q-4 12 -16 33q-16 49 -43 117q-16 29 -47 90q-12 33 -31 78 q-10 16 -27 55q-4 16 -14 49q-20 51 -21 72zM331 1153q0 20 15 41q6 15 6 27v4l10 20q2 4 13 68q0 6 5 18t7 22.5t4 30.5q12 35 37 35q2 0 17.5 -2t19.5 -2q14 0 108 4q4 0 22.5 -2t20.5 -2q6 0 33 3t29 3q37 -6 36 -39q0 -29 -16 -55q-6 -8 -15 -25.5t-26 -46.5 q-8 -10 -18 -20q-2 -2 -6.5 -9t-6.5 -12q-12 -16 -30 -43q-2 -8 -11 -24q-16 -31 -84 -31h-30q-25 -2 -31 -2q-4 0 -33 2h-32q-43 0 -44 37z" />
<glyph unicode="&#xfe;" horiz-adv-x="1193" d="M68 225q0 6 3 50.5t3 52.5v51q-2 43 -2 51q0 45 2 92q0 6 2 47q0 6 -2 38t-2 36q0 6 2 31v31q0 14 -4 100v31q2 27 2 30v37q-2 31 -2 37v29q0 12 4 39.5t4 42.5q0 6 -4 44t-4 46t2 28v31q0 12 2 37q2 14 4 31v12q-2 8 -2 10q0 14 -2 38t-2 38q0 31 31.5 53.5t60.5 22.5 q4 0 32.5 -2t34.5 -2q4 0 27 2t27 2q2 0 32.5 -2t32.5 -2q23 -4 41 -31q10 -14 10 -37q0 -4 2.5 -27.5t2.5 -27.5q0 -6 -2.5 -76t-2.5 -84q0 -2 2 -22v-25q0 -4 -3 -34t-3 -36q0 -20 9 -34q16 -23 40 -23q8 0 48 14q10 6 30.5 16.5t30.5 14.5q31 10 98 16q49 4 54 5 q86 0 157 -41q16 -8 38 -19.5t67 -34.5q47 -47 94 -96q45 -55 74 -166q8 -23 20 -69q6 -20 6 -66q0 -18 -4 -49q-4 -37 -4 -51q0 -27 -2 -68q-16 -119 -88 -219q-31 -41 -85 -85t-108 -67q-84 -35 -145 -34q-6 0 -42 2t-42 2q-2 0 -18 -2h-21q-12 0 -65 14q-61 16 -70 16 q-49 0 -63 -30q-8 -18 -9 -74q0 -4 3 -27.5t3 -27.5q0 -25 -22.5 -42.5t-48.5 -17.5q-12 0 -39 2t-39 2h-45h-27q-23 2 -26 2h-33q-51 0 -51 62q0 4 2 33v32.5v44.5q-2 41 -2 50q0 6 2 43.5t2 46.5q0 8 -4 56t-4 56zM391 483q0 -84 29 -118q4 -4 10 -13.5t45 -36.5 q6 -2 18.5 -6t16.5 -8q14 -6 45 -18q14 -6 55 -7q45 0 103 15q49 33 49 35q39 29 65 88q18 43 19 100q0 18 -15.5 64.5t-25.5 64.5q-18 29 -57 55q-54 37 -142 37q-55 0 -112 -33q-49 -27 -70 -55q-33 -47 -33 -164z" />
<glyph unicode="&#xff;" horiz-adv-x="937" d="M16 967q0 51 33 59h35q-12 0 20 2q41 4 66 4q6 0 34.5 -2t33.5 -2q4 0 22 2h21q8 0 27.5 -5t24.5 -9t11 -17q33 -74 55 -139q10 -33 29 -100q29 -86 57 -187q0 -20 15 -20q6 0 10 10q27 53 55 217q2 14 4 39q16 33 17 68q6 12 14 35l6 18q6 39 25 66q14 20 67 20 q2 0 21.5 2t23.5 2h9q8 -2 16 -3t20 -1q4 0 29 2h29q2 0 17.5 2t19.5 2q49 0 49 -76q0 -23 -12 -67q-6 -25 -41 -131q-6 -20 -29 -76q-10 -23 -26.5 -78t-61.5 -194q-8 -20 -57 -146l-6.5 -19.5t-6.5 -21.5q-8 -16 -22 -47q-4 -12 -15 -35q-31 -76 -69 -118q-57 -66 -78 -76 q-74 -39 -143 -51q-45 -6 -156 -7q-57 0 -88 13q-37 14 -43 53q-4 12 -4 14t2 18.5t2 18.5v25q-2 16 -2 24v49v19q-2 14 -2 16q0 72 76 72q18 0 129 -10q35 -2 34 28q0 14 -22 60q0 2 -2 7t-4 7q-10 45 -70 170q-4 12 -16 33q-16 49 -43 117q-16 29 -47 90q-12 33 -31 78 q-10 16 -27 55q-4 16 -14 49q-20 51 -21 72zM86 1352q0 29 18.5 45t36.5 16h27q0 -2 2 -2h8l35 2l35 2h29q23 -2 26 -2q6 0 37 2t35 2q39 0 39 -43v-33q0 -2 2 -20v-19.5v-19.5q-2 -16 -2 -20q0 -2 2 -19v-17v-20q-2 -16 -2 -20v-21q0 -35 -37 -39h-62q-6 0 -43.5 -2 t-46.5 -2q-2 0 -20 2h-22.5h-24.5q-18 -2 -23 -2q-33 0 -47 29q2 -10 2 39q0 10 -2 78.5t-2 83.5zM518 1290q0 2 2 22.5t2 24.5q0 2 -2 17.5t-2 19.5q0 45 41 45q4 0 27.5 -2t27.5 -2q10 0 33 2h31.5h34.5q20 -2 30 -2q4 0 25 2h25q20 0 41 -18q12 -10 12 -35q0 -2 2 -12 v-13v-59q0 -2 -2 -22.5t-2 -24.5v-37q0 -72 -41 -72q-2 0 -17 2h-18h-25q-20 -2 -24 -2h-47q-6 0 -39 2h-37h-29q-41 0 -45 37v60q0 4 -2 32.5t-2 34.5z" />
<glyph unicode="&#x152;" horiz-adv-x="1921" d="M47 774q0 47 41 199q51 188 174 307q78 74 166 117q143 68 309 67q94 0 217 -10q98 -8 99 -8q4 0 21.5 2t27.5 2q25 2 49 2q109 0 139 -2q59 -4 72 -4l37 2l37 2h57q6 0 36 2t34 2h22q14 -2 23 -2q4 0 20 2h21.5h25.5q23 -2 27 -2q6 0 35.5 2t34.5 2q16 0 32 -12 q31 -23 31 -55v-70q0 -6 2 -51v-54q0 -72 -84 -71h-160q-23 -4 -55 -2h-25q-25 -2 -26 -2q-4 0 -34 2t-36 2q-78 0 -100.5 -20.5t-22.5 -78.5q0 -80 11.5 -102t35.5 -37q10 -6 115 -6h17q14 0 45 2h38q4 0 19 2h18q4 0 28 -3t28 -3t18 2h16q4 0 21.5 2t19.5 2h48 q27 0 49 -26.5t22 -53.5v-14q-2 -10 -2 -14q-2 -29 -2 -58q0 -6 2 -41v-43q0 -63 -84 -63q-4 0 -28 2h-30h-30q-25 -2 -29 -2h-47q-35 -2 -49 -2q-8 0 -64.5 4t-68.5 4q-31 0 -61 -12q-55 -23 -56 -115q0 -14 4 -39v-43q0 -41 50 -61q43 -8 63 -9q4 0 37 2h39h35 q31 -2 34 -2q14 0 39 2h39h33q27 -2 33 -2q2 0 24.5 2.5t26.5 2.5h47q51 0 72.5 -28t21.5 -56v-150q0 -41 -4 -51q-16 -41 -61 -41q-25 0 -57.5 2t-63.5 2h-137q-4 0 -33 2h-33h-47q-33 -2 -47 -2q-113 0 -98 2h-129q-98 0 -168 -6q-160 -14 -209 -14q-17 0 -31 2h-63 q-53 0 -59.5 2t-16.5 4t-17 2h-12t-14 1t-25 5q-76 18 -102 27q-39 12 -80 36q-104 61 -166 132q-47 53 -96 139q-12 20 -37 82q-37 127 -37 260v49q-2 43 -2 51zM399 715q2 -35 2 -39q0 -27 1 -40t16 -69q16 -63 31 -96q23 -49 55 -88q43 -49 110 -74q47 -16 125 -16 q59 0 119 32.5t88 110.5q11 56 21 119v53q0 6 2 43t2 45q0 35 -4 92q-4 68 -4 95q-2 76 -23 127q-53 133 -205 133q-88 0 -149 -35q-39 -23 -78 -61q-4 -6 -21 -33q-10 -12 -26 -39q-55 -90 -62 -223v-37z" />
<glyph unicode="&#x153;" horiz-adv-x="1792" d="M31 547q0 86 26 147l58 131q18 33 80.5 91.5t109.5 80.5q31 14 102.5 33t110.5 19h29q20 -2 28 -2h29q133 0 250 -78q12 -10 41 -29q18 -12 29 -12q8 0 30 20q63 59 136 78q66 25 178 25q133 0 225 -52q53 -29 90 -63q55 -51 92 -119q72 -133 72 -278q0 -72 -23.5 -104 t-89.5 -34q-2 0 -32.5 -2t-34.5 -2q-8 0 -25 2h-23.5h-31.5q-25 -2 -31 -2q-39 2 -37 2h-63q-4 0 -25 2h-29h-24q-18 -2 -29 -2q-4 0 -33.5 3.5t-35.5 3.5h-25q-20 -2 -25 -3q-20 0 -20 -22q0 2 14 -37q18 -27 43 -39q41 -29 123 -29h60q53 -2 63 -2q82 0 166 21 q92 23 119 22q37 0 37 -59q0 -6 -4.5 -44t-4.5 -46q0 -2 3 -14v-15q0 -41 -19 -59q-4 -8 -39 -30.5t-153 -47.5q-61 -12 -222 -22q-25 0 -82 8q-90 12 -112 18q-37 8 -76 29q-2 2 -53 31q-43 25 -55 24q-6 0 -19.5 -13.5t-32.5 -23.5q-43 -23 -114 -47q-61 -27 -195 -26 q-113 0 -174 20q-14 6 -43 18q-12 4 -35 15q-61 26 -88 53q-45 27 -84 90q-8 14 -35 74q-14 25 -32 57q-6 8 -11 49q-8 27 -14 78q-4 18 -8 55q-2 14 -2 58zM338 510q0 -78 51 -152q27 -39 73 -59t93 -20q41 0 68 4q72 12 118 45q68 49 68 155q0 57 -2 66q-10 109 -125 180 q-33 21 -90 21q-2 0 -34 -2.5t-34 -2.5q-59 -8 -95 -34.5t-63.5 -85t-27.5 -115.5zM1116 659q0 -23 37 -22q4 0 39 2t43 2q2 0 16.5 -2t18.5 -2t18 2h19h104q27 0 27 31q0 45 -31 73q-45 41 -102 41q-4 0 -35 -2q-45 -2 -56 -5t-34 -15q-63 -35 -64 -103z" />
<glyph unicode="&#x178;" horiz-adv-x="1236" d="M0 1407q0 41 51 41q14 0 25 -2h14q8 -2 10 -2t50 2l47 2h32q27 -2 31 -2q6 0 17.5 2t17.5 2q25 0 50.5 -10t49.5 -60q10 -25 31 -73q20 -37 57 -105q35 -84 84 -201q41 -76 60 -75q16 0 30 24q6 8 9 21l12 18q25 49 39 96q8 27 41 101q8 18 24.5 54t38.5 87q27 66 47 96 q23 25 70 25q-12 0 27 -2t135 -2q4 0 35.5 2t38.5 2q63 0 63 -27q0 -31 -31 -88q-10 -25 -35 -76q-6 -12 -18 -39.5t-35 -76.5q-35 -78 -98 -199q-12 -18 -37 -59q-6 -14 -18.5 -45t-20.5 -46.5t-22 -41.5q-20 -37 -45 -91q-6 -10 -15 -30q-68 -147 -67 -199q0 -4 2 -24v-27 q0 -6 -2 -43t-2 -45q0 -4 3 -39t3 -43v-41q-2 -35 -2 -43q0 -4 2 -28.5t2 -28.5q0 -27 -17.5 -48.5t-42.5 -21.5q-2 0 -20.5 3t-22.5 3q4 0 -41 -2h-71q-4 0 -40 -2t-42 -2q-29 0 -51 31q-18 25 -19 47q0 31 6 55v31q-2 25 -2 28q0 6 3 41t3 41q0 -4 -4 43q-2 10 -2 35v72 q-2 12 -6 41q0 16 -6 49q-6 12 -18 39q-4 12 -15 33l-18 37q-20 49 -58 133q-12 20 -34 61q-10 25 -33 74q-14 25 -43 76q-18 35 -49 108q-14 27 -43 78q-10 25 -31 70q-37 76 -53 102q-2 2 -7.5 12.5t-11.5 26.5q-12 25 -12 45zM211 1767q0 63 59 64q4 0 21.5 -2t19.5 -2 q4 0 31 2t31 2h35q2 0 18 -2t20 -2t15 2h12q10 2 53 2q25 0 30 -13.5t5 -56.5q0 -2 2 -20v-21.5v-19.5q-2 -16 -2 -21q0 -6 2 -20v-23v-2v-26q-2 -18 -2 -27q0 -25 -18 -37q-10 -6 -72 -4q-94 -2 -86 -2q-4 0 -37 2h-39q-4 0 -28.5 -3t-28.5 -3q-39 0 -39 43v137v27 q-2 23 -2 26zM668 1706q0 2 2 23.5t2 25.5q0 2 -2 16.5t-2 18.5q0 39 41 43q4 0 26.5 -2t26.5 -2h92h35q29 -2 33 -2q2 0 20 2h23q14 0 30 -8q10 -8 23 -25v-108q0 -4 -2 -34t-2 -36q0 -2 2 -14v-15q0 -53 -41 -53q-6 0 -18.5 2t-16.5 2q-2 0 -15.5 -2t-15.5 -2t-6 2h-6 q-14 0 -86 2h-92q-43 0 -47 33v57q0 4 -2 37t-2 39z" />
<glyph unicode="&#x2c6;" horiz-adv-x="598" d="M0 1149q0 12 39 59q23 25 43 49q10 20 35 60q35 35 44 48t26.5 35.5t43.5 26.5q-14 -2 72 -2h57q25 0 46 -16q31 -33 63 -70q10 -18 16.5 -26t38.5 -41q23 -37 41 -60q31 -37 31 -53q0 -41 -51 -41q-2 0 -19 2h-18h-29q-23 -2 -28 -2q-2 0 -19 2h-19h-18q-12 -2 -16 -2 q-18 0 -44 35t-52 35q-25 0 -41 -27q-25 -43 -49 -43q-2 0 -17.5 2t-17.5 2h-15q-10 -2 -16 -2h-74q-53 0 -53 29z" />
<glyph unicode="&#x2dc;" horiz-adv-x="598" d="M-4 1192l6 59q4 47 21 82q35 72 104 72h20q2 0 13 2h12q37 0 80 -16q10 -4 27.5 -10.5t50.5 -16.5q66 -27 84 -27q35 0 47 29q2 6 7 19.5t30 13.5h53q53 0 53 -51q-6 -59 -26 -146q-33 -70 -119 -69q-41 0 -86 12l-70 24q-31 8 -74 21q-33 10 -36 10q-33 0 -46 -29 q-2 -6 -6 -14q-10 -18 -45 -18q-2 0 -14 2t-16 2h-11q-6 -2 -10 -2q-49 0 -49 51z" />
<glyph unicode="&#x2000;" horiz-adv-x="932" />
<glyph unicode="&#x2001;" horiz-adv-x="1864" />
<glyph unicode="&#x2002;" horiz-adv-x="932" />
<glyph unicode="&#x2003;" horiz-adv-x="1864" />
<glyph unicode="&#x2004;" horiz-adv-x="621" />
<glyph unicode="&#x2005;" horiz-adv-x="466" />
<glyph unicode="&#x2006;" horiz-adv-x="310" />
<glyph unicode="&#x2007;" horiz-adv-x="310" />
<glyph unicode="&#x2008;" horiz-adv-x="233" />
<glyph unicode="&#x2009;" horiz-adv-x="372" />
<glyph unicode="&#x200a;" horiz-adv-x="103" />
<glyph unicode="&#x2010;" horiz-adv-x="598" d="M59 537q0 78 7 94q12 33 57 43h45q4 0 27.5 2t29.5 2q4 0 27.5 -3t30.5 -3q2 0 22.5 2t24.5 2t30.5 -2t32.5 -2t41 2h41q41 0 53 -37q8 -16 9 -115q0 -4 -2.5 -24.5t-2.5 -24.5q0 -29 -2 -43q-8 -55 -65 -55q-2 0 -16 2h-20.5h-22.5q-16 -2 -23 -2q-4 0 -33 2h-32h-31 q-25 -2 -31 -2q-10 0 -31 2h-32q-4 0 -31 -2t-31 -2q-51 0 -63 49q-8 35 -9 115z" />
<glyph unicode="&#x2011;" horiz-adv-x="598" d="M59 537q0 78 7 94q12 33 57 43h45q4 0 27.5 2t29.5 2q4 0 27.5 -3t30.5 -3q2 0 22.5 2t24.5 2t30.5 -2t32.5 -2t41 2h41q41 0 53 -37q8 -16 9 -115q0 -4 -2.5 -24.5t-2.5 -24.5q0 -29 -2 -43q-8 -55 -65 -55q-2 0 -16 2h-20.5h-22.5q-16 -2 -23 -2q-4 0 -33 2h-32h-31 q-25 -2 -31 -2q-10 0 -31 2h-32q-4 0 -31 -2t-31 -2q-51 0 -63 49q-8 35 -9 115z" />
<glyph unicode="&#x2012;" horiz-adv-x="598" d="M59 537q0 78 7 94q12 33 57 43h45q4 0 27.5 2t29.5 2q4 0 27.5 -3t30.5 -3q2 0 22.5 2t24.5 2t30.5 -2t32.5 -2t41 2h41q41 0 53 -37q8 -16 9 -115q0 -4 -2.5 -24.5t-2.5 -24.5q0 -29 -2 -43q-8 -55 -65 -55q-2 0 -16 2h-20.5h-22.5q-16 -2 -23 -2q-4 0 -33 2h-32h-31 q-25 -2 -31 -2q-10 0 -31 2h-32q-4 0 -31 -2t-31 -2q-51 0 -63 49q-8 35 -9 115z" />
<glyph unicode="&#x2013;" d="M55 440q0 10 2 31t2 31v76q0 53 9 69q10 25 51 25h26q16 -2 25 -2q2 0 23 2h24q12 0 34.5 -2t33.5 -2q2 0 24 2h27h24q2 0 17 2h16q6 0 38 -3t38 -3q8 0 51 2t49 2h29q25 -2 29 -2q12 0 37 2h34q6 0 42 -2t42 -2q8 0 57.5 3t59.5 3h31q25 -2 31 -2q45 0 45 -54 q0 -2 -3.5 -20t-3.5 -23q0 -14 2 -22q4 -121 5 -119q0 -43 -35 -49q-8 -4 -43 -4q-2 0 -15.5 2t-17.5 2h-45h-23q-18 -2 -22 -2q-6 0 -45 4t-47 4t-55.5 -4t-55.5 -4t-60.5 3t-62.5 3q-31 0 -48 -3t-23 -3q-12 0 -15.5 1t-27.5 3h-62q-4 0 -32.5 -3t-34.5 -3q-4 0 -32 4 t-34 4h-39q-33 -2 -39 -2q-37 0 -37 55z" />
<glyph unicode="&#x2014;" horiz-adv-x="1236" d="M59 440q0 10 2 31v31v76q0 53 9 69q10 25 51 25h26q16 -2 25 -2q2 0 23 2h24q12 0 34.5 -2t33.5 -2q2 0 24.5 2t26.5 2q27 -2 24 -2q2 0 17 2h18t36 -3t38 -3q10 0 68.5 3t70.5 3q27 0 78 -2t76 -2q8 0 49 2h47q8 0 49 -2t47 -2q8 0 56.5 3t58.5 3h31q25 -2 31 -2 q45 0 45 -54q0 -2 -3.5 -20t-3.5 -23q0 -4 3 -10v-12q4 -121 4 -119q0 -43 -35 -49q-2 -2 -21 -2h-10q-6 -2 -10 -2t-17.5 2t-15.5 2h-47h-21q-18 -2 -22 -2q-6 0 -45 4t-47 4q-4 0 -28.5 -2t-29.5 -2q-57 -4 -79 -4q-43 0 -129 3t-129 3q-37 0 -56.5 -3t-25.5 -3 q-12 0 -15.5 1t-27.5 3h-62q-4 0 -32.5 -3t-34.5 -3q-4 0 -32 4t-34 4h-39q-33 -2 -39 -2q-35 0 -35 55z" />
<glyph unicode="&#x2018;" horiz-adv-x="425" d="M55 1071q0 61 10.5 100t22.5 82q8 18 23 54l35 63q36 62 40 66q14 14 54 14q10 0 28.5 -2t26.5 -2q2 0 16 2h17q29 0 28 -31q0 -10 -12 -26q-20 -20 -41 -68q-6 -12 -17.5 -37.5t-11.5 -42.5q0 -41 48 -43q29 -2 38 -15.5t11 -62.5v-75q-2 -72 -2 -78v-39q0 -18 -19 -37 q-16 -8 -45 -8q-4 0 -14 2h-17q-4 0 -34.5 -3t-36.5 -3q8 0 -51 4q-18 0 -60 4q-14 4 -33 33q-4 12 -4 149z" />
<glyph unicode="&#x2019;" horiz-adv-x="425" d="M49 1188q0 20 4 33v12q-2 6 -2 10q0 18 3 60.5t3 62.5v16q-2 15 -2 17q0 39 37 43q31 4 88 4q14 2 47 4q4 0 23.5 -2t23.5 -2q2 0 14.5 2t16.5 2q41 0 41 -64v-96q0 -4 2 -35v-34v-11q-2 -31 -14 -75q-18 -43 -51 -111q-14 -18 -23 -35q-20 -41 -59 -41q-68 0 -86 6 q-27 0 -27 27q0 8 12 29q47 63 47 116q0 31 -53 31q-45 0 -45 31z" />
<glyph unicode="&#x201a;" horiz-adv-x="425" d="M53 143q0 2 2 24.5t2 27.5v38q-2 33 -2 39q0 35 43 45h52q12 0 37.5 3.5t37.5 3.5q4 0 29 -3.5t29 -3.5q2 0 12 2h12q8 -2 27 -6q8 0 22.5 -14t14.5 -193q0 -39 -13 -79q-6 -18 -10 -36t-10 -42q-6 -8 -14 -27q-2 -10 -11 -31q-27 -45 -61 -104q-16 -33 -62 -33 q-4 0 -27.5 2t-29.5 2q-2 0 -16 -2h-17q-31 0 -30 35q0 6 16 27q25 31 45.5 80t20.5 65q0 37 -31 37q-55 0 -61.5 31.5t-6.5 111.5z" />
<glyph unicode="&#x201c;" horiz-adv-x="894" d="M86 1071q0 57 12 107q6 29 23 82q2 4 6 11t6 11q4 12 10 27q16 33 39 71q31 51 41 60.5t47 9.5q10 0 29.5 -2t28.5 -2q2 0 16 2h16q18 0 27 -31q0 -6 -25 -43q-29 -47 -28 -47q-4 -12 -15 -39q-14 -33 -14 -43q0 -43 51 -45q16 0 24.5 -4t14.5 -18q14 -29 6 -156v-90 q0 -31 -26 -39q-18 -6 -74 -6q-4 0 -32.5 -3t-35.5 -3q-31 0 -49 6h-30q-66 0 -66 57v82q-2 14 -2 45zM487 1063q0 70 11.5 109.5t21.5 80.5q8 20 23 54q12 23 37 65q10 14 28 49q16 29 62 29q10 0 28.5 -2t26.5 -2q4 0 18 2h17q29 0 28 -29q0 -6 -14 -30l-18 -30 q-19 -30 -21 -32q-29 -68 -28 -84q0 -27 10 -35q27 -2 61 -10q27 -12 27 -139q0 -4 -2 -26.5t-2 -26.5q0 -6 2 -37v-39q0 -43 -92 -43h-29q-49 -6 -47 -6q-4 0 -25.5 3t-25.5 3h-31q-61 0 -64 59q-2 70 -2 117z" />
<glyph unicode="&#x201d;" horiz-adv-x="894" d="M84 1249q0 6 2 54v57v20q-2 16 -2 19q0 41 49 45h49q6 0 35 4q8 0 21 2h14q6 0 41 -3t43 -3q57 0 61 -45q2 -25 2 -115q0 -88 -24 -178q-12 -45 -33 -86q-2 -4 -23 -35l-12 -24q-2 -2 -13 -21.5t-13 -24.5q-16 -33 -62 -32q-2 0 -24.5 2t-26.5 2h-18q-16 -2 -19 -2 q-33 0 -33 33q0 2 2 6q0 -4 17 24q8 14 24 41q39 55 39 109q0 29 -33 30q-43 4 -53 20.5t-10 100.5zM481 1264q0 8 2 19t2 20v77q0 37 10.5 49.5t47.5 14.5h41q6 0 35.5 3t33.5 3t29 -3t29 -3t12 2h12q25 0 42.5 -8t20.5 -36t3 -136q0 -66 -13 -109q-4 -12 -11 -37.5 t-25 -75.5q-8 -25 -15 -34q-10 -18 -28 -52q-12 -18 -31 -47q-10 -29 -64 -28q-4 0 -26 2h-27h-16q-12 -2 -15 -2q-31 0 -30 35q0 10 18 30q4 6 25 41q39 66 39 107q0 33 -52 32q-31 0 -40 30t-9 106z" />
<glyph unicode="&#x201e;" horiz-adv-x="894" d="M84 141q0 4 2 27t2 29v36q-2 33 -2 39q0 45 64 45h34q23 0 31 1t20.5 3.5t20.5 2.5q12 -2 24.5 -4.5t55.5 -2.5q66 0 65 -65v-139q0 -37 -10 -84q-8 -35 -22 -80q-8 -18 -23 -53q-8 -14 -22 -39l-13 -25q-2 -4 -13 -22.5t-13 -20.5q-16 -35 -66 -35q-4 0 -27.5 2t-29.5 2 q-2 0 -15 -2h-14q-31 0 -31 35q0 10 17.5 29.5t41 73t23.5 69.5q0 39 -49 39q-23 2 -31 8q-14 10 -16 45q-4 63 -4 86zM485 111v53q2 49 2 55v53q0 45 86 45q6 0 41 2.5t41 2.5q-4 0 64 -7h18q57 0 62 -45q2 -20 2 -112q0 -76 -10 -127q-2 -4 -25 -86q-4 -8 -12 -27 q-6 -25 -43 -84q-16 -29 -34 -55.5t-56 -26.5q-4 0 -29 2t-29 2q-2 0 -16 -2h-17q-29 0 -28 35q0 8 16.5 28.5t41 74t24.5 71.5q0 37 -33 37q-43 0 -53.5 17.5t-12.5 93.5z" />
<glyph unicode="&#x2022;" horiz-adv-x="681" d="M25 721q0 129 93 224t228 95q127 0 217 -84q96 -92 96 -235q0 -135 -87 -226.5t-224 -91.5q-145 0 -237 101q-86 94 -86 217z" />
<glyph unicode="&#x2026;" horiz-adv-x="2048" d="M180 164q0 6 3 50t3 52q0 57 37 58q2 0 21.5 -2.5t23.5 -2.5t33 3.5t35 3.5q4 0 35.5 -3.5t38.5 -3.5q2 0 16 3h18q45 0 56 -23q4 -10 2 -55v-43q2 -39 2 -43t-2 -32t-2 -34q0 -2 2 -19.5t2 -21.5q0 -51 -51 -51q-2 0 -21.5 2t-23.5 2q-6 0 -45 -2t-48 -2q-4 0 -30 2h-31 h-14q-12 -2 -15 -2q-39 0 -43 39v24v50q-2 43 -2 51zM862 164q0 6 3 50t3 52q0 57 37 58q2 0 21.5 -2.5t23.5 -2.5t33 3.5t35 3.5q4 0 35.5 -3.5t38.5 -3.5q2 0 16 3h18q45 0 56 -23q4 -10 2 -55v-43q2 -39 2 -43t-2 -32t-2 -34q0 -2 2 -19.5t2 -21.5q0 -51 -51 -51 q-2 0 -21.5 2t-23.5 2q-6 0 -45 -2t-48 -2q-4 0 -30 2h-31h-14q-12 -2 -15 -2q-39 0 -43 39v24v50q-2 43 -2 51zM1544 164q0 6 3 50t3 52q0 57 37 58q2 0 21.5 -2.5t23.5 -2.5t33 3.5t35 3.5q4 0 35.5 -3.5t38.5 -3.5q2 0 16 3h18q45 0 56 -23q4 -10 2 -55v-43q2 -39 2 -43 t-2 -32t-2 -34q0 -2 2 -19.5t2 -21.5q0 -51 -51 -51q-2 0 -21.5 2t-23.5 2q-6 0 -45 -2t-48 -2q-4 0 -30 2h-31h-14q-12 -2 -15 -2q-39 0 -43 39v24v50q-2 43 -2 51z" />
<glyph unicode="&#x202f;" horiz-adv-x="372" />
<glyph unicode="&#x2039;" horiz-adv-x="382" d="M39 446q0 8 2 64v65v29q-2 25 -2 31q0 20 5 27.5t44 33.5q14 12 41 35q55 47 109 100l18 25q18 18 33 18q31 0 35 -43v-47q0 -6 -2.5 -31.5t-2.5 -29.5t2.5 -36t2.5 -38q0 -49 -39 -71q-12 -6 -37 -25q-14 -6 -15 -16q0 -18 41 -33q45 -23 45 -58v-45q-2 -37 -2 -45 q0 -6 4.5 -48t4.5 -50q0 -37 -33 -41q-12 0 -34.5 19.5t-63.5 52.5q-53 45 -104.5 82t-51.5 75z" />
<glyph unicode="&#x203a;" horiz-adv-x="382" d="M57 844q0 37 33 37q14 0 33 -19q37 -33 104 -86q12 -10 41 -31q53 -39 65.5 -52t12.5 -40q0 -6 -2 -60t-2 -63q0 -4 2 -30.5t2 -32.5q0 -29 -33 -51q-49 -33 -102 -86l-25 -25l-39 -39q-35 -43 -51 -43q-37 0 -37 56q0 6 2 39.5t2 41.5v33q-2 23 -2 33q0 49 7.5 67.5 t45.5 39t38 30.5q0 8 -35 27.5t-35 21.5q-18 10 -19 43q0 4 3 29v27q0 61 -4.5 91t-4.5 42z" />
<glyph unicode="&#x205f;" horiz-adv-x="466" />
<glyph unicode="&#x2122;" horiz-adv-x="1409" d="M2 1309v137h586v-137h-205v-543h-172v543h-209zM643 766v680h217l156 -492l145 492h219v-680h-168l9 362q2 68 12 140q-8 -35 -29 -111l-114 -391h-154l-121 393q-14 45 -29 105q6 -33 15 -136l8 -362h-166z" />
<glyph unicode="&#x25fc;" horiz-adv-x="1034" d="M0 0v1034h1034v-1034h-1034z" />
</font>
</defs>
</svg>
